<svg width="25" height="30" viewBox="0 0 25 30" fill="none" xmlns="http://www.w3.org/2000/svg">
<path d="M7.57656 22.0461L8.28536 22.2912C8.36794 22.0525 8.32478 21.7882 8.17053 21.5881L7.57656 22.0461ZM1.04167 25.8327H0.291672C0.291672 26.2469 0.627458 26.5827 1.04167 26.5827L1.04167 25.8327ZM17.4234 22.0461L16.8295 21.5881C16.6752 21.7882 16.6321 22.0525 16.7147 22.2912L17.4234 22.0461ZM23.9583 25.8327V26.5827C24.3726 26.5827 24.7083 26.2469 24.7083 25.8327H23.9583ZM14.875 12.291C14.875 13.6027 13.8117 14.666 12.5 14.666V16.166C14.6401 16.166 16.375 14.4311 16.375 12.291H14.875ZM12.5 14.666C11.1883 14.666 10.125 13.6027 10.125 12.291H8.62501C8.62501 14.4311 10.3599 16.166 12.5 16.166V14.666ZM10.125 12.291C10.125 10.9793 11.1883 9.91602 12.5 9.91602V8.41602C10.3599 8.41602 8.62501 10.1509 8.62501 12.291H10.125ZM12.5 9.91602C13.8117 9.91602 14.875 10.9793 14.875 12.291H16.375C16.375 10.1509 14.6401 8.41602 12.5 8.41602V9.91602ZM5.50001 15.416C5.50001 16.1524 4.90305 16.7493 4.16667 16.7493V18.2493C5.73148 18.2493 7.00001 16.9808 7.00001 15.416H5.50001ZM4.16667 16.7493C3.43029 16.7493 2.83334 16.1524 2.83334 15.416H1.33334C1.33334 16.9808 2.60187 18.2493 4.16667 18.2493V16.7493ZM2.83334 15.416C2.83334 14.6796 3.43029 14.0827 4.16667 14.0827V12.5827C2.60187 12.5827 1.33334 13.8512 1.33334 15.416H2.83334ZM4.16667 14.0827C4.90305 14.0827 5.50001 14.6796 5.50001 15.416H7.00001C7.00001 13.8512 5.73148 12.5827 4.16667 12.5827V14.0827ZM22.1667 15.416C22.1667 16.1524 21.5697 16.7493 20.8333 16.7493V18.2493C22.3981 18.2493 23.6667 16.9808 23.6667 15.416H22.1667ZM20.8333 16.7493C20.097 16.7493 19.5 16.1524 19.5 15.416H18C18 16.9808 19.2685 18.2493 20.8333 18.2493V16.7493ZM19.5 15.416C19.5 14.6796 20.097 14.0827 20.8333 14.0827V12.5827C19.2685 12.5827 18 13.8512 18 15.416H19.5ZM20.8333 14.0827C21.5697 14.0827 22.1667 14.6796 22.1667 15.416H23.6667C23.6667 13.8512 22.3981 12.5827 20.8333 12.5827V14.0827ZM16.9583 23.7494V25.8327H18.4583V23.7494H16.9583ZM17.7083 25.0827H7.29167V26.5827H17.7083V25.0827ZM8.04167 25.8327V23.7494H6.54167V25.8327H8.04167ZM12.5 19.291C14.9623 19.291 16.9583 21.2871 16.9583 23.7494H18.4583C18.4583 20.4587 15.7907 17.791 12.5 17.791V19.291ZM12.5 17.791C9.20931 17.791 6.54167 20.4587 6.54167 23.7494H8.04167C8.04167 21.2871 10.0377 19.291 12.5 19.291V17.791ZM8.04167 23.7494C8.04167 23.2374 8.12765 22.7471 8.28536 22.2912L6.86777 21.8009C6.65624 22.4124 6.54167 23.0683 6.54167 23.7494H8.04167ZM1.79167 25.8327V24.2702H0.291672V25.8327H1.79167ZM1.79167 24.2702C1.79167 22.6709 3.08818 21.3743 4.68751 21.3743V19.8743C2.25975 19.8743 0.291672 21.8424 0.291672 24.2702H1.79167ZM4.68751 21.3743C5.62136 21.3743 6.45183 21.8156 6.9826 22.504L8.17053 21.5881C7.368 20.5472 6.10616 19.8743 4.68751 19.8743V21.3743ZM18.4583 23.7494C18.4583 23.0683 18.3438 22.4124 18.1322 21.8009L16.7147 22.2912C16.8724 22.7471 16.9583 23.2374 16.9583 23.7494H18.4583ZM24.7083 25.8327V24.2702H23.2083V25.8327H24.7083ZM24.7083 24.2702C24.7083 21.8424 22.7403 19.8743 20.3125 19.8743V21.3743C21.9118 21.3743 23.2083 22.6709 23.2083 24.2702H24.7083ZM20.3125 19.8743C18.8939 19.8743 17.632 20.5472 16.8295 21.5881L18.0174 22.504C18.5482 21.8156 19.3786 21.3743 20.3125 21.3743V19.8743ZM7.29167 25.0827H1.04167V26.5827H7.29167V25.0827ZM17.7083 26.5827H23.9583V25.0827H17.7083V26.5827Z" fill="#82D051"/>
</svg>
