<svg width="71" height="71" viewBox="0 0 71 71" fill="none" xmlns="http://www.w3.org/2000/svg">
<rect x="0.000976562" width="71" height="71" rx="15" fill="#82D051" fill-opacity="0.1"/>
<path d="M27.4515 35.5896C27.3217 35.9921 27.1476 36.3821 26.9315 36.7538C26.8549 36.8766 26.743 36.9789 26.6074 37.0501C26.4718 37.1213 26.3173 37.1588 26.16 37.1588C26.0027 37.1588 25.8482 37.1213 25.7126 37.0501C25.577 36.9789 25.4651 36.8766 25.3885 36.7538C25.1356 36.4066 25.001 36.0013 25.001 35.5871C25.001 35.1729 25.1356 34.7676 25.3885 34.4204C25.4678 34.2899 25.5861 34.1815 25.7301 34.1074C25.8741 34.0332 26.0383 33.9962 26.2045 34.0003C26.3706 34.0045 26.5323 34.0496 26.6715 34.1308C26.8106 34.212 26.922 34.3261 26.993 34.4604C27.1851 34.8231 27.3386 35.2012 27.4515 35.5896V35.5896Z" fill="#82D051"/>
<path d="M35.0582 60C27.1588 60 19.2608 60 11.3614 60C10.2582 60 10.0114 59.7734 10.0114 58.7571C10.0114 47.3625 10.0159 35.9679 10.001 24.5747C9.9995 23.963 10.2225 23.5876 10.786 23.2748C18.5903 18.9441 26.3886 14.6023 34.1765 10.248C34.7609 9.9213 35.2292 9.91574 35.8165 10.2411C43.5702 14.5467 51.3329 18.8412 59.1059 23.1191C59.7423 23.4694 60.001 23.8726 60.001 24.5733C59.9802 35.9331 59.9861 47.293 59.9861 58.6514C59.9861 59.6761 59.7452 59.8999 58.645 59.8999C50.7827 59.8999 42.922 59.8999 35.0597 59.8999C35.0582 59.9319 35.0582 59.9652 35.0582 60ZM19.5196 58.3039C19.4408 58.0411 19.3902 57.859 19.3307 57.6796C18.6676 55.6971 18.3152 53.6646 18.2989 51.5917C18.2632 47.3264 19.4497 43.3738 21.8836 39.755C22.6032 38.6859 23.3258 37.6181 24.0603 36.5282C23.1652 36.7951 22.679 36.3224 22.2419 35.6551C21.6323 34.7236 20.9484 33.8366 20.3046 32.9232C19.2713 31.4565 19.7262 29.8841 21.4123 29.0889C22.7207 28.4716 24.0186 27.8293 25.3523 27.2635C26.008 26.9854 26.4377 26.6184 26.6444 25.9663C26.8168 25.4214 27.0785 24.8986 27.3268 24.3773C27.7223 23.5473 28.3036 22.8202 29.1719 22.4198C30.9219 21.612 32.7299 20.9113 34.74 20.9642C36.1912 21.0017 37.5501 21.4299 38.8615 21.9721C41.6909 23.1413 44.0296 24.9528 45.9625 27.1481C52.9877 35.1254 55.316 44.2525 53.3311 54.368C53.0784 55.6568 52.6665 56.9178 52.3231 58.2149C54.2619 58.2149 56.2022 58.2149 58.199 58.2149C58.199 58.055 58.199 57.9202 58.199 57.7853C58.199 46.8592 58.1975 35.9317 58.2064 25.0057C58.2064 24.6915 58.1112 24.5135 57.8154 24.3495C50.3664 20.2412 42.9205 16.1274 35.4849 11.9984C35.1028 11.787 34.8471 11.8176 34.4858 12.0192C27.0934 16.1497 19.695 20.269 12.2907 24.38C11.9338 24.5775 11.7822 24.7763 11.7837 25.185C11.7985 36.0416 11.7956 46.8995 11.7956 57.7561C11.7956 57.9382 11.7956 58.1204 11.7956 58.3039C14.4049 58.3039 16.928 58.3039 19.5196 58.3039ZM22.8649 33.5002C23.1221 33.8616 23.3719 34.1661 23.5652 34.4998C23.7451 34.807 23.9711 34.871 24.3338 34.8376C26.6072 34.6319 28.882 34.4052 31.1613 34.2857C32.2065 34.2301 32.938 33.9993 33.2785 32.9802C33.4584 32.4408 34.0308 32.299 34.5022 32.527C34.9705 32.7536 35.1088 33.2124 34.8456 33.731C34.6077 34.2009 34.3401 34.6569 34.1037 35.1268C33.8926 35.548 33.5551 35.7371 33.057 35.7719C31.9315 35.8497 30.8104 35.9651 29.6433 36.068C29.6433 36.6561 29.6953 37.2136 29.6299 37.7586C29.557 38.3675 29.7667 38.7178 30.3896 38.9292C30.8922 39.1002 31.3486 39.3838 31.8378 39.5909C33.9684 40.4946 35.201 42.0239 35.5756 44.1774C35.6544 44.6292 35.7317 45.1339 35.9964 45.4968C36.8736 46.7021 37.0178 47.9158 36.3161 49.2213C36.2536 49.3381 36.209 49.5549 36.2774 49.6286C36.7859 50.1778 37.1175 50.8854 38.0066 51.0856C38.5165 51.1996 38.9983 51.4763 39.4532 51.7391C41.9005 53.1516 43.3517 55.1911 43.8274 57.8437C43.8542 57.9939 44.0549 58.233 44.1768 58.2344C46.2376 58.258 48.2983 58.2511 50.3694 58.2511C52.1447 53.3726 52.7097 48.4274 51.8874 43.3585C51.0667 38.2924 49.0447 33.6906 45.7766 29.5115C45.6904 30.2219 45.6949 30.8698 45.5254 31.4746C44.9589 33.4918 42.8506 34.7653 40.6323 34.4887C38.4868 34.2217 36.8394 32.4936 36.7874 30.4513C36.7651 29.5852 36.8171 28.7121 36.7205 27.8543C36.4989 25.8927 35.253 24.3717 34.0814 22.8327C33.9996 22.7256 33.7127 22.6658 33.561 22.7076C32.5143 23.0009 31.4631 23.2915 30.4432 23.6557C29.6819 23.9268 29.1883 24.5038 28.8805 25.2045C28.5653 25.926 28.2442 26.6448 27.9602 27.3775C27.7847 27.8307 27.4963 28.1351 27.0235 28.3395C26.1715 28.7079 25.3404 29.1195 24.5078 29.5087C24.8869 31.1979 24.3294 32.4978 22.8649 33.5002ZM35.079 50.8437C34.4129 51.2316 33.8762 51.6125 33.28 51.8795C30.9502 52.9236 28.0598 52.3424 26.3678 50.5267C25.9902 50.1222 25.9827 49.6495 26.347 49.3158C26.7113 48.9835 27.2093 48.9975 27.6435 49.3589C27.81 49.4979 27.9587 49.6537 28.1282 49.7885C28.9043 50.4127 29.8053 50.7395 30.8312 50.7325C32.7834 50.7186 34.013 49.5939 34.8248 48.2245C35.1564 47.6642 34.9675 47.0956 34.6003 46.5575C34.349 46.1905 34.1632 45.7762 34.013 45.3619C33.8836 45.0046 33.842 44.6181 33.7677 44.2441C33.4941 42.8525 32.6838 41.8404 31.3219 41.2106C30.3911 40.781 29.4663 40.3347 28.5296 39.9149C28.0539 39.7021 27.8368 39.3852 27.8516 38.8888C27.8739 38.1631 27.8576 37.436 27.8576 36.6602C26.3351 36.9522 25.2393 37.6974 24.4959 38.9069C24.2565 39.2976 24.035 39.6994 23.7703 40.0747C21.0406 43.9577 19.7887 48.2022 20.1529 52.8457C20.2972 54.6878 20.7417 56.4673 21.3855 58.2038C28.2858 58.2038 35.1534 58.2038 42.0299 58.2038C42.0299 58.1051 42.0343 58.0369 42.0284 57.9674C42.021 57.8812 42.012 57.7937 41.9912 57.7102C41.45 55.4955 40.1342 53.7966 37.9099 52.8721C36.7502 52.3911 35.6396 51.9629 35.079 50.8437ZM36.493 22.9244C36.4692 22.955 36.4454 22.9856 36.4216 23.0162C36.6848 23.4263 36.945 23.8378 37.2111 24.2466C37.9055 25.3115 38.3917 26.4501 38.4957 27.6972C38.5686 28.5759 38.5493 29.4615 38.5701 30.3443C38.6043 31.7776 39.758 32.8523 41.2597 32.8468C42.7554 32.8426 43.9345 31.7457 43.9166 30.3193C43.8929 28.4007 43.1524 26.7226 41.5526 25.5228C40.4509 24.697 39.1648 24.0797 37.9322 23.4166C37.4951 23.183 36.9747 23.0857 36.493 22.9244ZM21.8702 32.0432C22.624 31.6289 22.9734 30.9407 22.7296 30.354C21.4702 30.8642 21.2457 31.3063 21.8702 32.0432Z" fill="#82D051"/>
<path d="M42.1477 38.3333C42.5863 37.8842 42.9 37.5172 43.2643 37.1988C44.7303 35.9143 46.8996 35.9462 48.2704 37.2531C49.6234 38.5446 49.6264 40.5646 48.2347 41.8881C46.4654 43.5702 44.6693 45.2274 42.8777 46.8901C42.3648 47.367 41.9039 47.36 41.3835 46.8776C39.6068 45.226 37.827 43.5786 36.0667 41.9131C34.6497 40.5729 34.6423 38.5404 36.0191 37.2419C37.3988 35.9407 39.5681 35.9212 41.0281 37.2113C41.3894 37.5297 41.7091 37.8898 42.1477 38.3333ZM42.0659 45.1704C43.7743 43.6106 45.4722 42.1105 47.1018 40.5493C47.7292 39.9473 47.579 38.9644 46.9278 38.3861C46.2662 37.798 45.2403 37.7674 44.5504 38.3569C43.9616 38.8602 43.4204 39.4107 42.845 39.9279C42.3633 40.3602 41.9113 40.3602 41.4311 39.9279C40.9226 39.4705 40.4319 38.9964 39.9294 38.5335C39.1102 37.78 38.0352 37.7382 37.3081 38.4264C36.5885 39.1076 36.6287 40.0794 37.4256 40.8343C38.2329 41.6003 39.0537 42.3552 39.8684 43.1156C40.6133 43.8121 41.3582 44.51 42.0659 45.1704Z" fill="#82D051"/>
<path d="M32.4515 27.5896C32.3217 27.9921 32.1476 28.3821 31.9315 28.7538C31.8549 28.8766 31.743 28.9789 31.6074 29.0501C31.4718 29.1213 31.3173 29.1588 31.16 29.1588C31.0027 29.1588 30.8482 29.1213 30.7126 29.0501C30.577 28.9789 30.4651 28.8766 30.3885 28.7538C30.1356 28.4066 30.001 28.0013 30.001 27.5871C30.001 27.1729 30.1356 26.7676 30.3885 26.4204C30.4678 26.2899 30.5861 26.1815 30.7301 26.1074C30.8741 26.0332 31.0383 25.9962 31.2045 26.0003C31.3706 26.0045 31.5323 26.0496 31.6715 26.1308C31.8106 26.212 31.922 26.3261 31.993 26.4604C32.1851 26.8231 32.3386 27.2012 32.4515 27.5896V27.5896Z" fill="#82D051"/>
<path d="M32.4515 43.5896C32.3217 43.9921 32.1476 44.3821 31.9315 44.7538C31.8549 44.8766 31.743 44.9789 31.6074 45.0501C31.4718 45.1213 31.3173 45.1588 31.16 45.1588C31.0027 45.1588 30.8482 45.1213 30.7126 45.0501C30.577 44.9789 30.4651 44.8766 30.3885 44.7538C30.1356 44.4066 30.001 44.0013 30.001 43.5871C30.001 43.1729 30.1356 42.7676 30.3885 42.4204C30.4678 42.2899 30.5861 42.1815 30.7301 42.1074C30.8741 42.0332 31.0383 41.9962 31.2045 42.0003C31.3706 42.0045 31.5323 42.0496 31.6715 42.1308C31.8106 42.212 31.922 42.3261 31.993 42.4604C32.1851 42.8231 32.3386 43.2012 32.4515 43.5896V43.5896Z" fill="#82D051"/>
</svg>
