<svg width="71" height="71" viewBox="0 0 71 71" fill="none" xmlns="http://www.w3.org/2000/svg">
<rect x="0.000976562" width="71" height="71" rx="15" fill="#82D051" fill-opacity="0.1"/>
<path d="M35.7371 10C37.2978 10.3259 38.8678 10.6238 40.4177 10.9863C41.7594 11.3 43.1642 11.5307 44.3931 12.0751C46.3446 12.9418 47.2605 14.5348 47.3384 16.5123C47.3559 16.9542 47.1088 17.2239 46.6387 17.3008C46.2331 17.3668 45.8705 17.1019 45.7738 16.671C45.7133 16.4012 45.7241 16.118 45.6569 15.8507C45.2836 14.3529 44.2857 13.341 42.6579 12.9687C40.3572 12.4438 38.0337 11.9982 35.7143 11.5429C34.4679 11.2988 33.2672 11.6284 32.0692 11.8859C30.6107 12.1984 29.1548 12.5219 27.6962 12.8356C25.4587 13.3178 24.25 14.6837 24.2365 16.7723C24.2271 18.2041 24.2338 19.6372 24.2365 21.0691C24.2365 21.2107 24.2526 21.3535 24.2634 21.5451C31.4178 19.3821 38.5401 19.3809 45.7375 21.5549C45.7375 21.1155 45.7308 20.7334 45.7402 20.3513C45.7456 20.1572 45.7523 19.957 45.81 19.7727C45.9229 19.4114 46.2183 19.2442 46.6226 19.2771C47.0282 19.3101 47.2901 19.5261 47.3237 19.8972C47.3599 20.3013 47.3519 20.7102 47.3492 21.1167C47.3438 21.7771 47.3492 22.3776 47.8716 22.9721C48.5566 23.7533 48.4586 26.412 47.8716 27.2579C47.3881 27.9537 46.6669 28.2955 45.853 28.376C45.5643 29.2976 45.3534 30.207 44.9935 31.0639C44.3072 32.7009 43.132 34.018 41.5418 35.0104C41.2087 35.2179 41.0677 35.4449 41.0999 35.8136C41.1375 36.2335 41.1067 36.6595 41.1093 37.0819C41.1107 37.2283 41.1026 37.3785 41.1362 37.5201C41.2826 38.1402 41.4841 38.6187 42.3409 38.7957C43.7981 39.096 45.2124 39.5696 46.6401 39.9846C48.8655 40.6304 51.1621 41.1308 53.2949 41.9743C57.4275 43.6088 59.6529 46.6141 59.9202 50.7046C60.0653 52.9262 59.9753 55.1625 59.9524 57.3926C59.939 58.6145 59.2084 59.469 57.9392 59.8865C57.8613 59.9121 57.7928 59.9609 57.7203 60C42.5639 60 27.4088 60 12.2524 60C12.0617 59.9231 11.8697 59.8511 11.683 59.7669C10.6031 59.2822 10.0579 58.4742 10.0176 57.3926C9.99071 56.6773 10.0015 55.9608 10.0149 55.2443C10.0243 54.712 10.3466 54.3837 10.8207 54.3837C11.3015 54.3837 11.6091 54.7047 11.6172 55.243C11.6266 55.8778 11.6158 56.5125 11.6212 57.1473C11.6292 58.097 12.0913 58.5279 13.1174 58.5328C14.3476 58.5376 15.5765 58.534 16.8766 58.534C16.8766 58.3252 16.8766 58.1531 16.8766 57.981C16.8766 55.9474 16.8752 53.9125 16.8793 51.8789C16.8793 51.686 16.8873 51.4846 16.9451 51.3015C17.0579 50.9426 17.3466 50.7729 17.7549 50.801C18.1659 50.8291 18.405 51.0488 18.4681 51.4126C18.4963 51.5713 18.4869 51.7373 18.4869 51.8996C18.4882 53.9174 18.4882 55.9352 18.4882 57.9529C18.4882 58.1275 18.4882 58.3033 18.4882 58.5047C29.5026 58.5047 40.4647 58.5047 51.4858 58.5047C51.4858 58.3106 51.4858 58.136 51.4858 57.9615C51.4858 55.9437 51.4858 53.9259 51.4871 51.9082C51.4871 51.7299 51.4751 51.5468 51.5127 51.3735C51.5852 51.0342 51.8216 50.8303 52.2084 50.7998C52.5911 50.7693 52.8826 50.9145 53.0061 51.2453C53.0787 51.4394 53.0934 51.6591 53.0934 51.8679C53.0988 54.0639 53.0975 56.2611 53.0975 58.5328C53.5743 58.5328 54.0309 58.5328 54.4875 58.5328C55.3095 58.5328 56.1314 58.5413 56.9534 58.5303C57.8183 58.5181 58.3394 58.1153 58.3394 57.3511C58.3408 54.9598 58.4804 52.5527 58.2279 50.1821C57.86 46.7215 55.6963 44.3412 52.1291 43.112C50.3644 42.5029 48.527 42.0683 46.7274 41.5385C46.4373 41.4531 46.2815 41.519 46.0948 41.7155C44.9142 42.9594 43.7176 44.1886 42.5316 45.4288C40.9938 47.0352 40.0712 47.2733 37.8659 46.6178C37.7826 46.5933 37.698 46.5689 37.5422 46.5238C37.0896 47.3929 36.637 48.2632 36.1656 49.1677C37.146 49.573 37.8497 50.1931 38.1815 51.1062C38.7053 52.5478 37.9585 54.1554 36.4355 54.7951C36.0554 54.955 35.9372 55.1368 35.9681 55.4896C35.999 55.829 35.9856 56.1732 35.9695 56.5138C35.9372 57.201 35.5169 57.6148 34.7741 57.6465C34.1322 57.6746 33.4875 57.6722 32.8442 57.6478C32.0947 57.6185 31.6448 57.2181 31.6354 56.5296C31.6153 55.0172 31.6059 53.5024 31.6475 51.9899C31.6824 50.7656 32.3593 49.8733 33.5479 49.3032C33.6245 49.2666 33.6957 49.2215 33.8018 49.1629C33.3451 48.2852 32.8979 47.4234 32.4332 46.5287C32.1458 46.6117 31.8785 46.6861 31.6139 46.7667C30.1312 47.2171 28.8728 46.9046 27.8426 45.8414C26.5896 44.5487 25.3257 43.2621 24.1076 41.9426C23.745 41.5507 23.4428 41.4568 22.8988 41.6276C21.3476 42.1147 19.7668 42.52 18.2089 42.9887C14.1985 44.1935 11.6722 47.3477 11.6185 51.1867C11.6158 51.3332 11.6225 51.4797 11.6158 51.6262C11.5903 52.1022 11.3042 52.3928 10.853 52.4086C10.3775 52.4245 10.0055 52.1303 10.0256 51.6372C10.0592 50.7949 10.0606 49.9319 10.2647 49.1177C11.1874 45.4227 13.6116 42.8727 17.5629 41.6521C20.856 40.6352 24.1962 39.7429 27.5176 38.8042C28.5356 38.5162 28.7975 38.1451 28.8781 37.1417C28.9721 35.9857 28.729 35.1495 27.5807 34.3512C25.5071 32.9108 24.5427 30.793 24.2311 28.4126C24.0968 28.3882 23.9625 28.3638 23.8282 28.3382C22.6074 28.1062 21.7478 27.2066 21.6995 26.0726C21.6726 25.4232 21.6149 24.7604 21.7183 24.1232C21.8016 23.6142 22.1078 23.1369 22.3119 22.645C22.4194 22.3862 22.6034 22.1249 22.6074 21.8625C22.6343 20.1536 22.606 18.4446 22.6249 16.7369C22.6544 14.0221 24.3037 12.1044 27.2006 11.4538C29.3657 10.968 31.5441 10.5359 33.7172 10.0781C33.7857 10.0635 33.8488 10.0293 33.9132 10.0049C34.5217 10 35.1287 10 35.7371 10ZM23.3044 24.7799C23.3044 25.2828 23.2789 25.6539 23.3112 26.0213C23.3582 26.556 23.7356 26.8648 24.3332 26.9002C24.5468 26.9124 24.763 26.8929 24.9752 26.9124C25.4386 26.9576 25.7327 27.1761 25.781 27.6204C25.8052 27.8475 25.8334 28.0733 25.8562 28.3003C25.9812 29.5198 26.3612 30.6745 27.1254 31.6779C29.3401 34.5831 32.4345 35.9039 36.2663 35.4413C39.3929 35.0641 41.8225 33.5712 43.2972 30.9529C43.8599 29.9543 44.0856 28.8728 44.1796 27.7608C44.2346 27.1199 44.5046 26.9198 45.2164 26.9051C45.3776 26.9014 45.5387 26.91 45.6986 26.8966C46.2385 26.8514 46.6024 26.556 46.6521 26.0641C46.6911 25.6844 46.6602 25.2987 46.6602 24.7982C45.5616 26.0982 44.2642 26.047 42.7922 25.671C41.3215 25.295 39.8026 25.0363 38.2862 24.8507C34.3699 24.3734 30.5193 24.7543 26.7427 25.7723C25.3983 26.1324 24.2755 25.9188 23.3044 24.7799ZM34.985 43.9311C36.7686 42.3918 38.5146 40.8855 40.1826 39.4463C39.9557 38.8543 39.6951 38.3489 39.5783 37.8179C39.4628 37.2906 39.4923 36.7364 39.456 36.1407C36.4583 37.3101 33.4915 37.3016 30.4696 36.1261C30.5126 37.3065 30.5005 38.4112 29.6947 39.3645C31.4608 40.8891 33.1961 42.3869 34.985 43.9311ZM45.5199 23.0405C38.4958 20.8384 31.4769 20.8347 24.4528 23.0417C24.583 24.31 25.1135 24.6505 26.4029 24.3319C26.4378 24.3234 26.47 24.3075 26.5049 24.3014C28.447 23.9633 30.3756 23.5092 32.3365 23.3151C36.1588 22.9367 39.9248 23.3603 43.6155 24.3356C44.8336 24.6578 45.3897 24.2892 45.5199 23.0405ZM25.2828 40.9709C26.6648 42.3881 27.9716 43.7797 29.3536 45.1041C29.6208 45.3605 30.2198 45.5143 30.608 45.4447C31.5535 45.275 32.4654 44.9467 33.4808 44.6561C31.7281 43.1462 30.0627 41.707 28.3879 40.2764C28.3046 40.2043 28.118 40.1677 28.0065 40.197C27.1228 40.4351 26.2444 40.6938 25.2828 40.9709ZM44.6778 40.9673C43.8264 40.7219 43.0568 40.5217 42.306 40.2764C41.9044 40.1458 41.6358 40.1958 41.3202 40.4753C39.8764 41.7546 38.4058 43.0082 36.9378 44.2643C36.8102 44.3729 36.6397 44.4401 36.4906 44.5267C37.4482 44.9283 38.301 45.2091 39.1686 45.441C39.7824 45.6046 40.3478 45.441 40.7722 45.0089C42.0643 43.6906 43.3388 42.3564 44.6778 40.9673ZM34.3645 56.161C34.3645 55.5824 34.3578 55.0465 34.3672 54.5119C34.3753 54.0285 34.6116 53.7074 35.173 53.6379C35.2966 53.622 35.4175 53.5915 35.5357 53.5548C36.3563 53.3046 36.8304 52.5905 36.7068 51.7934C36.594 51.0647 35.8661 50.4763 35.0401 50.447C34.2329 50.4189 33.3371 51.0049 33.2981 51.7592C33.2243 53.2143 33.2766 54.6754 33.2766 56.1598C33.6272 56.161 33.9589 56.161 34.3645 56.161ZM33.9871 46.088C34.3108 46.7044 34.6251 47.3038 34.9877 47.9947C35.3584 47.2806 35.6713 46.6788 35.9802 46.0855C35.2966 45.6888 34.6707 45.6925 33.9871 46.088Z" fill="#82D051"/>
</svg>
