<svg width="63" height="63" viewBox="0 0 63 63" fill="none" xmlns="http://www.w3.org/2000/svg">
<circle cx="31.5" cy="31.5" r="31.5" fill="#F6F6F6"/>
<path d="M14 49L16.4827 40C14.869 37.2069 14 34.1035 14 30.8758C14 21.069 22.069 13 31.9379 13C41.8068 13 50 21.069 50 30.8758C50 40.6827 41.8069 49 31.9379 49C28.8345 49 25.8552 48.0069 23.1862 46.5173L14 49Z" fill="#EDEDED"/>
<path d="M23.6818 43.2878L24.2405 43.5981C26.537 45.0257 29.206 45.8947 31.9991 45.8947C40.1301 45.8947 46.8956 39.1291 46.8956 30.8739C46.8956 22.6188 40.1301 16.1016 31.937 16.1016C23.7439 16.1016 17.1025 22.6808 17.1025 30.8739C17.1025 33.7291 17.9094 36.5222 19.3991 38.8808L19.7715 39.4395L18.344 44.6533L23.6818 43.2878Z" fill="#55CD6C"/>
<path d="M27.1595 22.5582L25.9802 22.4961C25.6078 22.4961 25.2354 22.6203 24.9871 22.8685C24.4285 23.3651 23.4975 24.2961 23.2492 25.5375C22.8148 27.3996 23.4975 29.6341 25.1113 31.8685C26.7251 34.103 29.8286 37.703 35.2906 39.2547C37.0285 39.7513 38.394 39.4409 39.5113 38.7582C40.3803 38.1995 40.9389 37.3306 41.1251 36.3995L41.3113 35.5306C41.3734 35.2823 41.2492 34.9719 41.0009 34.8478L37.0906 33.0478C36.8423 32.9236 36.5319 32.9857 36.3458 33.234L34.794 35.2202C34.6699 35.3444 34.4837 35.4064 34.2975 35.3444C33.2423 34.9719 29.7044 33.4823 27.7802 29.7582C27.7181 29.572 27.7181 29.3857 27.8423 29.2616L29.3319 27.5858C29.4561 27.3996 29.5181 27.1513 29.4561 26.9651L27.6561 22.9306C27.594 22.7444 27.4078 22.5582 27.1595 22.5582Z" fill="#FEFEFE"/>
</svg>
