<svg width="24" height="25" viewBox="0 0 24 25" fill="none" xmlns="http://www.w3.org/2000/svg">
<path d="M22 11.0128C22 15.3635 15.8077 20.9257 13.1687 23.0986C12.4838 23.6625 11.5162 23.6625 10.8313 23.0986C8.19234 20.9257 2 15.3635 2 11.0128C2 5.48395 6.47715 1.00195 12 1.00195C17.5228 1.00195 22 5.48395 22 11.0128Z" stroke="#C4C4C4" stroke-width="2"/>
<path d="M15 11.0128C15 12.6714 13.6569 14.016 12 14.016C10.3431 14.016 9 12.6714 9 11.0128C9 9.35413 10.3431 8.00953 12 8.00953C13.6569 8.00953 15 9.35413 15 11.0128Z" stroke="#C4C4C4" stroke-width="2"/>
</svg>
