<svg width="185" height="61" viewBox="0 0 185 61" fill="none" xmlns="http://www.w3.org/2000/svg">
<rect width="184.064" height="60.272" rx="30.136" fill="#82D051"/>
<path d="M26.355 36.225C25.51 36.225 24.7625 36.0525 24.1125 35.7075C23.4675 35.3575 22.9625 34.87 22.5975 34.245C22.2325 33.615 22.05 32.875 22.05 32.025V25.2075L23.64 25.2V31.9425C23.64 32.4025 23.7175 32.8075 23.8725 33.1575C24.0275 33.5075 24.235 33.8 24.495 34.035C24.755 34.27 25.045 34.4475 25.365 34.5675C25.69 34.6875 26.02 34.7475 26.355 34.7475C26.695 34.7475 27.025 34.6875 27.345 34.5675C27.67 34.4425 27.9625 34.2625 28.2225 34.0275C28.4825 33.7925 28.6875 33.5 28.8375 33.15C28.9925 32.8 29.07 32.3975 29.07 31.9425V25.2H30.66V32.025C30.66 32.87 30.4775 33.6075 30.1125 34.2375C29.7475 34.8675 29.24 35.3575 28.59 35.7075C27.945 36.0525 27.2 36.225 26.355 36.225ZM36.8105 36.225C36.0355 36.225 35.3855 36.0375 34.8605 35.6625C34.3355 35.2825 33.938 34.77 33.668 34.125C33.398 33.48 33.263 32.7525 33.263 31.9425C33.263 31.1325 33.3955 30.405 33.6605 29.76C33.9305 29.115 34.3255 28.6075 34.8455 28.2375C35.3705 27.8625 36.0155 27.675 36.7805 27.675C37.5405 27.675 38.1955 27.8625 38.7455 28.2375C39.3005 28.6075 39.728 29.115 40.028 29.76C40.328 30.4 40.478 31.1275 40.478 31.9425C40.478 32.7525 40.328 33.4825 40.028 34.1325C39.733 34.7775 39.3105 35.2875 38.7605 35.6625C38.2155 36.0375 37.5655 36.225 36.8105 36.225ZM33.0005 39.6V27.9H34.3955V33.7275H34.5755V39.6H33.0005ZM36.593 34.8075C37.093 34.8075 37.5055 34.68 37.8305 34.425C38.1605 34.17 38.4055 33.8275 38.5655 33.3975C38.7305 32.9625 38.813 32.4775 38.813 31.9425C38.813 31.4125 38.7305 30.9325 38.5655 30.5025C38.4055 30.0725 38.158 29.73 37.823 29.475C37.488 29.22 37.0605 29.0925 36.5405 29.0925C36.0505 29.0925 35.6455 29.2125 35.3255 29.4525C35.0105 29.6925 34.7755 30.0275 34.6205 30.4575C34.4705 30.8875 34.3955 31.3825 34.3955 31.9425C34.3955 32.5025 34.4705 32.9975 34.6205 33.4275C34.7705 33.8575 35.008 34.195 35.333 34.44C35.658 34.685 36.078 34.8075 36.593 34.8075ZM42.534 36V24.975H44.1015V36H42.534ZM50.1212 36.225C49.3112 36.225 48.6087 36.0425 48.0137 35.6775C47.4187 35.3125 46.9587 34.81 46.6337 34.17C46.3137 33.525 46.1537 32.7825 46.1537 31.9425C46.1537 31.0975 46.3187 30.355 46.6487 29.715C46.9787 29.07 47.4412 28.57 48.0362 28.215C48.6312 27.855 49.3262 27.675 50.1212 27.675C50.9312 27.675 51.6337 27.8575 52.2287 28.2225C52.8237 28.5875 53.2837 29.09 53.6087 29.73C53.9337 30.37 54.0962 31.1075 54.0962 31.9425C54.0962 32.7875 53.9312 33.5325 53.6012 34.1775C53.2762 34.8175 52.8162 35.32 52.2212 35.685C51.6262 36.045 50.9262 36.225 50.1212 36.225ZM50.1212 34.7475C50.8962 34.7475 51.4737 34.4875 51.8537 33.9675C52.2387 33.4425 52.4312 32.7675 52.4312 31.9425C52.4312 31.0975 52.2362 30.4225 51.8462 29.9175C51.4612 29.4075 50.8862 29.1525 50.1212 29.1525C49.5962 29.1525 49.1637 29.2725 48.8237 29.5125C48.4837 29.7475 48.2312 30.075 48.0662 30.495C47.9012 30.91 47.8187 31.3925 47.8187 31.9425C47.8187 32.7925 48.0137 33.4725 48.4037 33.9825C48.7937 34.4925 49.3662 34.7475 50.1212 34.7475ZM58.2818 36.225C57.6818 36.225 57.1793 36.115 56.7743 35.895C56.3693 35.67 56.0618 35.375 55.8518 35.01C55.6468 34.64 55.5443 34.235 55.5443 33.795C55.5443 33.385 55.6168 33.025 55.7618 32.715C55.9068 32.405 56.1218 32.1425 56.4068 31.9275C56.6918 31.7075 57.0418 31.53 57.4568 31.395C57.8168 31.29 58.2243 31.1975 58.6793 31.1175C59.1343 31.0375 59.6118 30.9625 60.1118 30.8925C60.6168 30.8225 61.1168 30.7525 61.6118 30.6825L61.0418 30.9975C61.0518 30.3625 60.9168 29.8925 60.6368 29.5875C60.3618 29.2775 59.8868 29.1225 59.2118 29.1225C58.7868 29.1225 58.3968 29.2225 58.0418 29.4225C57.6868 29.6175 57.4393 29.9425 57.2993 30.3975L55.8368 29.9475C56.0368 29.2525 56.4168 28.7 56.9768 28.29C57.5418 27.88 58.2918 27.675 59.2268 27.675C59.9518 27.675 60.5818 27.8 61.1168 28.05C61.6568 28.295 62.0518 28.685 62.3018 29.22C62.4318 29.485 62.5118 29.765 62.5418 30.06C62.5718 30.355 62.5868 30.6725 62.5868 31.0125V36H61.1993V34.1475L61.4693 34.3875C61.1343 35.0075 60.7068 35.47 60.1868 35.775C59.6718 36.075 59.0368 36.225 58.2818 36.225ZM58.5593 34.9425C59.0043 34.9425 59.3868 34.865 59.7068 34.71C60.0268 34.55 60.2843 34.3475 60.4793 34.1025C60.6743 33.8575 60.8018 33.6025 60.8618 33.3375C60.9468 33.0975 60.9943 32.8275 61.0043 32.5275C61.0193 32.2275 61.0268 31.9875 61.0268 31.8075L61.5368 31.995C61.0418 32.07 60.5918 32.1375 60.1868 32.1975C59.7818 32.2575 59.4143 32.3175 59.0843 32.3775C58.7593 32.4325 58.4693 32.5 58.2143 32.58C57.9993 32.655 57.8068 32.745 57.6368 32.85C57.4718 32.955 57.3393 33.0825 57.2393 33.2325C57.1443 33.3825 57.0968 33.565 57.0968 33.78C57.0968 33.99 57.1493 34.185 57.2543 34.365C57.3593 34.54 57.5193 34.68 57.7343 34.785C57.9493 34.89 58.2243 34.9425 58.5593 34.9425ZM68.0019 36.225C67.2469 36.225 66.5944 36.0375 66.0444 35.6625C65.4994 35.2875 65.0769 34.7775 64.7769 34.1325C64.4819 33.4825 64.3344 32.7525 64.3344 31.9425C64.3344 31.1275 64.4844 30.4 64.7844 29.76C65.0844 29.115 65.5094 28.6075 66.0594 28.2375C66.6144 27.8625 67.2719 27.675 68.0319 27.675C68.7969 27.675 69.4394 27.8625 69.9594 28.2375C70.4844 28.6075 70.8794 29.115 71.1444 29.76C71.4144 30.405 71.5494 31.1325 71.5494 31.9425C71.5494 32.7525 71.4144 33.48 71.1444 34.125C70.8744 34.77 70.4769 35.2825 69.9519 35.6625C69.4269 36.0375 68.7769 36.225 68.0019 36.225ZM68.2194 34.8075C68.7344 34.8075 69.1544 34.685 69.4794 34.44C69.8044 34.195 70.0419 33.8575 70.1919 33.4275C70.3419 32.9975 70.4169 32.5025 70.4169 31.9425C70.4169 31.3825 70.3394 30.8875 70.1844 30.4575C70.0344 30.0275 69.7994 29.6925 69.4794 29.4525C69.1644 29.2125 68.7619 29.0925 68.2719 29.0925C67.7519 29.0925 67.3244 29.22 66.9894 29.475C66.6544 29.73 66.4044 30.0725 66.2394 30.5025C66.0794 30.9325 65.9994 31.4125 65.9994 31.9425C65.9994 32.4775 66.0794 32.9625 66.2394 33.3975C66.4044 33.8275 66.6494 34.17 66.9744 34.425C67.3044 34.68 67.7194 34.8075 68.2194 34.8075ZM70.4169 36V30.1725H70.2369V25.2H71.8119V36H70.4169ZM77.4133 36V25.2H81.7783C81.8833 25.2 82.0133 25.205 82.1683 25.215C82.3233 25.22 82.4708 25.235 82.6108 25.26C83.2108 25.355 83.7108 25.56 84.1108 25.875C84.5158 26.19 84.8183 26.5875 85.0183 27.0675C85.2183 27.5475 85.3183 28.0775 85.3183 28.6575C85.3183 29.2425 85.2183 29.775 85.0183 30.255C84.8183 30.735 84.5158 31.1325 84.1108 31.4475C83.7108 31.7625 83.2108 31.9675 82.6108 32.0625C82.4708 32.0825 82.3208 32.0975 82.1608 32.1075C82.0058 32.1175 81.8783 32.1225 81.7783 32.1225H78.9808V36H77.4133ZM78.9808 30.6375H81.7183C81.8183 30.6375 81.9283 30.6325 82.0483 30.6225C82.1733 30.6125 82.2908 30.595 82.4008 30.57C82.7208 30.495 82.9783 30.3575 83.1733 30.1575C83.3683 29.9525 83.5083 29.7175 83.5933 29.4525C83.6783 29.1875 83.7208 28.9225 83.7208 28.6575C83.7208 28.3925 83.6783 28.13 83.5933 27.87C83.5083 27.605 83.3683 27.3725 83.1733 27.1725C82.9783 26.9675 82.7208 26.8275 82.4008 26.7525C82.2908 26.7225 82.1733 26.7025 82.0483 26.6925C81.9283 26.6825 81.8183 26.6775 81.7183 26.6775H78.9808V30.6375ZM92.7526 36V32.0175C92.7526 31.7025 92.7251 31.38 92.6701 31.05C92.6201 30.715 92.5201 30.405 92.3701 30.12C92.2251 29.835 92.0176 29.605 91.7476 29.43C91.4826 29.255 91.1351 29.1675 90.7051 29.1675C90.4251 29.1675 90.1601 29.215 89.9101 29.31C89.6601 29.4 89.4401 29.5475 89.2501 29.7525C89.0651 29.9575 88.9176 30.2275 88.8076 30.5625C88.7026 30.8975 88.6501 31.305 88.6501 31.785L87.6751 31.4175C87.6751 30.6825 87.8126 30.035 88.0876 29.475C88.3626 28.91 88.7576 28.47 89.2726 28.155C89.7876 27.84 90.4101 27.6825 91.1401 27.6825C91.7001 27.6825 92.1701 27.7725 92.5501 27.9525C92.9301 28.1325 93.2376 28.37 93.4726 28.665C93.7126 28.955 93.8951 29.2725 94.0201 29.6175C94.1451 29.9625 94.2301 30.3 94.2751 30.63C94.3201 30.96 94.3426 31.25 94.3426 31.5V36H92.7526ZM87.0601 36V25.2H88.4626V31.0275H88.6501V36H87.0601ZM100.064 36.225C99.2536 36.225 98.5511 36.0425 97.9561 35.6775C97.3611 35.3125 96.9011 34.81 96.5761 34.17C96.2561 33.525 96.0961 32.7825 96.0961 31.9425C96.0961 31.0975 96.2611 30.355 96.5911 29.715C96.9211 29.07 97.3836 28.57 97.9786 28.215C98.5736 27.855 99.2686 27.675 100.064 27.675C100.874 27.675 101.576 27.8575 102.171 28.2225C102.766 28.5875 103.226 29.09 103.551 29.73C103.876 30.37 104.039 31.1075 104.039 31.9425C104.039 32.7875 103.874 33.5325 103.544 34.1775C103.219 34.8175 102.759 35.32 102.164 35.685C101.569 36.045 100.869 36.225 100.064 36.225ZM100.064 34.7475C100.839 34.7475 101.416 34.4875 101.796 33.9675C102.181 33.4425 102.374 32.7675 102.374 31.9425C102.374 31.0975 102.179 30.4225 101.789 29.9175C101.404 29.4075 100.829 29.1525 100.064 29.1525C99.5386 29.1525 99.1061 29.2725 98.7661 29.5125C98.4261 29.7475 98.1736 30.075 98.0086 30.495C97.8436 30.91 97.7611 31.3925 97.7611 31.9425C97.7611 32.7925 97.9561 33.4725 98.3461 33.9825C98.7361 34.4925 99.3086 34.7475 100.064 34.7475ZM110.572 36C110.062 36.1 109.562 36.1425 109.072 36.1275C108.582 36.1125 108.144 36.0175 107.759 35.8425C107.374 35.6675 107.084 35.3925 106.889 35.0175C106.714 34.6825 106.619 34.3425 106.604 33.9975C106.594 33.6475 106.589 33.2525 106.589 32.8125V25.65H108.164V32.7375C108.164 33.0625 108.167 33.345 108.172 33.585C108.182 33.825 108.234 34.0275 108.329 34.1925C108.509 34.5025 108.794 34.68 109.184 34.725C109.579 34.765 110.042 34.7475 110.572 34.6725V36ZM105.037 29.16V27.9H110.572V29.16H105.037ZM115.681 36.225C114.871 36.225 114.168 36.0425 113.573 35.6775C112.978 35.3125 112.518 34.81 112.193 34.17C111.873 33.525 111.713 32.7825 111.713 31.9425C111.713 31.0975 111.878 30.355 112.208 29.715C112.538 29.07 113.001 28.57 113.596 28.215C114.191 27.855 114.886 27.675 115.681 27.675C116.491 27.675 117.193 27.8575 117.788 28.2225C118.383 28.5875 118.843 29.09 119.168 29.73C119.493 30.37 119.656 31.1075 119.656 31.9425C119.656 32.7875 119.491 33.5325 119.161 34.1775C118.836 34.8175 118.376 35.32 117.781 35.685C117.186 36.045 116.486 36.225 115.681 36.225ZM115.681 34.7475C116.456 34.7475 117.033 34.4875 117.413 33.9675C117.798 33.4425 117.991 32.7675 117.991 31.9425C117.991 31.0975 117.796 30.4225 117.406 29.9175C117.021 29.4075 116.446 29.1525 115.681 29.1525C115.156 29.1525 114.723 29.2725 114.383 29.5125C114.043 29.7475 113.791 30.075 113.626 30.495C113.461 30.91 113.378 31.3925 113.378 31.9425C113.378 32.7925 113.573 33.4725 113.963 33.9825C114.353 34.4925 114.926 34.7475 115.681 34.7475Z" fill="#FCFCFC"/>
<path d="M142.988 35.8386V37.485H142.704C141.314 37.485 139.923 37.485 138.534 37.485C135.743 37.4779 133.577 35.8771 133.021 33.4132C132.465 30.9492 134.363 28.2988 137.101 27.7649C137.416 27.7031 137.544 27.6129 137.579 27.2989C137.979 23.6161 141.109 20.4004 145.12 19.5473C148.158 18.902 150.971 19.3964 153.493 21.0387C155.343 22.2413 156.577 23.8613 157.206 25.843C157.227 25.9367 157.279 26.0225 157.355 26.0893C157.431 26.1562 157.528 26.2009 157.632 26.2178C160.04 26.8348 161.867 28.7983 162.133 31.0465C162.493 34.0514 160.382 36.7079 157.101 37.3573C156.691 37.4351 156.274 37.4758 155.855 37.4789C154.683 37.4951 153.512 37.486 152.341 37.485C152.286 37.485 152.228 37.4769 152.16 37.4718V35.8386H152.465C153.55 35.8386 154.636 35.8386 155.722 35.8386C157.999 35.8295 159.816 34.4861 160.272 32.479C160.761 30.3251 159.128 28.1144 156.715 27.7112C156.056 27.6008 155.732 27.3059 155.561 26.7193C154.673 23.6688 152.487 21.76 149.067 21.1582C146.149 20.6446 143.605 21.45 141.55 23.4013C140.171 24.7184 139.455 26.2999 139.371 28.1114C139.371 28.2127 139.355 28.314 139.345 28.4153C139.292 28.9557 138.966 29.2346 138.366 29.2522C137.146 29.2968 136.152 29.7466 135.457 30.6493C134.641 31.708 134.538 32.8569 135.175 34.0089C135.812 35.1608 136.881 35.7829 138.297 35.8254C139.753 35.87 141.211 35.8376 142.668 35.8386H142.988Z" fill="white"/>
<path d="M146.589 32.119L144.616 33.9345L143.291 32.7491C143.584 32.4898 143.897 32.2162 144.206 31.9386C145.075 31.1578 145.944 30.3764 146.811 29.5942C147.321 29.1363 147.816 29.1342 148.322 29.5942C149.448 30.6074 150.573 31.6205 151.698 32.6336C151.751 32.6813 151.799 32.7349 151.834 32.7674L150.566 33.898L148.572 32.0936L148.497 32.1301V39.9363H146.67V32.1352L146.589 32.119Z" fill="white"/>
</svg>
