<svg width="180" height="180" viewBox="0 0 180 180" fill="none" xmlns="http://www.w3.org/2000/svg">
<g filter="url(#filter0_d_4623_28616)">
<path d="M90 156C128.66 156 160 124.66 160 86C160 47.3401 128.66 16 90 16C51.3401 16 20 47.3401 20 86C20 124.66 51.3401 156 90 156Z" fill="#0EBEEF"/>
<path d="M159 86C159 124.108 128.108 155 90 155C51.8924 155 21 124.108 21 86C21 47.8923 51.8924 17 90 17C128.108 17 159 47.8923 159 86Z" stroke="white" stroke-width="2"/>
</g>
<path d="M69.0889 125.998C67.9702 125.609 67.0089 125.016 66.4357 123.846C65.1815 121.287 66.8239 118.178 69.5284 118.029C69.9862 118.004 70.4458 118.026 71.1196 118.026C71.1196 116.449 71.0335 114.944 71.1342 113.453C71.603 106.5 73.8369 100.231 77.8066 94.7019C79.0041 93.036 80.3792 91.5047 81.7507 89.9911C84.0597 87.4423 84.1201 84.501 81.7324 82.0265C77.4917 77.632 74.3221 72.5365 72.5442 66.4917C71.4327 62.7105 70.9475 58.8376 70.9951 54.8826C70.9987 54.6248 70.9951 54.365 70.9951 53.9861C70.5794 53.9861 70.2004 53.9939 69.8214 53.9842C67.8438 53.9373 66.2838 52.5272 66.0366 50.5702C65.7821 48.5663 66.8734 46.8027 68.7594 46.1562C68.8729 46.1172 68.9791 46.0527 69.0889 46C82.8603 46 96.6299 46 110.401 46C111.52 46.3887 112.481 46.9824 113.054 48.1523C114.309 50.7108 112.666 53.8201 109.962 53.9686C109.504 53.9939 109.044 53.9725 108.371 53.9725C108.371 55.5505 108.457 57.0564 108.356 58.5466C107.887 65.5015 105.653 71.7709 101.682 77.3C100.484 78.966 99.1091 80.4972 97.7376 82.0108C95.4214 84.5655 95.3628 87.497 97.7541 89.9716C101.999 94.3641 105.17 99.4577 106.946 105.504C107.99 109.057 108.488 112.694 108.497 116.412C108.499 116.905 108.497 117.399 108.497 118.014C108.911 118.014 109.292 118.006 109.669 118.016C111.645 118.063 113.205 119.471 113.454 121.428C113.708 123.432 112.617 125.197 110.731 125.844C110.617 125.883 110.511 125.947 110.401 126C96.6299 125.998 82.8585 125.998 69.0889 125.998ZM105.981 117.946C106.175 111.67 104.979 105.825 102.191 100.37C100.539 97.1394 98.362 94.3543 95.9139 91.7821C93.6379 89.3915 92.9458 86.54 93.9858 83.2764C94.4637 81.7765 95.4598 80.6652 96.4907 79.5832C102.304 73.4759 105.467 66.0757 105.959 57.3884C106.021 56.2849 105.968 55.1756 105.968 54.0584C95.1119 54.0584 84.3343 54.0584 73.5622 54.0584C73.2839 56.158 73.7362 60.9391 74.4539 63.9195C75.9591 70.1596 78.9693 75.4407 83.2906 79.9132C83.8985 80.5421 84.49 81.2374 84.9093 82.0128C86.7 85.3233 86.2276 88.8525 83.6953 91.6649C82.8676 92.5848 82.0034 93.4715 81.216 94.4305C76.8911 99.696 74.3807 105.827 73.6739 112.78C73.5018 114.475 73.5109 116.19 73.434 117.944C84.349 117.946 95.1284 117.946 105.981 117.946ZM89.7451 51.3241C89.7451 51.3202 89.7451 51.3163 89.7451 51.3143C95.4342 51.3143 101.121 51.3143 106.811 51.3143C107.763 51.3143 108.715 51.3378 109.667 51.3163C110.44 51.2987 110.96 50.7655 110.98 50.039C111 49.3515 110.517 48.7851 109.81 48.6816C109.618 48.6542 109.42 48.664 109.226 48.664C96.238 48.664 83.2503 48.662 70.2627 48.666C69.9953 48.666 69.7188 48.666 69.4643 48.7382C68.8491 48.9101 68.514 49.3593 68.514 50.0429C68.5122 50.6776 68.9864 51.2167 69.6071 51.3026C69.8726 51.3397 70.1436 51.326 70.411 51.326C76.8563 51.3241 83.3016 51.3241 89.7451 51.3241ZM89.7433 120.674C89.7433 120.678 89.7433 120.682 89.7433 120.684C84.0542 120.684 78.3669 120.684 72.6778 120.684C71.7257 120.684 70.7735 120.66 69.8214 120.682C69.0487 120.699 68.5286 121.233 68.5085 121.959C68.4884 122.647 68.9718 123.213 69.6785 123.316C69.8708 123.344 70.0686 123.334 70.2627 123.334C83.2503 123.334 96.238 123.336 109.226 123.332C109.493 123.332 109.77 123.332 110.024 123.26C110.639 123.088 110.974 122.639 110.974 121.955C110.976 121.32 110.502 120.781 109.881 120.695C109.616 120.658 109.345 120.672 109.077 120.672C102.634 120.674 96.1886 120.674 89.7433 120.674Z" fill="white"/>
<path d="M89.7449 115.344C85.8155 115.344 81.886 115.346 77.9548 115.344C76.3764 115.344 75.9607 114.811 76.153 113.141C76.4386 110.653 77.3706 108.506 79.0186 106.711C79.6833 105.987 80.3095 105.217 80.9943 104.512C82.4115 103.051 84.1089 102.143 86.0846 102.073C88.4961 101.987 90.915 102.004 93.3283 102.063C95.0641 102.106 96.6681 102.756 97.9279 104.012C99.2591 105.338 100.502 106.786 101.65 108.295C102.769 109.766 103.181 111.584 103.359 113.449C103.485 114.783 103.015 115.338 101.755 115.342C97.7503 115.348 93.7476 115.342 89.7449 115.344ZM78.6542 112.61C86.1194 112.61 93.396 112.61 100.792 112.61C100.541 111.91 100.438 111.219 100.089 110.729C99.0449 109.268 97.9554 107.834 96.7853 106.487C95.7911 105.342 94.4819 104.735 93.0005 104.717C90.7813 104.69 88.5566 104.624 86.3447 104.77C85.3925 104.834 84.2646 105.141 83.5779 105.78C82.1241 107.133 80.8588 108.735 79.6192 110.327C79.1614 110.914 79.0003 111.764 78.6542 112.61Z" fill="white"/>
<path d="M84.8472 63.6992C85.7151 64.0059 86.6984 64.1328 87.4326 64.6543C90.1755 66.5996 93.259 67.0488 96.4213 67.2617C97.2489 67.3164 98.082 67.3125 98.9042 67.4101C100.076 67.5488 100.744 68.6347 100.272 69.7753C99.9442 70.5663 99.459 71.328 98.8969 71.953C97.3624 73.6639 95.7584 75.3026 94.1672 76.9549C92.2318 78.9666 91.1149 81.3689 91.0197 84.2771C91.0123 84.5095 90.9757 84.7439 90.9263 84.9704C90.7853 85.6149 90.3641 85.9587 89.7764 85.9704C89.1538 85.9841 88.6814 85.6423 88.5697 84.9567C88.4287 84.0876 88.4122 83.1931 88.2383 82.3318C87.8135 80.24 86.8137 78.4764 85.3653 77.0018C83.3567 74.9569 81.7289 72.6073 80.2897 70.0761C79.603 68.8671 79.722 67.8046 80.3043 66.7109C81.2858 64.8691 82.8037 63.9297 84.8472 63.6992ZM97.1574 69.9999C96.8369 69.9648 96.6502 69.9433 96.4634 69.9218C95.0608 69.7616 93.6491 69.662 92.2556 69.4257C90.2213 69.082 88.295 68.3925 86.5464 67.1738C85.1218 66.1816 83.5196 66.4062 82.692 67.6542C82.4595 68.0058 82.2086 68.3691 82.5345 68.8476C83.5618 70.3593 84.4864 71.9569 85.6034 73.3866C86.9694 75.1366 88.6741 76.5858 89.6628 78.6697C89.6757 78.6971 89.7489 78.6932 89.8112 78.7068C91.5525 75.2069 94.7001 73.0468 97.1574 69.9999Z" fill="white"/>
<path d="M90.9552 90.7756C90.9406 91.0353 90.9515 91.299 90.9076 91.5509C90.7904 92.2306 90.3711 92.6056 89.7467 92.631C89.1589 92.6544 88.6554 92.3536 88.5602 91.7091C88.4631 91.0549 88.4558 90.3654 88.5382 89.7092C88.6206 89.0413 89.234 88.598 89.8071 88.6897C90.4553 88.7933 90.8673 89.1917 90.9241 89.9182C90.946 90.2014 90.9277 90.4885 90.9277 90.7756C90.9387 90.7736 90.9479 90.7736 90.9552 90.7756Z" fill="white"/>
<path d="M90.9427 97.3738C90.9427 97.53 90.9482 97.6863 90.9427 97.8406C90.9061 98.7507 90.4685 99.2801 89.7398 99.2976C89.0202 99.3172 88.5148 98.7898 88.458 97.9089C88.4287 97.4695 88.4269 97.0222 88.4782 96.5867C88.5716 95.8015 89.0788 95.3367 89.7471 95.3581C90.4246 95.3796 90.8768 95.8738 90.9336 96.6706C90.9501 96.9031 90.9354 97.1374 90.9354 97.3718C90.9391 97.3738 90.9409 97.3738 90.9427 97.3738Z" fill="white"/>
<defs>
<filter id="filter0_d_4623_28616" x="0" y="0" width="180" height="180" filterUnits="userSpaceOnUse" color-interpolation-filters="sRGB">
<feFlood flood-opacity="0" result="BackgroundImageFix"/>
<feColorMatrix in="SourceAlpha" type="matrix" values="0 0 0 0 0 0 0 0 0 0 0 0 0 0 0 0 0 0 127 0" result="hardAlpha"/>
<feOffset dy="4"/>
<feGaussianBlur stdDeviation="10"/>
<feComposite in2="hardAlpha" operator="out"/>
<feColorMatrix type="matrix" values="0 0 0 0 0 0 0 0 0 0 0 0 0 0 0 0 0 0 0.08 0"/>
<feBlend mode="normal" in2="BackgroundImageFix" result="effect1_dropShadow_4623_28616"/>
<feBlend mode="normal" in="SourceGraphic" in2="effect1_dropShadow_4623_28616" result="shape"/>
</filter>
</defs>
</svg>
