<svg width="180" height="180" viewBox="0 0 180 180" fill="none" xmlns="http://www.w3.org/2000/svg">
<g filter="url(#filter0_d_4623_28634)">
<path d="M90 156C128.66 156 160 124.66 160 86C160 47.3401 128.66 16 90 16C51.3401 16 20 47.3401 20 86C20 124.66 51.3401 156 90 156Z" fill="#82D051"/>
<path d="M159 86C159 124.108 128.108 155 90 155C51.8924 155 21 124.108 21 86C21 47.8923 51.8924 17 90 17C128.108 17 159 47.8923 159 86Z" stroke="white" stroke-width="2"/>
</g>
<path d="M44 68.0299C44.4604 67.6553 44.8689 67.1375 45.3866 66.9253C59.8567 61.0126 74.3393 55.1342 88.813 49.231C89.5278 48.9386 90.1566 48.9138 90.8768 49.2138C94.0119 50.5248 97.165 51.788 100.309 53.0703C100.558 53.1716 100.814 53.2729 101.042 53.4181C101.672 53.8194 101.852 54.4501 101.615 55.1476C101.389 55.8165 100.87 56.1375 100.194 56.0286C99.8451 55.9732 99.5011 55.847 99.1679 55.7114C96.2997 54.5475 93.4405 53.3551 90.5597 52.2237C90.1584 52.067 89.6084 52.046 89.2143 52.2046C76.1738 57.4791 63.1441 62.7822 50.1144 68.0834C49.8708 68.1828 49.6379 68.3166 49.2688 68.4981C52.1747 69.681 54.9479 70.8124 57.7212 71.9418C68.1908 76.1996 78.6604 80.4574 89.1372 84.6941C89.517 84.847 90.0312 84.9216 90.3931 84.7763C96.4162 82.3569 102.427 79.8974 108.437 77.4437C108.625 77.3672 108.803 77.2602 109.091 77.1131C105.793 75.5173 102.595 73.9694 99.399 72.4253C96.2227 70.8907 93.0445 69.36 89.87 67.8197C89.5726 67.6764 89.268 67.5235 89.0154 67.3114C88.4744 66.8527 88.3866 66.2202 88.6732 65.5952C88.9617 64.9646 89.4902 64.6627 90.1602 64.8385C90.5042 64.9283 90.8302 65.1003 91.1563 65.257C98.136 68.6242 105.112 71.9991 112.099 75.3473C112.438 75.5097 112.925 75.5995 113.253 75.4696C118.86 73.2241 124.453 70.9366 130.048 68.6586C130.131 68.6242 130.208 68.5765 130.419 68.4656C130.048 68.2955 129.772 68.1541 129.489 68.0395C121.528 64.7983 113.565 61.5572 105.601 58.318C105.435 58.2492 105.264 58.1881 105.101 58.1116C104.198 57.6969 103.817 56.965 104.095 56.1796C104.385 55.3521 105.159 55.0368 106.11 55.4228C111.069 57.4313 116.021 59.457 120.978 61.4731C125.405 63.2752 129.839 65.0563 134.253 66.8948C134.799 67.1222 135.238 67.6401 135.726 68.0242C135.726 70.5735 135.726 73.1209 135.726 75.6702C135.188 76.0352 134.688 76.5054 134.106 76.7481C129.996 78.4546 125.874 80.1306 121.741 81.7741C121.128 82.0168 120.942 82.3397 120.944 83.0143C120.965 90.0546 120.942 97.093 120.972 104.133C120.978 105.255 120.682 106.069 119.769 106.694C118.061 107.86 116.413 109.121 114.715 110.304C114.272 110.612 114.048 110.914 114.059 111.51C114.097 113.451 114.097 115.397 114.059 117.338C114.048 117.944 114.24 118.212 114.761 118.453C117.062 119.511 118.269 122.028 117.787 124.621C117.33 127.077 115.168 128.971 112.782 129C110.352 129.03 108.235 127.226 107.672 124.648C107.129 122.152 108.367 119.521 110.66 118.47C111.232 118.208 111.388 117.895 111.372 117.272C111.331 115.661 111.357 114.046 111.357 112.314C110.159 112.863 109.082 113.388 107.984 113.855C100.673 116.96 93.0929 118.151 85.264 117.337C75.7009 116.341 67.1267 112.643 59.5647 106.323C59.1437 105.972 58.8122 105.209 58.8015 104.63C58.7334 100.873 58.7567 97.114 58.7728 93.355C58.7782 92.1778 59.3246 91.5089 60.1738 91.5376C61.0176 91.5662 61.4995 92.2255 61.5049 93.441C61.5156 96.7853 61.5228 100.13 61.4959 103.476C61.4906 104.082 61.6679 104.447 62.1301 104.814C68.1514 109.593 74.8642 112.691 82.2506 113.996C92.2437 115.764 101.792 114.145 110.841 109.274C111.073 109.15 111.336 108.781 111.336 108.527C111.356 101.106 111.343 93.6837 111.334 86.2631C111.334 86.2325 111.314 86.2039 111.273 86.0873C110.947 86.2077 110.616 86.3185 110.291 86.4504C103.858 89.0666 97.423 91.6752 91.0004 94.3162C90.1924 94.6487 89.4812 94.6239 88.6768 94.2952C79.9683 90.7311 71.2489 87.1976 62.5314 83.6545C62.2323 83.5322 61.9313 83.4137 61.5085 83.2437C61.5085 84.3272 61.5121 85.2732 61.5067 86.2211C61.5049 86.5708 61.5156 86.9262 61.4637 87.2683C61.3365 88.1053 60.7668 88.6462 60.0663 88.5755C59.3139 88.499 58.8373 88.0327 58.8087 87.2205C58.7603 85.8217 58.7442 84.419 58.78 83.0182C58.7979 82.3397 58.5919 82.0206 57.981 81.7779C53.848 80.1363 49.7257 78.4623 45.6142 76.7557C45.0355 76.5168 44.5375 76.0429 44 75.676C44 73.1266 44 70.5792 44 68.0299ZM46.7589 74.1185C60.6181 79.756 74.4898 85.3974 88.4905 91.0923C88.4905 90.0928 88.4403 89.2978 88.5048 88.5124C88.5657 87.7766 88.2916 87.4709 87.661 87.2148C74.3196 81.8104 60.9854 76.3792 47.6511 70.9557C47.3824 70.8468 47.1029 70.7665 46.7589 70.648C46.7589 71.8252 46.7589 72.8954 46.7589 74.1185ZM114.073 107.414C115.333 106.486 116.384 105.668 117.475 104.921C118.04 104.533 118.235 104.082 118.231 103.359C118.203 97.0299 118.215 90.7005 118.215 84.3693C118.215 84.0368 118.215 83.7042 118.215 83.2398C117.013 83.7253 115.974 84.1954 114.905 84.5604C114.263 84.7801 114.05 85.1088 114.055 85.8427C114.091 90.3279 114.073 94.8131 114.073 99.2964C114.073 101.905 114.073 104.51 114.073 107.414ZM111.323 79.4197C110.594 79.7121 109.933 79.972 109.274 80.2395C103.512 82.5805 97.749 84.9197 91.9947 87.2798C91.708 87.3983 91.296 87.6926 91.2745 87.9353C91.1921 88.929 91.2405 89.9342 91.2405 91.0866C98.05 88.3175 104.693 85.6172 111.323 82.9207C111.323 81.755 111.323 80.6485 111.323 79.4197ZM114.075 81.6575C114.215 81.6575 114.312 81.6843 114.387 81.6537C120.457 79.1961 126.524 76.7385 132.585 74.2618C132.762 74.1892 132.985 73.9312 132.992 73.7496C133.031 72.7483 133.011 71.745 133.011 70.7283C132.814 70.7283 132.719 70.7015 132.644 70.7321C126.605 73.184 120.568 75.6377 114.537 78.1164C114.333 78.2004 114.109 78.554 114.097 78.7929C114.045 79.7446 114.075 80.6982 114.075 81.6575ZM112.742 120.893C111.388 120.883 110.297 122.032 110.288 123.473C110.279 124.893 111.384 126.097 112.706 126.11C114.029 126.125 115.145 124.939 115.152 123.511C115.161 122.059 114.097 120.903 112.742 120.893Z" fill="white"/>
<defs>
<filter id="filter0_d_4623_28634" x="0" y="0" width="180" height="180" filterUnits="userSpaceOnUse" color-interpolation-filters="sRGB">
<feFlood flood-opacity="0" result="BackgroundImageFix"/>
<feColorMatrix in="SourceAlpha" type="matrix" values="0 0 0 0 0 0 0 0 0 0 0 0 0 0 0 0 0 0 127 0" result="hardAlpha"/>
<feOffset dy="4"/>
<feGaussianBlur stdDeviation="10"/>
<feComposite in2="hardAlpha" operator="out"/>
<feColorMatrix type="matrix" values="0 0 0 0 0 0 0 0 0 0 0 0 0 0 0 0 0 0 0.08 0"/>
<feBlend mode="normal" in2="BackgroundImageFix" result="effect1_dropShadow_4623_28634"/>
<feBlend mode="normal" in="SourceGraphic" in2="effect1_dropShadow_4623_28634" result="shape"/>
</filter>
</defs>
</svg>
