<svg width="54" height="54" viewBox="0 0 54 54" fill="none" xmlns="http://www.w3.org/2000/svg">
<circle cx="27" cy="27" r="27" fill="#82D051"/>
<path d="M36.425 18.1512L36.015 21.1442C34.949 21.0622 34.17 21.2809 33.678 21.8002C33.186 22.3196 32.8853 23.0166 32.776 23.8912C32.6667 24.7659 32.6393 25.7089 32.694 26.7202H36.425V35.3712H29.414V25.0802C29.414 22.5656 30.0427 20.6796 31.3 19.4222C32.5847 18.1649 34.293 17.7412 36.425 18.1512ZM26.011 18.1512L25.601 21.1442C24.535 21.0622 23.756 21.2809 23.264 21.8002C22.772 22.3196 22.4713 23.0166 22.362 23.8912C22.2527 24.7659 22.2253 25.7089 22.28 26.7202H26.011V35.3712H19V25.0802C19 22.5656 19.6287 20.6796 20.886 19.4222C22.1707 18.1649 23.879 17.7412 26.011 18.1512Z" fill="white"/>
</svg>
