<svg width="111" height="22" viewBox="0 0 111 22" fill="none" xmlns="http://www.w3.org/2000/svg">
<path d="M5.489 16.3477V2.67466H0.22V0.507656H13.057V2.67466H7.788V16.3477H5.489ZM13.7216 16.3477V4.46766H15.7676V7.34966L15.4816 6.97566C15.6283 6.59432 15.819 6.24599 16.0536 5.93066C16.2883 5.60799 16.5596 5.34399 16.8676 5.13866C17.1683 4.91866 17.502 4.74999 17.8686 4.63266C18.2426 4.50799 18.624 4.43466 19.0126 4.41266C19.4013 4.38332 19.7753 4.40166 20.1346 4.46766V6.62366C19.746 6.52099 19.3133 6.49166 18.8366 6.53566C18.3673 6.57966 17.9346 6.72999 17.5386 6.98666C17.1646 7.22866 16.8676 7.52199 16.6476 7.86666C16.435 8.21132 16.281 8.59632 16.1856 9.02166C16.0903 9.43966 16.0426 9.88332 16.0426 10.3527V16.3477H13.7216ZM26.7065 16.6667C25.8851 16.6667 25.1958 16.5347 24.6385 16.2707C24.0811 16.0067 23.6265 15.662 23.2745 15.2367C22.9298 14.804 22.6658 14.3347 22.4825 13.8287C22.2991 13.3227 22.1745 12.8277 22.1085 12.3437C22.0425 11.8597 22.0095 11.4343 22.0095 11.0677V4.46766H24.3415V10.3087C24.3415 10.7707 24.3781 11.2473 24.4515 11.7387C24.5321 12.2227 24.6788 12.6737 24.8915 13.0917C25.1115 13.5097 25.4158 13.847 25.8045 14.1037C26.2005 14.3603 26.7138 14.4887 27.3445 14.4887C27.7551 14.4887 28.1438 14.4227 28.5105 14.2907C28.8771 14.1513 29.1961 13.9313 29.4675 13.6307C29.7461 13.33 29.9625 12.934 30.1165 12.4427C30.2778 11.9513 30.3585 11.3537 30.3585 10.6497L31.7885 11.1887C31.7885 12.2667 31.5868 13.22 31.1835 14.0487C30.7801 14.87 30.2008 15.5117 29.4455 15.9737C28.6901 16.4357 27.7771 16.6667 26.7065 16.6667ZM30.6335 16.3477V12.9157H30.3585V4.46766H32.6795V16.3477H30.6335ZM40.3076 16.6667C38.8629 16.6667 37.6859 16.3477 36.7766 15.7097C35.8673 15.0717 35.3099 14.1733 35.1046 13.0147L37.4586 12.6517C37.6053 13.2677 37.9426 13.7553 38.4706 14.1147C39.0059 14.4667 39.6696 14.6427 40.4616 14.6427C41.1803 14.6427 41.7413 14.496 42.1446 14.2027C42.5553 13.9093 42.7606 13.506 42.7606 12.9927C42.7606 12.692 42.6873 12.45 42.5406 12.2667C42.4013 12.076 42.1043 11.8963 41.6496 11.7277C41.1949 11.559 40.5019 11.35 39.5706 11.1007C38.5513 10.8367 37.7409 10.5543 37.1396 10.2537C36.5456 9.94566 36.1203 9.58999 35.8636 9.18666C35.6143 8.77599 35.4896 8.28099 35.4896 7.70166C35.4896 6.98299 35.6803 6.35599 36.0616 5.82066C36.4429 5.28532 36.9783 4.87099 37.6676 4.57766C38.3643 4.28432 39.1783 4.13766 40.1096 4.13766C41.0189 4.13766 41.8293 4.28066 42.5406 4.56666C43.2519 4.85266 43.8276 5.25966 44.2676 5.78766C44.7076 6.30832 44.9716 6.92066 45.0596 7.62466L42.7056 8.05366C42.6249 7.48166 42.3573 7.03066 41.9026 6.70066C41.4479 6.37066 40.8576 6.19099 40.1316 6.16166C39.4349 6.13232 38.8703 6.24966 38.4376 6.51366C38.0049 6.77032 37.7886 7.12599 37.7886 7.58066C37.7886 7.84466 37.8693 8.06832 38.0306 8.25166C38.1993 8.43499 38.5219 8.61099 38.9986 8.77966C39.4753 8.94832 40.1793 9.14999 41.1106 9.38466C42.1079 9.64132 42.8999 9.92732 43.4866 10.2427C44.0733 10.5507 44.4913 10.921 44.7406 11.3537C44.9973 11.779 45.1256 12.296 45.1256 12.9047C45.1256 14.078 44.6966 14.9983 43.8386 15.6657C42.9879 16.333 41.8109 16.6667 40.3076 16.6667ZM54.3575 16.3477C53.6095 16.4943 52.8762 16.5567 52.1575 16.5347C51.4389 16.5127 50.7972 16.3733 50.2325 16.1167C49.6679 15.86 49.2425 15.4567 48.9565 14.9067C48.6999 14.4153 48.5605 13.9167 48.5385 13.4107C48.5239 12.8973 48.5165 12.318 48.5165 11.6727V1.16765H50.8265V11.5627C50.8265 12.0393 50.8302 12.4537 50.8375 12.8057C50.8522 13.1577 50.9292 13.4547 51.0685 13.6967C51.3325 14.1513 51.7505 14.4117 52.3225 14.4777C52.9019 14.5363 53.5802 14.5107 54.3575 14.4007V16.3477ZM46.2395 6.31566V4.46766H54.3575V6.31566H46.2395ZM61.5942 16.6777C60.4135 16.6777 59.3758 16.421 58.4812 15.9077C57.5938 15.387 56.9008 14.6647 56.4022 13.7407C55.9108 12.8093 55.6652 11.7313 55.6652 10.5067C55.6652 9.20866 55.9072 8.08299 56.3912 7.12966C56.8825 6.17632 57.5645 5.43932 58.4372 4.91866C59.3098 4.39799 60.3255 4.13766 61.4842 4.13766C62.6942 4.13766 63.7245 4.41999 64.5752 4.98466C65.4258 5.54199 66.0602 6.33766 66.4782 7.37166C66.9035 8.40566 67.0722 9.63399 66.9842 11.0567H64.6852V10.2207C64.6705 8.84199 64.4065 7.82266 63.8932 7.16266C63.3872 6.50266 62.6135 6.17266 61.5722 6.17266C60.4208 6.17266 59.5555 6.53566 58.9762 7.26166C58.3968 7.98766 58.1072 9.03632 58.1072 10.4077C58.1072 11.713 58.3968 12.725 58.9762 13.4437C59.5555 14.155 60.3915 14.5107 61.4842 14.5107C62.2028 14.5107 62.8225 14.3493 63.3432 14.0267C63.8712 13.6967 64.2818 13.2273 64.5752 12.6187L66.8302 13.3337C66.3682 14.397 65.6678 15.222 64.7292 15.8087C63.7905 16.388 62.7455 16.6777 61.5942 16.6777ZM57.3592 11.0567V9.26366H65.8402V11.0567H57.3592ZM74.1711 16.6777C73.0638 16.6777 72.1068 16.4027 71.3001 15.8527C70.5008 15.3027 69.8811 14.5547 69.4411 13.6087C69.0084 12.6553 68.7921 11.5847 68.7921 10.3967C68.7921 9.20132 69.0121 8.13432 69.4521 7.19566C69.8921 6.24966 70.5154 5.50532 71.3221 4.96266C72.1361 4.41266 73.1004 4.13766 74.2151 4.13766C75.3371 4.13766 76.2794 4.41266 77.0421 4.96266C77.8121 5.50532 78.3914 6.24966 78.7801 7.19566C79.1761 8.14166 79.3741 9.20866 79.3741 10.3967C79.3741 11.5847 79.1761 12.6517 78.7801 13.5977C78.3841 14.5437 77.8011 15.2953 77.0311 15.8527C76.2611 16.4027 75.3078 16.6777 74.1711 16.6777ZM74.4901 14.5987C75.2454 14.5987 75.8614 14.419 76.3381 14.0597C76.8148 13.7003 77.1631 13.2053 77.3831 12.5747C77.6031 11.944 77.7131 11.218 77.7131 10.3967C77.7131 9.57532 77.5994 8.84932 77.3721 8.21866C77.1521 7.58799 76.8074 7.09666 76.3381 6.74466C75.8761 6.39266 75.2858 6.21666 74.5671 6.21666C73.8044 6.21666 73.1774 6.40366 72.6861 6.77766C72.1948 7.15166 71.8281 7.65399 71.5861 8.28466C71.3514 8.91532 71.2341 9.61932 71.2341 10.3967C71.2341 11.1813 71.3514 11.8927 71.5861 12.5307C71.8281 13.1613 72.1874 13.6637 72.6641 14.0377C73.1481 14.4117 73.7568 14.5987 74.4901 14.5987ZM77.7131 16.3477V7.80066H77.4491V0.507656H79.7591V16.3477H77.7131ZM92.8182 16.6777C91.6815 16.6777 90.7282 16.4027 89.9582 15.8527C89.1882 15.2953 88.6052 14.5437 88.2092 13.5977C87.8132 12.6517 87.6152 11.5847 87.6152 10.3967C87.6152 9.20866 87.8095 8.14166 88.1982 7.19566C88.5942 6.24966 89.1735 5.50532 89.9362 4.96266C90.7062 4.41266 91.6522 4.13766 92.7742 4.13766C93.8888 4.13766 94.8495 4.41266 95.6562 4.96266C96.4702 5.50532 97.0972 6.24966 97.5372 7.19566C97.9772 8.13432 98.1972 9.20132 98.1972 10.3967C98.1972 11.5847 97.9772 12.6553 97.5372 13.6087C97.1045 14.5547 96.4848 15.3027 95.6782 15.8527C94.8788 16.4027 93.9255 16.6777 92.8182 16.6777ZM87.2302 16.3477V0.507656H89.5402V7.80066H89.2762V16.3477H87.2302ZM92.4992 14.5987C93.2325 14.5987 93.8375 14.4117 94.3142 14.0377C94.7982 13.6637 95.1575 13.1613 95.3922 12.5307C95.6342 11.8927 95.7552 11.1813 95.7552 10.3967C95.7552 9.61932 95.6342 8.91532 95.3922 8.28466C95.1575 7.65399 94.7945 7.15166 94.3032 6.77766C93.8118 6.40366 93.1848 6.21666 92.4222 6.21666C91.7035 6.21666 91.1095 6.39266 90.6402 6.74466C90.1782 7.09666 89.8335 7.58799 89.6062 8.21866C89.3862 8.84932 89.2762 9.57532 89.2762 10.3967C89.2762 11.218 89.3862 11.944 89.6062 12.5747C89.8262 13.2053 90.1745 13.7003 90.6512 14.0597C91.1278 14.419 91.7438 14.5987 92.4992 14.5987ZM102.232 21.6277L104.531 15.3687L104.564 17.2167L99.3829 4.46766H101.781L105.653 14.3127H104.949L108.645 4.46766H110.977L104.421 21.6277H102.232Z" fill="#BCBCBC"/>
</svg>
