<svg width="185" height="61" viewBox="0 0 185 61" fill="none" xmlns="http://www.w3.org/2000/svg">
<rect width="184.064" height="60.272" rx="30.136" fill="#82D051"/>
<path d="M26.4 36.225C25.54 36.225 24.7825 36.05 24.1275 35.7C23.4775 35.35 22.9675 34.8575 22.5975 34.2225C22.2325 33.5875 22.05 32.8425 22.05 31.9875V25.215L23.88 25.2V31.9425C23.88 32.3475 23.9475 32.71 24.0825 33.03C24.2225 33.35 24.41 33.6225 24.645 33.8475C24.88 34.0675 25.15 34.235 25.455 34.35C25.76 34.465 26.075 34.5225 26.4 34.5225C26.735 34.5225 27.0525 34.465 27.3525 34.35C27.6575 34.23 27.9275 34.06 28.1625 33.84C28.3975 33.615 28.5825 33.3425 28.7175 33.0225C28.8525 32.7025 28.92 32.3425 28.92 31.9425V25.2H30.75V31.9875C30.75 32.8425 30.565 33.5875 30.195 34.2225C29.83 34.8575 29.32 35.35 28.665 35.7C28.015 36.05 27.26 36.225 26.4 36.225ZM36.9884 36.225C36.1984 36.225 35.5359 36.0375 35.0009 35.6625C34.4659 35.2875 34.0634 34.7775 33.7934 34.1325C33.5234 33.4825 33.3884 32.755 33.3884 31.95C33.3884 31.135 33.5234 30.405 33.7934 29.76C34.0634 29.115 34.4584 28.6075 34.9784 28.2375C35.5034 27.8625 36.1509 27.675 36.9209 27.675C37.6859 27.675 38.3484 27.8625 38.9084 28.2375C39.4734 28.6075 39.9109 29.115 40.2209 29.76C40.5309 30.4 40.6859 31.13 40.6859 31.95C40.6859 32.76 40.5334 33.4875 40.2284 34.1325C39.9234 34.7775 39.4934 35.2875 38.9384 35.6625C38.3834 36.0375 37.7334 36.225 36.9884 36.225ZM33.0809 39.6V27.9H34.6784V33.585H34.9034V39.6H33.0809ZM36.7109 34.605C37.1809 34.605 37.5684 34.4875 37.8734 34.2525C38.1784 34.0175 38.4034 33.7 38.5484 33.3C38.6984 32.895 38.7734 32.445 38.7734 31.95C38.7734 31.46 38.6984 31.015 38.5484 30.615C38.3984 30.21 38.1659 29.89 37.8509 29.655C37.5359 29.415 37.1359 29.295 36.6509 29.295C36.1909 29.295 35.8159 29.4075 35.5259 29.6325C35.2359 29.8525 35.0209 30.1625 34.8809 30.5625C34.7459 30.9575 34.6784 31.42 34.6784 31.95C34.6784 32.475 34.7459 32.9375 34.8809 33.3375C35.0209 33.7375 35.2384 34.05 35.5334 34.275C35.8334 34.495 36.2259 34.605 36.7109 34.605ZM42.7391 36V24.975H44.5466V36H42.7391ZM50.6207 36.225C49.8107 36.225 49.1032 36.0425 48.4982 35.6775C47.8932 35.3125 47.4232 34.81 47.0882 34.17C46.7582 33.525 46.5932 32.785 46.5932 31.95C46.5932 31.1 46.7632 30.355 47.1032 29.715C47.4432 29.075 47.9157 28.575 48.5207 28.215C49.1257 27.855 49.8257 27.675 50.6207 27.675C51.4357 27.675 52.1457 27.8575 52.7507 28.2225C53.3557 28.5875 53.8257 29.0925 54.1607 29.7375C54.4957 30.3775 54.6632 31.115 54.6632 31.95C54.6632 32.79 54.4932 33.5325 54.1532 34.1775C53.8182 34.8175 53.3482 35.32 52.7432 35.685C52.1382 36.045 51.4307 36.225 50.6207 36.225ZM50.6207 34.53C51.3407 34.53 51.8757 34.29 52.2257 33.81C52.5757 33.33 52.7507 32.71 52.7507 31.95C52.7507 31.165 52.5732 30.54 52.2182 30.075C51.8632 29.605 51.3307 29.37 50.6207 29.37C50.1357 29.37 49.7357 29.48 49.4207 29.7C49.1107 29.915 48.8807 30.2175 48.7307 30.6075C48.5807 30.9925 48.5057 31.44 48.5057 31.95C48.5057 32.735 48.6832 33.3625 49.0382 33.8325C49.3982 34.2975 49.9257 34.53 50.6207 34.53ZM58.8306 36.225C58.2456 36.225 57.7506 36.115 57.3456 35.895C56.9406 35.67 56.6331 35.3725 56.4231 35.0025C56.2181 34.6325 56.1156 34.225 56.1156 33.78C56.1156 33.39 56.1806 33.04 56.3106 32.73C56.4406 32.415 56.6406 32.145 56.9106 31.92C57.1806 31.69 57.5306 31.5025 57.9606 31.3575C58.2856 31.2525 58.6656 31.1575 59.1006 31.0725C59.5406 30.9875 60.0156 30.91 60.5256 30.84C61.0406 30.765 61.5781 30.685 62.1381 30.6L61.4931 30.9675C61.4981 30.4075 61.3731 29.995 61.1181 29.73C60.8631 29.465 60.4331 29.3325 59.8281 29.3325C59.4631 29.3325 59.1106 29.4175 58.7706 29.5875C58.4306 29.7575 58.1931 30.05 58.0581 30.465L56.4081 29.9475C56.6081 29.2625 56.9881 28.7125 57.5481 28.2975C58.1131 27.8825 58.8731 27.675 59.8281 27.675C60.5481 27.675 61.1806 27.7925 61.7256 28.0275C62.2756 28.2625 62.6831 28.6475 62.9481 29.1825C63.0931 29.4675 63.1806 29.76 63.2106 30.06C63.2406 30.355 63.2556 30.6775 63.2556 31.0275V36H61.6731V34.245L61.9356 34.53C61.5706 35.115 61.1431 35.545 60.6531 35.82C60.1681 36.09 59.5606 36.225 58.8306 36.225ZM59.1906 34.785C59.6006 34.785 59.9506 34.7125 60.2406 34.5675C60.5306 34.4225 60.7606 34.245 60.9306 34.035C61.1056 33.825 61.2231 33.6275 61.2831 33.4425C61.3781 33.2125 61.4306 32.95 61.4406 32.655C61.4556 32.355 61.4631 32.1125 61.4631 31.9275L62.0181 32.0925C61.4731 32.1775 61.0056 32.2525 60.6156 32.3175C60.2256 32.3825 59.8906 32.445 59.6106 32.505C59.3306 32.56 59.0831 32.6225 58.8681 32.6925C58.6581 32.7675 58.4806 32.855 58.3356 32.955C58.1906 33.055 58.0781 33.17 57.9981 33.3C57.9231 33.43 57.8856 33.5825 57.8856 33.7575C57.8856 33.9575 57.9356 34.135 58.0356 34.29C58.1356 34.44 58.2806 34.56 58.4706 34.65C58.6656 34.74 58.9056 34.785 59.1906 34.785ZM68.7057 36.225C67.9607 36.225 67.3107 36.0375 66.7557 35.6625C66.2007 35.2875 65.7707 34.7775 65.4657 34.1325C65.1607 33.4875 65.0082 32.76 65.0082 31.95C65.0082 31.13 65.1607 30.4 65.4657 29.76C65.7757 29.115 66.2132 28.6075 66.7782 28.2375C67.3432 27.8625 68.0082 27.675 68.7732 27.675C69.5432 27.675 70.1882 27.8625 70.7082 28.2375C71.2332 28.6075 71.6307 29.115 71.9007 29.76C72.1707 30.405 72.3057 31.135 72.3057 31.95C72.3057 32.755 72.1707 33.4825 71.9007 34.1325C71.6307 34.7775 71.2282 35.2875 70.6932 35.6625C70.1582 36.0375 69.4957 36.225 68.7057 36.225ZM68.9832 34.605C69.4682 34.605 69.8582 34.495 70.1532 34.275C70.4532 34.05 70.6707 33.7375 70.8057 33.3375C70.9457 32.9375 71.0157 32.475 71.0157 31.95C71.0157 31.42 70.9457 30.9575 70.8057 30.5625C70.6707 30.1625 70.4582 29.8525 70.1682 29.6325C69.8782 29.4075 69.5032 29.295 69.0432 29.295C68.5582 29.295 68.1582 29.415 67.8432 29.655C67.5282 29.89 67.2957 30.21 67.1457 30.615C66.9957 31.015 66.9207 31.46 66.9207 31.95C66.9207 32.445 66.9932 32.895 67.1382 33.3C67.2882 33.7 67.5157 34.0175 67.8207 34.2525C68.1257 34.4875 68.5132 34.605 68.9832 34.605ZM71.0157 36V30.315H70.7907V25.2H72.6132V36H71.0157ZM78.2189 36V25.2H82.6814C82.7864 25.2 82.9214 25.205 83.0864 25.215C83.2514 25.22 83.4039 25.235 83.5439 25.26C84.1689 25.355 84.6839 25.5625 85.0889 25.8825C85.4989 26.2025 85.8014 26.6075 85.9964 27.0975C86.1964 27.5825 86.2964 28.1225 86.2964 28.7175C86.2964 29.3075 86.1964 29.8475 85.9964 30.3375C85.7964 30.8225 85.4914 31.225 85.0814 31.545C84.6764 31.865 84.1639 32.0725 83.5439 32.1675C83.4039 32.1875 83.2489 32.2025 83.0789 32.2125C82.9139 32.2225 82.7814 32.2275 82.6814 32.2275H80.0264V36H78.2189ZM80.0264 30.54H82.6064C82.7064 30.54 82.8189 30.535 82.9439 30.525C83.0689 30.515 83.1839 30.495 83.2889 30.465C83.5889 30.39 83.8239 30.2575 83.9939 30.0675C84.1689 29.8775 84.2914 29.6625 84.3614 29.4225C84.4364 29.1825 84.4739 28.9475 84.4739 28.7175C84.4739 28.4875 84.4364 28.2525 84.3614 28.0125C84.2914 27.7675 84.1689 27.55 83.9939 27.36C83.8239 27.17 83.5889 27.0375 83.2889 26.9625C83.1839 26.9325 83.0689 26.915 82.9439 26.91C82.8189 26.9 82.7064 26.895 82.6064 26.895H80.0264V30.54ZM93.6515 36V32.1C93.6515 31.845 93.634 31.5625 93.599 31.2525C93.564 30.9425 93.4815 30.645 93.3515 30.36C93.2265 30.07 93.0365 29.8325 92.7815 29.6475C92.5315 29.4625 92.1915 29.37 91.7615 29.37C91.5315 29.37 91.304 29.4075 91.079 29.4825C90.854 29.5575 90.649 29.6875 90.464 29.8725C90.284 30.0525 90.139 30.3025 90.029 30.6225C89.919 30.9375 89.864 31.3425 89.864 31.8375L88.7915 31.38C88.7915 30.69 88.924 30.065 89.189 29.505C89.459 28.945 89.854 28.5 90.374 28.17C90.894 27.835 91.534 27.6675 92.294 27.6675C92.894 27.6675 93.389 27.7675 93.779 27.9675C94.169 28.1675 94.479 28.4225 94.709 28.7325C94.939 29.0425 95.109 29.3725 95.219 29.7225C95.329 30.0725 95.399 30.405 95.429 30.72C95.464 31.03 95.4815 31.2825 95.4815 31.4775V36H93.6515ZM88.034 36V25.2H89.6465V30.885H89.864V36H88.034ZM101.266 36.225C100.456 36.225 99.7487 36.0425 99.1437 35.6775C98.5387 35.3125 98.0687 34.81 97.7337 34.17C97.4037 33.525 97.2387 32.785 97.2387 31.95C97.2387 31.1 97.4087 30.355 97.7487 29.715C98.0887 29.075 98.5612 28.575 99.1662 28.215C99.7712 27.855 100.471 27.675 101.266 27.675C102.081 27.675 102.791 27.8575 103.396 28.2225C104.001 28.5875 104.471 29.0925 104.806 29.7375C105.141 30.3775 105.309 31.115 105.309 31.95C105.309 32.79 105.139 33.5325 104.799 34.1775C104.464 34.8175 103.994 35.32 103.389 35.685C102.784 36.045 102.076 36.225 101.266 36.225ZM101.266 34.53C101.986 34.53 102.521 34.29 102.871 33.81C103.221 33.33 103.396 32.71 103.396 31.95C103.396 31.165 103.219 30.54 102.864 30.075C102.509 29.605 101.976 29.37 101.266 29.37C100.781 29.37 100.381 29.48 100.066 29.7C99.7562 29.915 99.5262 30.2175 99.3762 30.6075C99.2262 30.9925 99.1512 31.44 99.1512 31.95C99.1512 32.735 99.3287 33.3625 99.6837 33.8325C100.044 34.2975 100.571 34.53 101.266 34.53ZM111.959 36C111.424 36.1 110.899 36.1425 110.384 36.1275C109.874 36.1175 109.416 36.025 109.011 35.85C108.606 35.67 108.299 35.3875 108.089 35.0025C107.904 34.6525 107.806 34.295 107.796 33.93C107.786 33.565 107.781 33.1525 107.781 32.6925V25.65H109.581V32.5875C109.581 32.9125 109.584 33.1975 109.589 33.4425C109.599 33.6875 109.651 33.8875 109.746 34.0425C109.926 34.3425 110.214 34.51 110.609 34.545C111.004 34.58 111.454 34.56 111.959 34.485V36ZM106.311 29.3175V27.9H111.959V29.3175H106.311ZM117.118 36.225C116.308 36.225 115.6 36.0425 114.995 35.6775C114.39 35.3125 113.92 34.81 113.585 34.17C113.255 33.525 113.09 32.785 113.09 31.95C113.09 31.1 113.26 30.355 113.6 29.715C113.94 29.075 114.413 28.575 115.018 28.215C115.623 27.855 116.323 27.675 117.118 27.675C117.933 27.675 118.643 27.8575 119.248 28.2225C119.853 28.5875 120.323 29.0925 120.658 29.7375C120.993 30.3775 121.16 31.115 121.16 31.95C121.16 32.79 120.99 33.5325 120.65 34.1775C120.315 34.8175 119.845 35.32 119.24 35.685C118.635 36.045 117.928 36.225 117.118 36.225ZM117.118 34.53C117.838 34.53 118.373 34.29 118.723 33.81C119.073 33.33 119.248 32.71 119.248 31.95C119.248 31.165 119.07 30.54 118.715 30.075C118.36 29.605 117.828 29.37 117.118 29.37C116.633 29.37 116.233 29.48 115.918 29.7C115.608 29.915 115.378 30.2175 115.228 30.6075C115.078 30.9925 115.003 31.44 115.003 31.95C115.003 32.735 115.18 33.3625 115.535 33.8325C115.895 34.2975 116.423 34.53 117.118 34.53Z" fill="#FCFCFC"/>
<path d="M24.1275 35.7L24.0327 35.8761L24.0332 35.8764L24.1275 35.7ZM22.5975 34.2225L22.4241 34.3222L22.4247 34.3232L22.5975 34.2225ZM22.05 25.215L22.0484 25.015L21.85 25.0166V25.215H22.05ZM23.88 25.2H24.08V24.9984L23.8784 25L23.88 25.2ZM24.0825 33.03L23.8982 33.1077L23.8993 33.1102L24.0825 33.03ZM24.645 33.8475L24.5067 33.992L24.5083 33.9935L24.645 33.8475ZM27.3525 34.35L27.4241 34.5368L27.4257 34.5361L27.3525 34.35ZM28.1625 33.84L28.2992 33.986L28.3008 33.9845L28.1625 33.84ZM28.92 25.2V25H28.72V25.2H28.92ZM30.75 25.2H30.95V25H30.75V25.2ZM30.195 34.2225L30.0222 34.1218L30.0216 34.1228L30.195 34.2225ZM28.665 35.7L28.5707 35.5236L28.5702 35.5239L28.665 35.7ZM26.4 36.025C25.5677 36.025 24.8435 35.8558 24.2218 35.5236L24.0332 35.8764C24.7215 36.2442 25.5123 36.425 26.4 36.425V36.025ZM24.2223 35.5239C23.6046 35.1913 23.1217 34.7248 22.7703 34.1218L22.4247 34.3232C22.8133 34.9902 23.3504 35.5087 24.0327 35.8761L24.2223 35.5239ZM22.7709 34.1228C22.4261 33.5229 22.25 32.8134 22.25 31.9875H21.85C21.85 32.8716 22.0389 33.6521 22.4241 34.3222L22.7709 34.1228ZM22.25 31.9875V25.215H21.85V31.9875H22.25ZM22.0516 25.415L23.8816 25.4L23.8784 25L22.0484 25.015L22.0516 25.415ZM23.68 25.2V31.9425H24.08V25.2H23.68ZM23.68 31.9425C23.68 32.3698 23.7513 32.7594 23.8982 33.1077L24.2668 32.9523C24.1437 32.6606 24.08 32.3252 24.08 31.9425H23.68ZM23.8993 33.1102C24.0491 33.4526 24.2512 33.7474 24.5067 33.992L24.7833 33.703C24.5688 33.4976 24.3959 33.2474 24.2657 32.9498L23.8993 33.1102ZM24.5083 33.9935C24.7627 34.2316 25.0552 34.413 25.3844 34.5371L25.5256 34.1629C25.2448 34.057 24.9973 33.9034 24.7817 33.7015L24.5083 33.9935ZM25.3844 34.5371C25.7119 34.6606 26.0508 34.7225 26.4 34.7225V34.3225C26.0992 34.3225 25.8081 34.2694 25.5256 34.1629L25.3844 34.5371ZM26.4 34.7225C26.7584 34.7225 27.1003 34.6609 27.4241 34.5367L27.2809 34.1633C27.0047 34.2691 26.7116 34.3225 26.4 34.3225V34.7225ZM27.4257 34.5361C27.7538 34.407 28.0454 34.2236 28.2992 33.986L28.0258 33.694C27.8096 33.8964 27.5612 34.053 27.2793 34.1639L27.4257 34.5361ZM28.3008 33.9845C28.5568 33.7393 28.7569 33.4437 28.9018 33.1002L28.5332 32.9448C28.4081 33.2413 28.2382 33.4907 28.0242 33.6955L28.3008 33.9845ZM28.9018 33.1002C29.0486 32.7522 29.12 32.3652 29.12 31.9425H28.72C28.72 32.3198 28.6564 32.6528 28.5332 32.9448L28.9018 33.1002ZM29.12 31.9425V25.2H28.72V31.9425H29.12ZM28.92 25.4H30.75V25H28.92V25.4ZM30.55 25.2V31.9875H30.95V25.2H30.55ZM30.55 31.9875C30.55 32.813 30.3717 33.5221 30.0222 34.1218L30.3678 34.3232C30.7583 33.6529 30.95 32.872 30.95 31.9875H30.55ZM30.0216 34.1228C29.6755 34.7249 29.1932 35.191 28.5707 35.5236L28.7593 35.8764C29.4468 35.509 29.9845 34.9901 30.3684 34.3222L30.0216 34.1228ZM28.5702 35.5239C27.9538 35.8558 27.2324 36.025 26.4 36.025V36.425C27.2876 36.425 28.0762 36.2442 28.7598 35.8761L28.5702 35.5239ZM35.0009 35.6625L34.8861 35.8263L35.0009 35.6625ZM33.7934 34.1325L33.6087 34.2092L33.6089 34.2097L33.7934 34.1325ZM33.7934 29.76L33.9779 29.8372L33.9779 29.8372L33.7934 29.76ZM34.9784 28.2375L35.0943 28.4005L35.0946 28.4002L34.9784 28.2375ZM38.9084 28.2375L38.7971 28.4037L38.7988 28.4048L38.9084 28.2375ZM40.2209 29.76L40.0406 29.8466L40.0409 29.8472L40.2209 29.76ZM40.2284 34.1325L40.0476 34.047L40.2284 34.1325ZM38.9384 35.6625L38.8264 35.4968L38.8264 35.4968L38.9384 35.6625ZM33.0809 39.6H32.8809V39.8H33.0809V39.6ZM33.0809 27.9V27.7H32.8809V27.9H33.0809ZM34.6784 27.9H34.8784V27.7H34.6784V27.9ZM34.6784 33.585H34.4784V33.785H34.6784V33.585ZM34.9034 33.585H35.1034V33.385H34.9034V33.585ZM34.9034 39.6V39.8H35.1034V39.6H34.9034ZM37.8734 34.2525L37.7513 34.0941L37.7513 34.0941L37.8734 34.2525ZM38.5484 33.3L38.3608 33.2305L38.3604 33.2318L38.5484 33.3ZM38.5484 30.615L38.3608 30.6845L38.3611 30.6852L38.5484 30.615ZM37.8509 29.655L37.7297 29.8141L37.7313 29.8153L37.8509 29.655ZM35.5259 29.6325L35.6468 29.7918L35.6485 29.7905L35.5259 29.6325ZM34.8809 30.5625L34.6921 30.4964L34.6916 30.4978L34.8809 30.5625ZM34.8809 33.3375L34.6914 33.4015L34.6921 33.4036L34.8809 33.3375ZM35.5334 34.275L35.4121 34.4341L35.4151 34.4363L35.5334 34.275ZM36.9884 36.025C36.2307 36.025 35.6105 35.8456 35.1157 35.4987L34.8861 35.8263C35.4613 36.2294 36.1661 36.425 36.9884 36.425V36.025ZM35.1157 35.4987C34.6138 35.1469 34.2344 34.668 33.9779 34.0553L33.6089 34.2097C33.8924 34.887 34.318 35.4281 34.8861 35.8263L35.1157 35.4987ZM33.9781 34.0558C33.7195 33.4333 33.5884 32.7324 33.5884 31.95H33.1884C33.1884 32.7776 33.3273 33.5317 33.6087 34.2092L33.9781 34.0558ZM33.5884 31.95C33.5884 31.1572 33.7197 30.4541 33.9779 29.8372L33.6089 29.6828C33.3271 30.3559 33.1884 31.1128 33.1884 31.95H33.5884ZM33.9779 29.8372C34.2349 29.2232 34.6076 28.7468 35.0943 28.4005L34.8624 28.0745C34.3092 28.4682 33.8919 29.0068 33.6089 29.6828L33.9779 29.8372ZM35.0946 28.4002C35.5796 28.0539 36.1843 27.875 36.9209 27.875V27.475C36.1175 27.475 35.4272 27.6711 34.8622 28.0748L35.0946 28.4002ZM36.9209 27.875C37.6518 27.875 38.2744 28.0536 38.7971 28.4037L39.0197 28.0713C38.4224 27.6714 37.72 27.475 36.9209 27.475V27.875ZM38.7988 28.4048C39.3315 28.7537 39.7454 29.2324 40.0406 29.8466L40.4012 29.6734C40.0764 28.9976 39.6153 28.4613 39.018 28.0702L38.7988 28.4048ZM40.0409 29.8472C40.3359 30.4561 40.4859 31.1556 40.4859 31.95H40.8859C40.8859 31.1044 40.7259 30.3439 40.4009 29.6728L40.0409 29.8472ZM40.4859 31.95C40.4859 32.7344 40.3383 33.4321 40.0476 34.047L40.4092 34.218C40.7285 33.5429 40.8859 32.7856 40.8859 31.95H40.4859ZM40.0476 34.047C39.7569 34.6618 39.3498 35.1432 38.8264 35.4968L39.0504 35.8282C39.637 35.4318 40.0899 34.8932 40.4092 34.218L40.0476 34.047ZM38.8264 35.4968C38.3082 35.847 37.6981 36.025 36.9884 36.025V36.425C37.7686 36.425 38.4586 36.228 39.0504 35.8282L38.8264 35.4968ZM33.2809 39.6V27.9H32.8809V39.6H33.2809ZM33.0809 28.1H34.6784V27.7H33.0809V28.1ZM34.4784 27.9V33.585H34.8784V27.9H34.4784ZM34.6784 33.785H34.9034V33.385H34.6784V33.785ZM34.7034 33.585V39.6H35.1034V33.585H34.7034ZM34.9034 39.4H33.0809V39.8H34.9034V39.4ZM36.7109 34.805C37.2151 34.805 37.6483 34.6784 37.9955 34.4109L37.7513 34.0941C37.4885 34.2966 37.1467 34.405 36.7109 34.405V34.805ZM37.9955 34.4109C38.3337 34.1503 38.5799 33.8 38.7364 33.3682L38.3604 33.2318C38.2269 33.6 38.0231 33.8847 37.7513 34.0941L37.9955 34.4109ZM38.7359 33.3695C38.8953 32.9392 38.9734 32.4653 38.9734 31.95H38.5734C38.5734 32.4247 38.5015 32.8508 38.3608 33.2305L38.7359 33.3695ZM38.9734 31.95C38.9734 31.4395 38.8952 30.9703 38.7357 30.5448L38.3611 30.6852C38.5016 31.0597 38.5734 31.4805 38.5734 31.95H38.9734ZM38.7359 30.5455C38.5739 30.1081 38.3195 29.755 37.9705 29.4947L37.7313 29.8153C38.0123 30.025 38.2229 30.3119 38.3608 30.6845L38.7359 30.5455ZM37.9721 29.4959C37.615 29.2239 37.1696 29.095 36.6509 29.095V29.495C37.1022 29.495 37.4568 29.6061 37.7297 29.8141L37.9721 29.4959ZM36.6509 29.095C36.158 29.095 35.7365 29.216 35.4033 29.4745L35.6485 29.7905C35.8953 29.599 36.2238 29.495 36.6509 29.495V29.095ZM35.405 29.4732C35.0788 29.7206 34.8429 30.0656 34.6921 30.4964L35.0697 30.6286C35.1989 30.2594 35.393 29.9844 35.6468 29.7918L35.405 29.4732ZM34.6916 30.4978C34.5479 30.9184 34.4784 31.4036 34.4784 31.95H34.8784C34.8784 31.4364 34.9439 30.9966 35.0702 30.6272L34.6916 30.4978ZM34.4784 31.95C34.4784 32.4917 34.548 32.9765 34.6914 33.4015L35.0704 33.2735C34.9438 32.8985 34.8784 32.4583 34.8784 31.95H34.4784ZM34.6921 33.4036C34.8432 33.8351 35.0817 34.1821 35.4121 34.434L35.6547 34.116C35.395 33.9179 35.1986 33.6399 35.0697 33.2714L34.6921 33.4036ZM35.4151 34.4363C35.7585 34.6881 36.1963 34.805 36.7109 34.805V34.405C36.2555 34.405 35.9083 34.3019 35.6517 34.1137L35.4151 34.4363ZM42.7391 36H42.5391V36.2H42.7391V36ZM42.7391 24.975V24.775H42.5391V24.975H42.7391ZM44.5466 24.975H44.7466V24.775H44.5466V24.975ZM44.5466 36V36.2H44.7466V36H44.5466ZM42.9391 36V24.975H42.5391V36H42.9391ZM42.7391 25.175H44.5466V24.775H42.7391V25.175ZM44.3466 24.975V36H44.7466V24.975H44.3466ZM44.5466 35.8H42.7391V36.2H44.5466V35.8ZM48.4982 35.6775L48.6015 35.5063L48.6015 35.5063L48.4982 35.6775ZM47.0882 34.17L46.9101 34.2611L46.911 34.2627L47.0882 34.17ZM47.1032 29.715L46.9265 29.6212L46.9265 29.6212L47.1032 29.715ZM48.5207 28.215L48.4184 28.0431L48.4184 28.0431L48.5207 28.215ZM52.7507 28.2225L52.854 28.0513L52.854 28.0513L52.7507 28.2225ZM54.1607 29.7375L53.9832 29.8297L53.9835 29.8302L54.1607 29.7375ZM54.1532 34.1775L53.9762 34.0842L53.976 34.0848L54.1532 34.1775ZM52.7432 35.685L52.8454 35.8569L52.8465 35.8562L52.7432 35.685ZM52.2257 33.81L52.0641 33.6922L52.0641 33.6922L52.2257 33.81ZM52.2182 30.075L52.0586 30.1955L52.0592 30.1964L52.2182 30.075ZM49.4207 29.7L49.5346 29.8643L49.5352 29.864L49.4207 29.7ZM48.7307 30.6075L48.917 30.6801L48.9173 30.6793L48.7307 30.6075ZM49.0382 33.8325L48.8786 33.9531L48.88 33.9549L49.0382 33.8325ZM50.6207 36.025C49.8416 36.025 49.171 35.8498 48.6015 35.5063L48.3948 35.8487C49.0354 36.2352 49.7797 36.425 50.6207 36.425V36.025ZM48.6015 35.5063C48.0286 35.1606 47.5838 34.6856 47.2654 34.0773L46.911 34.2627C47.2625 34.9344 47.7578 35.4644 48.3948 35.8487L48.6015 35.5063ZM47.2662 34.0789C46.9527 33.4661 46.7932 32.7582 46.7932 31.95H46.3932C46.3932 32.8118 46.5636 33.5839 46.9101 34.2611L47.2662 34.0789ZM46.7932 31.95C46.7932 31.1271 46.9576 30.4153 47.2798 29.8088L46.9265 29.6212C46.5687 30.2947 46.3932 31.0729 46.3932 31.95H46.7932ZM47.2798 29.8088C47.6031 29.2002 48.0504 28.7276 48.6229 28.3869L48.4184 28.0431C47.781 28.4224 47.2832 28.9498 46.9265 29.6212L47.2798 29.8088ZM48.6229 28.3869C49.1932 28.0476 49.8569 27.875 50.6207 27.875V27.475C49.7944 27.475 49.0582 27.6624 48.4184 28.0431L48.6229 28.3869ZM50.6207 27.875C51.4049 27.875 52.0781 28.0503 52.6473 28.3937L52.854 28.0513C52.2133 27.6647 51.4664 27.475 50.6207 27.475V27.875ZM52.6473 28.3937C53.2199 28.7392 53.6646 29.2164 53.9832 29.8297L54.3382 29.6453C53.9867 28.9686 53.4914 28.4358 52.854 28.0513L52.6473 28.3937ZM53.9835 29.8302C54.3013 30.4375 54.4632 31.1422 54.4632 31.95H54.8632C54.8632 31.0878 54.69 30.3175 54.3379 29.6448L53.9835 29.8302ZM54.4632 31.95C54.4632 32.7625 54.2989 33.4721 53.9762 34.0842L54.3301 34.2708C54.6874 33.5929 54.8632 32.8175 54.8632 31.95H54.4632ZM53.976 34.0848C53.6575 34.6931 53.2128 35.1681 52.6398 35.5138L52.8465 35.8562C53.4836 35.4719 53.9788 34.9419 54.3304 34.2702L53.976 34.0848ZM52.6409 35.5131C52.0712 35.8521 51.4002 36.025 50.6207 36.025V36.425C51.4612 36.425 52.2051 36.2379 52.8454 35.8569L52.6409 35.5131ZM50.6207 34.73C51.3893 34.73 51.9914 34.4707 52.3873 33.9278L52.0641 33.6922C51.7599 34.1093 51.292 34.33 50.6207 34.33V34.73ZM52.3873 33.9278C52.7684 33.4051 52.9507 32.7405 52.9507 31.95H52.5507C52.5507 32.6795 52.3829 33.2549 52.0641 33.6922L52.3873 33.9278ZM52.9507 31.95C52.9507 31.136 52.7666 30.4637 52.3771 29.9536L52.0592 30.1964C52.3798 30.6163 52.5507 31.194 52.5507 31.95H52.9507ZM52.3778 29.9545C51.977 29.4239 51.3789 29.17 50.6207 29.17V29.57C51.2824 29.57 51.7493 29.7861 52.0586 30.1955L52.3778 29.9545ZM50.6207 29.17C50.1055 29.17 49.6626 29.2871 49.3061 29.536L49.5352 29.864C49.8087 29.6729 50.1658 29.57 50.6207 29.57V29.17ZM49.3067 29.5357C48.9602 29.776 48.7068 30.1125 48.544 30.5357L48.9173 30.6793C49.0545 30.3225 49.2611 30.054 49.5346 29.8643L49.3067 29.5357ZM48.5443 30.5349C48.3835 30.9478 48.3057 31.4208 48.3057 31.95H48.7057C48.7057 31.4592 48.7779 31.0372 48.917 30.6801L48.5443 30.5349ZM48.3057 31.95C48.3057 32.7641 48.4898 33.4384 48.8786 33.953L49.1978 33.712C48.8765 33.2866 48.7057 32.7059 48.7057 31.95H48.3057ZM48.88 33.9549C49.285 34.4781 49.8764 34.73 50.6207 34.73V34.33C49.9749 34.33 49.5113 34.1169 49.1963 33.7101L48.88 33.9549ZM57.3456 35.895L57.2485 36.0698L57.2502 36.0707L57.3456 35.895ZM56.4231 35.0025L56.2482 35.0994L56.2492 35.1012L56.4231 35.0025ZM56.3106 32.73L56.4951 32.8073L56.4955 32.8063L56.3106 32.73ZM56.9106 31.92L57.0387 32.0737L57.0403 32.0722L56.9106 31.92ZM57.9606 31.3575L57.8991 31.1672L57.8967 31.168L57.9606 31.3575ZM59.1006 31.0725L59.0627 30.8761L59.0623 30.8762L59.1006 31.0725ZM60.5256 30.84L60.5528 31.0381L60.5544 31.0379L60.5256 30.84ZM62.1381 30.6L62.2371 30.7738L62.1081 30.4023L62.1381 30.6ZM61.4931 30.9675L61.2931 30.9657L61.29 31.3134L61.5921 31.1413L61.4931 30.9675ZM61.1181 29.73L60.974 29.8687L60.974 29.8687L61.1181 29.73ZM58.7706 29.5875L58.8601 29.7664L58.8601 29.7664L58.7706 29.5875ZM58.0581 30.465L57.9983 30.6558L58.1871 30.7151L58.2483 30.5269L58.0581 30.465ZM56.4081 29.9475L56.2161 29.8914L56.1612 30.0797L56.3483 30.1383L56.4081 29.9475ZM57.5481 28.2975L57.4297 28.1363L57.429 28.1368L57.5481 28.2975ZM61.7256 28.0275L61.6464 28.2112L61.647 28.2114L61.7256 28.0275ZM62.9481 29.1825L62.7689 29.2713L62.7699 29.2732L62.9481 29.1825ZM63.2106 30.06L63.0116 30.0799L63.0117 30.0802L63.2106 30.06ZM63.2556 36V36.2H63.4556V36H63.2556ZM61.6731 36H61.4731V36.2H61.6731V36ZM61.6731 34.245L61.8202 34.1095L61.4731 33.7326V34.245H61.6731ZM61.9356 34.53L62.1053 34.6359L62.186 34.5066L62.0827 34.3945L61.9356 34.53ZM60.6531 35.82L60.7504 35.9947L60.751 35.9944L60.6531 35.82ZM60.2406 34.5675L60.3301 34.7464L60.3301 34.7464L60.2406 34.5675ZM60.9306 34.035L60.777 33.907L60.7752 33.9092L60.9306 34.035ZM61.2831 33.4425L61.0983 33.3661L61.0953 33.3734L61.0929 33.3808L61.2831 33.4425ZM61.4406 32.655L61.2408 32.645L61.2407 32.6482L61.4406 32.655ZM61.4631 31.9275L61.5201 31.7358L61.2631 31.6594V31.9275H61.4631ZM62.0181 32.0925L62.0489 32.2901L62.0751 31.9008L62.0181 32.0925ZM60.6156 32.3175L60.5827 32.1202L60.5827 32.1202L60.6156 32.3175ZM59.6106 32.505L59.6492 32.7013L59.6525 32.7006L59.6106 32.505ZM58.8681 32.6925L58.8062 32.5022L58.8009 32.5042L58.8681 32.6925ZM57.9981 33.3L57.8277 33.1951L57.8249 33.2001L57.9981 33.3ZM58.0356 34.29L57.8675 34.3984L57.8692 34.4009L58.0356 34.29ZM58.4706 34.65L58.385 34.8308L58.3868 34.8316L58.4706 34.65ZM58.8306 36.025C58.2702 36.025 57.8099 35.9196 57.4411 35.7193L57.2502 36.0707C57.6913 36.3104 58.2211 36.425 58.8306 36.425V36.025ZM57.4428 35.7202C57.0669 35.5114 56.7873 35.239 56.5971 34.9038L56.2492 35.1012C56.4789 35.506 56.8143 35.8286 57.2485 36.0698L57.4428 35.7202ZM56.5981 34.9056C56.4104 34.5668 56.3156 34.1929 56.3156 33.78H55.9156C55.9156 34.2571 56.0259 34.6982 56.2482 35.0994L56.5981 34.9056ZM56.3156 33.78C56.3156 33.4124 56.3768 33.0892 56.4951 32.8073L56.1262 32.6527C55.9844 32.9908 55.9156 33.3676 55.9156 33.78H56.3156ZM56.4955 32.8063C56.6127 32.5223 56.7928 32.2785 57.0387 32.0736L56.7826 31.7664C56.4885 32.0115 56.2685 32.3077 56.1258 32.6537L56.4955 32.8063ZM57.0403 32.0722C57.2864 31.8626 57.6122 31.6861 58.0245 31.547L57.8967 31.168C57.4491 31.3189 57.0749 31.5174 56.7809 31.7678L57.0403 32.0722ZM58.0221 31.5478C58.3377 31.4459 58.7096 31.3527 59.139 31.2688L59.0623 30.8762C58.6216 30.9623 58.2336 31.0591 57.8991 31.1672L58.0221 31.5478ZM59.1386 31.2689C59.5745 31.1846 60.0459 31.1077 60.5528 31.0381L60.4984 30.6419C59.9853 30.7123 59.5067 30.7904 59.0627 30.8761L59.1386 31.2689ZM60.5544 31.0379C61.0699 30.9628 61.6078 30.8828 62.1681 30.7977L62.1081 30.4023C61.5485 30.4872 61.0114 30.5672 60.4968 30.6421L60.5544 31.0379ZM62.0391 30.4262L61.3941 30.7937L61.5921 31.1413L62.2371 30.7738L62.0391 30.4262ZM61.6931 30.9693C61.6983 30.3837 61.5686 29.9097 61.2622 29.5913L60.974 29.8687C61.1776 30.0803 61.2979 30.4313 61.2931 30.9657L61.6931 30.9693ZM61.2622 29.5913C60.9513 29.2682 60.454 29.1325 59.8281 29.1325V29.5325C60.4123 29.5325 60.7749 29.6618 60.974 29.8687L61.2622 29.5913ZM59.8281 29.1325C59.4308 29.1325 59.0478 29.2253 58.6812 29.4086L58.8601 29.7664C59.1735 29.6097 59.4955 29.5325 59.8281 29.5325V29.1325ZM58.6812 29.4086C58.2861 29.6062 58.0168 29.9454 57.8679 30.4031L58.2483 30.5269C58.3694 30.1546 58.5752 29.9088 58.8601 29.7664L58.6812 29.4086ZM58.118 30.2742L56.468 29.7567L56.3483 30.1383L57.9983 30.6558L58.118 30.2742ZM56.6001 30.0036C56.7882 29.3594 57.1432 28.8465 57.6672 28.4582L57.429 28.1368C56.8331 28.5785 56.4281 29.1656 56.2161 29.8914L56.6001 30.0036ZM57.6665 28.4587C58.1867 28.0766 58.9005 27.875 59.8281 27.875V27.475C58.8457 27.475 58.0395 27.6884 57.4297 28.1363L57.6665 28.4587ZM59.8281 27.875C60.5266 27.875 61.1312 27.989 61.6464 28.2112L61.8048 27.8438C61.2301 27.596 60.5697 27.475 59.8281 27.475V27.875ZM61.647 28.2114C62.1533 28.4277 62.5251 28.779 62.7689 29.2713L63.1273 29.0937C62.8412 28.516 62.3979 28.0973 61.8042 27.8436L61.647 28.2114ZM62.7699 29.2732C62.9043 29.5374 62.9842 29.806 63.0116 30.0799L63.4096 30.0401C63.377 29.714 63.2819 29.3976 63.1264 29.0918L62.7699 29.2732ZM63.0117 30.0802C63.0409 30.3674 63.0556 30.6831 63.0556 31.0275H63.4556C63.4556 30.6719 63.4404 30.3426 63.4096 30.0398L63.0117 30.0802ZM63.0556 31.0275V36H63.4556V31.0275H63.0556ZM63.2556 35.8H61.6731V36.2H63.2556V35.8ZM61.8731 36V34.245H61.4731V36H61.8731ZM61.526 34.3805L61.7885 34.6655L62.0827 34.3945L61.8202 34.1095L61.526 34.3805ZM61.7659 34.4241C61.4147 34.987 61.01 35.3904 60.5552 35.6456L60.751 35.9944C61.2763 35.6996 61.7265 35.243 62.1053 34.6359L61.7659 34.4241ZM60.5558 35.6453C60.1085 35.8943 59.537 36.025 58.8306 36.025V36.425C59.5843 36.425 60.2277 36.2857 60.7504 35.9947L60.5558 35.6453ZM59.1906 34.985C59.6237 34.985 60.0059 34.9085 60.3301 34.7464L60.1512 34.3886C59.8953 34.5165 59.5776 34.585 59.1906 34.585V34.985ZM60.3301 34.7464C60.6406 34.5911 60.8949 34.397 61.0861 34.1608L60.7752 33.9092C60.6264 34.093 60.4207 34.2539 60.1512 34.3886L60.3301 34.7464ZM61.0843 34.163C61.2695 33.9408 61.403 33.7211 61.4734 33.5042L61.0929 33.3808C61.0432 33.5339 60.9418 33.7092 60.777 33.907L61.0843 34.163ZM61.468 33.5189C61.5736 33.2631 61.6298 32.9763 61.6405 32.6618L61.2407 32.6482C61.2314 32.9237 61.1826 33.1619 61.0983 33.3661L61.468 33.5189ZM61.6404 32.665C61.6555 32.3634 61.6631 32.1172 61.6631 31.9275H61.2631C61.2631 32.1078 61.2558 32.3466 61.2409 32.645L61.6404 32.665ZM61.4061 32.1192L61.9611 32.2842L62.0751 31.9008L61.5201 31.7358L61.4061 32.1192ZM61.9873 31.8949C61.4419 31.98 60.9736 32.0551 60.5827 32.1202L60.6485 32.5148C61.0376 32.4499 61.5044 32.375 62.0489 32.2901L61.9873 31.8949ZM60.5827 32.1202C60.1908 32.1856 59.8526 32.2486 59.5687 32.3094L59.6525 32.7006C59.9287 32.6414 60.2605 32.5794 60.6485 32.5148L60.5827 32.1202ZM59.5721 32.3088C59.2861 32.3649 59.0305 32.4293 58.8062 32.5023L58.93 32.8827C59.1357 32.8157 59.3751 32.7551 59.6492 32.7012L59.5721 32.3088ZM58.8009 32.5042C58.5786 32.5835 58.3846 32.6783 58.2221 32.7904L58.4492 33.1196C58.5766 33.0317 58.7377 32.9515 58.9354 32.8808L58.8009 32.5042ZM58.2221 32.7904C58.0577 32.9037 57.9244 33.0381 57.8278 33.1952L58.1685 33.4048C58.2318 33.3019 58.3236 33.2063 58.4492 33.1196L58.2221 32.7904ZM57.8249 33.2001C57.7296 33.3652 57.6856 33.5533 57.6856 33.7575H58.0856C58.0856 33.6117 58.1166 33.4948 58.1714 33.3999L57.8249 33.2001ZM57.6856 33.7575C57.6856 33.9926 57.745 34.2084 57.8676 34.3984L58.2037 34.1816C58.1263 34.0616 58.0856 33.9224 58.0856 33.7575H57.6856ZM57.8692 34.4009C57.9925 34.5858 58.1678 34.7278 58.385 34.8307L58.5562 34.4693C58.3935 34.3922 58.2788 34.2942 58.202 34.1791L57.8692 34.4009ZM58.3868 34.8316C58.6152 34.937 58.8857 34.985 59.1906 34.985V34.585C58.9256 34.585 58.716 34.543 58.5544 34.4684L58.3868 34.8316ZM66.7557 35.6625L66.8677 35.4968L66.8677 35.4968L66.7557 35.6625ZM65.4657 34.1325L65.2849 34.218L65.2849 34.218L65.4657 34.1325ZM65.4657 29.76L65.2854 29.6734L65.2852 29.674L65.4657 29.76ZM66.7782 28.2375L66.8878 28.4048L66.8888 28.4041L66.7782 28.2375ZM70.7082 28.2375L70.5912 28.3997L70.593 28.401L70.7082 28.2375ZM71.9007 34.1325L72.0852 34.2097L72.0854 34.2092L71.9007 34.1325ZM70.6932 35.6625L70.808 35.8263L70.808 35.8263L70.6932 35.6625ZM70.1532 34.275L70.2728 34.4353L70.2732 34.435L70.1532 34.275ZM70.8057 33.3375L70.6169 33.2714L70.6162 33.2735L70.8057 33.3375ZM70.8057 30.5625L70.6162 30.6265L70.6172 30.6293L70.8057 30.5625ZM70.1682 29.6325L70.0456 29.7905L70.0473 29.7918L70.1682 29.6325ZM67.8432 29.655L67.9628 29.8153L67.9644 29.8141L67.8432 29.655ZM67.1457 30.615L67.333 30.6852L67.3333 30.6845L67.1457 30.615ZM67.1382 33.3L66.9499 33.3674L66.9509 33.3702L67.1382 33.3ZM67.8207 34.2525L67.6986 34.4109L67.6986 34.4109L67.8207 34.2525ZM71.0157 36H70.8157V36.2H71.0157V36ZM71.0157 30.315H71.2157V30.115H71.0157V30.315ZM70.7907 30.315H70.5907V30.515H70.7907V30.315ZM70.7907 25.2V25H70.5907V25.2H70.7907ZM72.6132 25.2H72.8132V25H72.6132V25.2ZM72.6132 36V36.2H72.8132V36H72.6132ZM68.7057 36.025C67.996 36.025 67.3859 35.847 66.8677 35.4968L66.6437 35.8282C67.2355 36.228 67.9255 36.425 68.7057 36.425V36.025ZM66.8677 35.4968C66.3443 35.1432 65.9372 34.6618 65.6465 34.047L65.2849 34.218C65.6042 34.8932 66.0571 35.4318 66.6437 35.8282L66.8677 35.4968ZM65.6465 34.047C65.3558 33.4321 65.2082 32.7344 65.2082 31.95H64.8082C64.8082 32.7856 64.9656 33.5429 65.2849 34.218L65.6465 34.047ZM65.2082 31.95C65.2082 31.1551 65.3559 30.4553 65.6462 29.846L65.2852 29.674C64.9655 30.3447 64.8082 31.1049 64.8082 31.95H65.2082ZM65.646 29.8466C65.9412 29.2324 66.3551 28.7537 66.8878 28.4048L66.6686 28.0702C66.0713 28.4613 65.6102 28.9976 65.2854 29.6734L65.646 29.8466ZM66.8888 28.4041C67.4169 28.0536 68.0423 27.875 68.7732 27.875V27.475C67.9741 27.475 67.2695 27.6714 66.6676 28.0709L66.8888 28.4041ZM68.7732 27.875C69.5098 27.875 70.1117 28.0539 70.5912 28.3997L70.8252 28.0753C70.2647 27.6711 69.5766 27.475 68.7732 27.475V27.875ZM70.593 28.401C71.0845 28.7474 71.4594 29.2237 71.7162 29.8372L72.0852 29.6828C71.802 29.0063 71.3819 28.4676 70.8234 28.074L70.593 28.401ZM71.7162 29.8372C71.9744 30.4541 72.1057 31.1572 72.1057 31.95H72.5057C72.5057 31.1128 72.367 30.3559 72.0852 29.6828L71.7162 29.8372ZM72.1057 31.95C72.1057 32.7324 71.9746 33.4333 71.716 34.0558L72.0854 34.2092C72.3669 33.5317 72.5057 32.7776 72.5057 31.95H72.1057ZM71.7162 34.0553C71.4597 34.668 71.0803 35.1469 70.5784 35.4987L70.808 35.8263C71.3761 35.4281 71.8017 34.887 72.0852 34.2097L71.7162 34.0553ZM70.5784 35.4987C70.0836 35.8456 69.4634 36.025 68.7057 36.025V36.425C69.528 36.425 70.2328 36.2294 70.808 35.8263L70.5784 35.4987ZM68.9832 34.805C69.4976 34.805 69.9337 34.6882 70.2728 34.4353L70.0336 34.1147C69.7827 34.3018 69.4388 34.405 68.9832 34.405V34.805ZM70.2732 34.435C70.6095 34.1828 70.849 33.8348 70.9952 33.4015L70.6162 33.2735C70.4924 33.6402 70.2969 33.9172 70.0332 34.115L70.2732 34.435ZM70.9945 33.4036C71.1434 32.978 71.2157 32.4923 71.2157 31.95H70.8157C70.8157 32.4577 70.748 32.897 70.6169 33.2714L70.9945 33.4036ZM71.2157 31.95C71.2157 31.403 71.1435 30.917 70.9942 30.4957L70.6172 30.6293C70.7479 30.998 70.8157 31.437 70.8157 31.95H71.2157ZM70.9952 30.4985C70.8495 30.0668 70.6159 29.7211 70.2891 29.4732L70.0473 29.7918C70.3006 29.9839 70.4919 30.2582 70.6162 30.6265L70.9952 30.4985ZM70.2908 29.4745C69.9576 29.216 69.5361 29.095 69.0432 29.095V29.495C69.4703 29.495 69.7988 29.599 70.0456 29.7905L70.2908 29.4745ZM69.0432 29.095C68.5245 29.095 68.0791 29.2239 67.722 29.4959L67.9644 29.8141C68.2373 29.6061 68.5919 29.495 69.0432 29.495V29.095ZM67.7236 29.4947C67.3746 29.755 67.1202 30.1081 66.9582 30.5455L67.3333 30.6845C67.4712 30.3119 67.6818 30.025 67.9628 29.8153L67.7236 29.4947ZM66.9584 30.5448C66.7989 30.9703 66.7207 31.4395 66.7207 31.95H67.1207C67.1207 31.4805 67.1925 31.0597 67.333 30.6852L66.9584 30.5448ZM66.7207 31.95C66.7207 32.4646 66.7961 32.9378 66.9499 33.3674L67.3265 33.2326C67.1903 32.8522 67.1207 32.4254 67.1207 31.95H66.7207ZM66.9509 33.3702C67.1125 33.8012 67.3609 34.1507 67.6986 34.4109L67.9428 34.0941C67.6705 33.8843 67.4639 33.5988 67.3255 33.2298L66.9509 33.3702ZM67.6986 34.4109C68.0458 34.6784 68.479 34.805 68.9832 34.805V34.405C68.5474 34.405 68.2056 34.2966 67.9428 34.0941L67.6986 34.4109ZM71.2157 36V30.315H70.8157V36H71.2157ZM71.0157 30.115H70.7907V30.515H71.0157V30.115ZM70.9907 30.315V25.2H70.5907V30.315H70.9907ZM70.7907 25.4H72.6132V25H70.7907V25.4ZM72.4132 25.2V36H72.8132V25.2H72.4132ZM72.6132 35.8H71.0157V36.2H72.6132V35.8ZM78.2189 36H78.0189V36.2H78.2189V36ZM78.2189 25.2V25H78.0189V25.2H78.2189ZM83.0864 25.215L83.0743 25.4147L83.0804 25.4149L83.0864 25.215ZM83.5439 25.26L83.5088 25.457L83.5139 25.4577L83.5439 25.26ZM85.0889 25.8825L84.965 26.0394L84.9659 26.0402L85.0889 25.8825ZM85.9964 27.0975L85.8106 27.1715L85.8115 27.1737L85.9964 27.0975ZM85.9964 30.3375L86.1813 30.4137L86.1816 30.4131L85.9964 30.3375ZM85.0814 31.545L84.9584 31.3873L84.9575 31.3881L85.0814 31.545ZM83.5439 32.1675L83.5722 32.3655L83.5742 32.3652L83.5439 32.1675ZM83.0789 32.2125L83.0672 32.0128L83.0668 32.0129L83.0789 32.2125ZM80.0264 32.2275V32.0275H79.8264V32.2275H80.0264ZM80.0264 36V36.2H80.2264V36H80.0264ZM80.0264 30.54H79.8264V30.74H80.0264V30.54ZM82.9439 30.525L82.9599 30.7244L82.9599 30.7244L82.9439 30.525ZM83.2889 30.465L83.2404 30.2709L83.234 30.2727L83.2889 30.465ZM83.9939 30.0675L83.8468 29.932L83.8449 29.9341L83.9939 30.0675ZM84.3614 29.4225L84.1705 29.3628L84.1694 29.3665L84.3614 29.4225ZM84.3614 28.0125L84.1691 28.0675L84.1705 28.0722L84.3614 28.0125ZM83.9939 27.36L83.8449 27.4934L83.8468 27.4955L83.9939 27.36ZM83.2889 26.9625L83.234 27.1549L83.2404 27.1565L83.2889 26.9625ZM82.9439 26.91L82.928 27.1095L82.936 27.1098L82.9439 26.91ZM80.0264 26.895V26.695H79.8264V26.895H80.0264ZM78.4189 36V25.2H78.0189V36H78.4189ZM78.2189 25.4H82.6814V25H78.2189V25.4ZM82.6814 25.4C82.7808 25.4 82.9114 25.4048 83.0743 25.4146L83.0985 25.0154C82.9315 25.0052 82.7921 25 82.6814 25V25.4ZM83.0804 25.4149C83.2371 25.4197 83.3798 25.4338 83.5088 25.4569L83.5791 25.0631C83.4281 25.0362 83.2658 25.0203 83.0925 25.0151L83.0804 25.4149ZM83.5139 25.4577C84.1122 25.5487 84.5927 25.7453 84.965 26.0394L85.2129 25.7256C84.7752 25.3797 84.2257 25.1613 83.574 25.0623L83.5139 25.4577ZM84.9659 26.0402C85.3475 26.338 85.6286 26.7139 85.8106 27.1715L86.1823 27.0235C85.9743 26.5011 85.6504 26.067 85.212 25.7248L84.9659 26.0402ZM85.8115 27.1737C86.0003 27.6315 86.0964 28.1452 86.0964 28.7175H86.4964C86.4964 28.0998 86.3926 27.5335 86.1813 27.0213L85.8115 27.1737ZM86.0964 28.7175C86.0964 29.2846 86.0004 29.7985 85.8113 30.2619L86.1816 30.4131C86.3925 29.8965 86.4964 29.3304 86.4964 28.7175H86.0964ZM85.8115 30.2613C85.6246 30.7145 85.3408 31.0889 84.9584 31.3873L85.2045 31.7027C85.6421 31.3611 85.9683 30.9305 86.1813 30.4137L85.8115 30.2613ZM84.9575 31.3881C84.5849 31.6824 84.1068 31.8789 83.5137 31.9698L83.5742 32.3652C84.2211 32.2661 84.768 32.0476 85.2054 31.7019L84.9575 31.3881ZM83.5157 31.9695C83.3821 31.9886 83.2327 32.0031 83.0672 32.0128L83.0907 32.4122C83.2652 32.4019 83.4258 32.3864 83.5722 32.3655L83.5157 31.9695ZM83.0668 32.0129C82.9036 32.0228 82.7757 32.0275 82.6814 32.0275V32.4275C82.7872 32.4275 82.9242 32.4222 83.091 32.4121L83.0668 32.0129ZM82.6814 32.0275H80.0264V32.4275H82.6814V32.0275ZM79.8264 32.2275V36H80.2264V32.2275H79.8264ZM80.0264 35.8H78.2189V36.2H80.0264V35.8ZM80.0264 30.74H82.6064V30.34H80.0264V30.74ZM82.6064 30.74C82.7129 30.74 82.8309 30.7347 82.9599 30.7244L82.928 30.3256C82.807 30.3353 82.7 30.34 82.6064 30.34V30.74ZM82.9599 30.7244C83.0962 30.7135 83.2244 30.6914 83.3439 30.6573L83.234 30.2727C83.1434 30.2986 83.0417 30.3165 82.928 30.3256L82.9599 30.7244ZM83.3375 30.659C83.6679 30.5764 83.9411 30.4265 84.143 30.2009L83.8449 29.9341C83.7068 30.0885 83.51 30.2036 83.2404 30.271L83.3375 30.659ZM84.1411 30.203C84.3362 29.9911 84.4745 29.7491 84.5534 29.4785L84.1694 29.3665C84.1084 29.5759 84.0017 29.7639 83.8468 29.932L84.1411 30.203ZM84.5523 29.4822C84.6328 29.2246 84.6739 28.9695 84.6739 28.7175H84.2739C84.2739 28.9255 84.2401 29.1404 84.1705 29.3628L84.5523 29.4822ZM84.6739 28.7175C84.6739 28.4655 84.6328 28.2104 84.5523 27.9528L84.1705 28.0722C84.2401 28.2946 84.2739 28.5095 84.2739 28.7175H84.6739ZM84.5538 27.9576C84.4751 27.6821 84.3369 27.4371 84.1411 27.2245L83.8468 27.4955C84.001 27.6629 84.1078 27.8529 84.1691 28.0674L84.5538 27.9576ZM84.143 27.2266C83.9411 27.001 83.6679 26.8511 83.3375 26.7685L83.2404 27.1565C83.51 27.2239 83.7068 27.339 83.8449 27.4934L84.143 27.2266ZM83.3439 26.7702C83.2216 26.7352 83.0906 26.7157 82.9519 26.7102L82.936 27.1098C83.0473 27.1143 83.1463 27.1298 83.234 27.1548L83.3439 26.7702ZM82.9599 26.7106C82.8309 26.7003 82.7129 26.695 82.6064 26.695V27.095C82.7 27.095 82.807 27.0997 82.928 27.1094L82.9599 26.7106ZM82.6064 26.695H80.0264V27.095H82.6064V26.695ZM79.8264 26.895V30.54H80.2264V26.895H79.8264ZM93.6515 36H93.4515V36.2H93.6515V36ZM93.599 31.2525L93.7978 31.2301L93.7978 31.2301L93.599 31.2525ZM93.3515 30.36L93.1678 30.4392L93.1696 30.443L93.3515 30.36ZM92.7815 29.6475L92.6625 29.8083L92.6641 29.8094L92.7815 29.6475ZM91.079 29.4825L91.1423 29.6722L91.1423 29.6722L91.079 29.4825ZM90.464 29.8725L90.3226 29.7311L90.3226 29.7311L90.464 29.8725ZM90.029 30.6225L90.2178 30.6884L90.2182 30.6875L90.029 30.6225ZM89.864 31.8375L89.7856 32.0215L90.064 32.1403V31.8375H89.864ZM88.7915 31.38H88.5915V31.5121L88.7131 31.564L88.7915 31.38ZM89.189 29.505L89.0089 29.4181L89.0082 29.4195L89.189 29.505ZM90.374 28.17L90.4812 28.3389L90.4823 28.3381L90.374 28.17ZM93.779 27.9675L93.8703 27.7895L93.8703 27.7895L93.779 27.9675ZM94.709 28.7325L94.5484 28.8517L94.5484 28.8517L94.709 28.7325ZM95.219 29.7225L95.4098 29.6625L95.4098 29.6625L95.219 29.7225ZM95.429 30.72L95.2299 30.739L95.2303 30.7424L95.429 30.72ZM95.4815 36V36.2H95.6815V36H95.4815ZM88.034 36H87.834V36.2H88.034V36ZM88.034 25.2V25H87.834V25.2H88.034ZM89.6465 25.2H89.8465V25H89.6465V25.2ZM89.6465 30.885H89.4465V31.085H89.6465V30.885ZM89.864 30.885H90.064V30.685H89.864V30.885ZM89.864 36V36.2H90.064V36H89.864ZM93.8515 36V32.1H93.4515V36H93.8515ZM93.8515 32.1C93.8515 31.8361 93.8334 31.5459 93.7978 31.2301L93.4003 31.2749C93.4346 31.5791 93.4515 31.8539 93.4515 32.1H93.8515ZM93.7978 31.2301C93.7604 30.899 93.6722 30.5811 93.5335 30.277L93.1696 30.443C93.2908 30.7089 93.3677 30.986 93.4003 31.2749L93.7978 31.2301ZM93.5352 30.2808C93.396 29.9579 93.1832 29.6918 92.899 29.4856L92.6641 29.8094C92.8899 29.9732 93.0571 30.1821 93.1679 30.4392L93.5352 30.2808ZM92.9005 29.4867C92.6051 29.2681 92.2183 29.17 91.7615 29.17V29.57C92.1647 29.57 92.458 29.6569 92.6626 29.8083L92.9005 29.4867ZM91.7615 29.17C91.5094 29.17 91.2605 29.2112 91.0158 29.2928L91.1423 29.6722C91.3475 29.6038 91.5537 29.57 91.7615 29.57V29.17ZM91.0158 29.2928C90.7584 29.3786 90.5273 29.5264 90.3226 29.7311L90.6054 30.0139C90.7708 29.8486 90.9497 29.7364 91.1423 29.6722L91.0158 29.2928ZM90.3226 29.7311C90.1152 29.9385 89.9567 30.2178 89.8399 30.5575L90.2182 30.6875C90.3214 30.3872 90.4528 30.1665 90.6054 30.0139L90.3226 29.7311ZM89.8402 30.5566C89.7201 30.9004 89.664 31.3298 89.664 31.8375H90.064C90.064 31.3552 90.1179 30.9746 90.2178 30.6884L89.8402 30.5566ZM89.9425 31.6535L88.87 31.196L88.7131 31.564L89.7856 32.0215L89.9425 31.6535ZM88.9915 31.38C88.9915 30.7162 89.1188 30.1209 89.3698 29.5905L89.0082 29.4195C88.7292 30.0091 88.5915 30.6638 88.5915 31.38H88.9915ZM89.3692 29.5919C89.6231 29.0651 89.993 28.6487 90.4812 28.3389L90.2669 28.0011C89.715 28.3513 89.2949 28.8249 89.0089 29.4181L89.3692 29.5919ZM90.4823 28.3381C90.9634 28.0282 91.5636 27.8675 92.294 27.8675V27.4675C91.5044 27.4675 90.8247 27.6418 90.2657 28.0019L90.4823 28.3381ZM92.294 27.8675C92.8734 27.8675 93.3345 27.9643 93.6878 28.1455L93.8703 27.7895C93.4436 27.5707 92.9147 27.4675 92.294 27.4675V27.8675ZM93.6878 28.1455C94.0542 28.3334 94.339 28.5695 94.5484 28.8517L94.8696 28.6133C94.619 28.2755 94.2839 28.0016 93.8703 27.7895L93.6878 28.1455ZM94.5484 28.8517C94.7658 29.1447 94.9253 29.4548 95.0282 29.7825L95.4098 29.6625C95.2928 29.2902 95.1122 28.9403 94.8696 28.6133L94.5484 28.8517ZM95.0282 29.7825C95.1347 30.1212 95.2014 30.4399 95.2299 30.739L95.6281 30.701C95.5966 30.3701 95.5234 30.0238 95.4098 29.6625L95.0282 29.7825ZM95.2303 30.7424C95.2649 31.0488 95.2815 31.2931 95.2815 31.4775H95.6815C95.6815 31.2719 95.6632 31.0112 95.6278 30.6976L95.2303 30.7424ZM95.2815 31.4775V36H95.6815V31.4775H95.2815ZM95.4815 35.8H93.6515V36.2H95.4815V35.8ZM88.234 36V25.2H87.834V36H88.234ZM88.034 25.4H89.6465V25H88.034V25.4ZM89.4465 25.2V30.885H89.8465V25.2H89.4465ZM89.6465 31.085H89.864V30.685H89.6465V31.085ZM89.664 30.885V36H90.064V30.885H89.664ZM89.864 35.8H88.034V36.2H89.864V35.8ZM99.1437 35.6775L99.247 35.5063L99.247 35.5063L99.1437 35.6775ZM97.7337 34.17L97.5556 34.2611L97.5565 34.2627L97.7337 34.17ZM97.7487 29.715L97.572 29.6212L97.572 29.6212L97.7487 29.715ZM99.1662 28.215L99.0639 28.0431L99.0639 28.0431L99.1662 28.215ZM103.396 28.2225L103.499 28.0513L103.499 28.0513L103.396 28.2225ZM104.806 29.7375L104.629 29.8297L104.629 29.8302L104.806 29.7375ZM104.799 34.1775L104.622 34.0842L104.621 34.0848L104.799 34.1775ZM103.389 35.685L103.491 35.8569L103.492 35.8562L103.389 35.685ZM102.871 33.81L102.71 33.6922L102.71 33.6922L102.871 33.81ZM102.864 30.075L102.704 30.1955L102.705 30.1964L102.864 30.075ZM100.066 29.7L100.18 29.8643L100.181 29.864L100.066 29.7ZM99.3762 30.6075L99.5625 30.6801L99.5628 30.6793L99.3762 30.6075ZM99.6837 33.8325L99.5241 33.9531L99.5255 33.9549L99.6837 33.8325ZM101.266 36.025C100.487 36.025 99.8165 35.8498 99.247 35.5063L99.0404 35.8487C99.6809 36.2352 100.425 36.425 101.266 36.425V36.025ZM99.247 35.5063C98.6741 35.1606 98.2293 34.6856 97.9109 34.0773L97.5565 34.2627C97.9081 34.9344 98.4033 35.4644 99.0404 35.8487L99.247 35.5063ZM97.9117 34.0789C97.5982 33.4661 97.4387 32.7582 97.4387 31.95H97.0387C97.0387 32.8118 97.2091 33.5839 97.5556 34.2611L97.9117 34.0789ZM97.4387 31.95C97.4387 31.1271 97.6031 30.4153 97.9253 29.8088L97.572 29.6212C97.2142 30.2947 97.0387 31.0729 97.0387 31.95H97.4387ZM97.9253 29.8088C98.2487 29.2002 98.6959 28.7276 99.2684 28.3869L99.0639 28.0431C98.4265 28.4224 97.9287 28.9498 97.572 29.6212L97.9253 29.8088ZM99.2684 28.3869C99.8387 28.0476 100.502 27.875 101.266 27.875V27.475C100.44 27.475 99.7037 27.6624 99.0639 28.0431L99.2684 28.3869ZM101.266 27.875C102.05 27.875 102.724 28.0503 103.293 28.3937L103.499 28.0513C102.859 27.6647 102.112 27.475 101.266 27.475V27.875ZM103.293 28.3937C103.865 28.7392 104.31 29.2164 104.629 29.8297L104.984 29.6453C104.632 28.9686 104.137 28.4358 103.499 28.0513L103.293 28.3937ZM104.629 29.8302C104.947 30.4375 105.109 31.1422 105.109 31.95H105.509C105.509 31.0878 105.336 30.3175 104.983 29.6448L104.629 29.8302ZM105.109 31.95C105.109 32.7625 104.944 33.4721 104.622 34.0842L104.976 34.2708C105.333 33.5929 105.509 32.8175 105.509 31.95H105.109ZM104.621 34.0848C104.303 34.6931 103.858 35.1681 103.285 35.5138L103.492 35.8562C104.129 35.4719 104.624 34.9419 104.976 34.2702L104.621 34.0848ZM103.286 35.5131C102.717 35.8521 102.046 36.025 101.266 36.025V36.425C102.107 36.425 102.851 36.2379 103.491 35.8569L103.286 35.5131ZM101.266 34.73C102.035 34.73 102.637 34.4707 103.033 33.9278L102.71 33.6922C102.405 34.1093 101.938 34.33 101.266 34.33V34.73ZM103.033 33.9278C103.414 33.4051 103.596 32.7405 103.596 31.95H103.196C103.196 32.6795 103.028 33.2549 102.71 33.6922L103.033 33.9278ZM103.596 31.95C103.596 31.136 103.412 30.4637 103.023 29.9536L102.705 30.1964C103.025 30.6163 103.196 31.194 103.196 31.95H103.596ZM103.023 29.9545C102.623 29.4239 102.024 29.17 101.266 29.17V29.57C101.928 29.57 102.395 29.7861 102.704 30.1955L103.023 29.9545ZM101.266 29.17C100.751 29.17 100.308 29.2871 99.9517 29.536L100.181 29.864C100.454 29.6729 100.811 29.57 101.266 29.57V29.17ZM99.9522 29.5357C99.6057 29.776 99.3523 30.1125 99.1895 30.5357L99.5628 30.6793C99.7001 30.3225 99.9066 30.054 100.18 29.8643L99.9522 29.5357ZM99.1898 30.5349C99.029 30.9478 98.9512 31.4208 98.9512 31.95H99.3512C99.3512 31.4592 99.4234 31.0372 99.5625 30.6801L99.1898 30.5349ZM98.9512 31.95C98.9512 32.7641 99.1353 33.4384 99.5241 33.953L99.8433 33.712C99.522 33.2866 99.3512 32.7059 99.3512 31.95H98.9512ZM99.5255 33.9549C99.9305 34.4781 100.522 34.73 101.266 34.73V34.33C100.62 34.33 100.157 34.1169 99.8418 33.7101L99.5255 33.9549ZM111.959 36L111.995 36.1966L112.159 36.1661V36H111.959ZM110.384 36.1275L110.389 35.9276L110.388 35.9275L110.384 36.1275ZM109.011 35.85L108.93 36.0328L108.932 36.0336L109.011 35.85ZM108.089 35.0025L107.912 35.096L107.913 35.0983L108.089 35.0025ZM107.796 33.93L107.996 33.9245L107.796 33.93ZM107.781 25.65V25.45H107.581V25.65H107.781ZM109.581 25.65H109.781V25.45H109.581V25.65ZM109.589 33.4425L109.389 33.4466L109.389 33.4507L109.589 33.4425ZM109.746 34.0425L109.918 33.9396L109.917 33.938L109.746 34.0425ZM110.609 34.545L110.626 34.3458L110.626 34.3458L110.609 34.545ZM111.959 34.485H112.159V34.2531L111.929 34.2872L111.959 34.485ZM106.311 29.3175H106.111V29.5175H106.311V29.3175ZM106.311 27.9V27.7H106.111V27.9H106.311ZM111.959 27.9H112.159V27.7H111.959V27.9ZM111.959 29.3175V29.5175H112.159V29.3175H111.959ZM111.922 35.8034C111.4 35.9009 110.889 35.9421 110.389 35.9276L110.378 36.3274C110.908 36.3429 111.447 36.2991 111.995 36.1966L111.922 35.8034ZM110.388 35.9275C109.9 35.918 109.468 35.8296 109.09 35.6664L108.932 36.0336C109.364 36.2204 109.848 36.317 110.38 36.3275L110.388 35.9275ZM109.092 35.6672C108.727 35.5049 108.453 35.2527 108.264 34.9067L107.913 35.0983C108.144 35.5223 108.485 35.8351 108.93 36.0328L109.092 35.6672ZM108.265 34.909C108.094 34.5839 108.005 34.2563 107.996 33.9245L107.596 33.9355C107.607 34.3337 107.714 34.7211 107.912 35.096L108.265 34.909ZM107.996 33.9245C107.986 33.5617 107.981 33.1511 107.981 32.6925H107.581C107.581 33.1539 107.586 33.5683 107.596 33.9355L107.996 33.9245ZM107.981 32.6925V25.65H107.581V32.6925H107.981ZM107.781 25.85H109.581V25.45H107.781V25.85ZM109.381 25.65V32.5875H109.781V25.65H109.381ZM109.381 32.5875C109.381 32.9135 109.384 33.1999 109.389 33.4466L109.789 33.4384C109.784 33.1951 109.781 32.9115 109.781 32.5875H109.381ZM109.389 33.4507C109.4 33.7183 109.458 33.9545 109.576 34.147L109.917 33.938C109.845 33.8205 109.798 33.6567 109.788 33.4343L109.389 33.4507ZM109.575 34.1454C109.792 34.5082 110.142 34.7044 110.591 34.7442L110.626 34.3458C110.285 34.3156 110.06 34.1768 109.918 33.9396L109.575 34.1454ZM110.591 34.7442C111.005 34.7809 111.472 34.7595 111.988 34.6828L111.929 34.2872C111.436 34.3605 111.002 34.3791 110.626 34.3458L110.591 34.7442ZM111.759 34.485V36H112.159V34.485H111.759ZM106.511 29.3175V27.9H106.111V29.3175H106.511ZM106.311 28.1H111.959V27.7H106.311V28.1ZM111.759 27.9V29.3175H112.159V27.9H111.759ZM111.959 29.1175H106.311V29.5175H111.959V29.1175ZM114.995 35.6775L115.099 35.5063L115.099 35.5063L114.995 35.6775ZM113.585 34.17L113.407 34.2611L113.408 34.2627L113.585 34.17ZM113.6 29.715L113.424 29.6212L113.424 29.6212L113.6 29.715ZM115.018 28.215L114.915 28.0431L114.915 28.0431L115.018 28.215ZM119.248 28.2225L119.351 28.0513L119.351 28.0513L119.248 28.2225ZM120.658 29.7375L120.48 29.8297L120.481 29.8302L120.658 29.7375ZM120.65 34.1775L120.473 34.0842L120.473 34.0848L120.65 34.1775ZM119.24 35.685L119.343 35.8569L119.344 35.8562L119.24 35.685ZM118.723 33.81L118.561 33.6922L118.561 33.6922L118.723 33.81ZM118.715 30.075L118.556 30.1955L118.556 30.1964L118.715 30.075ZM115.918 29.7L116.032 29.8643L116.032 29.864L115.918 29.7ZM115.228 30.6075L115.414 30.6801L115.414 30.6793L115.228 30.6075ZM115.535 33.8325L115.376 33.9531L115.377 33.9549L115.535 33.8325ZM117.118 36.025C116.339 36.025 115.668 35.8498 115.099 35.5063L114.892 35.8487C115.532 36.2352 116.277 36.425 117.118 36.425V36.025ZM115.099 35.5063C114.526 35.1606 114.081 34.6856 113.762 34.0773L113.408 34.2627C113.76 34.9344 114.255 35.4644 114.892 35.8487L115.099 35.5063ZM113.763 34.0789C113.45 33.4661 113.29 32.7582 113.29 31.95H112.89C112.89 32.8118 113.061 33.5839 113.407 34.2611L113.763 34.0789ZM113.29 31.95C113.29 31.1271 113.455 30.4153 113.777 29.8088L113.424 29.6212C113.066 30.2947 112.89 31.0729 112.89 31.95H113.29ZM113.777 29.8088C114.1 29.2002 114.547 28.7276 115.12 28.3869L114.915 28.0431C114.278 28.4224 113.78 28.9498 113.424 29.6212L113.777 29.8088ZM115.12 28.3869C115.69 28.0476 116.354 27.875 117.118 27.875V27.475C116.291 27.475 115.555 27.6624 114.915 28.0431L115.12 28.3869ZM117.118 27.875C117.902 27.875 118.575 28.0503 119.144 28.3937L119.351 28.0513C118.71 27.6647 117.963 27.475 117.118 27.475V27.875ZM119.144 28.3937C119.717 28.7392 120.162 29.2164 120.48 29.8297L120.835 29.6453C120.484 28.9686 119.989 28.4358 119.351 28.0513L119.144 28.3937ZM120.481 29.8302C120.798 30.4375 120.96 31.1422 120.96 31.95H121.36C121.36 31.0878 121.187 30.3175 120.835 29.6448L120.481 29.8302ZM120.96 31.95C120.96 32.7625 120.796 33.4721 120.473 34.0842L120.827 34.2708C121.184 33.5929 121.36 32.8175 121.36 31.95H120.96ZM120.473 34.0848C120.155 34.6931 119.71 35.1681 119.137 35.5138L119.344 35.8562C119.981 35.4719 120.476 34.9419 120.827 34.2702L120.473 34.0848ZM119.138 35.5131C118.568 35.8521 117.897 36.025 117.118 36.025V36.425C117.958 36.425 118.702 36.2379 119.343 35.8569L119.138 35.5131ZM117.118 34.73C117.886 34.73 118.489 34.4707 118.884 33.9278L118.561 33.6922C118.257 34.1093 117.789 34.33 117.118 34.33V34.73ZM118.884 33.9278C119.265 33.4051 119.448 32.7405 119.448 31.95H119.048C119.048 32.6795 118.88 33.2549 118.561 33.6922L118.884 33.9278ZM119.448 31.95C119.448 31.136 119.264 30.4637 118.874 29.9536L118.556 30.1964C118.877 30.6163 119.048 31.194 119.048 31.95H119.448ZM118.875 29.9545C118.474 29.4239 117.876 29.17 117.118 29.17V29.57C117.779 29.57 118.246 29.7861 118.556 30.1955L118.875 29.9545ZM117.118 29.17C116.603 29.17 116.16 29.2871 115.803 29.536L116.032 29.864C116.306 29.6729 116.663 29.57 117.118 29.57V29.17ZM115.804 29.5357C115.457 29.776 115.204 30.1125 115.041 30.5357L115.414 30.6793C115.552 30.3225 115.758 30.054 116.032 29.8643L115.804 29.5357ZM115.041 30.5349C114.881 30.9478 114.803 31.4208 114.803 31.95H115.203C115.203 31.4592 115.275 31.0372 115.414 30.6801L115.041 30.5349ZM114.803 31.95C114.803 32.7641 114.987 33.4384 115.376 33.953L115.695 33.712C115.374 33.2866 115.203 32.7059 115.203 31.95H114.803ZM115.377 33.9549C115.782 34.4781 116.373 34.73 117.118 34.73V34.33C116.472 34.33 116.008 34.1169 115.693 33.7101L115.377 33.9549Z" fill="#FCFCFC"/>
<path d="M139.345 28.4153L139.594 28.4402C139.596 28.4209 139.598 28.3992 139.601 28.3757C139.609 28.3 139.62 28.2063 139.621 28.1176C139.703 26.374 140.39 24.8546 141.723 23.5823C143.72 21.6854 146.185 20.9046 149.024 21.4044L149.024 21.4044C150.698 21.699 152.056 22.3107 153.101 23.21C154.145 24.1086 154.889 25.3049 155.321 26.7892L155.321 26.7893C155.415 27.1126 155.559 27.3807 155.791 27.5824C156.022 27.7833 156.316 27.8978 156.674 27.9578L156.674 27.9578C158.968 28.3413 160.48 30.4324 160.028 32.4236L160.028 32.4237C159.602 34.3011 157.899 35.5797 155.721 35.5886C155.721 35.5886 155.721 35.5886 155.721 35.5886L155.715 35.5886H155.709H155.703H155.696H155.69H155.684H155.677H155.671H155.665H155.658H155.652H155.645H155.639H155.633H155.626H155.62H155.614H155.607H155.601H155.595H155.588H155.582H155.576H155.569H155.563H155.556H155.55H155.544H155.537H155.531H155.525H155.518H155.512H155.506H155.499H155.493H155.486H155.48H155.474H155.467H155.461H155.455H155.448H155.442H155.436H155.429H155.423H155.416H155.41H155.404H155.397H155.391H155.385H155.378H155.372H155.366H155.359H155.353H155.346H155.34H155.334H155.327H155.321H155.315H155.308H155.302H155.296H155.289H155.283H155.277H155.27H155.264H155.257H155.251H155.245H155.238H155.232H155.226H155.219H155.213H155.207H155.2H155.194H155.187H155.181H155.175H155.168H155.162H155.156H155.149H155.143H155.137H155.13H155.124H155.117H155.111H155.105H155.098H155.092H155.086H155.079H155.073H155.067H155.06H155.054H155.047H155.041H155.035H155.028H155.022H155.016H155.009H155.003H154.997H154.99H154.984H154.978H154.971H154.965H154.958H154.952H154.946H154.939H154.933H154.927H154.92H154.914H154.908H154.901H154.895H154.888H154.882H154.876H154.869H154.863H154.857H154.85H154.844H154.838H154.831H154.825H154.818H154.812H154.806H154.799H154.793H154.787H154.78H154.774H154.768H154.761H154.755H154.749H154.742H154.736H154.729H154.723H154.717H154.71H154.704H154.698H154.691H154.685H154.679H154.672H154.666H154.659H154.653H154.647H154.64H154.634H154.628H154.621H154.615H154.609H154.602H154.596H154.589H154.583H154.577H154.57H154.564H154.558H154.551H154.545H154.539H154.532H154.526H154.519H154.513H154.507H154.5H154.494H154.488H154.481H154.475H154.469H154.462H154.456H154.45H154.443H154.437H154.43H154.424H154.418H154.411H154.405H154.399H154.392H154.386H154.38H154.373H154.367H154.36H154.354H154.348H154.341H154.335H154.329H154.322H154.316H154.31H154.303H154.297H154.29H154.284H154.278H154.271H154.265H154.259H154.252H154.246H154.24H154.233H154.227H154.22H154.214H154.208H154.201H154.195H154.189H154.182H154.176H154.17H154.163H154.157H154.151H154.144H154.138H154.131H154.125H154.119H154.112H154.106H154.1H154.093H154.087H154.081H154.074H154.068H154.061H154.055H154.049H154.042H154.036H154.03H154.023H154.017H154.011H154.004H153.998H153.991H153.985H153.979H153.972H153.966H153.96H153.953H153.947H153.941H153.934H153.928H153.921H153.915H153.909H153.902H153.896H153.89H153.883H153.877H153.871H153.864H153.858H153.852H153.845H153.839H153.832H153.826H153.82H153.813H153.807H153.801H153.794H153.788H153.782H153.775H153.769H153.762H153.756H153.75H153.743H153.737H153.731H153.724H153.718H153.712H153.705H153.699H153.692H153.686H153.68H153.673H153.667H153.661H153.654H153.648H153.642H153.635H153.629H153.622H153.616H153.61H153.603H153.597H153.591H153.584H153.578H153.572H153.565H153.559H153.553H153.546H153.54H153.533H153.527H153.521H153.514H153.508H153.502H153.495H153.489H153.483H153.476H153.47H153.463H153.457H153.451H153.444H153.438H153.432H153.425H153.419H153.413H153.406H153.4H153.393H153.387H153.381H153.374H153.368H153.362H153.355H153.349H153.343H153.336H153.33H153.323H153.317H153.311H153.304H153.298H153.292H153.285H153.279H153.273H153.266H153.26H153.254H153.247H153.241H153.234H153.228H153.222H153.215H153.209H153.203H153.196H153.19H153.184H153.177H153.171H153.164H153.158H153.152H153.145H153.139H153.133H153.126H153.12H153.114H153.107H153.101H153.094H153.088H153.082H153.075H153.069H153.063H153.056H153.05H153.044H153.037H153.031H153.024H153.018H153.012H153.005H152.999H152.993H152.986H152.98H152.974H152.967H152.961H152.955H152.948H152.942H152.935H152.929H152.923H152.916H152.91H152.904H152.897H152.891H152.885H152.878H152.872H152.865H152.859H152.853H152.846H152.84H152.834H152.827H152.821H152.815H152.808H152.802H152.795H152.789H152.783H152.776H152.77H152.764H152.757H152.751H152.745H152.738H152.732H152.726H152.719H152.713H152.706H152.7H152.694H152.687H152.681H152.675H152.668H152.662H152.656H152.649H152.643H152.636H152.63H152.624H152.617H152.611H152.605H152.598H152.592H152.586H152.579H152.573H152.566H152.56H152.554H152.547H152.541H152.535H152.528H152.522H152.516H152.509H152.503H152.496H152.49H152.484H152.477H152.471H152.465H152.16H151.91V35.8386V37.4718V37.704L152.141 37.7211C152.154 37.722 152.169 37.7235 152.187 37.7251C152.233 37.7294 152.292 37.7349 152.341 37.735C152.624 37.7352 152.907 37.7359 153.191 37.7366C154.078 37.7389 154.968 37.7412 155.857 37.7289C156.291 37.7256 156.723 37.6834 157.148 37.6029L157.15 37.6025C160.538 36.9318 162.759 34.1713 162.381 31.0171C162.102 28.6541 160.19 26.6151 157.694 25.9757L157.683 25.9728L157.672 25.971C157.612 25.9613 157.559 25.9359 157.52 25.9016C157.481 25.8675 157.459 25.8272 157.45 25.7876L157.447 25.7774L157.444 25.7673C156.797 23.7287 155.526 22.0621 153.629 20.8291C151.049 19.149 148.168 18.6442 145.068 19.3028L145.068 19.3028C140.967 20.175 137.744 23.4668 137.33 27.2715C137.316 27.401 137.288 27.4317 137.276 27.4426C137.255 27.4618 137.205 27.4899 137.053 27.5196C134.199 28.0763 132.185 30.8458 132.777 33.4682C133.362 36.0619 135.643 37.7276 138.533 37.735H138.534H138.542H138.55H138.558H138.566H138.574H138.583H138.591H138.599H138.607H138.615H138.623H138.631H138.64H138.648H138.656H138.664H138.672H138.68H138.688H138.697H138.705H138.713H138.721H138.729H138.737H138.745H138.754H138.762H138.77H138.778H138.786H138.794H138.802H138.811H138.819H138.827H138.835H138.843H138.851H138.859H138.868H138.876H138.884H138.892H138.9H138.908H138.916H138.925H138.933H138.941H138.949H138.957H138.965H138.973H138.982H138.99H138.998H139.006H139.014H139.022H139.03H139.039H139.047H139.055H139.063H139.071H139.079H139.087H139.096H139.104H139.112H139.12H139.128H139.136H139.144H139.153H139.161H139.169H139.177H139.185H139.193H139.201H139.21H139.218H139.226H139.234H139.242H139.25H139.258H139.267H139.275H139.283H139.291H139.299H139.307H139.315H139.324H139.332H139.34H139.348H139.356H139.364H139.372H139.381H139.389H139.397H139.405H139.413H139.421H139.429H139.438H139.446H139.454H139.462H139.47H139.478H139.486H139.495H139.503H139.511H139.519H139.527H139.535H139.543H139.552H139.56H139.568H139.576H139.584H139.592H139.6H139.609H139.617H139.625H139.633H139.641H139.649H139.657H139.666H139.674H139.682H139.69H139.698H139.706H139.714H139.723H139.731H139.739H139.747H139.755H139.763H139.771H139.78H139.788H139.796H139.804H139.812H139.82H139.829H139.837H139.845H139.853H139.861H139.869H139.877H139.886H139.894H139.902H139.91H139.918H139.926H139.934H139.943H139.951H139.959H139.967H139.975H139.983H139.991H140H140.008H140.016H140.024H140.032H140.04H140.048H140.057H140.065H140.073H140.081H140.089H140.097H140.105H140.114H140.122H140.13H140.138H140.146H140.154H140.162H140.171H140.179H140.187H140.195H140.203H140.211H140.219H140.228H140.236H140.244H140.252H140.26H140.268H140.277H140.285H140.293H140.301H140.309H140.317H140.325H140.334H140.342H140.35H140.358H140.366H140.374H140.382H140.391H140.399H140.407H140.415H140.423H140.431H140.439H140.448H140.456H140.464H140.472H140.48H140.488H140.496H140.505H140.513H140.521H140.529H140.537H140.545H140.553H140.562H140.57H140.578H140.586H140.594H140.602H140.611H140.619H140.627H140.635H140.643H140.651H140.659H140.668H140.676H140.684H140.692H140.7H140.708H140.716H140.725H140.733H140.741H140.749H140.757H140.765H140.773H140.782H140.79H140.798H140.806H140.814H140.822H140.83H140.839H140.847H140.855H140.863H140.871H140.879H140.887H140.896H140.904H140.912H140.92H140.928H140.936H140.945H140.953H140.961H140.969H140.977H140.985H140.993H141.002H141.01H141.018H141.026H141.034H141.042H141.05H141.059H141.067H141.075H141.083H141.091H141.099H141.107H141.116H141.124H141.132H141.14H141.148H141.156H141.165H141.173H141.181H141.189H141.197H141.205H141.213H141.222H141.23H141.238H141.246H141.254H141.262H141.27H141.279H141.287H141.295H141.303H141.311H141.319H141.327H141.336H141.344H141.352H141.36H141.368H141.376H141.384H141.393H141.401H141.409H141.417H141.425H141.433H141.442H141.45H141.458H141.466H141.474H141.482H141.49H141.499H141.507H141.515H141.523H141.531H141.539H141.547H141.556H141.564H141.572H141.58H141.588H141.596H141.604H141.613H141.621H141.629H141.637H141.645H141.653H141.661H141.67H141.678H141.686H141.694H141.702H141.71H141.719H141.727H141.735H141.743H141.751H141.759H141.767H141.776H141.784H141.792H141.8H141.808H141.816H141.824H141.833H141.841H141.849H141.857H141.865H141.873H141.881H141.89H141.898H141.906H141.914H141.922H141.93H141.939H141.947H141.955H141.963H141.971H141.979H141.987H141.996H142.004H142.012H142.02H142.028H142.036H142.044H142.053H142.061H142.069H142.077H142.085H142.093H142.101H142.11H142.118H142.126H142.134H142.142H142.15H142.159H142.167H142.175H142.183H142.191H142.199H142.207H142.216H142.224H142.232H142.24H142.248H142.256H142.264H142.273H142.281H142.289H142.297H142.305H142.313H142.321H142.33H142.338H142.346H142.354H142.362H142.37H142.379H142.387H142.395H142.403H142.411H142.419H142.427H142.436H142.444H142.452H142.46H142.468H142.476H142.484H142.493H142.501H142.509H142.517H142.525H142.533H142.541H142.55H142.558H142.566H142.574H142.582H142.59H142.599H142.607H142.615H142.623H142.631H142.639H142.647H142.656H142.664H142.672H142.68H142.688H142.696H142.704H142.988H143.238V37.485V35.8386V35.5886H142.988H142.669C142.224 35.5883 141.78 35.5911 141.338 35.5938C140.324 35.6002 139.315 35.6065 138.305 35.5756L138.305 35.5755C136.969 35.5354 135.984 34.9557 135.394 33.8879C135.096 33.3488 134.977 32.8227 135.02 32.3153C135.064 31.8075 135.271 31.3001 135.655 30.8019L135.655 30.8019C136.297 29.9677 137.217 29.5446 138.374 29.5021C138.709 29.4921 139.003 29.4085 139.223 29.2198C139.448 29.028 139.563 28.7562 139.594 28.4395L139.345 28.4153ZM139.345 28.4153C139.292 28.9557 138.966 29.2346 138.366 29.2522L141.55 23.4013C140.171 24.7184 139.455 26.2999 139.371 28.1114C139.371 28.186 139.362 28.2607 139.354 28.3353C139.351 28.362 139.348 28.3887 139.345 28.4153Z" fill="white" stroke="white" stroke-width="0.5"/>
<path d="M144.786 34.1184L146.42 32.6143V39.9363V40.1863H146.67H148.497H148.747V39.9363V32.5889L150.398 34.0834L150.565 34.2341L150.732 34.0846L152 32.954L152.205 32.7712L152.004 32.5843C151.994 32.5751 151.983 32.5632 151.964 32.5447C151.96 32.5404 151.956 32.5358 151.951 32.5308C151.927 32.5069 151.897 32.477 151.865 32.4479L150.177 30.9281L148.491 29.4092C148.49 29.4091 148.49 29.4089 148.49 29.4088C148.208 29.1527 147.901 28.9997 147.568 29C147.236 29.0003 146.928 29.1538 146.644 29.4083L146.644 29.4085C145.776 30.1906 144.908 30.9719 144.039 31.7526L144.038 31.7528C143.836 31.9351 143.632 32.1147 143.432 32.2907C143.329 32.3822 143.226 32.4727 143.125 32.5621L142.915 32.7483L143.124 32.9355L144.45 34.1208L144.619 34.2721L144.786 34.1184Z" fill="white" stroke="white" stroke-width="0.5"/>
</svg>
