<svg width="76" height="76" viewBox="0 0 76 76" fill="none" xmlns="http://www.w3.org/2000/svg">
<mask id="path-1-inside-1_5143_27577" fill="white">
<path d="M26.1482 63C22.5661 62.122 18.9864 61.2375 15.3969 60.3674C14.1447 60.0634 13.1754 59.6042 13.0277 58.871C12.9367 58.4131 13.0696 57.8848 13.4288 57.4673C16.1104 54.3298 18.8536 51.2066 21.6238 48.0913C22.3176 47.3099 22.4529 46.5584 21.9338 45.7366C21.0604 44.3498 20.2756 42.9487 19.4514 41.5528C19.3874 41.4445 19.3481 41.3258 19.2398 41.2319C17.5546 39.7681 17.1388 38.1948 17.4685 36.4989C18.0589 33.4566 18.5879 30.4143 19.8721 27.4256C20.0615 26.982 20.2731 26.5411 20.5191 26.1053C21.9116 23.641 23.2967 22.7056 27.4398 21.4258C26.1408 20.6418 25.4224 19.7273 25.2477 18.6914C25.2305 18.5871 25.1124 18.4762 24.9894 18.3888C22.6128 16.6498 24.6031 13.8619 29.2554 13.3962C30.0033 13.3218 30.7562 13.2487 31.4918 13.147C36.7222 12.4242 41.8395 14.4542 41.9773 17.3216C42.0044 17.8735 42.0413 18.4331 41.9084 18.9784C41.564 20.3822 40.2182 21.4663 37.9474 22.2216C37.7703 22.2803 37.5956 22.3442 37.3644 22.4251C39.5072 23.3514 40.7964 24.5281 40.7865 25.971C40.7792 26.9533 40.3954 27.9383 40.0755 28.9128C39.9255 29.372 40.0017 29.7477 40.4569 30.1573C42.4669 31.9681 41.3327 31.501 45.1461 32.0633C46.8879 32.3203 48.6396 32.5578 50.3864 32.803C54.1112 33.3248 55.5922 34.495 55.0731 36.5067C55.0608 36.5537 55.0707 36.6032 55.0707 36.6815C55.6956 36.7193 56.3278 36.7363 56.9453 36.8002C60.4315 37.1603 62.9139 38.7023 62.9705 40.5848C63.0197 42.1959 62.9852 43.8071 62.9852 45.4182C62.9852 50.9353 62.9778 56.4523 63 61.9681C63.0024 62.4142 62.7982 62.7613 62.0725 63C61.7649 63 61.4574 63 61.1523 63C60.4094 62.7691 60.2101 62.4234 60.2101 61.9759C60.2298 54.9951 60.1756 48.0131 60.2593 41.0323C60.279 39.3546 58.1705 38.0448 54.8394 38.1844C53.0508 38.2587 51.2893 38.1635 49.5868 37.8308C48.7552 37.6691 48.3198 37.3312 48.4969 36.9503C48.6937 36.5341 49.3801 36.3254 50.2904 36.4258C50.8809 36.491 51.4639 36.5771 52.0372 36.6528C53.0311 35.4761 52.2438 34.5811 49.9878 34.2628C47.471 33.9067 44.9591 33.5427 42.4275 33.214C40.8948 33.0144 39.7852 32.5773 39.057 31.8337C38.4272 31.1893 37.7309 30.5631 37.0273 29.8964C35.6028 30.3713 34.2694 30.8161 32.9163 31.2675C33.8585 32.0672 34.7098 32.82 35.6225 33.5518C36.4122 34.1846 37.5267 34.5942 38.9291 34.7847C40.5307 35.0025 42.1249 35.2413 43.7191 35.4735C44.3539 35.5648 44.8435 35.7396 44.937 36.1166C45.0772 36.6815 44.1669 37.0507 42.986 36.8902C41.4483 36.6802 39.9205 36.4519 38.255 36.2119C38.2156 36.8942 37.9278 37.5099 38.4395 38.157C40.2699 40.4804 41.9355 42.8417 43.8495 45.1456C45.7267 47.4051 46.0342 49.7599 45.8595 52.1668C45.8276 52.5999 45.2789 52.8804 44.5286 52.8882C43.7905 52.8974 43.1902 52.6208 43.1287 52.1981C43.077 51.842 43.0869 51.4819 43.1115 51.1245C43.232 49.3985 42.8482 47.7208 41.5886 46.1097C39.7336 43.7393 37.9154 41.3597 36.117 38.9763C35.8833 38.6671 35.6028 38.5692 34.9829 38.5718C30.3183 38.5862 25.6512 38.5797 20.9866 38.581C20.7529 38.581 20.5191 38.5992 20.2239 38.6123C20.5905 39.5738 21.3507 40.393 22.5292 41.1014C26.1801 43.2996 29.8164 45.5044 33.5018 47.6869C34.9927 48.5701 35.7012 49.5746 35.6865 50.7527C35.6619 52.8034 35.6791 54.8542 35.6791 56.9037C35.6791 57.0759 35.6791 57.2481 35.6791 57.4242C38.2205 57.4242 40.6266 57.4242 43.109 57.4242C43.109 56.8254 43.0918 56.2593 43.1139 55.6931C43.1336 55.1921 43.6601 54.8869 44.467 54.8777C45.3232 54.8686 45.8595 55.1752 45.8669 55.7074C45.8792 56.5698 45.8866 57.4321 45.8522 58.2944C45.8325 58.7941 46.1941 59.1345 47.0823 59.3211C48.3272 59.582 49.2325 60.0595 49.9681 60.6374C51.3163 61.6967 51.0383 62.3647 48.989 63C44.6294 63 40.2699 63 35.9079 63C33.6494 62.5799 32.84 61.7267 32.8843 60.4783C32.9802 57.7465 32.9138 55.0134 32.9138 52.2816C32.9138 52.1133 32.9138 51.9437 32.9138 51.7415C32.7367 51.795 32.6629 51.8041 32.6432 51.8263C30.7537 53.9567 28.8618 56.0871 26.9896 58.2227C26.6943 58.5605 26.7952 58.8958 27.3045 59.1672C28.2467 59.6707 28.7363 60.2878 28.9922 60.9727C29.3957 62.0581 29.0315 62.4912 27.2479 62.9987C26.8862 63 26.5172 63 26.1482 63ZM20.1649 37.0833C25.3486 37.0833 30.3355 37.0833 35.342 37.0833C35.4036 36.7167 35.4331 36.3749 35.5266 36.0384C35.6151 35.7148 35.4036 35.5152 34.9263 35.2987C34.2841 35.0064 33.6863 34.6594 33.2361 34.2798C31.0465 32.4377 28.8815 30.5865 26.7854 28.7145C26.3474 28.3244 26.0694 27.8391 26.003 27.3851C25.816 26.1392 27.3364 25.0134 29.5703 24.6194C31.8067 24.2254 34.2153 24.6585 35.5438 25.7218C36.2671 26.2997 36.9191 26.9011 37.6399 27.5221C38.9192 25.5848 37.2241 23.6514 33.7281 23.0226C32.8941 22.8726 32.0035 22.8047 31.1277 22.7304C29.2751 22.5725 27.6907 22.8726 26.3253 23.5471C24.5515 24.4224 23.496 25.5248 23.0433 26.7524C22.2118 29.0132 21.4934 31.2871 20.8316 33.5649C20.4945 34.7168 20.3838 35.887 20.1649 37.0833ZM25.2403 56.665C25.3363 56.605 25.3855 56.5841 25.4101 56.5554C27.521 54.1367 29.6417 51.7193 31.7132 49.2915C31.8387 49.1441 31.6911 48.8493 31.4721 48.7149C29.189 47.3086 26.8665 45.9205 24.5515 44.5298C24.4088 44.4437 24.2341 44.372 23.9315 44.2233C24.1529 44.6029 24.2882 44.886 24.4801 45.1573C25.3683 46.4202 25.1788 47.6295 24.0176 48.8323C22.9572 49.9308 22.0273 51.0658 21.0432 52.1851C20.2165 53.1257 19.3924 54.0663 18.5411 55.0395C20.8218 55.5926 23.0409 56.1314 25.2403 56.665ZM28.5518 19.6216C29.4842 20.7774 31.7846 21.4832 34.1267 21.388C36.3926 21.2967 38.5896 20.3965 38.9783 19.2002C39.244 18.3848 39.2661 17.503 38.9881 16.6902C38.5231 15.3334 35.7529 14.3211 33.3689 14.5207C33.3689 15.6479 33.3837 16.7841 33.364 17.9191C33.3468 18.938 32.129 19.5864 30.2002 19.619C29.6811 19.6281 29.1619 19.6216 28.5518 19.6216ZM35.684 58.9232C35.684 59.5729 35.6791 60.156 35.6865 60.7392C35.6939 61.3889 35.9694 61.5337 37.2143 61.5337C40.4642 61.535 43.7142 61.535 46.9642 61.5324C47.1881 61.5324 47.4119 61.5102 47.6358 61.4984C47.6703 61.4593 47.7072 61.4202 47.7416 61.381C47.1807 61.1449 46.6788 60.8357 46.0465 60.6896C44.6959 60.3765 43.7487 59.9095 43.2812 59.1619C43.2173 59.0602 42.9171 58.9336 42.7227 58.9323C40.4249 58.9167 38.1295 58.9232 35.684 58.9232ZM26.1432 61.3641C26.2318 61.3275 26.3179 61.2923 26.4065 61.2558C26.0817 60.9192 25.8677 60.5304 25.4076 60.2578C24.4481 59.6864 23.9684 59.0654 24.1037 58.3009C24.1234 58.1861 23.9881 57.9917 23.8208 57.95C21.7001 57.4151 19.5597 56.9024 17.3823 56.3728C17.0576 56.7433 16.7771 57.0668 16.4917 57.389C15.2985 58.738 15.1435 58.704 17.8006 59.3394C20.588 60.006 23.3632 60.6883 26.1432 61.3641ZM35.652 28.6205C34.791 27.8743 34.0283 27.1699 33.182 26.4954C32.5079 25.9592 31.2236 25.8066 30.1583 26.0779C29.0758 26.3532 28.3722 27.0211 28.8593 27.573C29.5999 28.4157 30.5594 29.2037 31.4377 30.0282C32.9113 29.5351 34.23 29.0941 35.652 28.6205ZM30.6012 14.8638C28.8987 14.809 27.5751 15.2591 27.0068 16.0301C26.1506 17.1899 27.6194 18.2518 29.9615 18.1448C30.1879 18.1344 30.5692 17.9609 30.5741 17.8604C30.6209 16.8715 30.6012 15.8827 30.6012 14.8638Z"/>
</mask>
<path d="M26.1482 63C22.5661 62.122 18.9864 61.2375 15.3969 60.3674C14.1447 60.0634 13.1754 59.6042 13.0277 58.871C12.9367 58.4131 13.0696 57.8848 13.4288 57.4673C16.1104 54.3298 18.8536 51.2066 21.6238 48.0913C22.3176 47.3099 22.4529 46.5584 21.9338 45.7366C21.0604 44.3498 20.2756 42.9487 19.4514 41.5528C19.3874 41.4445 19.3481 41.3258 19.2398 41.2319C17.5546 39.7681 17.1388 38.1948 17.4685 36.4989C18.0589 33.4566 18.5879 30.4143 19.8721 27.4256C20.0615 26.982 20.2731 26.5411 20.5191 26.1053C21.9116 23.641 23.2967 22.7056 27.4398 21.4258C26.1408 20.6418 25.4224 19.7273 25.2477 18.6914C25.2305 18.5871 25.1124 18.4762 24.9894 18.3888C22.6128 16.6498 24.6031 13.8619 29.2554 13.3962C30.0033 13.3218 30.7562 13.2487 31.4918 13.147C36.7222 12.4242 41.8395 14.4542 41.9773 17.3216C42.0044 17.8735 42.0413 18.4331 41.9084 18.9784C41.564 20.3822 40.2182 21.4663 37.9474 22.2216C37.7703 22.2803 37.5956 22.3442 37.3644 22.4251C39.5072 23.3514 40.7964 24.5281 40.7865 25.971C40.7792 26.9533 40.3954 27.9383 40.0755 28.9128C39.9255 29.372 40.0017 29.7477 40.4569 30.1573C42.4669 31.9681 41.3327 31.501 45.1461 32.0633C46.8879 32.3203 48.6396 32.5578 50.3864 32.803C54.1112 33.3248 55.5922 34.495 55.0731 36.5067C55.0608 36.5537 55.0707 36.6032 55.0707 36.6815C55.6956 36.7193 56.3278 36.7363 56.9453 36.8002C60.4315 37.1603 62.9139 38.7023 62.9705 40.5848C63.0197 42.1959 62.9852 43.8071 62.9852 45.4182C62.9852 50.9353 62.9778 56.4523 63 61.9681C63.0024 62.4142 62.7982 62.7613 62.0725 63C61.7649 63 61.4574 63 61.1523 63C60.4094 62.7691 60.2101 62.4234 60.2101 61.9759C60.2298 54.9951 60.1756 48.0131 60.2593 41.0323C60.279 39.3546 58.1705 38.0448 54.8394 38.1844C53.0508 38.2587 51.2893 38.1635 49.5868 37.8308C48.7552 37.6691 48.3198 37.3312 48.4969 36.9503C48.6937 36.5341 49.3801 36.3254 50.2904 36.4258C50.8809 36.491 51.4639 36.5771 52.0372 36.6528C53.0311 35.4761 52.2438 34.5811 49.9878 34.2628C47.471 33.9067 44.9591 33.5427 42.4275 33.214C40.8948 33.0144 39.7852 32.5773 39.057 31.8337C38.4272 31.1893 37.7309 30.5631 37.0273 29.8964C35.6028 30.3713 34.2694 30.8161 32.9163 31.2675C33.8585 32.0672 34.7098 32.82 35.6225 33.5518C36.4122 34.1846 37.5267 34.5942 38.9291 34.7847C40.5307 35.0025 42.1249 35.2413 43.7191 35.4735C44.3539 35.5648 44.8435 35.7396 44.937 36.1166C45.0772 36.6815 44.1669 37.0507 42.986 36.8902C41.4483 36.6802 39.9205 36.4519 38.255 36.2119C38.2156 36.8942 37.9278 37.5099 38.4395 38.157C40.2699 40.4804 41.9355 42.8417 43.8495 45.1456C45.7267 47.4051 46.0342 49.7599 45.8595 52.1668C45.8276 52.5999 45.2789 52.8804 44.5286 52.8882C43.7905 52.8974 43.1902 52.6208 43.1287 52.1981C43.077 51.842 43.0869 51.4819 43.1115 51.1245C43.232 49.3985 42.8482 47.7208 41.5886 46.1097C39.7336 43.7393 37.9154 41.3597 36.117 38.9763C35.8833 38.6671 35.6028 38.5692 34.9829 38.5718C30.3183 38.5862 25.6512 38.5797 20.9866 38.581C20.7529 38.581 20.5191 38.5992 20.2239 38.6123C20.5905 39.5738 21.3507 40.393 22.5292 41.1014C26.1801 43.2996 29.8164 45.5044 33.5018 47.6869C34.9927 48.5701 35.7012 49.5746 35.6865 50.7527C35.6619 52.8034 35.6791 54.8542 35.6791 56.9037C35.6791 57.0759 35.6791 57.2481 35.6791 57.4242C38.2205 57.4242 40.6266 57.4242 43.109 57.4242C43.109 56.8254 43.0918 56.2593 43.1139 55.6931C43.1336 55.1921 43.6601 54.8869 44.467 54.8777C45.3232 54.8686 45.8595 55.1752 45.8669 55.7074C45.8792 56.5698 45.8866 57.4321 45.8522 58.2944C45.8325 58.7941 46.1941 59.1345 47.0823 59.3211C48.3272 59.582 49.2325 60.0595 49.9681 60.6374C51.3163 61.6967 51.0383 62.3647 48.989 63C44.6294 63 40.2699 63 35.9079 63C33.6494 62.5799 32.84 61.7267 32.8843 60.4783C32.9802 57.7465 32.9138 55.0134 32.9138 52.2816C32.9138 52.1133 32.9138 51.9437 32.9138 51.7415C32.7367 51.795 32.6629 51.8041 32.6432 51.8263C30.7537 53.9567 28.8618 56.0871 26.9896 58.2227C26.6943 58.5605 26.7952 58.8958 27.3045 59.1672C28.2467 59.6707 28.7363 60.2878 28.9922 60.9727C29.3957 62.0581 29.0315 62.4912 27.2479 62.9987C26.8862 63 26.5172 63 26.1482 63ZM20.1649 37.0833C25.3486 37.0833 30.3355 37.0833 35.342 37.0833C35.4036 36.7167 35.4331 36.3749 35.5266 36.0384C35.6151 35.7148 35.4036 35.5152 34.9263 35.2987C34.2841 35.0064 33.6863 34.6594 33.2361 34.2798C31.0465 32.4377 28.8815 30.5865 26.7854 28.7145C26.3474 28.3244 26.0694 27.8391 26.003 27.3851C25.816 26.1392 27.3364 25.0134 29.5703 24.6194C31.8067 24.2254 34.2153 24.6585 35.5438 25.7218C36.2671 26.2997 36.9191 26.9011 37.6399 27.5221C38.9192 25.5848 37.2241 23.6514 33.7281 23.0226C32.8941 22.8726 32.0035 22.8047 31.1277 22.7304C29.2751 22.5725 27.6907 22.8726 26.3253 23.5471C24.5515 24.4224 23.496 25.5248 23.0433 26.7524C22.2118 29.0132 21.4934 31.2871 20.8316 33.5649C20.4945 34.7168 20.3838 35.887 20.1649 37.0833ZM25.2403 56.665C25.3363 56.605 25.3855 56.5841 25.4101 56.5554C27.521 54.1367 29.6417 51.7193 31.7132 49.2915C31.8387 49.1441 31.6911 48.8493 31.4721 48.7149C29.189 47.3086 26.8665 45.9205 24.5515 44.5298C24.4088 44.4437 24.2341 44.372 23.9315 44.2233C24.1529 44.6029 24.2882 44.886 24.4801 45.1573C25.3683 46.4202 25.1788 47.6295 24.0176 48.8323C22.9572 49.9308 22.0273 51.0658 21.0432 52.1851C20.2165 53.1257 19.3924 54.0663 18.5411 55.0395C20.8218 55.5926 23.0409 56.1314 25.2403 56.665ZM28.5518 19.6216C29.4842 20.7774 31.7846 21.4832 34.1267 21.388C36.3926 21.2967 38.5896 20.3965 38.9783 19.2002C39.244 18.3848 39.2661 17.503 38.9881 16.6902C38.5231 15.3334 35.7529 14.3211 33.3689 14.5207C33.3689 15.6479 33.3837 16.7841 33.364 17.9191C33.3468 18.938 32.129 19.5864 30.2002 19.619C29.6811 19.6281 29.1619 19.6216 28.5518 19.6216ZM35.684 58.9232C35.684 59.5729 35.6791 60.156 35.6865 60.7392C35.6939 61.3889 35.9694 61.5337 37.2143 61.5337C40.4642 61.535 43.7142 61.535 46.9642 61.5324C47.1881 61.5324 47.4119 61.5102 47.6358 61.4984C47.6703 61.4593 47.7072 61.4202 47.7416 61.381C47.1807 61.1449 46.6788 60.8357 46.0465 60.6896C44.6959 60.3765 43.7487 59.9095 43.2812 59.1619C43.2173 59.0602 42.9171 58.9336 42.7227 58.9323C40.4249 58.9167 38.1295 58.9232 35.684 58.9232ZM26.1432 61.3641C26.2318 61.3275 26.3179 61.2923 26.4065 61.2558C26.0817 60.9192 25.8677 60.5304 25.4076 60.2578C24.4481 59.6864 23.9684 59.0654 24.1037 58.3009C24.1234 58.1861 23.9881 57.9917 23.8208 57.95C21.7001 57.4151 19.5597 56.9024 17.3823 56.3728C17.0576 56.7433 16.7771 57.0668 16.4917 57.389C15.2985 58.738 15.1435 58.704 17.8006 59.3394C20.588 60.006 23.3632 60.6883 26.1432 61.3641ZM35.652 28.6205C34.791 27.8743 34.0283 27.1699 33.182 26.4954C32.5079 25.9592 31.2236 25.8066 30.1583 26.0779C29.0758 26.3532 28.3722 27.0211 28.8593 27.573C29.5999 28.4157 30.5594 29.2037 31.4377 30.0282C32.9113 29.5351 34.23 29.0941 35.652 28.6205ZM30.6012 14.8638C28.8987 14.809 27.5751 15.2591 27.0068 16.0301C26.1506 17.1899 27.6194 18.2518 29.9615 18.1448C30.1879 18.1344 30.5692 17.9609 30.5741 17.8604C30.6209 16.8715 30.6012 15.8827 30.6012 14.8638Z" fill="#82D051" stroke="white" stroke-width="0.6" mask="url(#path-1-inside-1_5143_27577)"/>
<rect width="76" height="76" rx="15" fill="#82D051" fill-opacity="0.1"/>
</svg>
