<svg width="71" height="71" viewBox="0 0 71 71" fill="none" xmlns="http://www.w3.org/2000/svg">
<rect x="0.000976562" width="71" height="71" rx="15" fill="#82D051" fill-opacity="0.1"/>
<path d="M56.6031 59.0612C55.7545 60.2053 54.8638 60.2188 54.0153 59.0582C53.7098 59.3081 53.4571 59.5008 53.2209 59.7115C52.8327 60.0578 52.4566 60.0653 52.0684 59.7175C51.9285 59.5926 51.7675 59.4887 51.6396 59.3532C51.4094 59.1078 51.2228 59.1485 50.9716 59.3517C49.953 60.1737 49.947 60.1662 48.957 59.3532C48.8697 59.2825 48.7824 59.2117 48.6199 59.0807C47.7759 60.1556 46.8671 60.2745 46.014 59.0597C45.6981 59.3171 45.4453 59.5098 45.2091 59.7205C44.8164 60.0698 44.4403 60.0593 44.0581 59.71C43.9603 59.6212 43.8369 59.5565 43.7572 59.4556C43.4367 59.0536 43.1659 59.1741 42.8304 59.4661C42.0074 60.1812 41.9578 60.1677 41.1212 59.4872C40.9768 59.3683 40.8293 59.2524 40.6413 59.1003C40.3975 59.296 40.1764 59.5354 39.904 59.6739C39.6437 59.8064 39.2721 59.9629 39.057 59.8666C38.8448 59.7717 38.6673 59.3803 38.6507 59.1078C38.5996 58.2512 38.6327 57.3901 38.6327 56.4748C38.3483 56.4748 38.1272 56.4748 37.9075 56.4748C31.6621 56.4748 25.4152 56.4206 19.1712 56.5019C16.8121 56.5335 14.4635 55.3187 14.0512 52.0112C13.4539 47.2269 12.7092 42.4607 12.0081 37.6885C11.984 37.5289 11.7809 37.3167 11.6214 37.27C10.5336 36.9539 10.0145 36.3156 10.0055 35.197C9.99947 34.4262 9.99947 33.657 10.0055 32.8862C10.0175 31.6306 10.7894 30.7771 12.0366 30.8403C12.8972 30.884 13.2373 30.5784 13.5412 29.7955C14.641 26.9653 16.1967 24.3684 17.9751 21.9161C18.4867 21.2115 18.4671 20.5236 18.443 19.8115C17.8036 20.0674 17.1928 20.3309 16.5669 20.5507C16.3653 20.6214 16.1185 20.6094 15.8988 20.5808C15.136 20.4829 14.6786 20.1261 14.5583 19.5661C14.4454 19.0422 14.7148 18.583 15.4159 18.1946C16.2148 17.7521 16.6015 17.0445 16.8663 16.1427C16.4961 16.1427 16.1997 16.1488 15.9018 16.1412C14.5974 16.1096 13.6224 15.1808 13.5848 13.9358C13.5457 12.6471 14.462 11.5632 15.7679 11.5421C18.5514 11.497 21.3378 11.4669 24.1197 11.5572C26.011 11.6189 27.6148 13.9237 27.1559 15.7679C27.0988 15.9982 26.7557 16.2135 26.4984 16.3249C26.1975 16.4559 25.8289 16.4228 25.516 16.5342C24.3845 16.9316 24.049 18.0321 24.6418 19.0618C24.8404 19.408 24.869 19.8837 24.872 20.3023C24.8765 20.8051 24.9683 21.21 25.2933 21.6331C26.038 22.6056 26.3269 23.7858 26.5872 24.9631C26.6293 25.1558 26.676 25.347 26.7422 25.636C27.2342 24.5942 27.2176 23.6142 26.9904 22.6297C26.8731 22.1208 26.6474 21.6346 26.5406 21.1242C26.4683 20.781 26.4157 20.373 26.533 20.0599C27.1198 18.4927 28.2407 17.3381 29.5753 16.3821C29.8717 16.1698 29.995 15.9561 29.9725 15.5978C29.9424 15.1296 29.9755 14.6584 29.9619 14.1902C29.9499 13.734 29.9815 13.3291 30.5081 13.1394C30.6014 13.1063 30.648 12.8654 30.6615 12.7149C30.6977 12.3235 30.66 11.9215 30.7323 11.5391C30.9008 10.6434 31.6019 10.0442 32.5076 10.0186C33.4284 9.99455 34.3522 9.99304 35.273 10.0186C36.3112 10.0472 37.0559 10.812 37.1056 11.8568C37.1161 12.063 37.1191 12.2708 37.1086 12.477C37.092 12.8218 37.0905 13.1048 37.5133 13.2809C37.6923 13.3562 37.8097 13.7401 37.8323 13.9945C37.8804 14.5154 37.8247 15.0468 37.8608 15.5707C37.8714 15.7318 38.0068 15.9666 38.1452 16.0253C40.5916 17.049 42.4242 18.7727 43.855 20.9631C43.8956 21.0249 43.9453 21.0791 44.0009 21.1513C44.35 20.4769 44.8766 19.8491 44.9759 19.1596C45.0842 18.4024 45.5055 17.9222 45.8696 17.3546C45.9524 17.2267 45.9448 17.0309 45.9463 16.8653C45.9554 16.2075 45.9328 15.5496 45.9569 14.8932C46.0005 13.728 46.7814 12.9843 47.9489 12.9723C48.5507 12.9663 49.1525 12.9603 49.7544 12.9738C50.8392 12.9979 51.6215 13.7822 51.6561 14.8691C51.6667 15.2064 51.6832 15.5466 51.6546 15.8823C51.5824 16.7509 51.8397 17.4495 52.3257 18.2142C52.9485 19.1988 53.3247 20.367 53.6527 21.5021C54.0424 22.8479 54.2861 24.2375 54.5539 25.6149C54.6923 26.324 54.5599 26.9969 54.0318 27.5509C53.9536 27.6337 53.9145 27.7843 53.9145 27.9047C53.9054 28.8411 53.91 29.779 53.91 30.8147C54.2304 30.8147 54.5208 30.8087 54.8112 30.8162C56.0825 30.8463 56.8408 31.6051 56.8529 32.8681C56.8604 33.6946 56.8649 34.5211 56.8499 35.3476C56.8333 36.3291 56.2857 37.0171 55.3182 37.2294C55.0098 37.2971 54.8834 37.4175 54.8398 37.7231C54.3508 41.1796 53.8498 44.6331 53.3533 48.0881C53.3427 48.1588 53.3518 48.2326 53.3518 48.359C54.7796 48.359 56.1863 48.359 57.5931 48.359C59.3414 48.359 59.9974 49.0199 59.9974 50.7843C59.9974 51.1411 60.0079 51.4979 59.9929 51.8547C59.9628 52.5622 59.6604 53.1343 59.0315 53.4685C58.714 53.6371 58.6358 53.8328 58.6388 54.17C58.6568 55.7658 58.6704 57.363 58.6282 58.9588C58.6192 59.2855 58.4492 59.7431 58.204 59.8846C58.0129 59.996 57.5751 59.7461 57.2772 59.5971C57.053 59.4857 56.8724 59.281 56.6031 59.0612ZM13.3757 37.3212C13.3847 37.5139 13.3787 37.6629 13.3998 37.809C14.0979 42.6369 14.7885 47.4648 15.5016 52.2897C15.777 54.1504 16.9385 55.1214 18.8192 55.123C25.2135 55.1245 31.6079 55.123 38.0023 55.123C38.1994 55.123 38.3965 55.123 38.6342 55.123C38.6342 54.6834 38.6598 54.3266 38.6222 53.9758C38.6056 53.8253 38.4882 53.6281 38.3589 53.5573C37.6051 53.1388 37.265 52.508 37.2861 51.6605C37.2951 51.2856 37.2861 50.9092 37.2876 50.5344C37.2951 49.0831 38.0203 48.362 39.4798 48.362C43.4097 48.3605 47.3411 48.362 51.271 48.362C51.4906 48.362 51.7118 48.362 51.9525 48.362C52.4866 44.6527 53.0117 41.005 53.5413 37.3227C40.1357 37.3212 26.7888 37.3212 13.3757 37.3212ZM33.4194 35.9407C39.7777 35.9407 46.1344 35.9407 52.4927 35.9407C53.2449 35.9407 53.9972 35.9362 54.7495 35.9422C55.2595 35.9467 55.5168 35.7269 55.5048 35.197C55.4912 34.5587 55.5018 33.9204 55.5018 33.2821C55.5018 32.2313 55.4386 32.1681 54.3854 32.1681C40.4096 32.1681 26.4337 32.1681 12.4579 32.1681C12.3827 32.1681 12.3075 32.1666 12.2322 32.1681C11.5236 32.1786 11.3626 32.3337 11.3581 33.0247C11.3536 33.663 11.3566 34.3013 11.3566 34.9396C11.3581 35.8188 11.48 35.9407 12.3691 35.9407C19.3879 35.9422 26.4037 35.9407 33.4194 35.9407ZM28.021 21.3275C28.8516 23.4381 28.4724 25.3982 27.5907 27.3236C27.1349 28.3202 27.0461 29.3815 27.1604 30.4609C27.1725 30.5799 27.2763 30.6898 27.338 30.8027C27.4313 30.6943 27.5938 30.5934 27.6058 30.476C27.8736 28.0537 28.8094 25.8423 29.7558 23.6338C30.0372 22.9759 30.323 22.7907 30.982 23.0692C31.8065 23.4185 32.6355 23.8039 33.3667 24.3112C35.6251 25.8784 37.3207 27.9875 38.7967 30.2712C39.1533 30.8237 39.5565 30.8855 40.1508 30.759C40.0741 30.619 40.0154 30.5091 39.9537 30.3992C39.5098 29.6164 39.0224 28.8546 38.6297 28.0477C37.6969 26.1283 37.4682 24.1065 37.8864 22.0154C38.1061 20.915 39.0449 20.5085 40.0063 21.058C41.0761 21.6677 41.8991 22.5198 42.3068 23.6654C42.7176 24.8246 43.0531 26.0244 43.2742 27.2333C43.4849 28.3864 43.5044 29.5742 43.6113 30.7726C43.9709 30.7726 44.35 30.7726 44.7698 30.7726C44.7111 28.8682 44.502 27.03 44.0762 25.219C43.2998 21.9086 41.535 19.3222 38.4973 17.6828C37.5283 17.1604 36.5158 16.8217 35.3768 16.894C34.4214 16.9542 33.451 16.9858 32.5031 16.8849C31.4244 16.772 30.6224 17.195 29.8641 17.8604C29.1871 18.4536 28.5522 19.0753 28.0842 19.953C28.9313 19.953 29.7016 19.8943 30.4599 19.9635C32.9485 20.1909 35.0398 21.213 36.6091 23.1972C36.9491 23.6278 36.928 24.0056 36.5549 24.2751C36.1637 24.5581 35.8372 24.3805 35.5769 24.0613C33.6421 21.6858 31.0572 21.076 28.021 21.3275ZM44.6359 58.3777C45.2317 58.1263 45.3746 57.6912 45.3129 57.1297C45.2783 56.8151 45.3114 56.4914 45.3069 56.1722C45.3009 55.7281 45.4965 55.424 45.9509 55.412C46.4368 55.4 46.6475 55.7221 46.658 56.1798C46.667 56.5742 46.6926 56.9716 46.6535 57.3615C46.5948 57.9351 46.9077 58.197 47.2779 58.3521C47.9248 58.1413 47.9895 57.7033 47.9579 57.1959C47.9339 56.8226 47.9354 56.4432 47.9639 56.0699C47.9955 55.6604 48.2333 55.3939 48.6575 55.409C49.0788 55.4225 49.2985 55.686 49.303 56.1105C49.3075 56.4673 49.3406 56.8286 49.2985 57.1794C49.2278 57.7635 49.4459 58.1504 49.9755 58.3717C50.4901 58.1549 50.7022 57.7846 50.636 57.2215C50.5939 56.8512 50.621 56.4718 50.6315 56.0955C50.6436 55.6724 50.8753 55.415 51.2935 55.409C51.7148 55.403 51.951 55.6634 51.9736 56.0804C51.9931 56.4553 52.0157 56.8346 51.9721 57.2065C51.9044 57.7906 52.1331 58.1624 52.6371 58.3687C53.1878 58.1383 53.3533 57.7349 53.2976 57.1869C53.263 56.8331 53.2886 56.4733 53.2961 56.118C53.3051 55.701 53.5112 55.4225 53.937 55.4105C54.3929 55.3954 54.6186 55.683 54.6382 56.1195C54.6547 56.4944 54.6833 56.8753 54.6367 57.2456C54.5659 57.8237 54.8307 58.1594 55.3107 58.3807C55.9426 58.0856 56.3203 57.08 57.2441 57.7785C57.2441 56.4116 57.2441 55.0928 57.2441 53.7967C51.4696 53.7967 45.7432 53.7967 40.0109 53.7967C40.0109 55.129 40.0109 56.4191 40.0109 57.7665C40.9572 57.1508 41.362 58.0887 41.9578 58.3687C42.519 58.1624 42.6815 57.7605 42.6273 57.2095C42.5912 56.8376 42.6062 56.4583 42.6273 56.0834C42.6514 55.6694 42.8876 55.406 43.3088 55.4105C43.7271 55.4165 43.9588 55.6724 43.9709 56.097C43.9799 56.4538 44.0145 56.8166 43.9663 57.1658C43.8911 57.7514 44.1123 58.1353 44.6359 58.3777ZM48.656 49.7124C45.6108 49.7124 42.5656 49.7109 39.5204 49.7124C38.7591 49.7124 38.6462 49.8298 38.6402 50.5976C38.6387 50.8791 38.6387 51.1606 38.6402 51.4422C38.6432 52.2942 38.7515 52.4011 39.6272 52.4011C45.6424 52.4011 51.6561 52.4011 57.6713 52.4011C57.7842 52.4011 57.897 52.4056 58.0099 52.3981C58.4086 52.371 58.6358 52.1678 58.6433 51.7568C58.6493 51.3819 58.6463 51.0056 58.6463 50.6307C58.6433 49.8494 58.5094 49.7109 57.7345 49.7109C54.7089 49.7109 51.6832 49.7124 48.656 49.7124ZM45.8531 26.8268C48.0708 26.8268 50.29 26.8343 52.5077 26.8208C53.0087 26.8178 53.2615 26.5167 53.2299 26.0154C53.2088 25.6782 53.1682 25.3425 53.1201 25.0082C52.8643 23.2318 52.3904 21.5247 51.4951 19.95C51.2649 19.5435 51.0077 19.3252 50.4826 19.3493C49.3 19.402 48.1129 19.3493 46.9288 19.3809C46.7137 19.387 46.3917 19.539 46.3104 19.7136C45.82 20.7614 45.3806 21.8348 44.9398 22.9052C44.8901 23.0271 44.9217 23.1972 44.9563 23.3357C45.2452 24.4798 45.5431 25.6225 45.8531 26.8268ZM25.7702 30.7861C25.7808 30.6536 25.8048 30.5437 25.7958 30.4368C25.6619 28.945 25.6123 27.4365 25.3565 25.9657C25.1639 24.8547 24.7246 23.7843 24.3529 22.7094C24.1859 22.2247 23.8188 22.0215 23.2561 22.0471C22.1503 22.0967 21.0384 22.044 19.931 22.0772C19.7114 22.0832 19.415 22.2202 19.2901 22.3933C17.6938 24.6244 16.272 26.9608 15.1345 29.4613C14.9434 29.8813 14.7749 30.3104 14.5778 30.7816C14.811 30.7966 14.9615 30.7891 15.1059 30.8177C15.7875 30.9532 16.1381 30.6461 16.4315 30.0364C17.104 28.6348 17.8623 27.2739 18.583 25.8949C18.9681 25.1588 19.5669 24.7915 20.4035 24.802C21.061 24.811 21.7185 24.8005 22.376 24.805C23.6067 24.814 24.3469 25.5321 24.3605 26.753C24.3725 27.8972 24.362 29.0413 24.365 30.1869C24.365 30.3826 24.3845 30.5799 24.3951 30.7876C24.8901 30.7861 25.3159 30.7861 25.7702 30.7861ZM28.9479 30.7665C31.8411 30.7665 34.6441 30.7665 37.4757 30.7665C35.7319 27.9122 32.7288 25.0203 30.8601 24.4949C30.0236 26.5092 29.1675 28.5189 28.9479 30.7665ZM22.9898 18.4641C22.9311 16.4649 23.9918 15.4352 25.7823 15.0483C25.8214 13.9027 24.8825 12.891 23.7662 12.882C21.8102 12.8669 19.8543 12.8775 17.8984 12.8805C17.7916 12.8805 17.6847 12.9151 17.5644 12.9347C17.5644 13.5564 17.5644 14.1526 17.5644 14.7758C19.6226 15.1492 20.2485 16.6034 20.3117 18.4626C21.2129 18.4641 22.0705 18.4641 22.9898 18.4641ZM23.0034 30.7906C23.0034 29.3725 23.0229 28.0071 22.9778 26.6447C22.9718 26.476 22.6393 26.1975 22.4376 26.178C21.8057 26.1162 21.1633 26.1735 20.5253 26.1479C20.1357 26.1328 19.8949 26.2758 19.7234 26.6221C19.3999 27.2769 19.0479 27.9167 18.7093 28.5641C18.3317 29.2882 17.9556 30.0123 17.5508 30.7891C19.3984 30.7906 21.1588 30.7906 23.0034 30.7906ZM52.5167 30.7861C52.5167 29.9099 52.5167 29.0609 52.5167 28.2193C50.3231 28.2193 48.1701 28.2193 46.014 28.2193C46.0637 29.0955 46.1103 29.9325 46.16 30.8147C48.134 30.8147 50.0673 30.8147 52.0022 30.8132C52.1662 30.8132 52.3302 30.7966 52.5167 30.7861ZM39.4436 22.1208C38.4747 24.5747 40.3464 30.1839 42.1864 30.7876C42.1308 28.3428 42.027 25.9326 40.8384 23.7467C40.5044 23.134 39.9161 22.6583 39.4436 22.1208ZM50.3096 17.9914C50.3096 16.9542 50.3065 15.9817 50.3111 15.0091C50.3141 14.5425 50.0944 14.3166 49.625 14.3212C49.0803 14.3272 48.5342 14.3272 47.9895 14.3212C47.5487 14.3166 47.317 14.5274 47.314 14.964C47.308 15.9681 47.3125 16.9707 47.3125 17.9914C48.3205 17.9914 49.3316 17.9914 50.3096 17.9914ZM32.0307 13.0897C33.2975 13.0897 34.5042 13.0897 35.7575 13.0897C35.7575 12.6968 35.759 12.343 35.7575 11.9908C35.756 11.5783 35.5483 11.366 35.1331 11.366C34.3071 11.3645 33.4811 11.366 32.6551 11.366C32.2654 11.366 32.0593 11.5798 32.0367 11.9501C32.0141 12.3189 32.0307 12.6908 32.0307 13.0897ZM31.3506 15.5074C33.0734 15.5074 34.7675 15.5074 36.4526 15.5074C36.4526 15.1522 36.4526 14.8451 36.4526 14.5214C34.7269 14.5214 33.0463 14.5214 31.3506 14.5214C31.3506 14.8691 31.3506 15.1808 31.3506 15.5074ZM23.5119 19.8732C22.2797 19.8732 21.0715 19.8732 19.8453 19.8732C19.8453 20.1517 19.8453 20.4031 19.8453 20.6636C21.0865 20.6636 22.2932 20.6636 23.5119 20.6636C23.5119 20.3805 23.5119 20.1427 23.5119 19.8732ZM16.1621 12.9091C15.6461 12.8428 15.2293 12.9708 15.0804 13.3968C14.978 13.6904 15.0036 14.1029 15.136 14.3859C15.3151 14.7668 15.7183 14.8616 16.1621 14.7397C16.1621 14.133 16.1621 13.5414 16.1621 12.9091ZM16.7504 19.1009C17.423 18.8661 17.9811 18.3211 18.4731 17.6994C18.8749 17.1905 18.8102 16.9361 18.2971 16.6305C17.7675 17.4751 17.2394 18.3196 16.7504 19.1009Z" fill="#82D051"/>
</svg>
