<svg width="44" height="30" viewBox="0 0 44 30" fill="none" xmlns="http://www.w3.org/2000/svg">
<path d="M43.5462 27.4126C43.3218 28.2374 42.9408 28.9664 42.1227 29.3095C41.6557 29.5045 41.1557 29.608 40.6497 29.6147C35.3186 29.6361 29.9875 29.6279 24.6498 29.6279H2.96906C1.04082 29.6279 0 28.5871 0 26.6671C0 18.7705 0 10.8739 0 2.9773C0 1.05896 1.04577 0.0181443 2.96906 0.0181443C15.4177 0.0181443 27.8646 0.034639 40.3132 0C42.0814 0 43.1965 0.737316 43.5495 2.23504L43.5462 27.4126ZM41.7862 12.2243H1.75999C1.75999 12.3892 1.7402 12.5542 1.7402 12.6993C1.7402 17.3497 1.7402 21.9996 1.7402 26.6489C1.7402 27.6122 2.02061 27.8926 2.97895 27.8926H40.5771C41.5371 27.8926 41.8159 27.6122 41.8159 26.6489C41.8159 21.9985 41.8159 17.3486 41.8159 12.6993C41.8142 12.5476 41.801 12.3958 41.7928 12.2243H41.7862ZM1.76659 6.98058H41.7862C41.7961 6.84367 41.8126 6.71996 41.8126 6.59625C41.8126 5.36245 41.8126 4.12204 41.8126 2.89648C41.8126 2.08164 41.4926 1.76329 40.6777 1.76329C28.0768 1.76329 15.4759 1.76329 2.87504 1.76329C2.0503 1.76329 1.7435 2.07999 1.7402 2.89483C1.7402 4.12864 1.7402 5.36904 1.7402 6.5946C1.7402 6.71007 1.75669 6.83378 1.76659 6.98058Z" fill="#C4C4C4"/>
</svg>
