<svg width="61" height="55" viewBox="0 0 61 55" fill="none" xmlns="http://www.w3.org/2000/svg">
<path d="M0 0C-7.00312e-07 7.2227 1.57781 14.3747 4.64335 21.0476C7.70888 27.7205 12.2021 33.7837 17.8665 38.8909C23.5309 43.9981 30.2554 48.0494 37.6563 50.8134C45.0572 53.5774 52.9894 55 61 55V20C58.3267 20 55.6796 17.8798 53.2098 16.9574C50.74 16.035 48.4959 14.683 46.6056 12.9786C44.7152 11.2742 43.2158 9.25084 42.1927 7.02397C41.1697 4.7971 40.6432 2.41035 40.6432 3.88534e-06L0 0Z" fill="#82D051"/>
<rect x="21" width="40" height="40" rx="20" fill="#82D051"/>
<path d="M48.7515 17.5349L49.2681 17.025L49.3984 16.8986L49.4613 16.8354C49.4882 16.8084 49.5332 16.7632 49.5691 16.7226C49.7173 16.5556 49.8566 16.321 49.9285 16.0863C49.9689 15.9555 49.9914 15.811 49.9959 15.6757L50.0004 15.5042C50.0004 15.4591 49.9914 15.4184 49.9734 15.3733C49.924 15.265 49.8566 15.1071 49.7758 14.9536C49.6949 14.7957 49.5961 14.6468 49.5242 14.5746C49.5017 14.5475 49.4792 14.5249 49.4568 14.5114C49.4388 14.4978 49.4208 14.4933 49.4074 14.4888C49.3759 14.4798 49.349 14.4843 49.3265 14.4933C49.2816 14.5204 49.2501 14.5655 49.2456 14.6784C49.2232 14.8769 49.1962 15.1702 49.1962 15.4952C49.1962 15.5177 49.1962 15.5403 49.1962 15.5628V15.5899C49.1558 15.7298 49.0929 15.8652 49.003 15.969C48.9132 16.0773 48.8009 16.1495 48.6841 16.2307C48.4504 16.3932 48.2168 16.5647 47.9832 16.7452C47.5115 17.1017 47.0353 17.4808 46.5591 17.8824C45.6022 18.6811 44.6363 19.5611 43.6928 20.4727C42.5382 21.5828 41.3882 22.6884 40.2336 23.7986L38.486 25.4773L38.0547 25.897L37.9558 25.9917C37.9558 25.9917 37.9469 25.9963 37.9424 25.9963L37.9154 26.0008L36.7743 26.2219C35.9881 26.3798 35.2064 26.5333 34.4202 26.6912L34.0428 26.7679C34.1956 26.0233 34.3528 25.2742 34.5056 24.5296L34.7392 23.3428L34.7976 23.0449L34.8245 22.896L34.829 22.878V22.8689V22.8644C34.8335 22.8464 34.8245 22.887 34.8245 22.878C34.8245 22.8689 34.8335 22.8419 34.829 22.8599C34.82 22.887 34.8245 22.8735 34.8245 22.878C34.82 22.878 34.8335 22.8554 34.8335 22.8509L34.847 22.8374L34.9009 22.7832L35.0042 22.6749C35.5748 22.1198 36.1498 21.5693 36.7204 21.0142C38.5219 19.2497 40.3234 17.4762 42.098 15.6847C42.983 14.7867 43.8636 13.8841 44.7351 12.9771L45.0631 12.6341C45.117 12.5754 45.1484 12.5438 45.1664 12.5258H45.1799C45.3326 12.5393 45.4584 12.5529 45.5572 12.5754C45.6067 12.5844 45.6471 12.5935 45.6785 12.607H45.683C45.6741 12.6025 45.701 12.616 45.6696 12.6025H45.6741L45.683 12.607L45.71 12.616L45.7639 12.6386L45.8717 12.6837C46.0065 12.7424 46.1008 12.783 46.2266 12.8462C46.4647 12.968 46.6894 13.1079 46.905 13.2704C47.8754 13.9879 48.428 14.9762 48.7784 14.719C48.9267 14.6016 48.9716 14.2722 48.8278 13.7984C48.6841 13.329 48.3381 12.7063 47.7092 12.1693C47.4306 11.9301 47.1251 11.718 46.8062 11.5375C46.7253 11.4924 46.6355 11.4472 46.5546 11.4021C46.4647 11.3525 46.4018 11.3299 46.321 11.2893L46.2671 11.2622L46.2221 11.2397L46.1817 11.2216C46.1278 11.199 46.0739 11.181 46.02 11.1629C45.9122 11.1314 45.8133 11.1043 45.7145 11.0862C45.6201 11.0682 45.5258 11.0501 45.4404 11.0366L45.3146 11.0185L45.2428 11.0095C45.2023 11.005 45.1619 11.0005 45.1215 11.0005C44.9597 10.996 44.78 11.023 44.6228 11.0817C44.4656 11.1404 44.3308 11.2216 44.2274 11.3073C44.2005 11.3254 44.1735 11.3525 44.1421 11.3796L44.0792 11.4382L43.9893 11.524L43.8096 11.6954L43.4502 12.0384C42.4978 12.9545 41.5499 13.8841 40.6199 14.8228C39.1239 16.339 37.6459 17.8598 36.1678 19.3941L33.9575 21.6911L33.8137 21.84C33.7328 21.9258 33.6655 22.016 33.607 22.1108C33.5531 22.2056 33.5037 22.3049 33.4678 22.4222C33.4229 22.5756 33.4273 22.6072 33.4094 22.6794L33.2566 23.4646L32.9466 25.0305C32.8209 25.4908 32.6906 25.9511 32.5648 26.4159L32.4704 26.7634L32.4255 26.9394L32.403 27.0252C32.3941 27.0703 32.3761 27.147 32.3716 27.2102C32.3446 27.4764 32.4165 27.8194 32.6411 28.0766C32.749 28.203 32.8927 28.3068 33.041 28.37C33.1892 28.4331 33.342 28.4647 33.4947 28.4692C33.5397 28.4692 33.5846 28.4692 33.6295 28.4647L33.7014 28.4557L33.7239 28.4512L33.7867 28.4422L33.8317 28.4331L34.0069 28.4015L34.3618 28.3429L35.0671 28.221C35.5388 28.1353 36.0106 28.0495 36.4823 27.9638C36.954 27.8736 37.4257 27.7833 37.8974 27.693L38.2523 27.6254C38.459 27.5847 38.7016 27.49 38.9038 27.3501C38.9532 27.314 39.0026 27.2779 39.043 27.2418L39.1149 27.1786L39.1554 27.138L39.2856 27.0116L39.5417 26.7589C40.2246 26.0775 40.9119 25.4006 41.5948 24.7192C42.9561 23.3473 44.3173 21.9709 45.6785 20.599C46.3614 19.9131 47.0443 19.2272 47.7227 18.5458L48.7515 17.5349ZM45.099 12.5213C45.0855 12.5213 45.072 12.5213 45.0676 12.5168L45.099 12.5213ZM33.4363 26.8943C33.4139 26.8988 33.4408 26.8943 33.4543 26.8898C33.4588 26.8898 33.4588 26.8898 33.4633 26.8898L33.4363 26.8943Z" fill="white"/>
<path d="M46.0106 23.6942C45.7905 23.3467 45.6063 23.798 45.467 24.4749C45.2334 25.5895 45.0672 26.8215 44.9549 28.1212C44.8965 28.771 44.8516 29.4389 44.8201 30.1113C44.8111 30.2783 44.8066 30.4497 44.7976 30.6212L44.7887 30.8785V30.91V30.9281C44.7887 30.9146 44.7887 30.9597 44.7887 30.901V30.9055V30.9146L44.7842 30.9777C44.7797 31.0364 44.7752 31.0229 44.7707 31.0364C44.7347 31.1853 44.6179 31.3297 44.4787 31.4019C44.3888 31.4471 44.308 31.4651 44.1911 31.4606L43.5712 31.4471L42.3357 31.42L39.8603 31.3658C38.2116 31.3342 36.5583 31.3072 34.9095 31.2756C33.2563 31.253 31.603 31.235 29.9498 31.235H29.9318H29.9138L29.8375 31.2304C29.833 31.2214 29.8599 31.2304 29.8375 31.2259C29.8105 31.2214 29.788 31.2079 29.7611 31.1989C29.7162 31.1718 29.6667 31.1312 29.6398 31.086C29.6083 31.0409 29.5949 30.9868 29.5904 30.9281L29.5814 30.3053C29.5724 29.475 29.5589 28.6401 29.5409 27.8053C29.5589 26.9795 29.5724 26.1581 29.5904 25.3323C29.6263 22.7149 29.6533 20.1021 29.6443 17.4892L29.6398 16.5551C29.6398 16.4648 29.6712 16.4062 29.7296 16.3475C29.7566 16.3204 29.7925 16.3024 29.8285 16.2888C29.8464 16.2843 29.8644 16.2798 29.8869 16.2753C29.8914 16.2753 29.8959 16.2753 29.9003 16.2753C29.9003 16.2753 29.9363 16.2753 29.9498 16.2753H30.0711L31.0459 16.2618C32.3443 16.2392 33.6426 16.2076 34.9365 16.158C36.4101 16.1038 37.632 15.8962 37.5242 15.4901C37.4254 15.1155 36.3786 14.8402 34.8691 14.7996C33.5124 14.7635 32.1466 14.7274 30.7809 14.6913L30.2687 14.6823L30.0127 14.6778C29.9632 14.6778 29.9363 14.6733 29.8734 14.6778C29.806 14.6823 29.7341 14.6823 29.6667 14.6913C29.1142 14.7545 28.5975 15.0749 28.2965 15.5442C28.2201 15.6616 28.1572 15.7879 28.1123 15.9188C28.0629 16.0542 28.0314 16.176 28.009 16.3565L28.0045 16.4152V16.4468L28 16.51V16.5776V16.6092V16.6724V16.9296V17.9585C28.009 20.1607 28.0359 22.3629 28.0674 24.5652L28.1168 27.8685L28.1438 29.5201L28.1572 30.346L28.1617 30.7566V30.8604C28.1617 30.8965 28.1617 30.9191 28.1662 30.9777C28.1707 31.0815 28.1842 31.1808 28.2022 31.2846C28.2606 31.6501 28.4403 32.0021 28.7098 32.2639C28.8446 32.3947 29.0018 32.5121 29.1726 32.5933C29.3478 32.6745 29.514 32.7332 29.7566 32.7648L29.8464 32.7738L29.8689 32.7783H29.9273L29.9722 32.7828L30.1564 32.7918L30.5248 32.8099L31.2661 32.8415C32.2544 32.8821 33.2428 32.9137 34.2312 32.9363C36.2124 32.9814 38.2026 32.9994 40.1928 32.9994C41.1901 32.9994 42.1875 32.9949 43.1803 32.9949L43.9261 32.9904H44.1148H44.2181L44.3798 32.9814C44.6 32.9588 44.8156 32.9047 45.0178 32.8189C45.4221 32.6384 45.7635 32.3316 45.9792 31.948C46.087 31.7539 46.1634 31.5509 46.2083 31.3297C46.2218 31.262 46.2308 31.1989 46.2353 31.1312C46.2398 31.0906 46.2398 31.0815 46.2398 31.0635V31.0183L46.2442 30.9281V30.883V30.7882C46.2398 28.7846 46.2398 26.7854 46.2667 24.7908C46.2802 24.4298 46.1229 23.8702 46.0106 23.6942Z" fill="white"/>
</svg>
