<svg width="18" height="20" viewBox="0 0 18 20" fill="none" xmlns="http://www.w3.org/2000/svg">
<path d="M1.50197 3.33398L1.26474 2.62249C0.958722 2.72453 0.752226 3.01081 0.751971 3.33339L1.50197 3.33398ZM16.498 3.33398L17.248 3.33339C17.2478 3.01081 17.0413 2.72452 16.7352 2.62249L16.498 3.33398ZM8.99991 19.1673L8.6953 19.8527C8.88922 19.9389 9.11058 19.9389 9.30451 19.8527L8.99991 19.1673ZM8.99991 0.833984L9.23713 0.12249C9.08315 0.0711486 8.91666 0.0711492 8.76268 0.122491L8.99991 0.833984ZM7.03032 8.59508C6.73743 8.30218 6.26256 8.30218 5.96966 8.59508C5.67677 8.88797 5.67677 9.36284 5.96966 9.65574L7.03032 8.59508ZM8.26776 10.8932L7.73743 11.4235L8.26776 11.9538L8.79809 11.4235L8.26776 10.8932ZM12.3336 7.88797C12.6265 7.59508 12.6265 7.1202 12.3336 6.82731C12.0407 6.53442 11.5659 6.53442 11.273 6.82731L12.3336 7.88797ZM15.75 10.834C15.75 12.9612 14.1341 14.849 12.2895 16.2836C11.3909 16.9825 10.488 17.5347 9.80757 17.9127C9.46824 18.1013 9.18643 18.2452 8.99105 18.3414C8.89341 18.3894 8.81751 18.4254 8.76697 18.449C8.74171 18.4608 8.7228 18.4695 8.7107 18.475C8.70465 18.4777 8.70031 18.4797 8.69772 18.4809C8.69643 18.4815 8.69558 18.4818 8.69517 18.482C8.69497 18.4821 8.69488 18.4821 8.6949 18.4821C8.69491 18.4821 8.69501 18.4821 8.69502 18.4821C8.69515 18.482 8.69531 18.482 8.99991 19.1673C9.30451 19.8527 9.30472 19.8526 9.30497 19.8525C9.30509 19.8524 9.30536 19.8523 9.3056 19.8522C9.30608 19.852 9.30667 19.8517 9.30737 19.8514C9.30878 19.8508 9.31065 19.8499 9.31296 19.8489C9.31759 19.8468 9.324 19.8439 9.33214 19.8402C9.34842 19.8328 9.37163 19.8221 9.4013 19.8083C9.46063 19.7806 9.54586 19.7401 9.6533 19.6873C9.86808 19.5816 10.1722 19.4261 10.536 19.224C11.2619 18.8207 12.234 18.2271 13.2104 17.4677C15.1159 15.9857 17.25 13.7067 17.25 10.834H15.75ZM8.99991 19.1673C9.30451 18.482 9.30467 18.482 9.3048 18.4821C9.30481 18.4821 9.30491 18.4821 9.30492 18.4821C9.30494 18.4821 9.30485 18.4821 9.30465 18.482C9.30424 18.4818 9.30339 18.4815 9.3021 18.4809C9.29951 18.4797 9.29517 18.4777 9.28912 18.475C9.27702 18.4695 9.25811 18.4608 9.23285 18.449C9.18231 18.4254 9.10641 18.3894 9.00878 18.3414C8.8134 18.2452 8.5316 18.1013 8.19228 17.9127C7.51188 17.5347 6.60901 16.9826 5.71041 16.2836C3.86589 14.849 2.25 12.9612 2.25 10.834L0.75 10.834C0.750004 13.7067 2.88408 15.9856 4.7895 17.4677C5.76588 18.2271 6.73798 18.8207 7.46381 19.224C7.82761 19.4261 8.13173 19.5816 8.34651 19.6873C8.45395 19.7401 8.53918 19.7806 8.59851 19.8083C8.62818 19.8221 8.65139 19.8328 8.66767 19.8402C8.67581 19.8439 8.68222 19.8468 8.68684 19.8489C8.68916 19.8499 8.69102 19.8508 8.69243 19.8514C8.69314 19.8517 8.69373 19.852 8.69421 19.8522C8.69445 19.8523 8.69472 19.8524 8.69484 19.8525C8.69508 19.8526 8.6953 19.8527 8.99991 19.1673ZM2.25 10.834C2.25 8.33408 2.25049 6.45918 2.25098 5.20928C2.25123 4.58433 2.25148 4.11563 2.25166 3.80318C2.25175 3.64695 2.25183 3.52979 2.25189 3.45169C2.25191 3.41264 2.25193 3.38336 2.25195 3.36384C2.25196 3.35408 2.25196 3.34676 2.25196 3.34188C2.25197 3.33944 2.25197 3.33762 2.25197 3.3364C2.25197 3.33579 2.25197 3.33533 2.25197 3.33503C2.25197 3.33488 2.25197 3.33476 2.25197 3.33469C2.25197 3.33465 2.25197 3.33462 2.25197 3.3346C2.25197 3.33459 2.25197 3.33458 1.50197 3.33398C0.751971 3.33339 0.751971 3.3334 0.751971 3.33342C0.751971 3.33344 0.751971 3.33347 0.751971 3.33351C0.751971 3.33358 0.75197 3.3337 0.75197 3.33385C0.75197 3.33416 0.75197 3.33462 0.751969 3.33523C0.751968 3.33646 0.751967 3.33829 0.751965 3.34073C0.751961 3.34562 0.751956 3.35295 0.751948 3.36272C0.751934 3.38227 0.751913 3.41158 0.751886 3.45065C0.751832 3.5288 0.751754 3.64601 0.751662 3.80229C0.751476 4.11484 0.751229 4.58364 0.750983 5.20869C0.750489 6.45879 0.749996 8.33389 0.75 10.834L2.25 10.834ZM16.498 3.33398C15.748 3.33457 15.748 3.33458 15.748 3.3346C15.748 3.33462 15.748 3.33465 15.748 3.33469C15.748 3.33476 15.748 3.33488 15.748 3.33503C15.748 3.33533 15.748 3.33579 15.748 3.3364C15.748 3.33761 15.748 3.33944 15.748 3.34188C15.748 3.34676 15.748 3.35408 15.748 3.36383C15.7481 3.38335 15.7481 3.41264 15.7481 3.45169C15.7482 3.52979 15.7482 3.64695 15.7483 3.80318C15.7485 4.11563 15.7488 4.58433 15.749 5.20928C15.7495 6.45918 15.75 8.33408 15.75 10.834H17.25C17.25 8.33389 17.2495 6.45879 17.249 5.20869C17.2488 4.58364 17.2485 4.11484 17.2483 3.80229C17.2482 3.64602 17.2482 3.5288 17.2481 3.45065C17.2481 3.41158 17.2481 3.38227 17.248 3.36273C17.248 3.35296 17.248 3.34562 17.248 3.34074C17.248 3.33829 17.248 3.33646 17.248 3.33523C17.248 3.33462 17.248 3.33416 17.248 3.33386C17.248 3.3337 17.248 3.33359 17.248 3.33351C17.248 3.33347 17.248 3.33344 17.248 3.33342C17.248 3.3334 17.248 3.33339 16.498 3.33398ZM1.7392 4.04548L9.23714 1.54548L8.76268 0.122491L1.26474 2.62249L1.7392 4.04548ZM8.76268 1.54548L16.2608 4.04548L16.7352 2.62249L9.23713 0.12249L8.76268 1.54548ZM5.96966 9.65574L7.73743 11.4235L8.79809 10.3628L7.03032 8.59508L5.96966 9.65574ZM8.79809 11.4235L12.3336 7.88797L11.273 6.82731L7.73743 10.3628L8.79809 11.4235Z" fill="#82D051"/>
</svg>
