<svg width="21" height="17" viewBox="0 0 21 17" fill="none" xmlns="http://www.w3.org/2000/svg">
<path d="M11.3412 1.10454L11.3416 1.10469L21.3832 5.62341C21.6885 5.77675 21.9029 6.05762 21.9478 6.37666C21.9455 6.69702 21.774 6.99294 21.477 7.14145L21.4763 7.14179L17.6742 9.07875L17.6196 9.10657V9.16785V13.1374C17.6196 13.2523 17.5603 13.3985 17.4929 13.5121C17.4875 13.5194 17.4798 13.5304 17.4695 13.5449C17.1931 13.9368 15.1286 16.8635 10.8804 16.8635C6.53361 16.8635 4.38362 13.65 4.2919 13.5124C4.20595 13.3835 4.16522 13.259 4.16522 13.1135V9.04828V8.98828L4.11228 8.96005L2.67749 8.19483L2.53043 8.1164V8.28307V11.0092C2.53043 11.2887 2.31216 11.507 2.03261 11.507C1.75305 11.507 1.53478 11.2887 1.53478 11.0092V7.66133V7.59796L1.47748 7.5709L0.617649 7.16487C0.310952 7.0111 0.1 6.70783 0.1 6.39394C0.1 6.05736 0.309673 5.77725 0.594349 5.62277L10.6345 1.10469L10.6345 1.10477L10.6382 1.10294C10.8479 0.998074 11.1031 0.996307 11.3412 1.10454ZM16.0986 12.9145L16.1217 12.8867V12.8505V10.0287V9.86578L15.9765 9.93956L11.4096 12.2588C11.4095 12.2589 11.4094 12.2589 11.4093 12.259C11.2845 12.3213 11.1341 12.3439 11 12.3439C10.8684 12.3439 10.7411 12.3222 10.6147 12.259C10.6146 12.259 10.6144 12.2589 10.6143 12.2588L5.78456 9.79615L5.63913 9.722V9.88524V12.8505V12.8855L5.66104 12.9129C6.14684 13.5202 7.87032 15.3896 10.8804 15.3896C13.9633 15.3896 15.615 13.4947 16.0986 12.9145ZM10.9548 10.5245L11 10.5473L11.0452 10.5245L18.8886 6.5549L19.0752 6.4605L18.8846 6.37453L11.0411 2.8354L11 2.81684L10.9589 2.8354L3.11539 6.37453L2.92485 6.4605L3.11137 6.5549L10.9548 10.5245ZM2.56458 13.6839L2.56444 13.6837L2.55972 13.6884C2.40917 13.839 2.17089 13.9461 1.96087 13.9461C1.74499 13.9461 1.51157 13.859 1.36656 13.6933L1.36673 13.6932L1.36202 13.6884C1.21146 13.5379 1.10435 13.2996 1.10435 13.0896C1.10435 12.8737 1.19143 12.6403 1.35715 12.4953L1.3573 12.4954L1.36202 12.4907C1.51257 12.3402 1.75085 12.2331 1.96087 12.2331C2.17264 12.2331 2.38657 12.3176 2.55972 12.4907C2.71028 12.6413 2.81739 12.8796 2.81739 13.0896C2.81739 13.3055 2.73031 13.5389 2.56458 13.6839Z" fill="#82D051" stroke="white" stroke-width="0.2"/>
</svg>
