<svg width="111" height="111" viewBox="0 0 111 111" fill="none" xmlns="http://www.w3.org/2000/svg">
<circle cx="55.5" cy="55.5" r="55.5" fill="white"/>
<circle cx="55.5042" cy="55.4993" r="51.2308" fill="#82D051" fill-opacity="0.9"/>
<path d="M29.8906 42.6911C29.8906 40.3333 31.802 38.4219 34.1599 38.4219H76.8522C79.21 38.4219 81.1214 40.3333 81.1214 42.6911V70.4411C81.1214 72.7989 79.21 74.7103 76.8522 74.7103H34.1599C31.802 74.7103 29.8906 72.7989 29.8906 70.4411V42.6911Z" stroke="white" stroke-width="3" stroke-linejoin="round"/>
<path d="M32.9246 41.203C31.8483 40.2164 32.5463 38.4219 34.0064 38.4219H77.0056C78.4657 38.4219 79.1638 40.2164 78.0874 41.203L59.8332 57.936C57.3849 60.1803 53.6271 60.1803 51.1788 57.936L32.9246 41.203Z" stroke="white" stroke-width="3" stroke-linejoin="round"/>
</svg>
