<svg width="23" height="17" viewBox="0 0 23 17" fill="none" xmlns="http://www.w3.org/2000/svg">
<path d="M11.3412 0.180711L11.3416 0.180866L21.3832 4.69958C21.6885 4.85293 21.9029 5.13379 21.9478 5.45284C21.9455 5.77319 21.774 6.06911 21.477 6.21762L21.4763 6.21796L17.6742 8.15492L17.6196 8.18274V8.24402V12.2136C17.6196 12.3285 17.5603 12.4747 17.4929 12.5883C17.4875 12.5956 17.4798 12.6066 17.4695 12.6211C17.1931 13.013 15.1286 15.9397 10.8804 15.9397C6.53361 15.9397 4.38362 12.7261 4.2919 12.5886C4.20595 12.4596 4.16522 12.3352 4.16522 12.1897V8.12446V8.06446L4.11228 8.03622L2.67749 7.271L2.53043 7.19257V7.35924V10.0853C2.53043 10.3649 2.31216 10.5832 2.03261 10.5832C1.75305 10.5832 1.53478 10.3649 1.53478 10.0853V6.7375V6.67413L1.47748 6.64708L0.617649 6.24104C0.310952 6.08727 0.1 5.784 0.1 5.47011C0.1 5.13353 0.309673 4.85342 0.594349 4.69894L10.6345 0.180866L10.6345 0.180942L10.6382 0.179117C10.8479 0.0742455 11.1031 0.0724787 11.3412 0.180711ZM16.0986 11.9906L16.1217 11.9628V11.9266V9.10489V8.94195L15.9765 9.01573L11.4096 11.335C11.4095 11.3351 11.4094 11.3351 11.4093 11.3352C11.2845 11.3975 11.1341 11.4201 11 11.4201C10.8684 11.4201 10.7411 11.3983 10.6147 11.3352C10.6146 11.3351 10.6144 11.3351 10.6143 11.335L5.78456 8.87233L5.63913 8.79817V8.96141V11.9266V11.9617L5.66104 11.9891C6.14684 12.5963 7.87032 14.4658 10.8804 14.4658C13.9633 14.4658 15.615 12.5709 16.0986 11.9906ZM10.9548 9.60064L11 9.62349L11.0452 9.60064L18.8886 5.63107L19.0752 5.53668L18.8846 5.4507L11.0411 1.91157L11 1.89301L10.9589 1.91157L3.11539 5.4507L2.92485 5.53668L3.11137 5.63107L10.9548 9.60064ZM2.56458 12.7601L2.56444 12.7599L2.55972 12.7646C2.40917 12.9152 2.17089 13.0223 1.96087 13.0223C1.74499 13.0223 1.51157 12.9352 1.36656 12.7695L1.36673 12.7693L1.36202 12.7646C1.21146 12.6141 1.10435 12.3758 1.10435 12.1658C1.10435 11.9499 1.19143 11.7165 1.35715 11.5715L1.3573 11.5716L1.36202 11.5669C1.51257 11.4164 1.75085 11.3092 1.96087 11.3092C2.17264 11.3092 2.38657 11.3938 2.55972 11.5669C2.71028 11.7175 2.81739 11.9557 2.81739 12.1658C2.81739 12.3816 2.73031 12.6151 2.56458 12.7601Z" fill="#82D051" stroke="white" stroke-width="0.2"/>
</svg>
