<svg width="18" height="17" viewBox="0 0 18 17" fill="none" xmlns="http://www.w3.org/2000/svg">
<path d="M11.0501 2.27521C11.0501 2.87118 10.8134 3.44274 10.392 3.86415C9.97054 4.28556 9.39899 4.52231 8.80302 4.52231C8.20705 4.52231 7.6355 4.28556 7.21408 3.86415C6.79267 3.44274 6.55592 2.87118 6.55592 2.27521C6.55592 1.02818 7.56434 0 8.80074 0C9.40043 0.00441945 9.97391 0.24637 10.3955 0.672839C10.8172 1.09931 11.0525 1.67552 11.0501 2.27521Z" fill="#82D051"/>
<path d="M1.13235 11.3563C1.6492 11.0602 2.26238 10.9811 2.83746 11.1364C3.41254 11.2917 3.90258 11.6686 4.20016 12.1846C4.8081 13.2698 4.44714 14.64 3.3726 15.2403C3.11724 15.3906 2.83446 15.4885 2.54081 15.5281C2.24717 15.5678 1.94855 15.5485 1.66246 15.4714C1.37636 15.3943 1.10852 15.2608 0.874614 15.0789C0.640709 14.897 0.445438 14.6703 0.300229 14.412C-0.31835 13.3648 0.047934 11.9848 1.13235 11.3563Z" fill="#82D051"/>
<path d="M13.95 15.4C13.4441 15.0973 13.0777 14.6075 12.93 14.0367C12.7823 13.4659 12.8651 12.8599 13.1607 12.3497C13.4562 11.8395 13.9406 11.4662 14.5093 11.3103C15.0779 11.1544 15.685 11.2286 16.1994 11.5168C16.7145 11.8193 17.0897 12.3126 17.2438 12.8898C17.3978 13.467 17.3183 14.0816 17.0224 14.6006C16.8732 14.8549 16.6754 15.0773 16.4402 15.2551C16.2051 15.433 15.9372 15.5627 15.6518 15.637C15.3665 15.7112 15.0694 15.7285 14.7773 15.6878C14.4853 15.6472 14.2042 15.5494 13.95 15.4Z" fill="#82D051"/>
<path d="M11.272 3.29418C12.4201 3.778 13.4001 4.58953 14.0894 5.6273C14.7787 6.66507 15.1468 7.88303 15.1476 9.12888C15.1485 9.68506 15.0738 10.2388 14.9257 10.7749C15.4401 10.7712 15.9477 10.8919 16.4053 11.1267C16.9 9.21862 16.6615 7.1944 15.737 5.45348C14.8124 3.71256 13.269 2.3814 11.4111 1.72266C11.4532 1.90343 11.4723 2.0888 11.4681 2.27436C11.4687 2.62372 11.4021 2.96994 11.272 3.29418Z" fill="#82D051"/>
<path d="M2.6446 10.6511C2.51327 10.1552 2.44761 9.64425 2.4493 9.13127C2.45018 7.88473 2.8189 6.66616 3.50926 5.62825C4.19963 4.59034 5.18093 3.77924 6.33023 3.29657C6.20148 2.97233 6.13373 2.62711 6.13037 2.27827C6.12617 2.0927 6.14532 1.90735 6.18737 1.72656C4.65311 2.26529 3.32397 3.26708 2.38349 4.59361C1.44301 5.92013 0.937601 7.50594 0.937049 9.13203C0.934864 9.7202 1.0004 10.3067 1.13235 10.8799C1.60409 10.6602 2.12901 10.5808 2.6446 10.6511Z" fill="#82D051"/>
<path d="M12.5327 14.2486C11.4499 15.0411 10.1411 15.4649 8.79922 15.4576C7.29609 15.4576 5.90239 14.9629 4.80886 14.0586C4.6577 14.5551 4.37175 15 3.98282 15.3436C5.35595 16.4234 7.05393 17.007 8.80074 16.9995C10.4442 16.9994 12.0462 16.4835 13.3808 15.5245C12.9807 15.1901 12.6861 14.7469 12.5327 14.2486Z" fill="#82D051"/>
</svg>
