<svg width="17" height="20" viewBox="0 0 17 20" fill="none" xmlns="http://www.w3.org/2000/svg">
<path d="M13.2727 2.63636C14.6283 2.63636 15.7273 3.7353 15.7273 5.09091V16.5455C15.7273 17.9011 14.6283 19 13.2727 19H3.45455C2.09894 19 1 17.9011 1 16.5455V5.09091C1 3.7353 2.09894 2.63636 3.45455 2.63636M13.2727 2.63636C13.2727 3.5401 12.5401 4.27273 11.6364 4.27273H5.09091C4.18717 4.27273 3.45455 3.5401 3.45455 2.63636M13.2727 2.63636C13.2727 1.73262 12.5401 1 11.6364 1H5.09091C4.18717 1 3.45455 1.73262 3.45455 2.63636" stroke="#82D051" stroke-width="2"/>
</svg>
