<svg width="22" height="23" viewBox="0 0 22 23" fill="none" xmlns="http://www.w3.org/2000/svg">
<path d="M21 10.3353C21 14.3925 14.8077 19.5793 12.1687 21.6056C11.4838 22.1315 10.5162 22.1315 9.83134 21.6056C7.19234 19.5793 1 14.3925 1 10.3353C1 5.17957 5.47715 1 11 1C16.5228 1 21 5.17957 21 10.3353Z" stroke="#82D051" stroke-width="1.5"/>
<path d="M14 10.3353C14 11.8821 12.6569 13.1359 11 13.1359C9.34315 13.1359 8 11.8821 8 10.3353C8 8.7886 9.34315 7.53473 11 7.53473C12.6569 7.53473 14 8.7886 14 10.3353Z" stroke="#82D051" stroke-width="1.5"/>
</svg>
