<svg width="76" height="76" viewBox="0 0 76 76" fill="none" xmlns="http://www.w3.org/2000/svg">
<rect width="76" height="76" rx="15" fill="#82D051" fill-opacity="0.1"/>
<path d="M13 36.5573C13.3366 35.7128 13.9119 35.419 14.7195 35.4323C16.9817 35.4709 19.244 35.4457 21.5062 35.4457C21.6823 35.4457 21.8597 35.4457 22.0737 35.4457C22.0737 31.2574 22.0737 27.1063 22.0737 22.9165C21.9432 22.9076 21.818 22.8987 21.6927 22.8898C20.9243 22.8393 20.3829 22.3021 20.3712 21.4205C20.3411 19.1067 20.3385 16.7914 20.3712 14.4777C20.3842 13.5516 20.9504 13.0128 21.7867 13.0069C22.9908 12.998 24.195 13.0009 25.3992 13.0069C25.9654 13.0098 26.2942 13.3349 26.2824 13.8573C26.272 14.3574 25.951 14.6661 25.4122 14.6691C24.2407 14.6751 23.0704 14.6706 21.8584 14.6706C21.8584 16.8508 21.8584 19.0028 21.8584 21.1905C28.6908 21.1905 35.5179 21.1905 42.3842 21.1905C42.3842 19.0399 42.3842 16.8879 42.3842 14.6706C42.1911 14.6706 42.0006 14.6706 41.8101 14.6706C37.5466 14.6706 33.2818 14.6706 29.0182 14.6706C28.8552 14.6706 28.6895 14.6899 28.5316 14.6558C28.1272 14.5697 27.8949 14.2832 27.9054 13.8083C27.9158 13.3601 28.1507 13.0959 28.5329 13.0173C28.6751 12.9891 28.8251 13.0039 28.9713 13.0039C33.3979 13.0039 37.8245 13.0024 42.2524 13.0039C43.4161 13.0039 43.8858 13.5293 43.8871 14.8428C43.8897 16.8241 43.8884 18.8054 43.8884 20.7868C43.8884 22.4015 43.604 22.7607 42.1637 22.9314C42.1637 27.081 42.1637 31.2352 42.1637 35.4175C42.6973 35.4175 43.21 35.4175 43.7788 35.4175C43.7788 35.1815 43.7788 34.9648 43.7788 34.7496C43.7788 31.5275 43.7775 28.3069 43.7788 25.0849C43.7788 24.1484 44.0032 23.8931 44.816 23.8931C49.5035 23.8916 54.191 23.8916 58.8773 23.8931C59.6705 23.8931 59.8897 24.1409 59.8897 25.0433C59.891 28.2832 59.891 31.5231 59.891 34.763C59.891 34.9633 59.891 35.1652 59.891 35.4457C60.4559 35.4457 60.9855 35.4412 61.5152 35.4472C62.4715 35.4561 62.9947 36.0453 62.9973 37.1317C63.0025 39.1501 62.9986 41.1686 62.9986 43.1855C62.9986 44.8314 62.7142 45.1965 61.2413 45.3791C61.2413 45.5705 61.2413 45.7679 61.2413 45.9668C61.2413 50.0957 61.2413 54.2246 61.2413 58.3535C61.2413 59.3152 61.0273 59.5527 60.1675 59.5542C59.0938 59.5542 58.0188 59.5586 56.9451 59.5527C56.3776 59.5497 56.0527 59.2262 56.0632 58.7008C56.0723 58.2006 56.392 57.8934 56.9308 57.8904C57.857 57.8845 58.782 57.889 59.7422 57.889C59.7422 53.7052 59.7422 49.551 59.7422 45.3672C54.0788 45.3672 48.422 45.3672 42.726 45.3672C42.726 46.8039 42.726 48.2539 42.726 49.7796C43.4892 49.7796 44.2641 49.7781 45.0391 49.7796C45.8271 49.7811 46.0541 50.0349 46.0554 50.9343C46.0593 53.0076 46.0567 55.081 46.0567 57.1558C46.0567 57.3769 46.0567 57.5966 46.0567 57.889C46.2654 57.889 46.4389 57.889 46.6138 57.889C48.8277 57.889 51.0404 57.889 53.2543 57.889C53.3848 57.889 53.5152 57.8815 53.6444 57.8919C54.0919 57.9276 54.4011 58.2778 54.3946 58.7334C54.388 59.1891 54.0775 59.523 53.6235 59.5542C53.51 59.5616 53.3952 59.5557 53.2817 59.5557C51.0678 59.5557 48.8551 59.5557 46.6412 59.5557C46.465 59.5557 46.2902 59.5557 46.0567 59.5557C46.0567 60.3616 46.0606 61.1155 46.0554 61.868C46.0502 62.7347 45.8179 62.9989 45.0652 62.9989C40.345 63.0004 35.6249 63.0004 30.906 62.9989C30.1885 62.9989 29.9497 62.7243 29.9445 61.8932C29.9393 61.1363 29.9432 60.3794 29.9432 59.5557C29.7123 59.5557 29.5218 59.5557 29.3313 59.5557C24.8225 59.5557 20.3151 59.5557 15.8063 59.5557C14.9778 59.5557 14.7586 59.3108 14.7573 58.3832C14.756 56.4211 14.756 54.4576 14.7573 52.4956C14.7586 51.7936 15.0183 51.4225 15.4945 51.4255C15.9706 51.4285 16.2198 51.7951 16.2211 52.506C16.2237 54.2795 16.2224 56.0531 16.2224 57.8563C20.7952 57.8563 25.3287 57.8563 29.9171 57.8563C29.9263 57.6426 29.9419 57.4289 29.9419 57.2166C29.9445 55.124 29.9406 53.0328 29.9445 50.9402C29.9458 50.0349 30.1715 49.7796 30.9543 49.7781C31.7175 49.7766 32.4807 49.7781 33.2778 49.7781C33.2778 48.2999 33.2778 46.8499 33.2778 45.3672C27.6171 45.3672 21.9589 45.3672 16.2224 45.3672C16.2224 45.8407 16.2224 46.3304 16.2224 46.8217C16.2224 47.4139 16.2355 48.0075 16.2159 48.5982C16.1989 49.0791 15.8911 49.416 15.5088 49.4293C15.1096 49.4427 14.7756 49.0895 14.7652 48.5848C14.7469 47.7151 14.7599 46.8439 14.7586 45.9742C14.7586 45.7754 14.7586 45.5765 14.7586 45.3257C13.9054 45.4399 13.3353 45.057 13.0013 44.2229C13 41.6672 13 39.1115 13 36.5573ZM23.6014 35.4145C29.3066 35.4145 34.9634 35.4145 40.6294 35.4145C40.6294 31.2322 40.6294 27.081 40.6294 22.9239C34.9373 22.9239 29.2818 22.9239 23.6014 22.9239C23.6014 27.0944 23.6014 31.2322 23.6014 35.4145ZM35.0352 43.6426C35.0352 41.4461 35.0352 39.2926 35.0352 37.1554C28.1611 37.1554 21.3222 37.1554 14.4912 37.1554C14.4912 39.3386 14.4912 41.4788 14.4912 43.6426C21.3444 43.6426 28.1728 43.6426 35.0352 43.6426ZM40.9517 43.6278C47.8297 43.6278 54.6698 43.6278 61.4957 43.6278C61.4957 41.4357 61.4957 39.2822 61.4957 37.1406C54.6281 37.1406 47.801 37.1406 40.9517 37.1406C40.9517 39.3104 40.9517 41.4491 40.9517 43.6278ZM45.2687 35.4116C49.6588 35.4116 54.0254 35.4116 58.388 35.4116C58.388 32.1138 58.388 28.8501 58.388 25.5969C56.6163 25.5969 54.8838 25.5969 53.1212 25.5969C53.1212 25.8358 53.1212 26.0377 53.1212 26.2395C53.1212 27.4803 53.1265 28.7195 53.1186 29.9603C53.1147 30.7068 52.8512 30.9992 52.1937 31.0007C50.8264 31.0051 49.4605 31.0051 48.0932 31.0007C47.4044 30.9992 47.1682 30.7217 47.1656 29.9217C47.1617 29.0698 47.1643 28.2179 47.1643 27.3675C47.1643 26.7812 47.1643 26.195 47.1643 25.5969C46.4976 25.5969 45.891 25.5969 45.2687 25.5969C45.2687 28.8843 45.2687 32.1331 45.2687 35.4116ZM39.27 51.4745C39.27 52.9497 39.2726 54.3908 39.2687 55.8304C39.2661 56.5874 39.0143 56.8812 38.362 56.8842C36.9791 56.8901 35.5962 56.8901 34.2133 56.8842C33.5649 56.8812 33.3157 56.5844 33.3131 55.823C33.3092 54.5452 33.3118 53.2688 33.3118 51.991C33.3118 51.8158 33.3118 51.6392 33.3118 51.4745C32.6412 51.4745 32.045 51.4745 31.4501 51.4745C31.4501 54.7708 31.4501 58.0314 31.4501 61.2936C35.8454 61.2936 40.1989 61.2936 44.5668 61.2936C44.5668 58.0077 44.5668 54.7559 44.5668 51.473C42.8095 51.4745 41.0743 51.4745 39.27 51.4745ZM34.8121 45.3806C34.8121 46.8484 34.8121 48.2984 34.8121 49.7321C36.9673 49.7321 39.0861 49.7321 41.2191 49.7321C41.2191 48.2999 41.2191 46.9137 41.2178 45.526C41.2178 45.4741 41.193 45.4236 41.1787 45.3672C41.1265 45.3553 41.0821 45.3375 41.0352 45.3346C39.8858 45.2693 39.4644 44.7721 39.4644 43.4705C39.4631 42.2312 39.4644 40.992 39.4644 39.7512C39.4644 38.8874 39.4644 38.0237 39.4644 37.145C38.465 37.145 37.5166 37.145 36.5342 37.145C36.5342 37.381 36.5342 37.5814 36.5342 37.7817C36.5342 39.7423 36.5368 41.7043 36.5329 43.6649C36.5316 44.4663 36.2341 45.011 35.6549 45.2247C35.3992 45.3212 35.1161 45.3286 34.8121 45.3806ZM48.6607 25.5895C48.6607 26.8451 48.6607 28.0695 48.6607 29.2924C49.6705 29.2924 50.6477 29.2924 51.6314 29.2924C51.6314 28.0398 51.6314 26.8302 51.6314 25.5895C50.6411 25.5895 49.6757 25.5895 48.6607 25.5895ZM34.8069 51.4537C34.8069 52.7271 34.8069 53.953 34.8069 55.1819C35.818 55.1819 36.7977 55.1819 37.7658 55.1819C37.7658 53.9159 37.7658 52.69 37.7658 51.4537C36.7703 51.4537 35.814 51.4537 34.8069 51.4537Z" fill="#82D051"/>
</svg>
