<svg width="76" height="76" viewBox="0 0 76 76" fill="none" xmlns="http://www.w3.org/2000/svg">
<rect width="76" height="76" rx="15" fill="#82D051" fill-opacity="0.1"/>
<path d="M41.6012 42.921C41.6012 43.4497 41.6012 43.9166 41.6012 44.4649C42.1034 44.4649 42.6055 44.4972 43.0992 44.4439C43.2381 44.4285 43.3896 44.1789 43.4681 44.0064C45.429 39.6985 47.3814 35.3864 49.3339 31.0729C51.9344 25.3291 54.5404 19.5867 57.1241 13.8344C57.3892 13.2441 57.737 12.9776 58.4005 13.0015C59.6067 13.0449 60.8158 13.0113 62.022 13.0155C62.6322 13.0169 62.9885 13.3072 62.9997 13.7966C63.0123 14.3042 62.6476 14.6085 62.0052 14.6113C60.9252 14.6155 59.8438 14.6127 58.6992 14.6127C58.6992 14.8876 58.6992 15.1091 58.6992 15.3307C58.6992 24.025 58.6277 32.7206 58.7245 41.4135C58.789 47.2415 54.633 51.5634 49.8837 52.3192C49.8164 52.3304 49.7533 52.3627 49.6467 52.4006C49.7014 52.5338 49.7449 52.6572 49.801 52.7736C51.3383 55.8937 50.4812 59.5383 47.7209 61.6011C45.0082 63.6288 41.2828 63.4367 38.7483 61.1229C38.4832 60.8803 38.2279 60.7821 37.8688 60.7821C33.7914 60.7947 29.714 60.7849 25.6366 60.8032C25.3757 60.8046 25.0559 60.928 24.8637 61.1032C22.5788 63.1899 19.3303 63.5979 16.6317 62.1129C13.9723 60.6489 12.5599 57.6241 13.1223 54.5966C13.6665 51.6714 16.1169 49.3183 19.1466 48.9761C20.0779 48.871 21.0486 49.1122 22.0023 49.1739C22.2773 49.1921 22.6013 49.2173 22.8285 49.0981C25.3799 47.7533 27.9144 46.3777 30.4588 45.023C30.7547 44.866 30.9062 44.6991 30.8768 44.3415C30.8389 43.8928 30.8683 43.4384 30.8683 42.9182C30.5205 42.9182 30.2119 42.9336 29.9033 42.9154C29.3563 42.8831 29.066 42.5957 29.0632 42.0474C29.0533 40.0701 29.0533 38.0943 29.0632 36.117C29.066 35.5743 29.3703 35.277 29.9216 35.277C34.121 35.27 38.3219 35.2714 42.5214 35.277C43.0712 35.2784 43.3812 35.5701 43.384 36.1142C43.398 38.0915 43.3966 40.0673 43.3854 42.0446C43.3812 42.6181 43.0782 42.8929 42.4933 42.9182C42.2198 42.9308 41.9393 42.921 41.6012 42.921ZM44.3181 48.9116C44.4808 48.9523 44.6141 48.9944 44.7487 49.0168C45.9101 49.2159 46.9733 49.6619 47.8597 50.4317C48.2946 50.8089 48.7266 50.8931 49.2455 50.7991C49.5036 50.7529 49.7631 50.7136 50.0184 50.6547C54.2249 49.6955 57.0918 46.1056 57.0988 41.7389C57.1115 33.9911 57.103 26.2434 57.103 18.4971C57.103 18.3681 57.103 18.2377 57.103 18.1087C56.9431 18.2194 56.8674 18.3484 56.8057 18.4831C52.6918 27.5658 48.5793 36.6485 44.4682 45.7326C44.4051 45.8728 44.3265 46.0257 44.3251 46.1729C44.3125 47.0802 44.3181 47.9889 44.3181 48.9116ZM27.0658 55.0958C30.2638 55.0958 33.3861 55.0958 36.5139 55.0958C36.7453 53.4719 37.4102 52.0935 38.5491 50.9562C39.6993 49.8077 41.1089 49.1711 42.6813 48.9341C42.6813 47.9581 42.6813 47.0396 42.6813 46.1098C42.5606 46.0986 42.4751 46.0846 42.3909 46.0846C38.9797 46.0832 35.5699 46.0804 32.1602 46.0902C31.9638 46.0902 31.7506 46.1659 31.5725 46.2585C30.5668 46.7843 29.5695 47.327 28.5694 47.8641C27.1247 48.6396 25.68 49.4165 24.1792 50.2228C25.8175 51.4849 26.7755 53.0961 27.0658 55.0958ZM25.4991 55.9484C25.4977 52.9615 23.0445 50.5089 20.0569 50.5075C17.0721 50.506 14.6119 52.9629 14.6091 55.947C14.6063 58.9227 17.0791 61.3935 20.0555 61.3935C23.0389 61.3921 25.5019 58.9297 25.4991 55.9484ZM48.9454 55.9722C48.9566 52.9713 46.5329 50.5215 43.5397 50.5088C40.5451 50.4962 38.1031 52.9236 38.0891 55.9259C38.075 58.9241 40.4946 61.3725 43.4948 61.3949C46.4754 61.416 48.9342 58.9703 48.9454 55.9722ZM30.6902 36.9079C30.6902 38.3845 30.6902 39.8121 30.6902 41.2565C34.3973 41.2565 38.075 41.2565 41.7611 41.2565C41.7611 39.7897 41.7611 38.3635 41.7611 36.9079C38.068 36.9079 34.403 36.9079 30.6902 36.9079ZM26.4318 59.1484C29.9987 59.1484 33.5852 59.1484 37.1563 59.1484C36.9151 58.3477 36.685 57.5849 36.4494 56.7996C36.4606 56.808 36.4466 56.7884 36.4326 56.7884C33.4057 56.7799 30.3774 56.7687 27.3506 56.7771C27.2355 56.7771 27.056 56.944 27.0167 57.066C26.8035 57.7475 26.6268 58.4375 26.4318 59.1484ZM39.9489 42.9448C37.4481 42.9448 35.0019 42.9448 32.522 42.9448C32.522 43.4469 32.522 43.9264 32.522 44.4327C35.0103 44.4327 37.4663 44.4327 39.9489 44.4327C39.9489 43.9293 39.9489 43.4651 39.9489 42.9448Z" fill="#82D051"/>
<path d="M26.6592 29.9279C26.6479 30.9613 26.3225 32.3131 25.7952 33.6201C25.5932 34.1207 25.2103 34.3534 24.7656 34.188C22.7599 33.4434 20.8046 32.5978 19.2337 31.0763C16.81 28.7275 16.11 25.7827 16.3232 22.5421C16.3822 21.6558 16.5364 20.7738 16.6865 19.8974C16.7763 19.3729 17.2195 19.0742 17.6908 19.2495C21.0557 20.4976 23.9689 22.3317 25.7208 25.6089C26.3786 26.8401 26.6634 28.1596 26.6592 29.9279ZM18.1158 21.144C17.2195 25.9987 19.4258 30.6514 23.0853 31.6625C22.4303 30.4944 21.7935 29.3571 21.1567 28.2199C20.7555 27.5033 20.3418 26.7952 19.9574 26.0702C19.7288 25.6397 19.8663 25.2064 20.252 24.982C20.6419 24.7563 21.0627 24.867 21.3432 25.2751C21.4218 25.3901 21.4835 25.5163 21.5522 25.6383C22.527 27.3743 23.5019 29.1103 24.4795 30.845C24.5637 30.995 24.6646 31.1352 24.7586 31.2811C24.8119 31.2628 24.8638 31.2446 24.9171 31.2278C24.9171 30.2223 25.0167 29.2057 24.8947 28.2157C24.7011 26.655 23.8651 25.3761 22.7865 24.2599C21.4695 22.8969 19.8985 21.9153 18.1158 21.144Z" fill="#82D051"/>
<path d="M37.4261 19.2146C37.3714 22.1917 36.0221 24.3219 33.3585 25.6218C32.9194 25.8364 32.4678 26.0257 32.0119 26.2038C31.3934 26.445 31.0231 26.2711 30.765 25.6512C29.5615 22.7555 30.3288 19.9256 32.9671 17.9371C33.8354 17.2822 34.8453 16.7998 35.8271 16.316C36.5424 15.9627 37.0278 16.2572 37.1512 17.0354C37.2648 17.7576 37.3363 18.4882 37.4261 19.2146ZM32.0751 24.399C34.8579 23.4412 36.1637 21.0685 35.6448 18.1951C32.6936 19.4811 31.2307 21.9435 32.0751 24.399Z" fill="#82D051"/>
<path d="M24.1284 55.9271C24.1425 58.1569 22.2994 60.0108 20.0622 60.0178C17.8349 60.0248 15.975 58.1667 15.9834 55.9411C15.9904 53.7268 17.8096 51.8953 20.023 51.8771C22.2545 51.8589 24.1144 53.6931 24.1284 55.9271ZM20.0552 58.3911C21.4088 58.3911 22.4874 57.3253 22.5014 55.9748C22.5154 54.6019 21.4284 53.5052 20.0552 53.5038C18.7045 53.5024 17.6231 54.5738 17.6133 55.9229C17.602 57.3042 18.6779 58.3911 20.0552 58.3911Z" fill="#82D051"/>
<path d="M47.5751 55.9535C47.5737 58.2014 45.7349 60.0357 43.4991 60.0188C41.2703 60.002 39.468 58.1944 39.461 55.9675C39.4539 53.7112 41.2647 51.8812 43.5103 51.877C45.7559 51.8728 47.5751 53.6986 47.5751 55.9535ZM43.5342 58.3907C44.8835 58.3837 45.9705 57.2997 45.9761 55.9577C45.9817 54.6017 44.8624 53.4924 43.4991 53.5037C42.154 53.5135 41.0642 54.6031 41.0585 55.9409C41.0543 57.3025 42.161 58.3977 43.5342 58.3907Z" fill="#82D051"/>
<path d="M40.2773 38.8919C40.2773 39.0321 40.2913 39.1724 40.2745 39.3098C40.2184 39.7951 39.8873 40.1078 39.4553 40.0994C39.0234 40.091 38.7022 39.7712 38.6629 39.2818C38.6419 39.0209 38.6433 38.7572 38.6615 38.4964C38.6966 37.9719 39.0149 37.6591 39.4848 37.6661C39.9336 37.6731 40.2296 37.9691 40.2787 38.4725C40.2927 38.6114 40.2801 38.7516 40.2801 38.8919C40.2801 38.8919 40.2787 38.8919 40.2773 38.8919Z" fill="#82D051"/>
<path d="M35.4033 38.8184C35.4187 38.6572 35.4159 38.4622 35.458 38.2771C35.5478 37.89 35.8045 37.6797 36.2042 37.6684C36.6026 37.6572 36.9139 37.8452 36.977 38.2322C37.043 38.6375 37.0486 39.0681 36.9911 39.4762C36.9336 39.8843 36.6166 40.1073 36.2 40.0933C35.7848 40.0778 35.5211 39.8352 35.444 39.4229C35.4103 39.2364 35.4173 39.0414 35.4033 38.8184Z" fill="#82D051"/>
<path d="M33.7817 38.8569C33.7985 39.6956 33.5517 40.0827 33.0089 40.1009C32.4506 40.1191 32.1785 39.7082 32.1827 38.8471C32.1827 38.6901 32.1799 38.5316 32.201 38.3773C32.2613 37.9355 32.518 37.6845 32.9668 37.6705C33.4198 37.6564 33.6835 37.9117 33.7761 38.3352C33.8126 38.5007 33.7817 38.6816 33.7817 38.8569Z" fill="#82D051"/>
</svg>
