<svg width="22" height="22" viewBox="0 0 22 22" fill="none" xmlns="http://www.w3.org/2000/svg">
<path d="M20.7511 6.53482L21.2677 6.02489L21.398 5.89853L21.4609 5.83536C21.4879 5.80828 21.5328 5.76315 21.5687 5.72254C21.717 5.55557 21.8563 5.32091 21.9281 5.08625C21.9686 4.95539 21.991 4.81098 21.9955 4.6756L22 4.50412C22 4.45899 21.991 4.41838 21.9731 4.37325C21.9236 4.26495 21.8563 4.10701 21.7754 3.95358C21.6945 3.79563 21.5957 3.64672 21.5238 3.57451C21.5013 3.54744 21.4789 3.52487 21.4564 3.51134C21.4384 3.4978 21.4205 3.49328 21.407 3.48877C21.3755 3.47975 21.3486 3.48426 21.3261 3.49328C21.2812 3.52036 21.2498 3.56549 21.2453 3.6783C21.2228 3.87686 21.1958 4.17018 21.1958 4.4951C21.1958 4.51766 21.1958 4.54022 21.1958 4.56279V4.58986C21.1554 4.72975 21.0925 4.86513 21.0027 4.96893C20.9128 5.07723 20.8005 5.14943 20.6837 5.23066C20.4501 5.39312 20.2165 5.5646 19.9829 5.7451C19.5111 6.1016 19.0349 6.48067 18.5587 6.88229C17.6018 7.68104 16.6359 8.56101 15.6925 9.47256C14.5379 10.5827 13.3878 11.6883 12.2332 12.7984L10.4856 14.4771L10.0543 14.8968L9.95547 14.9915C9.95547 14.9915 9.94649 14.9961 9.942 14.9961L9.91504 15.0006L8.77393 15.2217C7.98774 15.3796 7.20603 15.5331 6.41983 15.691L6.04246 15.7677C6.19521 15.0231 6.35245 14.274 6.50519 13.5294L6.73881 12.3426L6.79721 12.0448L6.82416 11.8959L6.82866 11.8778V11.8688V11.8643C6.83315 11.8462 6.82416 11.8868 6.82416 11.8778C6.82416 11.8688 6.83315 11.8417 6.82866 11.8598C6.81967 11.8868 6.82416 11.8733 6.82416 11.8778C6.81967 11.8778 6.83315 11.8552 6.83315 11.8507L6.84663 11.8372L6.90054 11.783L7.00387 11.6747C7.57442 11.1197 8.14947 10.5691 8.72002 10.0141C10.5215 8.24963 12.3231 6.47615 14.0976 4.68463C14.9826 3.78661 15.8632 2.88408 16.7347 1.97703L17.0627 1.63407C17.1166 1.5754 17.1481 1.54381 17.166 1.52576H17.1795C17.3322 1.5393 17.458 1.55284 17.5569 1.5754C17.6063 1.58443 17.6467 1.59345 17.6782 1.60699H17.6827C17.6737 1.60248 17.7006 1.61602 17.6692 1.60248H17.6737L17.6827 1.60699L17.7096 1.61602L17.7635 1.63858L17.8714 1.68371C18.0061 1.74237 18.1005 1.78299 18.2263 1.84616C18.4644 1.968 18.689 2.1079 18.9046 2.27035C19.875 2.98787 20.4276 3.97614 20.778 3.71892C20.9263 3.60159 20.9712 3.27216 20.8275 2.79833C20.6837 2.32902 20.3378 1.70627 19.7088 1.16926C19.4303 0.930092 19.1248 0.717997 18.8058 0.53749C18.7249 0.492364 18.6351 0.447237 18.5542 0.40211C18.4644 0.352471 18.4015 0.329908 18.3206 0.289294L18.2667 0.262218L18.2218 0.239655L18.1813 0.221604C18.1274 0.199041 18.0735 0.18099 18.0196 0.162939C17.9118 0.131351 17.813 0.104275 17.7141 0.0862241C17.6198 0.0681734 17.5254 0.0501228 17.4401 0.0365848L17.3143 0.0185341L17.2424 0.00950882C17.202 0.00499616 17.1615 0.0004835 17.1211 0.0004835C16.9594 -0.00402916 16.7797 0.0230468 16.6224 0.0817114C16.4652 0.140376 16.3304 0.221604 16.2271 0.307345C16.2001 0.325395 16.1732 0.352471 16.1417 0.379547L16.0788 0.438212L15.989 0.523952L15.8093 0.695433L15.4499 1.0384C14.4974 1.95447 13.5495 2.88408 12.6196 3.82271C11.1235 5.33896 9.64549 6.85973 8.16744 8.39404L5.9571 10.691L5.81334 10.8399C5.73247 10.9256 5.66508 11.0159 5.60668 11.1107C5.55277 11.2054 5.50335 11.3047 5.46741 11.422C5.42249 11.5755 5.42698 11.6071 5.40901 11.6793L5.25626 12.4645L4.94628 14.0304C4.82048 14.4906 4.6902 14.9509 4.56441 15.4157L4.47006 15.7632L4.42514 15.9392L4.40268 16.0249C4.39369 16.0701 4.37572 16.1468 4.37123 16.21C4.34427 16.4762 4.41615 16.8192 4.64078 17.0764C4.7486 17.2028 4.89236 17.3065 5.04062 17.3697C5.18887 17.4329 5.34162 17.4645 5.49437 17.469C5.53929 17.469 5.58422 17.469 5.62914 17.4645L5.70102 17.4555L5.72349 17.4509L5.78638 17.4419L5.83131 17.4329L6.00652 17.4013L6.36143 17.3426L7.06676 17.2208C7.53848 17.1351 8.0102 17.0493 8.48192 16.9636C8.95363 16.8733 9.42535 16.7831 9.89707 16.6928L10.252 16.6251C10.4586 16.5845 10.7012 16.4898 10.9034 16.3499C10.9528 16.3138 11.0022 16.2777 11.0427 16.2416L11.1146 16.1784L11.155 16.1378L11.2853 16.0114L11.5413 15.7587C12.2242 15.0773 12.9116 14.4004 13.5944 13.719C14.9557 12.3471 16.3169 10.9708 17.6782 9.59892C18.361 8.91299 19.0439 8.22707 19.7223 7.54566L20.7511 6.53482ZM17.0986 1.52125C17.0852 1.52125 17.0717 1.52125 17.0672 1.51674L17.0986 1.52125ZM5.43596 15.8941C5.4135 15.8986 5.44046 15.8941 5.45393 15.8896C5.45843 15.8896 5.45843 15.8896 5.46292 15.8896L5.43596 15.8941Z" fill="#82D051"/>
<path d="M18.0106 12.6941C17.7905 12.3466 17.6063 12.7979 17.467 13.4748C17.2334 14.5894 17.0672 15.8214 16.9549 17.121C16.8965 17.7708 16.8516 18.4387 16.8201 19.1111C16.8111 19.2781 16.8066 19.4495 16.7976 19.621L16.7887 19.8782V19.9098V19.9279C16.7887 19.9143 16.7887 19.9595 16.7887 19.9008V19.9053V19.9143L16.7842 19.9775C16.7797 20.0362 16.7752 20.0227 16.7707 20.0362C16.7347 20.1851 16.6179 20.3295 16.4787 20.4017C16.3888 20.4468 16.308 20.4649 16.1911 20.4604L15.5712 20.4468L14.3357 20.4198L11.8603 20.3656C10.2116 20.334 8.55831 20.3069 6.90954 20.2754C5.25628 20.2528 3.60302 20.2347 1.94977 20.2347H1.9318H1.91383L1.83745 20.2302C1.83296 20.2212 1.85992 20.2302 1.83745 20.2257C1.8105 20.2212 1.78803 20.2077 1.76108 20.1986C1.71615 20.1716 1.66674 20.131 1.63978 20.0858C1.60833 20.0407 1.59486 19.9865 1.59036 19.9279L1.58138 19.3051C1.57239 18.4748 1.55891 17.64 1.54094 16.8051C1.55891 15.9793 1.57239 15.158 1.59036 14.3322C1.6263 11.7148 1.65326 9.10201 1.64427 6.48918L1.63978 5.55505C1.63978 5.4648 1.67123 5.40614 1.72963 5.34747C1.75659 5.3204 1.79253 5.30235 1.82847 5.28881C1.84644 5.28429 1.86441 5.27978 1.88687 5.27527C1.89136 5.27527 1.89586 5.27527 1.90035 5.27527C1.90035 5.27527 1.93629 5.27527 1.94977 5.27527H2.07107L3.04595 5.26173C4.3443 5.23917 5.64264 5.20758 6.9365 5.15794C8.41005 5.10379 9.63203 4.89621 9.52421 4.49007C9.42537 4.11552 8.3786 3.84024 6.86911 3.79963C5.51236 3.76353 4.14662 3.72743 2.78089 3.69132L2.26874 3.6823L2.01266 3.67779C1.96324 3.67779 1.93629 3.67327 1.87339 3.67779C1.80601 3.6823 1.73412 3.6823 1.66674 3.69132C1.11415 3.7545 0.597509 4.0749 0.296508 4.54422C0.220135 4.66155 0.157239 4.7879 0.112314 4.91877C0.0628957 5.05415 0.0314478 5.17599 0.0089851 5.3565L0.00449255 5.41516V5.44675L0 5.50993V5.57762V5.60921V5.67238V5.92961V6.95849C0.0089851 9.16067 0.0359404 11.3629 0.0673882 13.565L0.116806 16.8683L0.143762 18.5199L0.157239 19.3458L0.161732 19.7564V19.8602C0.161732 19.8963 0.161732 19.9189 0.166224 19.9775C0.170717 20.0813 0.184195 20.1806 0.202165 20.2844C0.260568 20.6499 0.44027 21.0019 0.709823 21.2636C0.844599 21.3945 1.00184 21.5118 1.17256 21.5931C1.34776 21.6743 1.51399 21.733 1.75659 21.7645L1.84644 21.7736L1.8689 21.7781H1.9273L1.97223 21.7826L2.15642 21.7916L2.52481 21.8097L3.26608 21.8413C4.25444 21.8819 5.24281 21.9135 6.23117 21.936C8.21238 21.9811 10.2026 21.9992 12.1928 21.9992C13.1901 21.9992 14.1875 21.9947 15.1803 21.9947L15.9261 21.9902H16.1148H16.2181L16.3798 21.9811C16.6 21.9586 16.8156 21.9044 17.0178 21.8187C17.4221 21.6382 17.7635 21.3313 17.9792 20.9477C18.087 20.7537 18.1634 20.5506 18.2083 20.3295C18.2218 20.2618 18.2308 20.1986 18.2353 20.131C18.2398 20.0903 18.2398 20.0813 18.2398 20.0633V20.0181L18.2442 19.9279V19.8828V19.788C18.2398 17.7844 18.2398 15.7853 18.2667 13.7907C18.2802 13.4296 18.1229 12.8701 18.0106 12.6941Z" fill="#82D051"/>
</svg>
