<svg width="23" height="21" viewBox="0 0 23 21" fill="none" xmlns="http://www.w3.org/2000/svg">
<path d="M10.8367 2.32532C11.0827 1.78739 11.9173 1.78739 12.1633 2.32532L14.2731 6.93997C14.3714 7.15495 14.5871 7.30624 14.84 7.33748L20.4006 8.02464C21.0237 8.10164 21.2458 8.82044 20.7586 9.18341L16.465 12.3824C16.2528 12.5406 16.1574 12.7951 16.2192 13.0388L17.5919 18.455C17.7406 19.0414 17.0184 19.4859 16.4788 19.1401L11.9129 16.2141C11.6651 16.0553 11.3349 16.0553 11.0871 16.2141L6.52116 19.1401C5.98159 19.4859 5.2594 19.0414 5.40801 18.455L6.78064 13.0388C6.84239 12.7951 6.74706 12.5406 6.53482 12.3824L2.24134 9.1834C1.7542 8.82044 1.97629 8.10164 2.59937 8.02464L8.16 7.33748C8.41284 7.30624 8.62859 7.15495 8.72688 6.93997L10.8367 2.32532Z" stroke="#82D051" stroke-width="2" stroke-miterlimit="3.3292" stroke-linecap="round" stroke-linejoin="round"/>
</svg>
