<svg width="120" height="120" viewBox="0 0 120 120" fill="none" xmlns="http://www.w3.org/2000/svg">
<g filter="url(#filter0_d_3317_20758)">
<circle cx="60" cy="56" r="40" fill="#82D051"/>
</g>
<path d="M84.169 55.4169C84.1909 58.9971 83.4226 62.5381 81.9187 65.787C81.8284 65.9615 81.7761 66.1531 81.7652 66.3493C81.7543 66.5455 81.7851 66.7418 81.8555 66.9252C82.9174 69.9604 83.9709 73.0018 85.016 76.0497C85.2317 76.5677 85.3298 77.1271 85.3033 77.6877C85.2768 78.2482 85.1263 78.7959 84.8627 79.2912C84.5991 79.7866 84.2289 80.2173 83.7789 80.5522C83.3288 80.8872 82.8101 81.1182 82.2601 81.2284C81.4796 81.3821 80.6714 81.3052 79.9339 81.0071C76.9694 79.9827 73.9922 78.9836 71.0339 77.934C70.8001 77.8428 70.5495 77.8024 70.2989 77.8155C70.0482 77.8285 69.8032 77.8948 69.5801 78.0099C55.6739 84.3331 39.1318 76.3595 35.4466 61.5188C33.8892 55.3392 34.7728 48.7969 37.9138 43.2523C41.0548 37.7077 46.2113 33.5877 52.3111 31.7489C65.9645 27.5819 80.585 36.1752 83.5685 50.0864C83.9414 51.8316 84.0742 53.6211 84.3207 55.3916L84.169 55.4169ZM59.4475 53.3808H50.8573C50.2252 53.3808 49.6373 53.3808 49.0305 53.3808C48.7427 53.3807 48.4593 53.4524 48.2062 53.5894C47.953 53.7264 47.7379 53.9244 47.5804 54.1654C47.423 54.4064 47.328 54.6829 47.3042 54.9699C47.2803 55.2568 47.3284 55.5452 47.4439 55.8089C47.6163 56.1737 47.9005 56.474 48.2551 56.6662C48.6098 56.8583 49.0165 56.9324 49.4161 56.8775H69.4347C69.7019 56.8821 69.9688 56.8588 70.2312 56.808C70.5966 56.7273 70.925 56.5278 71.1652 56.2406C71.4053 55.9535 71.5436 55.5949 71.5586 55.2208C71.5718 54.9675 71.53 54.7143 71.4361 54.4786C71.3422 54.243 71.1984 54.0305 71.0147 53.8556C70.8309 53.6808 70.6115 53.5479 70.3715 53.4659C70.1315 53.3839 69.8766 53.3549 69.6244 53.3808C66.23 53.3745 62.8672 53.3808 59.4475 53.3808ZM59.4475 49.707H67.924C68.5877 49.707 69.2577 49.707 69.9214 49.707C70.3244 49.6834 70.7063 49.5193 71.0008 49.2432C71.2953 48.9671 71.4837 48.5964 71.5333 48.1957C71.5882 47.8052 71.5052 47.4078 71.2987 47.0719C71.0921 46.7361 70.775 46.4828 70.4018 46.3556C70.0727 46.2646 69.7317 46.2241 69.3905 46.2355H49.4603C49.2321 46.2298 49.0038 46.2425 48.7776 46.2734C48.4629 46.3117 48.1661 46.4409 47.9236 46.6453C47.6811 46.8497 47.5034 47.1204 47.4123 47.4243C47.3191 47.6962 47.295 47.987 47.3422 48.2706C47.3893 48.5542 47.5063 48.8215 47.6825 49.0486C47.8587 49.2757 48.0886 49.4553 48.3515 49.5714C48.6144 49.6874 48.9021 49.7362 49.1885 49.7133C52.6019 49.7133 56.0152 49.707 59.4222 49.707H59.4475ZM55.4653 64.0355C57.6207 64.0355 59.7699 64.0355 61.9254 64.0355C62.1505 64.0348 62.3732 63.9887 62.58 63.8997C62.7868 63.8107 62.9735 63.6808 63.1289 63.5177C63.2842 63.3547 63.4049 63.1619 63.4838 62.9509C63.5626 62.74 63.598 62.5152 63.5878 62.2902C63.5863 61.8472 63.4128 61.422 63.1037 61.1046C62.7947 60.7872 62.3744 60.6024 61.9317 60.5893C61.6093 60.5893 61.2996 60.5893 60.9582 60.5893H49.2201C48.8473 60.5605 48.4749 60.6501 48.156 60.8454C47.837 61.0407 47.5879 61.3316 47.4439 61.6769C47.3347 61.9432 47.2941 62.2327 47.3258 62.5188C47.3575 62.8049 47.4605 63.0785 47.6253 63.3145C47.7901 63.5504 48.0115 63.7413 48.2691 63.8694C48.5268 63.9976 48.8125 64.0591 49.1 64.0481C51.2112 64.0544 53.3288 64.0355 55.44 64.0355H55.4653Z" fill="white"/>
<defs>
<filter id="filter0_d_3317_20758" x="0" y="0" width="120" height="120" filterUnits="userSpaceOnUse" color-interpolation-filters="sRGB">
<feFlood flood-opacity="0" result="BackgroundImageFix"/>
<feColorMatrix in="SourceAlpha" type="matrix" values="0 0 0 0 0 0 0 0 0 0 0 0 0 0 0 0 0 0 127 0" result="hardAlpha"/>
<feOffset dy="4"/>
<feGaussianBlur stdDeviation="10"/>
<feComposite in2="hardAlpha" operator="out"/>
<feColorMatrix type="matrix" values="0 0 0 0 0 0 0 0 0 0 0 0 0 0 0 0 0 0 0.08 0"/>
<feBlend mode="normal" in2="BackgroundImageFix" result="effect1_dropShadow_3317_20758"/>
<feBlend mode="normal" in="SourceGraphic" in2="effect1_dropShadow_3317_20758" result="shape"/>
</filter>
</defs>
</svg>
