<svg width="19" height="20" viewBox="0 0 19 20" fill="none" xmlns="http://www.w3.org/2000/svg">
<path d="M17.4167 8.70768C17.4167 12.1483 12.5144 16.5469 10.4252 18.2653C9.88307 18.7112 9.11701 18.7112 8.57485 18.2653C6.48564 16.5469 1.58337 12.1483 1.58337 8.70768C1.58337 4.33543 5.12779 0.791016 9.50004 0.791016C13.8723 0.791016 17.4167 4.33543 17.4167 8.70768Z" stroke="#82D051" stroke-width="1.5"/>
<path d="M11.875 8.70768C11.875 10.0194 10.8117 11.0827 9.50004 11.0827C8.18836 11.0827 7.12504 10.0194 7.12504 8.70768C7.12504 7.39601 8.18836 6.33268 9.50004 6.33268C10.8117 6.33268 11.875 7.39601 11.875 8.70768Z" stroke="#82D051" stroke-width="1.5"/>
</svg>
