<svg width="20" height="17" viewBox="0 0 20 17" fill="none" xmlns="http://www.w3.org/2000/svg">
<path d="M14.1666 15.3889V13.5835M14.1666 15.3889H5.83333M14.1666 15.3889H19.1666V14.0348C19.1666 12.2899 17.8608 10.8753 16.25 10.8753C15.309 10.8753 14.472 11.358 13.9387 12.1074C14.0864 12.5699 14.1666 13.0665 14.1666 13.5835M5.83333 15.3889V13.5835M5.83333 15.3889H0.833344V14.0348C0.833344 12.2899 2.13918 10.8753 3.75 10.8753C4.69101 10.8753 5.52792 11.358 6.06124 12.1074C5.91355 12.5699 5.83333 13.0665 5.83333 13.5835M14.1666 13.5835C14.1666 11.0906 12.3012 9.06983 9.99999 9.06983C7.69881 9.06983 5.83333 11.0906 5.83333 13.5835M12.5 3.65349C12.5 5.14917 11.3807 6.36166 9.99999 6.36166C8.61928 6.36166 7.49999 5.14917 7.49999 3.65349C7.49999 2.1578 8.61928 0.945312 9.99999 0.945312C11.3807 0.945312 12.5 2.1578 12.5 3.65349ZM5 6.36166C5 7.35878 4.25381 8.16711 3.33334 8.16711C2.41286 8.16711 1.66667 7.35878 1.66667 6.36166C1.66667 5.36454 2.41286 4.55621 3.33334 4.55621C4.25381 4.55621 5 5.36454 5 6.36166ZM18.3333 6.36166C18.3333 7.35878 17.5871 8.16711 16.6666 8.16711C15.7462 8.16711 15 7.35878 15 6.36166C15 5.36454 15.7462 4.55621 16.6666 4.55621C17.5871 4.55621 18.3333 5.36454 18.3333 6.36166Z" stroke="#82D051" stroke-width="1.5"/>
</svg>
