<svg width="22" height="22" viewBox="0 0 22 22" fill="none" xmlns="http://www.w3.org/2000/svg">
<path d="M11.75 6.45455C11.75 6.04033 11.4142 5.70455 11 5.70455C10.5858 5.70455 10.25 6.04033 10.25 6.45455H11.75ZM11 11.9091H10.25C10.25 12.108 10.329 12.2988 10.4697 12.4394L11 11.9091ZM12.7424 14.7121C13.0353 15.005 13.5102 15.005 13.8031 14.7121C14.096 14.4193 14.096 13.9444 13.8031 13.6515L12.7424 14.7121ZM20.25 11C20.25 16.1086 16.1086 20.25 11 20.25V21.75C16.9371 21.75 21.75 16.9371 21.75 11H20.25ZM11 20.25C5.89137 20.25 1.75 16.1086 1.75 11H0.25C0.25 16.9371 5.06294 21.75 11 21.75V20.25ZM1.75 11C1.75 5.89137 5.89137 1.75 11 1.75V0.25C5.06294 0.25 0.25 5.06294 0.25 11H1.75ZM11 1.75C16.1086 1.75 20.25 5.89137 20.25 11H21.75C21.75 5.06294 16.9371 0.25 11 0.25V1.75ZM10.25 6.45455V11.9091H11.75V6.45455H10.25ZM10.4697 12.4394L12.7424 14.7121L13.8031 13.6515L11.5303 11.3788L10.4697 12.4394Z" fill="#82D051"/>
</svg>
