<svg width="18" height="20" viewBox="0 0 18 20" fill="none" xmlns="http://www.w3.org/2000/svg">
<path d="M14 2.50065C15.3807 2.50065 16.5 3.61994 16.5 5.00065V16.6673C16.5 18.048 15.3807 19.1673 14 19.1673H4C2.61929 19.1673 1.5 18.048 1.5 16.6673V5.00065C1.5 3.61994 2.61929 2.50065 4 2.50065M14 2.50065C14 3.42113 13.2538 4.16732 12.3333 4.16732H5.66667C4.74619 4.16732 4 3.42113 4 2.50065M14 2.50065C14 1.58018 13.2538 0.833984 12.3333 0.833984H5.66667C4.74619 0.833984 4 1.58018 4 2.50065" stroke="#82D051" stroke-width="1.5"/>
</svg>
