<svg width="26" height="21" viewBox="0 0 26 21" fill="none" xmlns="http://www.w3.org/2000/svg">
<path d="M18.4492 19.9453V17.6953M18.4492 19.9453H8.06428M18.4492 19.9453H24.6802V18.2578C24.6802 16.0832 23.0529 14.3203 21.0455 14.3203C19.8728 14.3203 18.8298 14.9219 18.1652 15.8558C18.3493 16.4322 18.4492 17.0511 18.4492 17.6953M8.06428 19.9453V17.6953M8.06428 19.9453H1.83331V18.2578C1.83331 16.0832 3.46064 14.3203 5.46805 14.3203C6.64072 14.3203 7.68369 14.9219 8.34831 15.8558C8.16425 16.4322 8.06428 17.0511 8.06428 17.6953M18.4492 17.6953C18.4492 14.5887 16.1245 12.0703 13.2568 12.0703C10.389 12.0703 8.06428 14.5887 8.06428 17.6953M16.3722 5.32031C16.3722 7.18427 14.9774 8.69531 13.2568 8.69531C11.5361 8.69531 10.1413 7.18427 10.1413 5.32031C10.1413 3.45635 11.5361 1.94531 13.2568 1.94531C14.9774 1.94531 16.3722 3.45635 16.3722 5.32031ZM7.02579 8.69531C7.02579 9.93795 6.09589 10.9453 4.9488 10.9453C3.80171 10.9453 2.87181 9.93795 2.87181 8.69531C2.87181 7.45267 3.80171 6.44531 4.9488 6.44531C6.09589 6.44531 7.02579 7.45267 7.02579 8.69531ZM23.6417 8.69531C23.6417 9.93795 22.7118 10.9453 21.5647 10.9453C20.4176 10.9453 19.4877 9.93795 19.4877 8.69531C19.4877 7.45267 20.4176 6.44531 21.5647 6.44531C22.7118 6.44531 23.6417 7.45267 23.6417 8.69531Z" stroke="#82D051" stroke-width="2"/>
</svg>
