<svg width="24" height="24" viewBox="0 0 24 24" fill="none" xmlns="http://www.w3.org/2000/svg">
<path d="M2.99976 16.9753H13.9998M13.9998 16.9753C13.9998 18.6297 15.3429 19.9709 16.9998 19.9709C18.6566 19.9709 19.9998 18.6297 19.9998 16.9753C19.9998 15.3208 18.6566 13.9796 16.9998 13.9796C15.3429 13.9796 13.9998 15.3208 13.9998 16.9753ZM8.99976 6.98979H19.9998M8.99976 6.98979C8.99976 8.64424 7.65661 9.98543 5.99976 9.98543C4.3429 9.98543 2.99976 8.64424 2.99976 6.98979C2.99976 5.33534 4.3429 3.99414 5.99976 3.99414C7.65661 3.99414 8.99976 5.33534 8.99976 6.98979Z" stroke="#C4C4C4" stroke-width="2" stroke-linecap="round"/>
</svg>
