<svg width="23" height="24" viewBox="0 0 23 24" fill="none" xmlns="http://www.w3.org/2000/svg">
<path d="M22.9984 13.5334C22.9984 15.8673 22.9991 18.2013 22.9984 20.536C22.9977 22.0371 22.0343 23.0006 20.5319 23.0006C16.1777 23.0013 11.8228 23.0013 7.46853 23.0006C5.99688 23.0006 5.02508 22.0392 5.02369 20.5709C5.02369 20.3796 4.96784 20.3105 4.78004 20.2588C1.8095 19.4371 -0.150146 16.7135 0.00902785 13.6437C0.152144 10.8838 2.07758 8.50443 4.78144 7.76157C4.97133 7.70921 5.02438 7.638 5.02369 7.4481C5.01671 5.77598 5.0188 4.10386 5.0195 2.43174C5.02089 0.981635 5.99478 0.00349689 7.442 0.00349689C10.4733 0.00210055 13.5039 0.00698775 16.5344 6.03543e-06C17.2535 -0.00139031 17.8553 0.239479 18.3621 0.749144C19.6579 2.05263 20.9578 3.35123 22.2598 4.64773C22.7617 5.14762 23.0026 5.74386 23.0005 6.4532C22.9949 8.81302 22.9984 11.1735 22.9984 13.5334ZM6.29498 20.5039C6.21469 21.2433 6.66429 21.7452 7.39942 21.7459C11.7886 21.7473 16.177 21.7466 20.5661 21.7466C21.3278 21.7466 21.7439 21.3305 21.7439 20.5688C21.7446 16.1794 21.7439 11.7907 21.7439 7.40132C21.7439 7.30916 21.7439 7.2177 21.7439 7.11228C20.5668 7.11228 19.4275 7.11437 18.2874 7.11158C16.8765 7.10878 15.8936 6.12297 15.8908 4.70917C15.8887 3.65563 15.8901 2.60139 15.8901 1.54785C15.8901 1.45569 15.8901 1.36423 15.8901 1.25811C15.8028 1.25811 15.7511 1.25811 15.7002 1.25811C12.9223 1.25811 10.1445 1.25671 7.36661 1.25881C6.71106 1.25951 6.27543 1.70145 6.27473 2.36401C6.27194 4.0103 6.27334 5.65589 6.27473 7.30218C6.27473 7.37618 6.28451 7.45019 6.29009 7.5228C10.0712 7.46415 12.9174 10.4405 12.9635 13.9229C13.011 17.5262 10.0816 20.5709 6.29498 20.5039ZM6.49953 8.7844C3.61137 8.78649 1.2524 11.1247 1.25728 13.9809C1.26217 16.902 3.58624 19.2346 6.49325 19.236C9.37303 19.2374 11.7111 16.8839 11.709 13.9865C11.7062 11.1303 9.35488 8.7823 6.49953 8.7844ZM17.1446 1.48432C17.1446 1.49479 17.1446 1.56112 17.1446 1.62744C17.1446 2.66283 17.1432 3.69822 17.1453 4.73361C17.1467 5.4234 17.5795 5.85557 18.2707 5.85696C19.2969 5.85906 20.3239 5.85766 21.3501 5.85766C21.4241 5.85766 21.4981 5.85766 21.5247 5.85766C20.067 4.40058 18.5988 2.93582 17.1446 1.48432Z" fill="#82D051"/>
<path d="M7.13385 12.7551C7.13385 13.1377 7.12897 13.521 7.13525 13.9036C7.13944 14.164 7.05217 14.3713 6.8567 14.5494C6.45108 14.918 6.05874 15.3013 5.65731 15.6741C5.362 15.9485 5.103 15.9611 4.85237 15.7237C4.59546 15.4807 4.57661 15.1058 4.82933 14.8363C5.11486 14.5312 5.42763 14.2519 5.70618 13.942C5.79903 13.8386 5.86745 13.6753 5.87164 13.537C5.88909 12.9373 5.87932 12.3362 5.87932 11.7357C5.87932 11.6485 5.87792 11.5612 5.8863 11.4753C5.9212 11.1151 6.183 10.8714 6.5209 10.8791C6.85041 10.8868 7.10942 11.1262 7.12338 11.4774C7.14014 11.9033 7.12757 12.3299 7.12757 12.7565C7.12966 12.7551 7.13176 12.7551 7.13385 12.7551Z" fill="#82D051"/>
</svg>
