<svg width="32" height="32" viewBox="0 0 32 32" fill="none" xmlns="http://www.w3.org/2000/svg">
<path d="M22.3489 25.0156C22.6418 24.7227 22.6418 24.2478 22.3489 23.955C22.056 23.6621 21.5812 23.6621 21.2883 23.955L22.3489 25.0156ZM21.2883 8.04505C21.5812 8.33794 22.056 8.33794 22.3489 8.04505C22.6418 7.75216 22.6418 7.27728 22.3489 6.98439L21.2883 8.04505ZM27.2272 11.5021C26.952 11.1925 26.478 11.1646 26.1684 11.4398C25.8588 11.715 25.8309 12.189 26.1061 12.4986L27.2272 11.5021ZM30.2222 16.0003L30.7828 16.4986C31.0354 16.2144 31.0354 15.7862 30.7828 15.5021L30.2222 16.0003ZM26.1061 19.5021C25.8309 19.8116 25.8588 20.2857 26.1684 20.5609C26.478 20.8361 26.952 20.8082 27.2272 20.4986L26.1061 19.5021ZM30 16.7503C30.4142 16.7503 30.75 16.4145 30.75 16.0003C30.75 15.5861 30.4142 15.2503 30 15.2503V16.7503ZM13.3333 15.2503C12.9191 15.2503 12.5833 15.5861 12.5833 16.0003C12.5833 16.4145 12.9191 16.7503 13.3333 16.7503V15.2503ZM4.3177 6.98439C-0.661483 11.9636 -0.661483 20.0364 4.3177 25.0156L5.37836 23.955C0.984963 19.5616 0.984963 12.4384 5.37836 8.04505L4.3177 6.98439ZM4.3177 25.0156C9.29689 29.9948 17.3697 29.9948 22.3489 25.0156L21.2883 23.955C16.8949 28.3484 9.77176 28.3484 5.37836 23.955L4.3177 25.0156ZM22.3489 6.98439C17.3697 2.0052 9.29689 2.0052 4.3177 6.98439L5.37836 8.04505C9.77176 3.65165 16.8949 3.65165 21.2883 8.04505L22.3489 6.98439ZM26.1061 12.4986L29.6617 16.4986L30.7828 15.5021L27.2272 11.5021L26.1061 12.4986ZM29.6617 15.5021L26.1061 19.5021L27.2272 20.4986L30.7828 16.4986L29.6617 15.5021ZM30 15.2503H13.3333V16.7503H30V15.2503Z" fill="#6F6F6F"/>
</svg>
