<svg width="180" height="180" viewBox="0 0 180 180" fill="none" xmlns="http://www.w3.org/2000/svg">
<g filter="url(#filter0_d_4623_28368)">
<path d="M90 156C128.66 156 160 124.66 160 86C160 47.3401 128.66 16 90 16C51.3401 16 20 47.3401 20 86C20 124.66 51.3401 156 90 156Z" fill="#0EBEEF"/>
<path d="M159 86C159 124.108 128.108 155 90 155C51.8924 155 21 124.108 21 86C21 47.8923 51.8924 17 90 17C128.108 17 159 47.8923 159 86Z" stroke="white" stroke-width="2"/>
</g>
<mask id="path-3-inside-1_4623_28368" fill="white">
<path d="M51 61.0122H64.312V63.7653C65.4651 64.0754 66.6798 63.9383 67.752 63.377C72.712 60.5886 71.64 61.0387 77.296 61.0122C81.568 61.0122 85.84 61.0122 90.096 61.0122C91.7533 60.9723 93.4001 61.3116 94.9326 62.0087C96.465 62.7058 97.85 63.7456 99 65.0624C101.152 67.4449 103.32 69.8097 105.456 72.2098C105.62 72.4058 105.821 72.5596 106.045 72.6603C106.269 72.7609 106.51 72.806 106.752 72.7922C114.491 72.7922 122.224 72.7922 129.952 72.7922H131V111H75.048V92.5844C73.104 91.9667 71.312 91.4372 69.544 90.8196C68.9295 90.5631 68.3442 90.2284 67.8 89.8225C66.376 88.8783 66.144 88.8077 64.336 89.0371V93.4491H51V61.0122ZM102.272 72.7657C100.496 70.8068 98.872 69.0685 97.288 67.2772C96.3439 66.1825 95.2012 65.3196 93.9344 64.7449C92.6676 64.1702 91.3052 63.8965 89.936 63.9417C84.88 63.9417 79.824 63.9417 74.736 63.9417C73.3407 63.9035 71.961 64.2718 70.736 65.0094C69.4518 65.9494 67.9962 66.5669 66.472 66.8184C65.784 66.8713 65.088 66.8184 64.376 66.8184V86.0017C64.5436 86.02 64.7124 86.02 64.88 86.0017C65.6847 85.869 66.5058 85.9313 67.2864 86.1843C68.067 86.4373 68.7883 86.8748 69.4 87.4665C69.7153 87.7187 70.0597 87.9234 70.424 88.0753C71.8556 88.8276 73.4147 89.2395 75 89.2842C75 86.9988 75 84.7928 75 82.5868C75 82.375 74.696 82.1191 74.48 81.9691C73.504 81.2897 72.512 80.6367 71.44 79.922L73.16 77.5836C77.624 80.8573 79.232 80.8044 84.008 77.1865C84.176 77.4071 84.336 77.6718 84.536 77.8924C86.888 80.4985 89.2427 83.1015 91.6 85.7017C92.0944 86.2657 92.7716 86.59 93.4827 86.6032C94.1939 86.6164 94.8807 86.3175 95.392 85.7723C95.9033 85.227 96.1973 84.48 96.2093 83.6956C96.2214 82.9112 95.9504 82.1537 95.456 81.5897C92.5653 78.366 89.656 75.16 86.728 71.9716C86.516 71.7936 86.2815 71.651 86.032 71.548L88.064 69.2361C88.992 70.2774 89.872 71.3274 90.816 72.3069C91.1123 72.6007 91.4903 72.7749 91.888 72.801C94.048 72.8451 96.216 72.801 98.376 72.801L102.272 72.7657ZM128.368 75.7747H93.88C94.68 76.6571 95.408 77.3454 96.048 78.0866C96.2108 78.2868 96.4129 78.4434 96.6389 78.5443C96.8649 78.6453 97.1088 78.6879 97.352 78.669C104.259 78.669 111.165 78.669 118.072 78.669H119.064C118.944 80.8485 119.232 82.7898 120.664 84.3339C121.333 85.0176 122.135 85.5239 123.008 85.8144C123.882 86.105 124.804 86.172 125.704 86.0105V97.7993C123.776 97.6846 122.016 97.9935 120.616 99.5641C119.216 101.135 118.96 103.094 119.064 105.123H87C87.144 103.005 86.856 101.073 85.448 99.52C84.04 97.967 82.248 97.7111 80.432 97.7552V86.0017C82.64 86.187 84.552 85.684 86.032 83.5486C85.328 82.8074 84.68 82.1103 84.008 81.4397C83.938 81.375 83.8552 81.3293 83.7663 81.3063C83.6774 81.2834 83.5848 81.2837 83.496 81.3073C81.772 82.417 79.7939 82.9533 77.8 82.8515V108.062H128.368V75.7747ZM98.44 86.4782C102.352 83.831 105.704 84.0604 108.136 87.0606C109.184 88.3579 109.788 90.0191 109.842 91.756C109.896 93.4929 109.396 95.1957 108.431 96.569C107.465 97.9423 106.094 98.8993 104.556 99.2739C103.017 99.6486 101.408 99.4172 100.008 98.62C96.744 96.761 95.7787 93.3491 97.112 88.3842C97.0402 88.406 96.9706 88.4356 96.904 88.4724C94.288 90.3431 91.776 90.0519 89.568 87.59C89.024 86.9811 88.536 86.3105 87.968 85.6134C86.7302 87.2997 84.9944 88.4523 83.064 88.8695V94.958C84.6905 95.294 86.1868 96.165 87.3561 97.4564C88.5255 98.7478 89.3133 100.399 89.616 102.194H116.472C116.772 100.401 117.555 98.7505 118.72 97.4577C119.885 96.165 121.377 95.2906 123 94.9492V88.8871C121.377 88.5556 119.883 87.6919 118.713 86.4088C117.543 85.1258 116.75 83.4831 116.44 81.6956H98.656C98.9104 82.4685 99.0224 83.2896 98.9853 84.1109C98.9482 84.9322 98.7628 85.737 98.44 86.4782ZM61.6 90.4137V64.0212H53.72V90.4137H61.6ZM107 91.9137C107.006 91.3324 106.907 90.7555 106.709 90.217C106.51 89.6785 106.216 89.1893 105.843 88.7782C105.47 88.367 105.027 88.0423 104.538 87.8231C104.05 87.6039 103.527 87.4946 103 87.5018C101.939 87.5018 100.922 87.9666 100.172 88.794C99.4214 89.6214 99 90.7436 99 91.9137C99.0125 93.0796 99.4379 94.1938 100.185 95.0183C100.933 95.8427 101.943 96.312 103 96.3257C104.061 96.3257 105.078 95.8609 105.828 95.0335C106.579 94.2061 107 93.0839 107 91.9137Z"/>
</mask>
<path d="M51 61.0122H64.312V63.7653C65.4651 64.0754 66.6798 63.9383 67.752 63.377C72.712 60.5886 71.64 61.0387 77.296 61.0122C81.568 61.0122 85.84 61.0122 90.096 61.0122C91.7533 60.9723 93.4001 61.3116 94.9326 62.0087C96.465 62.7058 97.85 63.7456 99 65.0624C101.152 67.4449 103.32 69.8097 105.456 72.2098C105.62 72.4058 105.821 72.5596 106.045 72.6603C106.269 72.7609 106.51 72.806 106.752 72.7922C114.491 72.7922 122.224 72.7922 129.952 72.7922H131V111H75.048V92.5844C73.104 91.9667 71.312 91.4372 69.544 90.8196C68.9295 90.5631 68.3442 90.2284 67.8 89.8225C66.376 88.8783 66.144 88.8077 64.336 89.0371V93.4491H51V61.0122ZM102.272 72.7657C100.496 70.8068 98.872 69.0685 97.288 67.2772C96.3439 66.1825 95.2012 65.3196 93.9344 64.7449C92.6676 64.1702 91.3052 63.8965 89.936 63.9417C84.88 63.9417 79.824 63.9417 74.736 63.9417C73.3407 63.9035 71.961 64.2718 70.736 65.0094C69.4518 65.9494 67.9962 66.5669 66.472 66.8184C65.784 66.8713 65.088 66.8184 64.376 66.8184V86.0017C64.5436 86.02 64.7124 86.02 64.88 86.0017C65.6847 85.869 66.5058 85.9313 67.2864 86.1843C68.067 86.4373 68.7883 86.8748 69.4 87.4665C69.7153 87.7187 70.0597 87.9234 70.424 88.0753C71.8556 88.8276 73.4147 89.2395 75 89.2842C75 86.9988 75 84.7928 75 82.5868C75 82.375 74.696 82.1191 74.48 81.9691C73.504 81.2897 72.512 80.6367 71.44 79.922L73.16 77.5836C77.624 80.8573 79.232 80.8044 84.008 77.1865C84.176 77.4071 84.336 77.6718 84.536 77.8924C86.888 80.4985 89.2427 83.1015 91.6 85.7017C92.0944 86.2657 92.7716 86.59 93.4827 86.6032C94.1939 86.6164 94.8807 86.3175 95.392 85.7723C95.9033 85.227 96.1973 84.48 96.2093 83.6956C96.2214 82.9112 95.9504 82.1537 95.456 81.5897C92.5653 78.366 89.656 75.16 86.728 71.9716C86.516 71.7936 86.2815 71.651 86.032 71.548L88.064 69.2361C88.992 70.2774 89.872 71.3274 90.816 72.3069C91.1123 72.6007 91.4903 72.7749 91.888 72.801C94.048 72.8451 96.216 72.801 98.376 72.801L102.272 72.7657ZM128.368 75.7747H93.88C94.68 76.6571 95.408 77.3454 96.048 78.0866C96.2108 78.2868 96.4129 78.4434 96.6389 78.5443C96.8649 78.6453 97.1088 78.6879 97.352 78.669C104.259 78.669 111.165 78.669 118.072 78.669H119.064C118.944 80.8485 119.232 82.7898 120.664 84.3339C121.333 85.0176 122.135 85.5239 123.008 85.8144C123.882 86.105 124.804 86.172 125.704 86.0105V97.7993C123.776 97.6846 122.016 97.9935 120.616 99.5641C119.216 101.135 118.96 103.094 119.064 105.123H87C87.144 103.005 86.856 101.073 85.448 99.52C84.04 97.967 82.248 97.7111 80.432 97.7552V86.0017C82.64 86.187 84.552 85.684 86.032 83.5486C85.328 82.8074 84.68 82.1103 84.008 81.4397C83.938 81.375 83.8552 81.3293 83.7663 81.3063C83.6774 81.2834 83.5848 81.2837 83.496 81.3073C81.772 82.417 79.7939 82.9533 77.8 82.8515V108.062H128.368V75.7747ZM98.44 86.4782C102.352 83.831 105.704 84.0604 108.136 87.0606C109.184 88.3579 109.788 90.0191 109.842 91.756C109.896 93.4929 109.396 95.1957 108.431 96.569C107.465 97.9423 106.094 98.8993 104.556 99.2739C103.017 99.6486 101.408 99.4172 100.008 98.62C96.744 96.761 95.7787 93.3491 97.112 88.3842C97.0402 88.406 96.9706 88.4356 96.904 88.4724C94.288 90.3431 91.776 90.0519 89.568 87.59C89.024 86.9811 88.536 86.3105 87.968 85.6134C86.7302 87.2997 84.9944 88.4523 83.064 88.8695V94.958C84.6905 95.294 86.1868 96.165 87.3561 97.4564C88.5255 98.7478 89.3133 100.399 89.616 102.194H116.472C116.772 100.401 117.555 98.7505 118.72 97.4577C119.885 96.165 121.377 95.2906 123 94.9492V88.8871C121.377 88.5556 119.883 87.6919 118.713 86.4088C117.543 85.1258 116.75 83.4831 116.44 81.6956H98.656C98.9104 82.4685 99.0224 83.2896 98.9853 84.1109C98.9482 84.9322 98.7628 85.737 98.44 86.4782ZM61.6 90.4137V64.0212H53.72V90.4137H61.6ZM107 91.9137C107.006 91.3324 106.907 90.7555 106.709 90.217C106.51 89.6785 106.216 89.1893 105.843 88.7782C105.47 88.367 105.027 88.0423 104.538 87.8231C104.05 87.6039 103.527 87.4946 103 87.5018C101.939 87.5018 100.922 87.9666 100.172 88.794C99.4214 89.6214 99 90.7436 99 91.9137C99.0125 93.0796 99.4379 94.1938 100.185 95.0183C100.933 95.8427 101.943 96.312 103 96.3257C104.061 96.3257 105.078 95.8609 105.828 95.0335C106.579 94.2061 107 93.0839 107 91.9137Z" fill="white" stroke="#FAFAFA" stroke-width="0.8" mask="url(#path-3-inside-1_4623_28368)"/>
<defs>
<filter id="filter0_d_4623_28368" x="0" y="0" width="180" height="180" filterUnits="userSpaceOnUse" color-interpolation-filters="sRGB">
<feFlood flood-opacity="0" result="BackgroundImageFix"/>
<feColorMatrix in="SourceAlpha" type="matrix" values="0 0 0 0 0 0 0 0 0 0 0 0 0 0 0 0 0 0 127 0" result="hardAlpha"/>
<feOffset dy="4"/>
<feGaussianBlur stdDeviation="10"/>
<feComposite in2="hardAlpha" operator="out"/>
<feColorMatrix type="matrix" values="0 0 0 0 0 0 0 0 0 0 0 0 0 0 0 0 0 0 0.08 0"/>
<feBlend mode="normal" in2="BackgroundImageFix" result="effect1_dropShadow_4623_28368"/>
<feBlend mode="normal" in="SourceGraphic" in2="effect1_dropShadow_4623_28368" result="shape"/>
</filter>
</defs>
</svg>
