<svg width="180" height="180" viewBox="0 0 180 180" fill="none" xmlns="http://www.w3.org/2000/svg">
<g filter="url(#filter0_d_4623_28392)">
<path d="M90 156C128.66 156 160 124.66 160 86C160 47.3401 128.66 16 90 16C51.3401 16 20 47.3401 20 86C20 124.66 51.3401 156 90 156Z" fill="#FFC700"/>
<path d="M159 86C159 124.108 128.108 155 90 155C51.8924 155 21 124.108 21 86C21 47.8923 51.8924 17 90 17C128.108 17 159 47.8923 159 86Z" stroke="white" stroke-width="2"/>
</g>
<path d="M55 67.0987C55.1425 66.5108 55.2701 65.9228 55.4351 65.3427C56.0528 63.215 57.3024 61.348 59.0031 60.0119C60.7037 58.6757 62.7671 57.9399 64.8945 57.9109C66.6723 57.9109 68.4577 57.9109 70.2881 57.9109C70.3406 57.268 70.3481 56.6565 70.4456 56.0607C70.7454 54.0439 71.7424 52.2119 73.2479 50.9116C74.7534 49.6113 76.6629 48.9331 78.6147 49.0052C87.5765 49.0052 96.5383 49.0052 105.5 49.0052C110.991 49.0052 116.49 49.0052 122.003 49.0052C124.125 49.0156 126.157 49.9026 127.655 51.4726C129.153 53.0427 129.996 55.1683 130 57.3856C130 67.1588 130 76.932 130 86.7053C129.988 88.4027 129.479 90.0555 128.54 91.4406C127.601 92.8257 126.277 93.8763 124.749 94.4507C123.759 94.8034 122.911 94.2155 123.136 93.2669C123.263 92.8747 123.532 92.5506 123.886 92.3654C126.594 91.1816 127.825 89.0571 127.81 86.0154C127.81 78.4346 127.81 70.8538 127.81 63.2809V62.4029H72.5385C72.5385 62.7008 72.5385 62.9752 72.5385 63.2417C72.5385 70.8721 72.5385 78.5026 72.5385 86.133C72.546 90.1468 74.969 92.6633 78.8548 92.6633H119.625C120.376 92.6633 120.908 93.1415 120.901 93.8235C120.893 93.9836 120.855 94.1405 120.788 94.2847C120.721 94.429 120.627 94.5577 120.512 94.6631C120.396 94.7684 120.261 94.8484 120.115 94.8981C119.97 94.9478 119.816 94.9663 119.663 94.9524C119.055 94.9524 118.448 94.9524 117.72 94.9524C117.72 95.2816 117.72 95.5795 117.72 95.8774C117.782 97.7368 117.732 99.5985 117.57 101.451C117.237 103.955 116.038 106.245 114.2 107.889C112.362 109.532 110.012 110.416 107.593 110.373C104.787 110.373 101.974 110.373 99.1688 110.373H98.2837V114.292C99.0329 114.239 99.7848 114.239 100.534 114.292C101.731 114.43 102.83 115.046 103.602 116.011C104.374 116.977 104.758 118.218 104.673 119.473C104.589 120.728 104.043 121.9 103.149 122.744C102.256 123.587 101.085 124.037 99.8815 123.998C92.38 123.998 84.8785 123.998 77.377 123.998C75.8392 123.998 74.3014 123.998 72.7636 123.998C72.1488 124.003 71.5391 123.882 70.9691 123.642C70.3991 123.401 69.88 123.046 69.4415 122.595C69.003 122.145 68.6537 121.609 68.4135 121.018C68.1732 120.426 68.0468 119.791 68.0414 119.149C68.0359 118.507 68.1517 117.869 68.3819 117.274C68.6121 116.678 68.9524 116.136 69.3832 115.677C69.814 115.219 70.327 114.854 70.8929 114.603C71.4587 114.352 72.0663 114.22 72.681 114.214C73.2361 114.214 73.7913 114.214 74.3839 114.214V110.42C74.1138 110.42 73.8513 110.42 73.5962 110.42H67.715C67.4225 110.42 67.0399 110.467 66.8674 110.302C66.5598 110.012 66.1697 109.518 66.1922 109.197C66.2147 108.875 66.6498 108.413 66.9949 108.193C67.2199 108.036 67.61 108.131 67.9251 108.131H107.27C111.021 108.131 114.022 106.045 115.095 102.549C115.333 101.789 115.467 100.997 115.492 100.197C115.552 98.4958 115.492 96.7868 115.492 95.0308H112.754C112.754 95.2581 112.754 95.5011 112.754 95.7442C112.754 97.1239 112.754 98.5037 112.754 99.8756C112.768 101.26 112.261 102.595 111.342 103.592C110.423 104.59 109.165 105.169 107.841 105.206H65.2846C64.1768 105.262 63.0825 104.934 62.1711 104.273C61.2598 103.613 60.5823 102.657 60.2435 101.553C60.0759 100.995 59.9899 100.414 59.9885 99.8285C59.9885 89.3759 59.9885 78.9389 59.9885 68.5177C59.968 67.8076 60.086 67.1005 60.3352 66.4395C60.5845 65.7786 60.9598 65.1775 61.4384 64.673C61.917 64.1684 62.4888 63.7709 63.1191 63.5046C63.7494 63.2384 64.4249 63.1089 65.1045 63.1241C66.8149 63.1241 68.5177 63.1241 70.2881 63.1241V60.1686C67.61 60.4038 64.902 59.7296 62.299 60.7252C60.8174 61.2846 59.5355 62.3053 58.6261 63.6495C57.7167 64.9938 57.2235 66.5971 57.2129 68.2433C57.1879 78.8579 57.1879 89.4726 57.2129 100.087C57.238 101.786 57.775 103.432 58.7474 104.793C59.7197 106.154 61.078 107.16 62.629 107.668C63.7167 108.029 64.1293 108.523 63.9043 109.236C63.6792 109.949 63.0491 110.216 61.9464 109.816C60.1895 109.247 58.6203 108.175 57.4165 106.721C56.2127 105.268 55.4223 103.491 55.135 101.592C55.135 101.42 55.045 101.255 55 101.091V67.0987ZM70.3481 65.3976C68.4952 65.3976 66.7398 65.3976 64.9845 65.3976C64.6101 65.3942 64.2389 65.4699 63.8931 65.62C63.5473 65.7701 63.2341 65.9916 62.9721 66.2712C62.7102 66.5508 62.5049 66.8828 62.3686 67.2472C62.2323 67.6117 62.1678 68.0011 62.1789 68.3922C62.1789 78.8762 62.1789 89.3602 62.1789 99.8442C62.2003 100.453 62.3735 101.044 62.6815 101.561C62.9883 102.024 63.4085 102.392 63.8982 102.626C64.3879 102.861 64.9289 102.953 65.4646 102.894H107.15C107.418 102.911 107.686 102.911 107.953 102.894C108.568 102.862 109.154 102.611 109.613 102.183C110.073 101.755 110.379 101.176 110.481 100.542C110.601 98.7232 110.481 96.8966 110.481 95.0073H109.611C99.3839 95.0073 89.1568 95.0073 78.9298 95.0073C78.149 95.0217 77.369 94.9454 76.6043 94.7799C74.7864 94.3658 73.1655 93.2974 72.0247 91.7614C70.8839 90.2253 70.2958 88.3192 70.3631 86.376C70.3631 79.7438 70.3631 73.1116 70.3631 66.4794C70.3406 66.1188 70.3406 65.8209 70.3406 65.4054L70.3481 65.3976ZM72.636 60.004H127.817C127.817 59.2593 127.817 58.5772 127.817 57.8873C127.817 53.8187 125.409 51.3179 121.508 51.31H104.255C95.7081 51.31 87.1639 51.31 78.6222 51.31C75.6216 51.31 73.1836 53.2542 72.7035 56.2411C72.5831 57.4914 72.5605 58.7499 72.636 60.004ZM86.3563 121.771C90.8947 121.771 95.4331 121.771 99.9715 121.771C100.615 121.778 101.236 121.52 101.7 121.054C102.164 120.588 102.435 119.951 102.454 119.278C102.47 118.608 102.239 117.956 101.81 117.457C101.38 116.959 100.784 116.651 100.144 116.597C99.8766 116.583 99.6088 116.583 99.3414 116.597H72.9811C72.5474 116.563 72.1126 116.646 71.7185 116.838C71.3244 117.03 70.9842 117.325 70.7306 117.695C70.4506 118.071 70.2821 118.525 70.2461 119C70.2101 119.475 70.3081 119.95 70.5281 120.368C70.7409 120.815 71.075 121.186 71.4886 121.436C71.9021 121.685 72.3769 121.802 72.8536 121.771H86.3563ZM76.7243 110.42V114.222H96.0032V110.42H76.7243Z" fill="white"/>
<path d="M96.5656 76.3188C96.0254 76.3188 95.4928 76.3188 94.9527 76.3188C94.2026 76.3188 93.7975 75.919 93.79 75.1507C93.79 72.1142 93.79 69.0777 93.79 66.0412C93.7752 65.8802 93.7944 65.7177 93.8463 65.5653C93.8981 65.4129 93.9813 65.2742 94.0901 65.159C94.1988 65.0439 94.3304 64.9551 94.4756 64.8989C94.6208 64.8428 94.776 64.8206 94.9302 64.8339C95.8073 64.7871 96.6862 64.7871 97.5633 64.8339C98.0657 64.8541 98.5558 65.0021 98.9911 65.265C99.4264 65.528 99.7938 65.8979 100.061 66.3428C100.329 66.7877 100.489 67.294 100.526 67.818C100.564 68.3419 100.479 68.8676 100.279 69.3495C100.196 69.497 100.165 69.67 100.191 69.8387C100.217 70.0075 100.299 70.1616 100.421 70.2745C100.869 70.7909 101.165 71.4319 101.271 72.12C101.378 72.8081 101.292 73.5138 101.023 74.1516C100.754 74.7894 100.313 75.3321 99.7553 75.714C99.1973 76.0958 98.5453 76.3004 97.8783 76.3031C97.4357 76.3031 97.0006 76.3031 96.5581 76.3031L96.5656 76.3188ZM96.0104 73.9669C96.7606 73.9669 97.3982 74.014 98.0434 73.9669C98.3345 73.9488 98.6078 73.814 98.8062 73.5905C99.0046 73.3671 99.1129 73.0723 99.1086 72.7675C99.1446 72.4464 99.0575 72.1235 98.8663 71.8694C98.6751 71.6152 98.3954 71.4505 98.0884 71.4113C97.3982 71.3486 96.7006 71.4113 95.9954 71.4113L96.0104 73.9669ZM96.0104 69.0359C96.528 69.0359 96.9856 69.0359 97.4432 69.0359C97.6879 69.0359 97.9226 68.9343 98.0957 68.7535C98.2687 68.5726 98.3659 68.3274 98.3659 68.0716C98.3659 67.8159 98.2687 67.5707 98.0957 67.3898C97.9226 67.209 97.6879 67.1074 97.4432 67.1074C96.9706 67.0604 96.4905 67.1074 95.9879 67.1074L96.0104 69.0359Z" fill="white"/>
<path d="M87.2485 76.3169C86.1606 76.32 85.0964 75.9858 84.1903 75.3566C83.2843 74.7274 82.5772 73.8315 82.1585 72.7823C81.7398 71.733 81.6283 70.5775 81.8382 69.462C82.048 68.3465 82.5698 67.3211 83.3374 66.5156C84.1051 65.7101 85.0841 65.1606 86.1506 64.9368C87.2172 64.7129 88.3233 64.8246 89.329 65.2579C90.3348 65.6911 91.1949 66.4264 91.8007 67.3707C92.4064 68.315 92.7306 69.4258 92.7321 70.5627C92.734 71.3169 92.5937 72.0642 92.3191 72.7617C92.0445 73.4593 91.641 74.0934 91.1317 74.6278C90.6224 75.1622 90.0173 75.5865 89.351 75.8763C88.6847 76.1661 87.9702 76.3158 87.2485 76.3169ZM87.196 74.0199C87.6287 74.0272 88.0585 73.945 88.4608 73.7781C88.8631 73.6113 89.2298 73.363 89.54 73.0476C89.8502 72.7322 90.0977 72.3558 90.2683 71.9401C90.4389 71.5245 90.5292 71.0777 90.5341 70.6254C90.5441 69.7106 90.2059 68.8291 89.5939 68.1749C88.9819 67.5206 88.1464 67.1472 87.271 67.1368C86.3956 67.1264 85.5521 67.4799 84.9261 68.1194C84.3 68.759 83.9427 69.6322 83.9328 70.547C83.9279 70.9986 84.0082 71.4468 84.1692 71.8658C84.3302 72.2849 84.5688 72.6667 84.8712 72.9893C85.1736 73.3119 85.534 73.569 85.9316 73.7458C86.3292 73.9227 86.7563 74.0158 87.1885 74.0199H87.196Z" fill="white"/>
<path d="M116.167 71.7162C113.632 71.7162 111.096 71.7162 108.553 71.7162C108.403 71.729 108.253 71.7098 108.11 71.6596C107.968 71.6095 107.837 71.5295 107.725 71.4245C107.614 71.3195 107.524 71.1918 107.461 71.0492C107.398 70.9066 107.364 70.7521 107.36 70.5951C107.364 70.4356 107.398 70.2784 107.461 70.1328C107.524 69.9873 107.614 69.8562 107.726 69.7475C107.837 69.6387 107.969 69.5543 108.112 69.4993C108.256 69.4443 108.408 69.4197 108.561 69.4271C108.756 69.4271 108.951 69.4271 109.146 69.4271H123.316C123.489 69.4271 123.661 69.4271 123.826 69.4271C123.979 69.4207 124.132 69.4466 124.275 69.5032C124.418 69.5598 124.548 69.6458 124.659 69.7563C124.77 69.8667 124.858 69.9993 124.918 70.1461C124.979 70.2929 125.01 70.451 125.011 70.6108C125.006 70.7708 124.969 70.9279 124.903 71.0722C124.837 71.2164 124.742 71.3446 124.626 71.4486C124.509 71.5526 124.373 71.6301 124.227 71.6762C124.08 71.7222 123.926 71.7359 123.774 71.7162C121.246 71.724 118.71 71.7162 116.167 71.7162Z" fill="white"/>
<path d="M95.8757 78.4043H103.265C104.142 78.4043 104.637 78.8041 104.66 79.5018C104.682 80.1995 104.165 80.7013 103.265 80.7013C98.2637 80.7013 93.2877 80.7013 88.3367 80.7013C87.3015 80.7013 86.7313 79.9173 87.0764 79.1334C87.1846 78.889 87.3664 78.6885 87.594 78.5625C87.8216 78.4365 88.0825 78.3919 88.3367 78.4357C90.8572 78.4121 93.3627 78.4043 95.8757 78.4043Z" fill="white"/>
<path d="M116.16 67.1133H108.763C107.848 67.1133 107.36 66.7056 107.36 66.0079C107.36 65.3102 107.893 64.8477 108.793 64.8477H123.616C124.509 64.8477 125.034 65.318 125.011 66.0393C124.989 66.7605 124.494 67.1368 123.616 67.1368L116.16 67.1133Z" fill="white"/>
<path d="M95.8761 83.0059H103.273C104.15 83.0059 104.645 83.4057 104.66 84.1034C104.675 84.8011 104.165 85.295 103.265 85.295C98.264 85.295 93.2855 85.295 88.3295 85.295C87.3018 85.295 86.7167 84.511 87.0693 83.7271C87.1691 83.4938 87.3385 83.3006 87.5522 83.1762C87.7658 83.0519 88.0122 83.0031 88.2545 83.0372C90.805 83.0137 93.3405 83.0059 95.8761 83.0059Z" fill="white"/>
<path d="M80.6773 69.8512C80.6773 71.0272 80.6773 72.2031 80.6773 73.3712C80.6944 73.9503 80.541 74.5209 80.2378 75.006C79.9346 75.4911 79.4963 75.8672 78.982 76.0836C78.4865 76.3069 77.9398 76.3761 77.4076 76.283C76.8754 76.1898 76.3802 75.9382 75.9814 75.5584C75.8522 75.4725 75.7413 75.3597 75.6555 75.2271C75.5698 75.0945 75.511 74.9449 75.4829 74.7876C75.4548 74.6303 75.4579 74.4687 75.492 74.3126C75.5261 74.1566 75.5906 74.0096 75.6813 73.8807C75.8647 73.6389 76.1312 73.4814 76.424 73.4418C76.7169 73.4023 77.013 73.4838 77.2491 73.6691C77.5267 73.8259 77.9993 74.0297 78.1493 73.9043C78.3825 73.6342 78.5062 73.28 78.4944 72.9165C78.4944 70.8233 78.4944 68.7302 78.4944 66.6449C78.4818 66.4151 78.4818 66.1848 78.4944 65.955C78.5077 65.6555 78.6301 65.3725 78.8365 65.1642C79.0429 64.9558 79.3176 64.8377 79.6046 64.834C79.7487 64.837 79.8909 64.87 80.0227 64.9309C80.1546 64.9919 80.2735 65.0796 80.3727 65.189C80.4718 65.2984 80.5491 65.4274 80.6001 65.5683C80.6511 65.7092 80.6748 65.8593 80.6698 66.0099C80.6923 67.3034 80.6773 68.5813 80.6773 69.8512Z" fill="white"/>
<path d="M92.4328 87.6074H96.5361C97.3613 87.6074 97.8113 88.0229 97.8113 88.7363C97.8113 89.4497 97.3538 89.8965 96.5436 89.8965C93.783 89.8965 91.0325 89.8965 88.2919 89.8965C88.1311 89.9222 87.967 89.9118 87.8103 89.8661C87.6536 89.8203 87.5081 89.7404 87.3832 89.6314C87.2584 89.5224 87.1571 89.387 87.0862 89.234C87.0152 89.081 86.9762 88.9141 86.9717 88.7441C86.9717 88.0621 87.4668 87.6074 88.2544 87.6074H92.4328Z" fill="white"/>
<path d="M112.544 76.3262C111.254 76.3262 109.963 76.3262 108.666 76.3262C107.825 76.3262 107.308 75.8637 107.33 75.166C107.353 74.4683 107.848 74.0449 108.643 74.0371C111.229 74.0371 113.812 74.0371 116.392 74.0371C117.255 74.0371 117.727 74.484 117.712 75.213C117.697 75.9421 117.247 76.3184 116.415 76.3184C115.124 76.3341 113.834 76.3262 112.544 76.3262Z" fill="white"/>
<path d="M85.5456 52.5238C86.1371 52.5331 86.7127 52.7248 87.2002 53.075C87.6877 53.4251 88.0653 53.9181 88.2855 54.4918C88.5057 55.0655 88.5588 55.6945 88.4379 56.2997C88.3171 56.9048 88.0279 57.4592 87.6065 57.893C87.1851 58.3269 86.6504 58.6209 86.0696 58.7381C85.4888 58.8553 84.8878 58.7906 84.3422 58.5519C83.7965 58.3132 83.3305 57.9114 83.0027 57.3967C82.675 56.8821 82.5001 56.2778 82.5 55.6596C82.5 55.2438 82.579 54.8322 82.7326 54.4486C82.8862 54.0651 83.1113 53.7173 83.3947 53.4254C83.6781 53.1336 84.0142 52.9036 84.3835 52.7489C84.7528 52.5941 85.1478 52.5176 85.5456 52.5238ZM85.7481 56.6003C85.9057 56.373 86.2582 56.0751 86.3258 55.7223C86.4233 55.2049 86.0707 54.86 85.5756 54.8443C85.465 54.8254 85.3517 54.8326 85.2441 54.8655C85.1364 54.8984 85.0372 54.956 84.9538 55.0342C84.8703 55.1125 84.8047 55.2092 84.7617 55.3174C84.7187 55.4257 84.6995 55.5426 84.7054 55.6596C84.6904 56.2083 84.9905 56.4984 85.7481 56.6003Z" fill="white"/>
<path d="M81.1058 55.6595C81.1132 56.2907 80.9404 56.9099 80.6094 57.438C80.2785 57.9661 79.8044 58.3791 79.2477 58.6242C78.6911 58.8694 78.0771 58.9355 77.4843 58.8143C76.8915 58.693 76.3468 58.3899 75.9196 57.9435C75.4925 57.4971 75.2024 56.9278 75.0864 56.3083C74.9703 55.6888 75.0337 55.0472 75.2682 54.4654C75.5028 53.8837 75.898 53.3883 76.4033 53.0424C76.9087 52.6965 77.5012 52.5159 78.1052 52.5237C78.901 52.5237 79.6642 52.8541 80.2269 53.4421C80.7896 54.0302 81.1058 54.8278 81.1058 55.6595ZM78.3227 56.6002C78.4652 56.3729 78.8028 56.0514 78.8478 55.6908C78.9078 55.1734 78.5328 54.852 78.0152 54.9069C77.9042 54.8989 77.7929 54.9168 77.6893 54.9593C77.5858 55.0018 77.4925 55.0678 77.4164 55.1526C77.3403 55.2374 77.2832 55.3388 77.2492 55.4496C77.2153 55.5603 77.2053 55.6775 77.22 55.7927C77.235 56.2631 77.5501 56.5375 78.3227 56.6002Z" fill="white"/>
<defs>
<filter id="filter0_d_4623_28392" x="0" y="0" width="180" height="180" filterUnits="userSpaceOnUse" color-interpolation-filters="sRGB">
<feFlood flood-opacity="0" result="BackgroundImageFix"/>
<feColorMatrix in="SourceAlpha" type="matrix" values="0 0 0 0 0 0 0 0 0 0 0 0 0 0 0 0 0 0 127 0" result="hardAlpha"/>
<feOffset dy="4"/>
<feGaussianBlur stdDeviation="10"/>
<feComposite in2="hardAlpha" operator="out"/>
<feColorMatrix type="matrix" values="0 0 0 0 0 0 0 0 0 0 0 0 0 0 0 0 0 0 0.08 0"/>
<feBlend mode="normal" in2="BackgroundImageFix" result="effect1_dropShadow_4623_28392"/>
<feBlend mode="normal" in="SourceGraphic" in2="effect1_dropShadow_4623_28392" result="shape"/>
</filter>
</defs>
</svg>
