<svg width="228" height="228" viewBox="0 0 228 228" fill="none" xmlns="http://www.w3.org/2000/svg">
<circle cx="114" cy="114" r="114" fill="#82D051" fill-opacity="0.9"/>
<path d="M59 89.75C59 85.1937 63.1041 81.5 68.1667 81.5H159.833C164.896 81.5 169 85.1937 169 89.75V143.375C169 147.931 164.896 151.625 159.833 151.625H68.1667C63.1041 151.625 59 147.931 59 143.375V89.75Z" stroke="white" stroke-width="4" stroke-linejoin="round"/>
<path d="M65.5143 86.8743C63.2033 84.9677 64.7021 81.5 67.8371 81.5H160.163C163.298 81.5 164.797 84.9677 162.486 86.8743L123.291 119.21C118.034 123.547 109.966 123.547 104.709 119.21L65.5143 86.8743Z" stroke="white" stroke-width="4" stroke-linejoin="round"/>
</svg>
