<svg width="24" height="23" viewBox="0 0 24 23" fill="none" xmlns="http://www.w3.org/2000/svg">
<path d="M19.3333 8.01449C19.3333 6.15413 18.5607 4.36997 17.1855 3.0545C15.8102 1.73902 13.9449 1 12 1C10.0551 1 8.18982 1.73902 6.81455 3.0545C5.43928 4.36997 4.66667 6.15413 4.66667 8.01449C4.66667 13.9484 2.21304 16.809 0.86406 17.9333C0.661495 18.1021 0.793366 18.5362 1.05706 18.5362H7.52214C7.6391 18.5362 7.74073 18.6154 7.77521 18.7271C7.99911 19.4529 8.99866 22 12 22C15.0013 22 16.0009 19.4529 16.2248 18.7271C16.2593 18.6154 16.3609 18.5362 16.4779 18.5362H22.9429C23.2066 18.5362 23.3385 18.1021 23.1359 17.9333C21.787 16.809 19.3333 13.9484 19.3333 8.01449Z" stroke="#6F6F6F" stroke-width="1.5" stroke-linecap="round" stroke-linejoin="round"/>
</svg>
