<svg width="26" height="24" viewBox="0 0 26 24" fill="none" xmlns="http://www.w3.org/2000/svg">
<path d="M2.23611 18.8482C2.23611 18.296 2.68382 17.8482 3.23611 17.8482H23.2361C23.7884 17.8482 24.2361 18.296 24.2361 18.8482V21.8482C24.2361 22.4005 23.7884 22.8482 23.2361 22.8482H3.23611C2.68382 22.8482 2.23611 22.4005 2.23611 21.8482V18.8482Z" stroke="#6F6F6F" stroke-width="1.5" stroke-linecap="round" stroke-linejoin="round"/>
<path d="M5.23611 8.84825H10.2361V17.8482H5.23611V8.84825Z" stroke="#6F6F6F" stroke-width="1.5" stroke-linecap="round" stroke-linejoin="round"/>
<path d="M16.2361 8.84825H21.2361V17.8482H16.2361V8.84825Z" stroke="#6F6F6F" stroke-width="1.5" stroke-linecap="round" stroke-linejoin="round"/>
<path d="M3.00167 8.84825C1.97621 8.84825 1.61518 7.48878 2.50553 6.98001L12.74 1.13176C13.0474 0.956081 13.4248 0.956081 13.7322 1.13176L23.9667 6.98001C24.857 7.48878 24.496 8.84825 23.4705 8.84825H3.00167Z" stroke="#6F6F6F" stroke-width="1.5" stroke-linecap="round" stroke-linejoin="round"/>
</svg>
