<svg width="76" height="76" viewBox="0 0 76 76" fill="none" xmlns="http://www.w3.org/2000/svg">
<rect width="76" height="76" rx="15" fill="#82D051" fill-opacity="0.1"/>
<path d="M37.5422 13L40.6146 13.3811H40.7928C41.6899 13.5394 42.0525 13.8413 41.9357 14.3362C41.819 14.8311 41.3212 14.9746 40.4179 14.8311C36.4177 14.1828 32.5096 14.2669 28.7429 15.618C24.1834 17.2561 22.254 20.4086 22.5981 24.2391C22.7368 25.7191 23.2714 27.1575 24.165 28.4556C24.9577 29.6433 25.7934 30.8112 26.6598 32.0633C27.4586 31.5981 28.2697 31.1478 29.044 30.6578C29.1546 30.5885 29.1361 30.3559 29.1177 30.2025C28.9206 29.481 28.8237 28.744 28.8289 28.0052C28.8921 27.5044 29.1166 27.0256 29.4803 26.6161C29.8439 26.2067 30.334 25.8808 30.902 25.6708C31.4701 25.4608 32.0964 25.374 32.7189 25.4188C33.3414 25.4637 33.9386 25.6387 34.4514 25.9266L34.7033 26.0405C36.2139 24.705 37.3461 23.1211 38.0215 21.3984C38.2734 20.7253 38.3963 20.6461 39.2873 20.5966C40.7801 20.551 42.2448 20.2561 43.5886 19.7306C44.2022 19.5133 44.7391 19.1765 45.151 18.7506C45.5629 18.3248 45.8369 17.8231 45.9482 17.2907C45.9587 17.1887 45.941 17.0861 45.8964 16.9903C45.8518 16.8944 45.7813 16.8078 45.6902 16.7365C45.1333 16.4141 44.5548 16.1167 43.9573 15.8456C43.3429 15.5685 43.1585 15.1528 43.435 14.7618C43.7115 14.3709 44.2093 14.3115 44.8053 14.549C49.1067 16.2564 51.3802 19.7108 50.8272 23.7046C50.7043 24.5756 50.5261 25.4416 50.3479 26.3077C50.2291 26.7639 50.251 27.2366 50.4117 27.6844C50.5724 28.1322 50.867 28.5414 51.2696 28.8762C51.4908 29.0643 51.6998 29.2672 51.9148 29.4602C53.8074 31.1181 52.3757 32.8156 50.649 33.2461C50.4385 33.29 50.2486 33.3829 50.1033 33.5131C49.9579 33.6434 49.8635 33.8053 49.8317 33.9786C49.2173 35.5226 48.5536 37.0519 47.9023 38.586C47.8846 38.6282 47.8703 38.6711 47.8593 38.7147C48.91 38.8384 49.9485 38.9374 50.9685 39.0908C51.4398 39.1801 51.8973 39.3112 52.3327 39.4818C52.4589 39.5078 52.5767 39.5554 52.6781 39.6213C52.7795 39.6872 52.8621 39.7699 52.9203 39.8638C52.9786 39.9576 53.0112 40.0605 53.0158 40.1653C53.0204 40.2702 52.997 40.3746 52.9471 40.4716C52.8921 40.5679 52.8122 40.6537 52.7128 40.7232C52.6134 40.7927 52.4967 40.8444 52.3706 40.8749C52.2445 40.9053 52.1118 40.9138 51.9813 40.8997C51.8508 40.8856 51.7255 40.8493 51.6137 40.7933C50.5622 40.4112 49.4144 40.2321 48.2617 40.2702C47.1091 40.3084 45.9834 40.5628 44.9744 41.0131C43.9653 41.4634 43.1007 42.0972 42.4494 42.8641C41.7981 43.631 41.3782 44.5098 41.2229 45.4304C41.194 45.7482 41.2725 46.0663 41.4503 46.3509C41.9173 47.1774 42.4334 47.9841 42.9926 48.8996C43.2341 48.7514 43.4583 48.5858 43.6624 48.4047C43.7243 48.3168 43.8071 48.2396 43.9062 48.1775C44.0053 48.1155 44.1186 48.0698 44.2396 48.0431C44.3607 48.0164 44.4871 48.0093 44.6116 48.0221C44.7361 48.0349 44.8562 48.0674 44.9651 48.1177C45.0752 48.1692 45.1698 48.2396 45.2423 48.3239C45.3148 48.4082 45.3633 48.5043 45.3845 48.6054C45.4056 48.7065 45.3988 48.8101 45.3645 48.9089C45.3303 49.0077 45.2694 49.0991 45.1863 49.1768C44.7282 49.6049 44.2355 50.0083 43.7115 50.3843C44.1048 51.1267 44.5718 52.0175 45.0695 52.8984C45.1879 53.029 45.3563 53.1246 45.5488 53.1706C47.1833 53.7199 48.7564 53.4477 50.2987 52.9083C50.4155 52.8687 50.4892 52.6806 50.5077 52.5569C50.5733 51.9971 50.8009 51.4575 51.1723 50.9814C51.5436 50.5052 52.0484 50.1058 52.6461 49.8152C53.6169 49.3203 54.6062 48.8254 55.5833 48.3602C55.8778 48.2469 56.1245 48.0665 56.2927 47.8412C56.461 47.616 56.5433 47.3559 56.5296 47.0933C56.4985 46.8055 56.3287 46.539 56.0564 46.3509C55.9089 46.2618 55.4788 46.4054 55.2269 46.5241C55.0411 46.6438 54.8076 46.7048 54.5701 46.6957C54.3325 46.6866 54.1072 46.608 53.9365 46.4747C53.85 46.4048 53.7831 46.321 53.7401 46.2287C53.6971 46.1363 53.6791 46.0377 53.6872 45.9393C53.6954 45.841 53.7295 45.7451 53.7873 45.6582C53.8451 45.5713 53.9253 45.4953 54.0225 45.4354C54.5351 45.1466 55.0709 44.8854 55.6263 44.6534C55.3932 43.8757 54.9459 43.15 54.3174 42.5303C54.2068 42.4165 54.0778 42.3076 53.9733 42.1938C53.8925 42.1212 53.8306 42.0363 53.7914 41.944C53.7521 41.8518 53.7363 41.7541 53.7448 41.6568C53.7534 41.5596 53.7861 41.4647 53.8411 41.3778C53.8961 41.2909 53.9722 41.2138 54.0649 41.1511C54.1576 41.0884 54.265 41.0413 54.3807 41.0127C54.4965 40.9841 54.6182 40.9745 54.7386 40.9845C54.8591 40.9945 54.9758 41.0239 55.0818 41.071C55.1878 41.1181 55.2811 41.1818 55.3559 41.2585C56.3295 42.1142 57.0278 43.149 57.3898 44.2724C57.5707 44.9474 57.8193 45.6094 58.1333 46.252C58.3181 46.7917 58.405 47.3501 58.3914 47.9099C60.7019 48.2266 61.6236 49.637 62.1274 51.3741C62.6724 53.544 62.9482 55.7522 62.9508 57.9661C63.0123 59.332 62.9939 60.6979 63 62.0638C63 62.6528 62.6928 62.9794 62.1397 62.9992C61.5867 63.019 61.1934 62.6725 61.1811 62.0787C61.1811 60.7771 61.1812 59.4755 61.1443 58.174C61.1443 57.6791 61.1443 57.1842 61.1443 56.6645C60.8248 56.6645 60.6097 56.6398 60.4008 56.6398C58.8646 56.6398 57.3284 56.6051 55.7922 56.6398C53.5678 56.6992 51.8411 56.1004 50.8764 54.4177C50.1059 54.6085 49.3221 54.7622 48.529 54.878C47.7248 54.9174 46.9184 54.9174 46.1142 54.878C46.2125 55.0759 46.2801 55.2244 46.3599 55.3729L49.6351 61.5046C49.7088 61.6382 49.7764 61.7718 49.8379 61.9104C49.8927 61.9992 49.9243 62.0961 49.9307 62.1951C49.937 62.2942 49.9179 62.3932 49.8747 62.486C49.8315 62.5789 49.765 62.6636 49.6794 62.7348C49.5938 62.8061 49.4908 62.8624 49.377 62.9002C49.2667 62.9434 49.1463 62.9672 49.0237 62.9701C48.9011 62.973 48.7791 62.9549 48.6658 62.917C48.5526 62.8792 48.4506 62.8223 48.3666 62.7503C48.2827 62.6783 48.2186 62.5928 48.1788 62.4993C47.6934 61.6234 47.2386 60.7375 46.7716 59.8566C44.7193 55.9618 42.6424 52.0719 40.5716 48.1969C40.0323 47.0454 39.0777 46.0503 37.8304 45.3394C36.5831 44.6286 35.1003 44.2345 33.5727 44.208C33.3023 44.208 32.9582 44.1684 32.7923 44.0249C32.6801 43.9213 32.5959 43.8001 32.5452 43.6689C32.4944 43.5377 32.4781 43.3994 32.4973 43.2628C32.5738 43.1323 32.6888 43.0189 32.8324 42.9326C32.976 42.8463 33.1436 42.7898 33.3207 42.7679C34.3162 42.8223 35.3116 42.9857 36.3009 43.1143C36.5199 43.1563 36.7354 43.2091 36.9461 43.2727C36.9461 42.1641 36.9461 41.0952 36.9461 40.0311C36.9461 39.9371 36.7925 39.8134 36.6758 39.7589C36.3931 39.6303 36.0613 39.5461 35.7971 39.4274C35.6823 39.3899 35.5779 39.3345 35.49 39.2643C35.4021 39.1941 35.3323 39.1105 35.2849 39.0184C35.2374 38.9263 35.2132 38.8275 35.2135 38.7278C35.2139 38.6281 35.2389 38.5294 35.2871 38.4376C35.4093 38.2591 35.6132 38.1261 35.8554 38.0669C36.0976 38.0078 36.3589 38.0271 36.5836 38.1208C38.2509 38.5959 39.9243 39.0595 41.6039 39.5115C41.937 39.5784 42.2759 39.6247 42.6178 39.6501C43.2962 39.777 44.0084 39.709 44.6312 39.4578C45.254 39.2066 45.7481 38.7879 46.0281 38.2743C46.5197 37.5171 46.9191 36.7252 47.3738 35.9186C46.8312 35.7941 46.3045 35.6284 45.8008 35.4237C45.1514 35.1031 44.5458 34.7282 43.9942 34.3052C43.8993 34.2367 43.8245 34.152 43.7755 34.0573C43.7265 33.9626 43.7044 33.8602 43.7109 33.7577C43.7174 33.6552 43.7523 33.5552 43.813 33.4649C43.8737 33.3747 43.9587 33.2966 44.0618 33.2362C44.1562 33.1739 44.2655 33.1279 44.3829 33.101C44.5003 33.0741 44.6233 33.0669 44.7443 33.0799C44.8653 33.0929 44.9817 33.1258 45.0863 33.1765C45.1909 33.2273 45.2814 33.2947 45.3522 33.3748C45.9859 33.9511 46.8608 34.3193 47.8101 34.4091C47.976 33.8647 48.1727 33.3402 48.3017 32.8057C48.3206 32.5755 48.4483 32.3599 48.6587 32.2034C48.8691 32.0469 49.146 31.9613 49.4323 31.9644C49.6426 31.9522 49.8496 31.9156 50.0468 31.8555C51.0791 31.5536 51.2389 31.0686 50.5261 30.3955C50.2742 30.158 50.0161 29.9353 49.7641 29.7027C49.2415 29.2407 48.8587 28.6875 48.6455 28.0866C48.4323 27.4856 48.3945 26.8531 48.5352 26.2384C48.6151 25.8623 48.4983 25.6149 48.062 25.5258C47.1157 25.3278 46.1572 25.1546 45.1924 25.0012C44.9104 24.9798 44.6265 24.9798 44.3445 25.0012C43.73 25.0012 43.3306 24.7438 43.3121 24.3133C43.305 24.211 43.3248 24.1087 43.3701 24.0131C43.4155 23.9174 43.4854 23.8305 43.5753 23.7581C43.6652 23.6857 43.7731 23.6294 43.8918 23.5929C44.0106 23.5564 44.1376 23.5405 44.2646 23.5462C45.6982 23.4489 47.1404 23.6182 48.4799 24.0411L48.9162 24.1945C49.2541 22.0962 49.0206 20.1265 47.5582 18.2558C46.1633 20.8045 43.4535 21.5815 40.4179 21.9081C40.1769 21.9124 39.9449 21.983 39.7604 22.1081C39.576 22.2332 39.4503 22.4054 39.4041 22.596C38.5291 24.4469 37.1881 26.1318 35.4653 27.5449C35.3814 27.6534 35.2646 27.7428 35.1259 27.8048C34.9872 27.8668 34.8312 27.8993 34.6726 27.8993C34.514 27.8993 34.358 27.8668 34.2193 27.8048C34.0806 27.7428 33.9638 27.6534 33.8799 27.5449C33.6652 27.2768 33.3454 27.0741 32.9713 26.9692C32.5972 26.8643 32.1903 26.8631 31.8153 26.9659C31.4402 27.091 31.12 27.3033 30.8956 27.5757C30.6712 27.8481 30.5528 28.1682 30.5556 28.4951C30.517 29.2445 30.8459 29.9759 31.4714 30.5315C32.0969 31.0871 32.9686 31.4223 33.8983 31.4645C34.0397 31.4645 34.181 31.4645 34.3223 31.4942C34.4441 31.4977 34.5638 31.5214 34.6737 31.5639C34.7836 31.6063 34.8814 31.6666 34.961 31.741C35.0407 31.8153 35.1003 31.9021 35.1364 31.9959C35.1724 32.0897 35.1839 32.1885 35.1703 32.286C35.1643 32.3802 35.1345 32.4725 35.0827 32.5571C35.0308 32.6417 34.9581 32.7169 34.8689 32.778C34.7798 32.8392 34.676 32.885 34.5641 32.9128C34.4521 32.9405 34.3343 32.9495 34.2179 32.9393C33.0151 32.9578 31.8389 32.653 30.8751 32.0732C30.6969 31.9693 30.5248 31.8555 30.3774 31.7565L27.305 33.4589C28.2636 36.6263 27.0592 39.6303 25.9593 42.7234H28.4172C28.8227 42.7234 29.2283 42.7234 29.6461 42.7234C29.7736 42.7114 29.9028 42.7212 30.0252 42.7523C30.1476 42.7834 30.2604 42.835 30.3563 42.9037C30.4522 42.9724 30.5289 43.0567 30.5814 43.151C30.634 43.2453 30.6611 43.3475 30.6611 43.4509C30.6611 43.5542 30.634 43.6564 30.5814 43.7507C30.5289 43.845 30.4522 43.9293 30.3563 43.998C30.2604 44.0667 30.1476 44.1183 30.0252 44.1494C29.9028 44.1805 29.7736 44.1903 29.6461 44.1783C28.4541 44.1783 27.262 44.208 26.0699 44.1783C25.5476 44.1783 25.3632 44.3219 25.2096 44.7079C22.8992 50.4536 23.8148 56.036 26.4877 61.5343C26.5492 61.6531 26.6229 61.7718 26.6782 61.8956C26.7355 61.9863 26.7689 62.0855 26.7766 62.187C26.7842 62.2886 26.7659 62.3903 26.7227 62.4859C26.6794 62.5815 26.6123 62.6689 26.5254 62.7428C26.4384 62.8166 26.3336 62.8752 26.2174 62.915C26.1005 62.96 25.9727 62.9836 25.8432 62.9841C25.7137 62.9846 25.5857 62.9621 25.4682 62.9181C25.3508 62.8741 25.2469 62.8098 25.1639 62.7297C25.081 62.6496 25.021 62.5557 24.9884 62.4548C24.5275 61.5046 24.0544 60.5495 23.6734 59.5745C22.5096 56.5904 21.9676 53.4715 22.0696 50.3447C22.1434 48.0484 22.9115 45.861 23.6857 43.6686C24.3862 41.689 25.099 39.7095 25.6029 37.6853C25.8671 36.6411 25.6889 35.5226 25.7012 34.4388C25.6961 34.3628 25.671 34.2886 25.6275 34.2211C24.2225 34.4709 22.8007 34.6543 21.3691 34.7704C19.7482 34.8752 18.1271 34.5689 16.7332 33.8944C15.3392 33.2199 14.2423 32.211 13.596 31.0092C13.1392 30.1506 12.9403 29.2173 13.0155 28.2852C13.0907 27.3531 13.4379 26.4484 14.0288 25.6446C14.6196 24.8408 15.4376 24.1606 16.4162 23.6593C17.3949 23.158 18.5065 22.8496 19.6609 22.7593C20.6932 22.6801 20.6932 22.6851 20.8468 21.8636C21.5965 17.8203 24.5337 15.232 29.2099 13.9007C30.6971 13.5536 32.2096 13.2809 33.7386 13.0841L34.2732 13H37.5422ZM24.9823 32.6622C24.2203 31.5734 23.5014 30.5589 22.8009 29.5394C21.6858 28.0301 21.0035 26.3393 20.8038 24.5904C20.8038 24.2143 20.5457 24.1896 20.1893 24.2094C18.9382 24.2422 17.7378 24.6159 16.7846 25.2695C15.8314 25.923 15.1817 26.8177 14.9417 27.8072C14.6994 28.8062 14.8779 29.8418 15.4489 30.7499C16.0198 31.658 16.9507 32.3866 18.094 32.8205C20.3614 33.6717 22.6288 33.3798 24.9823 32.6622ZM60.9722 55.1254C60.921 53.5507 60.5537 51.9931 59.8846 50.513C59.7646 50.2568 59.575 50.0254 59.3296 49.8359C59.0843 49.6463 58.7894 49.5034 58.4665 49.4175C58.1437 49.3316 57.8011 49.305 57.4638 49.3395C57.1265 49.3741 56.8031 49.469 56.5173 49.6172C55.5218 50.0824 54.5448 50.5674 53.5801 51.0673C53.0996 51.298 52.7249 51.6479 52.5122 52.0646C52.2995 52.4813 52.2602 52.9423 52.4003 53.3784C52.4852 53.8433 52.7684 54.2699 53.2012 54.585C53.6339 54.9001 54.1893 55.0842 54.7721 55.1056C56.7999 55.1749 58.8523 55.1254 60.9722 55.1254ZM38.7711 40.4468C38.7711 41.501 38.8142 42.5254 38.7711 43.5399C38.7404 43.754 38.8033 43.97 38.9492 44.1507C39.095 44.3314 39.3145 44.4655 39.57 44.5297C39.9563 43.2317 40.757 42.0375 41.8927 41.0655L38.7711 40.4468Z" fill="#82D051"/>
<path d="M37 62.4512C36.8024 62.6287 36.6218 62.9147 36.3622 62.9936C36.0655 63.0207 35.7666 62.9637 35.5099 62.8309C35.3857 62.7865 35.3236 62.5991 35.2559 62.466C34.1891 60.2964 33.1223 58.1318 32.0838 55.9524C31.9721 55.7036 31.9721 55.4271 32.0838 55.1783C32.1566 55.0741 32.2574 54.9869 32.3773 54.9242C32.4973 54.8615 32.6328 54.8252 32.7724 54.8184C32.9274 54.8411 33.0752 54.8919 33.2064 54.9675C33.3376 55.0431 33.4493 55.1417 33.5344 55.2572C33.9859 56.0511 34.3584 56.8794 34.7592 57.7226C35.4215 59.0736 36.0819 60.4263 36.7404 61.7806C36.8137 61.9482 36.8984 62.1504 37 62.4512Z" fill="#82D051"/>
<path d="M44.6676 29.3628C44.2303 29.3682 43.7959 29.3061 43.3893 29.1802C42.9827 29.0543 42.6117 28.867 42.2977 28.6289C42.2144 28.5775 42.1453 28.5133 42.0947 28.4403C42.0441 28.3674 42.013 28.2871 42.0033 28.2044C41.9936 28.1218 42.0055 28.0384 42.0383 27.9594C42.0711 27.8805 42.1241 27.8076 42.194 27.7451C42.2646 27.6822 42.3515 27.6318 42.449 27.5973C42.5465 27.5628 42.6523 27.5449 42.7593 27.5449C42.8663 27.5449 42.9721 27.5628 43.0695 27.5973C43.167 27.6318 43.2539 27.6822 43.3245 27.7451C43.5458 27.9105 43.8158 28.0308 44.1107 28.0951C44.4056 28.1595 44.7162 28.166 45.0151 28.114C45.1173 28.0885 45.2252 28.0802 45.3319 28.0897C45.4385 28.0992 45.5413 28.1263 45.6335 28.1693C45.7257 28.2122 45.8051 28.27 45.8666 28.3387C45.928 28.4075 45.9701 28.4857 45.99 28.5681C46.0068 28.6505 46.0024 28.7348 45.9769 28.8158C45.9514 28.8968 45.9054 28.9731 45.8416 29.04C45.7778 29.1069 45.6974 29.1631 45.6054 29.2053C45.5133 29.2475 45.4113 29.2749 45.3055 29.2857C45.0946 29.3198 44.8818 29.3455 44.6676 29.3628V29.3628Z" fill="#82D051"/>
<path d="M48.5733 48.4538C48.1924 48.3792 47.8196 48.2703 47.4598 48.1284C47.3643 48.0872 47.2785 48.0279 47.2073 47.9539C47.1362 47.8799 47.0813 47.7928 47.0459 47.6978C47.0105 47.6028 46.9953 47.5019 47.0013 47.4012C47.0072 47.3004 47.0342 47.2018 47.0806 47.1113C47.1108 47.0154 47.1604 46.9263 47.2264 46.8489C47.2924 46.7715 47.3736 46.7075 47.4653 46.6606C47.5571 46.6136 47.6575 46.5846 47.7609 46.5751C47.8642 46.5657 47.9685 46.5761 48.0677 46.6057C48.3122 46.7102 48.5894 46.7176 48.8395 46.6263C49.0896 46.5349 49.2923 46.3522 49.4039 46.1176C49.4574 46.0247 49.5305 45.9438 49.6183 45.8799C49.7062 45.8159 49.8069 45.7705 49.9141 45.7464C50.0212 45.7223 50.1324 45.7201 50.2404 45.74C50.3485 45.7599 50.4511 45.8014 50.5415 45.8618C50.7431 45.9678 50.8937 46.1457 50.9611 46.3575C51.0286 46.5692 51.0076 46.7981 50.9027 46.9951C50.6853 47.4174 50.3544 47.7756 49.9447 48.0322C49.5349 48.2888 49.0613 48.4344 48.5733 48.4538V48.4538Z" fill="#82D051"/>
<path d="M47.2138 52.0851C47.0687 52.0982 46.9211 52.0915 46.7801 52.0653C46.6391 52.0391 46.5076 51.9942 46.3939 51.9331C46.2802 51.872 46.1866 51.7962 46.1188 51.7103C46.0511 51.6243 46.0106 51.5301 46 51.4334C46 51.0585 46.3844 50.8308 47.0587 50.746C47.5075 50.6888 47.9384 50.5816 48.3331 50.4291C48.9198 50.2014 49.4525 50.2148 49.8098 50.5273C49.9662 50.6719 50.0299 50.8516 49.9869 51.0272C49.944 51.2028 49.7979 51.3601 49.5806 51.4647C48.9221 51.8447 48.0867 52.0637 47.2138 52.0851V52.0851Z" fill="#82D051"/>
<path d="M44.401 14.3143L41.5913 13.5139C41.0986 13.3736 40.5584 13.5804 40.3847 13.9759C40.211 14.3715 40.4695 14.8059 40.9623 14.9463L43.7719 15.7467C44.2646 15.8871 44.8048 15.6802 44.9786 15.2847C45.1523 14.8891 44.8937 14.4547 44.401 14.3143Z" fill="#82D051"/>
</svg>
