<svg width="71" height="71" viewBox="0 0 71 71" fill="none" xmlns="http://www.w3.org/2000/svg">
<rect x="0.000976562" width="71" height="71" rx="15" fill="#82D051" fill-opacity="0.1"/>
<path d="M45.5737 12C46.151 12.1175 46.6585 12.4234 46.9967 12.8578C47.3349 13.2922 47.4794 13.8237 47.4019 14.3484C47.9274 14.0886 48.3691 13.8487 48.8443 13.6439C49.2301 13.4544 49.6698 13.3709 50.1084 13.4038C50.5469 13.4367 50.9649 13.5845 51.3099 13.8287C51.6576 14.0836 51.9146 14.4235 52.0497 14.8068C52.1847 15.1902 52.1919 15.6003 52.0703 15.9873C51.7909 17.1189 51.2396 18.1828 50.4545 19.1051C49.806 19.9295 49.0568 20.684 48.3915 21.4935C48.2157 21.7041 48.1215 21.9602 48.1231 22.223C48.2349 23.7819 48.4027 25.3308 48.5368 26.8897C48.5368 27.1396 48.6095 27.2845 48.917 27.3894C49.674 27.588 50.3367 28.004 50.8026 28.573C51.2685 29.142 51.5116 29.8323 51.4944 30.5372C51.491 31.234 51.237 31.9113 50.7699 32.4691C50.3028 33.0269 49.6473 33.4357 48.9003 33.6351L48.7213 33.6901L48.2182 37.2626C49.5488 37.0078 50.9409 36.728 52.3442 36.4781C52.826 36.3829 53.3254 36.385 53.806 36.4842C54.2867 36.5834 54.7366 36.7773 55.1228 37.0516C55.509 37.3259 55.8219 37.6738 56.0386 38.0699C56.2552 38.466 56.3703 38.9003 56.3753 39.3412C56.3753 39.7609 56.3753 40.1856 56.3753 40.6553L56.9959 40.6852C57.7778 40.7089 58.5205 40.9971 59.0737 41.4915C59.6269 41.9859 59.9493 42.6496 59.9758 43.3484C60.0094 44.0279 60.0094 44.7175 59.9758 45.397C59.9522 46.0535 59.6673 46.6809 59.1723 47.1663C58.6773 47.6518 58.0046 47.9634 57.2754 48.0452C57.0071 48.0801 56.7163 48.0901 56.3809 48.1151C56.3809 48.285 56.3809 48.4549 56.3809 48.6148C56.3809 49.674 56.3809 50.7283 56.3809 51.7876C56.3809 52.3372 56.0286 52.687 55.5311 52.672C55.0335 52.657 54.7483 52.3272 54.7483 51.7876C54.7483 50.5984 54.7483 49.4142 54.7483 48.225C54.7625 48.1079 54.7364 47.9897 54.6735 47.8861C54.6105 47.7826 54.5138 47.6986 54.3961 47.6454C53.9294 47.403 53.5441 47.053 53.2805 46.632C53.0169 46.211 52.8847 45.7344 52.8977 45.2521C52.8977 44.6675 52.8977 44.0829 52.8977 43.4933C52.8792 43.0105 53.0071 42.5323 53.268 42.1092C53.5288 41.6861 53.9128 41.3339 54.3793 41.09C54.5069 41.0342 54.6113 40.9436 54.6777 40.8314C54.744 40.7191 54.7687 40.591 54.7483 40.4654C54.7483 40.1106 54.7483 39.7509 54.7483 39.3911C54.7574 39.1567 54.7048 38.9237 54.5948 38.7108C54.4847 38.4979 54.3203 38.311 54.1148 38.1652C53.9092 38.0194 53.6682 37.9188 53.4112 37.8713C53.1542 37.8239 52.8883 37.831 52.635 37.8922C47.9274 38.7965 43.2255 39.7159 38.518 40.6153C38.1098 40.6952 38.0092 40.8451 38.0092 41.1949C38.0092 47.4073 38.0092 53.6197 38.0092 59.832C38.0092 59.9769 38.0092 60.1169 38.0371 60.3067L42.6496 59.4173L53.1382 57.3687C54.2563 57.1439 54.7316 56.6293 54.7371 55.59C54.7371 55.3302 54.7371 55.0903 54.7371 54.8105C54.7356 54.72 54.7546 54.6302 54.7929 54.5465C54.8313 54.4628 54.8883 54.3868 54.9604 54.3233C55.0325 54.2598 55.1182 54.21 55.2125 54.177C55.3067 54.1439 55.4075 54.1283 55.5087 54.131C55.61 54.1184 55.7132 54.1248 55.8116 54.1497C55.9101 54.1747 56.0016 54.2176 56.0805 54.2759C56.1594 54.3342 56.2238 54.4064 56.2697 54.4882C56.3157 54.5699 56.3421 54.6592 56.3473 54.7506C56.5654 56.6343 55.9839 58.3381 53.3786 58.8327C48.1008 59.832 42.8285 60.8663 37.5563 61.8856C37.3252 61.9209 37.0918 61.9426 36.8575 61.9506C33.8272 62.1654 30.8976 61.6458 27.9624 61.0462C24.155 60.2618 20.3308 59.5472 16.5122 58.8227C15.6641 58.7161 14.8922 58.3277 14.3502 57.735C13.8083 57.1423 13.5362 56.3889 13.5882 55.6249C13.5882 53.2932 13.5882 50.9615 13.5882 48.6298C13.5882 48.4549 13.5882 48.275 13.5882 48.0751C13.2974 48.0751 13.0291 48.0452 12.7998 48.0152C12.0337 47.9459 11.3236 47.6249 10.8071 47.1144C10.2907 46.6039 10.0046 45.9403 10.0044 45.2521C10.0044 44.6825 10.0044 44.1129 10.0044 43.5433C9.98449 43.1643 10.0517 42.7857 10.2018 42.4307C10.3519 42.0758 10.5818 41.7522 10.8772 41.4797C11.1726 41.2072 11.5274 40.9918 11.9196 40.8465C12.3118 40.7013 12.7332 40.6294 13.1577 40.6353H13.6049C13.6049 40.2306 13.6049 39.8508 13.6049 39.4661C13.5845 39.0081 13.6832 38.5521 13.8934 38.134C14.1035 37.7159 14.4193 37.347 14.816 37.0565C15.2126 36.7659 15.6793 36.5615 16.1793 36.4594C16.6793 36.3574 17.199 36.3603 17.6975 36.4681C18.9275 36.683 20.1463 36.9278 21.3092 37.1527C21.1918 36.0584 21.08 34.9742 20.9402 33.8949C20.9184 33.8323 20.8809 33.775 20.8305 33.7274C20.7801 33.6798 20.7182 33.6431 20.6495 33.6201C20.078 33.4592 19.559 33.1762 19.1375 32.7956C18.7161 32.415 18.4048 31.9483 18.2308 31.4359C18.0567 30.9235 18.0252 30.3809 18.1388 29.8552C18.2524 29.3294 18.5077 28.8363 18.8827 28.4187C18.9708 28.2534 18.9887 28.0652 18.9331 27.8891C18.5976 26.0453 18.2062 24.2116 17.9211 22.3629C17.8314 21.5208 17.8183 20.6736 17.882 19.8296C17.882 19.245 18.251 18.9502 18.7597 18.9752C19.2685 19.0002 19.5425 19.3349 19.5033 19.9195C19.4337 22.4149 19.7613 24.9065 20.4761 27.3194C21.0744 27.2745 21.6335 27.2495 22.187 27.1895C22.7263 27.1416 23.2436 26.9739 23.6918 26.7016C24.14 26.4293 24.5049 26.0612 24.7532 25.6306C25.2254 24.7817 25.6181 23.8993 25.9273 22.9924C26.1844 22.2979 26.8162 22.0631 27.4089 22.5577C29.3153 24.1416 31.6468 24.8462 34.1571 25.1509C36.3649 25.4232 38.6128 25.2525 40.7375 24.6513C42.2911 24.1766 43.7199 23.4234 44.9363 22.4378C46.8966 21.0004 48.5436 19.2524 49.7948 17.2814C50.0818 16.7934 50.3032 16.2768 50.4545 15.7424C50.4902 15.6152 50.4927 15.4823 50.4616 15.354C50.4306 15.2258 50.367 15.1056 50.2756 15.0029C50.1466 14.9413 50.0026 14.909 49.8563 14.909C49.71 14.909 49.566 14.9413 49.437 15.0029C48.6431 15.5026 47.8883 16.0672 47.1447 16.6318C46.8815 16.8715 46.6368 17.1269 46.4123 17.3963C46.2941 17.5448 46.1153 17.6459 45.9145 17.6777C45.7137 17.7094 45.5069 17.6694 45.3389 17.5662C45.1645 17.4731 45.0359 17.3246 44.9789 17.1504C44.9218 16.9762 44.9406 16.7892 45.0314 16.6268C45.3133 15.9271 45.5486 15.213 45.7358 14.4883C45.9203 13.6539 45.4898 13.3341 44.5617 13.519C43.8184 13.6502 43.1554 14.022 42.7 14.5632C42.1508 15.2476 41.6467 15.96 41.1904 16.6968C40.8773 17.1964 40.5363 17.3913 40.0722 17.2414C39.6082 17.0915 39.5131 16.7417 39.5858 16.2421C39.7044 15.5074 39.7624 14.7659 39.7591 14.0236C39.7591 13.474 39.3175 13.2941 38.8199 13.6189C38.2971 13.9673 37.8223 14.3698 37.4054 14.8181C36.5444 15.7224 35.7896 16.7068 34.8895 17.5762C34.3192 18.0864 33.6786 18.5297 32.983 18.8952C32.8875 18.96 32.7772 19.005 32.6599 19.0271C32.5427 19.0491 32.4214 19.0477 32.3048 19.0228C32.1883 18.998 32.0793 18.9503 31.9858 18.8834C31.8924 18.8164 31.8166 18.7317 31.7642 18.6354C31.5293 18.2207 31.7138 17.831 32.3232 17.5812C33.4414 17.0815 34.1123 16.2271 34.8951 15.3677C33.0836 14.5283 31.2889 13.8987 29.2818 14.1635C28.6673 14.2497 28.0842 14.4644 27.58 14.79C27.0758 15.1156 26.6647 15.5429 26.3801 16.0372C25.9049 16.7567 25.7092 16.8017 24.837 16.5369C24.3083 16.3689 23.761 16.2517 23.2045 16.1871C22.6555 16.0972 22.0889 16.1562 21.5777 16.3566C21.0666 16.5569 20.6342 16.8895 20.3364 17.3113C20.2799 17.4004 20.2028 17.4778 20.1102 17.5381C20.0176 17.5984 19.9117 17.6404 19.7995 17.6612C19.6873 17.682 19.5714 17.6812 19.4596 17.6588C19.3478 17.6363 19.2426 17.5929 19.1511 17.5312C19.0634 17.4723 18.9897 17.3983 18.9343 17.3137C18.8789 17.2291 18.8428 17.1355 18.8283 17.0383C18.8137 16.9412 18.8209 16.8424 18.8494 16.7477C18.878 16.653 18.9273 16.5644 18.9946 16.4869C19.0905 16.349 19.197 16.2171 19.3132 16.0922C19.847 15.5108 20.5572 15.0795 21.3585 14.85C22.1598 14.6204 23.0182 14.6024 23.8307 14.7981C24.209 14.9069 24.6164 14.9051 24.9935 14.7927C25.3705 14.6804 25.6977 14.4635 25.9273 14.1735C27.3809 12.6745 29.3489 12.4497 31.4343 12.7295C32.9918 12.9726 34.4889 13.4597 35.8567 14.1685C36.6841 13.2591 37.5172 12.3997 38.7863 12H39.7703C40.1821 12.1196 40.5496 12.3372 40.8333 12.6295C41.117 12.9218 41.3062 13.2777 41.3805 13.6589C42.1611 12.8398 43.209 12.2597 44.3772 12H45.5737ZM31.9263 60.3117C31.9263 60.1368 31.9598 60.0069 31.9598 59.882C31.9598 53.6396 31.9598 47.3973 31.9598 41.1549C31.9598 40.8401 31.8648 40.7102 31.5014 40.6553C26.7715 39.7309 22.0136 38.8015 17.2949 37.8822C17.0495 37.8303 16.7942 37.8286 16.548 37.8771C16.3018 37.9256 16.071 38.0231 15.8727 38.1624C15.6745 38.3016 15.5139 38.479 15.4029 38.6814C15.292 38.8837 15.2335 39.1058 15.2319 39.3312C15.2319 39.7209 15.2319 40.1106 15.2319 40.5004C15.2174 40.6181 15.2446 40.7369 15.3099 40.8401C15.3751 40.9432 15.4749 41.0254 15.5953 41.075C16.054 41.3133 16.4334 41.6565 16.6948 42.0692C16.9561 42.4818 17.0899 42.9492 17.0825 43.4234C17.0825 44.0079 17.0825 44.5925 17.0825 45.1771C17.0967 45.6768 16.9631 46.171 16.6951 46.6097C16.4271 47.0483 16.0342 47.416 15.5562 47.6754C15.467 47.7338 15.3928 47.8086 15.3388 47.8948C15.2848 47.981 15.2521 48.0766 15.2431 48.1751C15.2431 50.6734 15.2431 53.2166 15.2431 55.7349C15.2136 56.1256 15.3514 56.5118 15.6286 56.8151C15.9057 57.1185 16.3015 57.3164 16.7358 57.3687L20.0904 58.0183L31.9263 60.3117ZM27.2635 24.3915C27.1014 24.7462 26.956 25.096 26.7827 25.4307C25.9999 26.9297 24.8874 28.1339 22.9976 28.5586C22.6286 28.6385 22.5392 28.7684 22.5448 29.0582C22.5895 31.1068 22.5448 33.1554 22.6734 35.199C22.765 35.8868 22.9645 36.5596 23.266 37.1976C23.3292 37.3052 23.4172 37.3995 23.5241 37.4744C23.6311 37.5494 23.7546 37.6032 23.8866 37.6323C25.48 37.9671 27.0846 38.2369 28.6724 38.5867C31.2852 39.2369 33.9973 39.5102 36.7065 39.3961C36.924 39.3894 37.1407 39.3693 37.3551 39.3362C39.7703 38.8715 42.1688 38.3119 44.6232 37.9771C46.0489 37.7822 46.608 37.1177 46.8037 35.9785C46.8679 35.7085 46.909 35.4346 46.9267 35.159C46.9267 32.0862 46.9267 29.0183 46.8708 25.9454C46.8708 25.026 46.7086 24.1067 46.608 23.0374C44.1111 25.2772 40.7513 26.5801 37.2153 26.6799C33.6259 26.8498 30.277 26.2252 27.2635 24.3915ZM33.6315 40.9051V60.4716H36.3319V40.9051H33.6315ZM15.4332 44.3777C15.4332 44.0679 15.4332 43.7631 15.4332 43.4533C15.4369 43.2826 15.4027 43.1128 15.3326 42.9539C15.2626 42.795 15.158 42.65 15.0249 42.5274C14.8919 42.4047 14.733 42.3069 14.5574 42.2394C14.3818 42.1719 14.193 42.1362 14.0019 42.1342C13.7113 42.1209 13.4202 42.1209 13.1297 42.1342C12.9288 42.1286 12.7288 42.16 12.542 42.2265C12.3553 42.2929 12.1859 42.393 12.0443 42.5204C11.9027 42.6479 11.792 42.8001 11.719 42.9675C11.646 43.1348 11.6124 43.3138 11.6202 43.4933C11.6202 44.0762 11.6202 44.6608 11.6202 45.2471C11.6134 45.4184 11.6446 45.5892 11.7117 45.7497C11.7789 45.9102 11.8809 46.0573 12.0117 46.1826C12.1426 46.3079 12.2998 46.4089 12.4743 46.4799C12.6489 46.5509 12.8374 46.5904 13.0291 46.5962C13.3897 46.6293 13.7531 46.6293 14.1137 46.5962C14.4716 46.5698 14.8054 46.4242 15.0488 46.1882C15.2922 45.9522 15.4274 45.643 15.4276 45.322C15.4499 45.0023 15.4332 44.6925 15.4332 44.3777ZM54.5303 44.3777C54.5303 44.6675 54.5303 44.9623 54.5303 45.2521C54.5228 45.4234 54.5532 45.5943 54.6197 45.7551C54.6862 45.9159 54.7875 46.0634 54.9178 46.1891C55.0482 46.3149 55.205 46.4165 55.3793 46.488C55.5536 46.5596 55.7419 46.5997 55.9336 46.6062C56.2591 46.6319 56.5865 46.6319 56.912 46.6062C57.1056 46.6029 57.2966 46.5655 57.4739 46.4962C57.6513 46.4268 57.8116 46.3268 57.9456 46.2019C58.0797 46.077 58.1848 45.9297 58.2549 45.7684C58.3251 45.6072 58.3589 45.4351 58.3545 45.2621C58.3545 44.8424 58.3545 44.4177 58.3545 43.998C58.3545 42.499 57.8904 42.0993 56.2076 42.1292H55.9336C55.5665 42.1393 55.2174 42.2741 54.9577 42.5062C54.698 42.7383 54.5471 43.0503 54.5359 43.3784C54.5135 43.7132 54.5303 44.0429 54.5303 44.3777V44.3777ZM48.6598 32.0812C49.0529 31.9506 49.3845 31.7043 49.6 31.3827C49.8154 31.0612 49.9019 30.6837 49.8451 30.3124C49.8336 30.0001 49.7132 29.6987 49.5007 29.4506C49.2882 29.2024 48.9942 29.0198 48.6598 28.9283V32.0812ZM20.8955 32.1411V28.8884C20.557 29.0098 20.2647 29.2157 20.0536 29.4815C19.8424 29.7472 19.7213 30.0617 19.7046 30.3873C19.6786 30.7534 19.7789 31.1178 19.9918 31.4314C20.2047 31.745 20.5201 31.9927 20.8955 32.1411V32.1411Z" fill="#82D051"/>
<path d="M52.5785 43.3149C52.5785 43.7346 52.1983 43.9095 51.7343 43.9945L46.1434 45.0737L43.3479 45.6083L43.0852 45.6633C42.4143 45.7732 41.9949 45.5834 41.8887 45.1237C41.7825 44.664 42.1124 44.3492 42.7833 44.2193L46.244 43.5548L51.2758 42.5554C52.1033 42.4205 52.5953 42.6904 52.5785 43.3149Z" fill="#82D051"/>
<path d="M42.7564 48.428C42.5502 48.4352 42.3486 48.3719 42.1928 48.2508C42.0371 48.1298 41.9388 47.9602 41.9181 47.7767C41.8975 47.5931 41.9559 47.4094 42.0816 47.2631C42.2072 47.1167 42.3906 47.0187 42.5943 46.989C43.6566 46.7742 44.7244 46.5693 45.7867 46.3644L51.2155 45.3102L51.4279 45.2752C52.0485 45.1803 52.4511 45.3551 52.5461 45.7748C52.6412 46.1946 52.3784 46.5893 51.7242 46.7192C50.9247 46.8791 50.1252 47.024 49.3257 47.1789L43.1702 48.3731C43.0304 48.403 42.885 48.413 42.7564 48.428Z" fill="#82D051"/>
<path d="M34.7515 37.5826C34.0792 37.5758 33.4213 37.4081 32.8461 37.0971C32.2709 36.786 31.7994 36.3429 31.4808 35.8138C31.4088 35.73 31.3575 35.6334 31.3302 35.5306C31.303 35.4278 31.3003 35.321 31.3225 35.2172C31.3447 35.1134 31.3912 35.0149 31.4589 34.9283C31.5267 34.8417 31.6141 34.7688 31.7156 34.7146C32.1461 34.4947 32.5766 34.6296 32.9009 35.0843C33.8793 36.4584 35.6963 36.4584 36.6636 35.0843C36.9878 34.6296 37.4239 34.4947 37.8488 34.7196C37.952 34.7725 38.041 34.8449 38.1099 34.9316C38.1787 35.0183 38.2256 35.1174 38.2474 35.2219C38.2692 35.3264 38.2653 35.4339 38.2361 35.537C38.2069 35.64 38.1529 35.7362 38.0781 35.8188C37.7532 36.3537 37.2725 36.8 36.6868 37.1105C36.1012 37.4211 35.4324 37.5842 34.7515 37.5826V37.5826Z" fill="#82D051"/>
<path d="M27.4043 31.0755C27.5755 30.6368 27.7926 30.2136 28.0528 29.8114C28.129 29.7135 28.2306 29.6335 28.3489 29.5782C28.4672 29.523 28.5987 29.4941 28.7321 29.4941C28.8656 29.4941 28.9971 29.523 29.1154 29.5782C29.2336 29.6335 29.3352 29.7135 29.4114 29.8114C29.7315 30.1764 29.9055 30.6267 29.9055 31.0905C29.9055 31.5542 29.7315 32.0046 29.4114 32.3696C29.3344 32.4616 29.2344 32.5364 29.1194 32.5878C29.0044 32.6393 28.8775 32.6661 28.7489 32.6661C28.6203 32.6661 28.4934 32.6393 28.3784 32.5878C28.2634 32.5364 28.1634 32.4616 28.0864 32.3696C27.813 31.9589 27.5846 31.5255 27.4043 31.0755V31.0755Z" fill="#82D051"/>
<path d="M42.1009 31.0662C41.9712 31.4687 41.797 31.8586 41.581 32.2304C41.5044 32.3532 41.3925 32.4554 41.2568 32.5266C41.1212 32.5978 40.9667 32.6354 40.8094 32.6354C40.6521 32.6354 40.4977 32.5978 40.362 32.5266C40.2264 32.4554 40.1145 32.3532 40.0379 32.2304C39.785 31.8832 39.6504 31.4779 39.6504 31.0637C39.6504 30.6494 39.785 30.2441 40.0379 29.897C40.1172 29.7664 40.2355 29.6581 40.3795 29.5839C40.5235 29.5098 40.6877 29.4727 40.8539 29.4769C41.02 29.481 41.1817 29.5262 41.3209 29.6074C41.4601 29.6886 41.5714 29.8027 41.6425 29.9369C41.8345 30.2997 41.988 30.6777 42.1009 31.0662V31.0662Z" fill="#82D051"/>
</svg>
