<svg width="50" height="55" viewBox="0 0 50 55" fill="none" xmlns="http://www.w3.org/2000/svg">
<path d="M46.6021 53.9673C45.7536 55.2258 44.8629 55.2407 44.0143 53.964C43.7089 54.2389 43.4561 54.4508 43.2199 54.6827C42.8317 55.0635 42.4556 55.0718 42.0674 54.6893C41.9275 54.5518 41.7665 54.4376 41.6386 54.2885C41.4084 54.0186 41.2218 54.0633 40.9706 54.2869C39.952 55.1911 39.946 55.1828 38.956 54.2885C38.8687 54.2107 38.7814 54.1329 38.619 53.9888C37.7749 55.1712 36.8661 55.302 36.0131 53.9656C35.6971 54.2488 35.4443 54.4608 35.2081 54.6926C34.8154 55.0768 34.4393 55.0652 34.0571 54.681C33.9593 54.5833 33.836 54.5121 33.7562 54.4012C33.4358 53.959 33.1649 54.0915 32.8294 54.4127C32.0064 55.1993 31.9568 55.1844 31.1202 54.4359C30.9758 54.3051 30.8284 54.1776 30.6403 54.0103C30.3966 54.2256 30.1754 54.4889 29.9031 54.6413C29.6428 54.787 29.2711 54.9592 29.056 54.8532C28.8439 54.7489 28.6663 54.3184 28.6498 54.0186C28.5986 53.0764 28.6317 52.1292 28.6317 51.1223C28.3474 51.1223 28.1262 51.1223 27.9065 51.1223C21.6611 51.1223 15.4142 51.0627 9.17027 51.1521C6.81113 51.1869 4.46251 49.8505 4.05027 46.2123C3.45296 40.9496 2.7082 35.7068 2.00708 30.4574C1.98301 30.2818 1.77989 30.0483 1.62041 29.997C0.532613 29.6493 0.013541 28.9471 0.00451367 27.7167C-0.00150456 26.8689 -0.00150456 26.0227 0.00451367 25.1748C0.0165501 23.7937 0.788388 22.8548 2.03566 22.9243C2.89627 22.9723 3.2363 22.6362 3.54022 21.7751C4.64005 18.6618 6.19576 15.8053 7.97415 13.1077C8.4857 12.3327 8.46614 11.5759 8.44207 10.7926C7.80263 11.0742 7.19178 11.3639 6.56588 11.6057C6.36427 11.6835 6.11753 11.6703 5.89786 11.6388C5.13505 11.5312 4.67767 11.1387 4.5573 10.5227C4.44446 9.94643 4.71378 9.44135 5.4149 9.01411C6.21382 8.52726 6.60049 7.74895 6.86529 6.75702C6.49517 6.75702 6.19877 6.76364 5.90087 6.75536C4.59642 6.72058 3.62147 5.69885 3.58385 4.32935C3.54474 2.91183 4.46101 1.71953 5.76697 1.69635C8.5504 1.64667 11.3368 1.61355 14.1188 1.71291C16.01 1.7808 17.6138 4.3161 17.155 6.34468C17.0978 6.59804 16.7547 6.83485 16.4975 6.95739C16.1966 7.10146 15.8279 7.06503 15.515 7.18757C14.3836 7.62475 14.048 8.83527 14.6408 9.96796C14.8394 10.3488 14.868 10.8721 14.871 11.3325C14.8755 11.8856 14.9673 12.331 15.2923 12.7964C16.0371 13.8661 16.3259 15.1644 16.5862 16.4594C16.6284 16.6714 16.675 16.8817 16.7412 17.1996C17.2332 16.0537 17.2166 14.9756 16.9895 13.8926C16.8721 13.3329 16.6464 12.798 16.5396 12.2366C16.4674 11.8591 16.4147 11.4103 16.5321 11.0659C17.1188 9.342 18.2397 8.07186 19.5743 7.02032C19.8707 6.78682 19.9941 6.55167 19.9715 6.15755C19.9414 5.64254 19.9745 5.12422 19.961 4.60921C19.9489 4.10745 19.9805 3.66199 20.5071 3.45334C20.6004 3.41691 20.647 3.15195 20.6606 2.98635C20.6967 2.5558 20.6591 2.11365 20.7313 1.69304C20.8998 0.707728 21.6009 0.0486491 22.5067 0.0204974C23.4274 -0.00599822 24.3512 -0.0076542 25.272 0.0204974C26.3102 0.051961 27.0549 0.893198 27.1046 2.04245C27.1151 2.26932 27.1181 2.49784 27.1076 2.72471C27.091 3.10393 27.0895 3.41525 27.5123 3.609C27.6914 3.6918 27.8087 4.11407 27.8313 4.39393C27.8794 4.9669 27.8238 5.55146 27.8599 6.12774C27.8704 6.30493 28.0058 6.56327 28.1442 6.62785C30.5906 7.75391 32.4232 9.65001 33.854 12.0595C33.8946 12.1274 33.9443 12.187 34 12.2665C34.349 11.5246 34.8756 10.834 34.9749 10.0756C35.0833 9.24264 35.5045 8.71438 35.8686 8.09008C35.9514 7.94932 35.9439 7.73404 35.9454 7.55188C35.9544 6.82822 35.9318 6.10456 35.9559 5.38255C35.9995 4.10083 36.7804 3.28277 37.9479 3.26953C38.5497 3.2629 39.1516 3.25628 39.7534 3.27118C40.8382 3.29768 41.6205 4.16044 41.6552 5.35606C41.6657 5.727 41.6822 6.10125 41.6536 6.47053C41.5814 7.42603 41.8387 8.1944 42.3247 9.03564C42.9476 10.1187 43.3237 11.4037 43.6517 12.6523C44.0414 14.1327 44.2851 15.6612 44.5529 17.1764C44.6913 17.9564 44.5589 18.6966 44.0308 19.306C43.9526 19.3971 43.9135 19.5627 43.9135 19.6952C43.9045 20.7252 43.909 21.7569 43.909 22.8962C44.2294 22.8962 44.5198 22.8896 44.8102 22.8978C46.0816 22.9309 46.8399 23.7656 46.8519 25.1549C46.8594 26.0641 46.8639 26.9732 46.8489 27.8823C46.8323 28.962 46.2847 29.7188 45.3172 29.9523C45.0088 30.0268 44.8824 30.1593 44.8388 30.4955C44.3498 34.2976 43.8488 38.0964 43.3523 41.8969C43.3418 41.9747 43.3508 42.0558 43.3508 42.1949C44.7786 42.1949 46.1854 42.1949 47.5921 42.1949C49.3404 42.1949 49.9964 42.9219 49.9964 44.8627C49.9964 45.2552 50.0069 45.6477 49.9919 46.0401C49.9618 46.8184 49.6594 47.4477 49.0305 47.8153C48.713 48.0008 48.6348 48.2161 48.6378 48.587C48.6559 50.3424 48.6694 52.0993 48.6273 53.8547C48.6182 54.214 48.4482 54.7174 48.203 54.8731C48.0119 54.9956 47.5741 54.7208 47.2762 54.5568C47.052 54.4343 46.8714 54.2091 46.6021 53.9673ZM3.37472 30.0533C3.38375 30.2653 3.37773 30.4292 3.39879 30.5898C4.09691 35.9006 4.7875 41.2113 5.50066 46.5187C5.77599 48.5655 6.93751 49.6336 8.81821 49.6352C15.2126 49.6369 21.6069 49.6352 28.0013 49.6352C28.1984 49.6352 28.3955 49.6352 28.6332 49.6352C28.6332 49.1517 28.6588 48.7592 28.6212 48.3734C28.6046 48.2078 28.4873 47.9909 28.3579 47.913C27.6041 47.4527 27.2641 46.7588 27.2851 45.8265C27.2942 45.4142 27.2851 45.0002 27.2866 44.5878C27.2942 42.9915 28.0194 42.1983 29.4788 42.1983C33.4087 42.1966 37.3401 42.1983 41.27 42.1983C41.4896 42.1983 41.7108 42.1983 41.9515 42.1983C42.4857 38.1179 43.0108 34.1055 43.5404 30.055C30.1348 30.0533 16.7878 30.0533 3.37472 30.0533ZM23.4184 28.5348C29.7767 28.5348 36.1334 28.5348 42.4917 28.5348C43.244 28.5348 43.9962 28.5298 44.7485 28.5364C45.2586 28.5414 45.5158 28.2996 45.5038 27.7167C45.4903 27.0146 45.5008 26.3125 45.5008 25.6103C45.5008 24.4545 45.4376 24.3849 44.3844 24.3849C30.4086 24.3849 16.4328 24.3849 2.45694 24.3849C2.38171 24.3849 2.30649 24.3832 2.23126 24.3849C1.52261 24.3965 1.36162 24.5671 1.35711 25.3271C1.3526 26.0293 1.35561 26.7314 1.35561 27.4336C1.35711 28.4006 1.47898 28.5348 2.36817 28.5348C9.38693 28.5364 16.4027 28.5348 23.4184 28.5348ZM18.0201 12.4602C18.8506 14.7819 18.4714 16.938 17.5898 19.056C17.1339 20.1522 17.0451 21.3197 17.1595 22.507C17.1715 22.6378 17.2753 22.7587 17.337 22.8829C17.4303 22.7637 17.5928 22.6527 17.6048 22.5236C17.8726 19.8591 18.8085 17.4265 19.7548 14.9972C20.0362 14.2735 20.322 14.0698 20.981 14.3762C21.8055 14.7604 22.6345 15.1843 23.3658 15.7424C25.6241 17.4662 27.3197 19.7862 28.7957 22.2984C29.1523 22.9061 29.5555 22.974 30.1498 22.8349C30.0731 22.6809 30.0144 22.56 29.9527 22.4391C29.5089 21.578 29.0214 20.7401 28.6287 19.8525C27.6959 17.7411 27.4672 15.5171 27.8855 13.217C28.1051 12.0065 29.044 11.5594 30.0054 12.1638C31.0751 12.8345 31.8981 13.7717 32.3058 15.0319C32.7166 16.307 33.0521 17.6269 33.2733 18.9566C33.4839 20.2251 33.5035 21.5316 33.6103 22.8498C33.9699 22.8498 34.349 22.8498 34.7688 22.8498C34.7101 20.755 34.501 18.733 34.0752 16.7409C33.2988 13.0994 31.534 10.2544 28.4963 8.45108C27.5274 7.87646 26.5148 7.50386 25.3759 7.58335C24.4205 7.64959 23.45 7.68436 22.5021 7.57341C21.4234 7.44921 20.6215 7.91454 19.8632 8.64649C19.1861 9.29894 18.5512 9.98286 18.0833 10.9483C18.9303 10.9483 19.7007 10.8837 20.459 10.9599C22.9475 11.2099 25.0388 12.3343 26.6081 14.5169C26.9481 14.9905 26.927 15.4062 26.5539 15.7026C26.1627 16.0139 25.8362 15.8185 25.576 15.4675C23.6411 12.8543 21.0563 12.1837 18.0201 12.4602ZM34.6349 53.2155C35.2307 52.9389 35.3736 52.4603 35.3119 51.8427C35.2773 51.4966 35.3104 51.1405 35.3059 50.7895C35.2999 50.3009 35.4955 49.9664 35.9499 49.9532C36.4358 49.9399 36.6465 50.2943 36.657 50.7977C36.666 51.2316 36.6916 51.6688 36.6525 52.0977C36.5938 52.7286 36.9068 53.0168 37.2769 53.1873C37.9239 52.9555 37.9885 52.4736 37.957 51.9155C37.9329 51.5048 37.9344 51.0875 37.963 50.6769C37.9946 50.2264 38.2323 49.9333 38.6566 49.9499C39.0778 49.9648 39.2975 50.2546 39.302 50.7216C39.3065 51.114 39.3396 51.5115 39.2975 51.8973C39.2268 52.5398 39.445 52.9654 39.9746 53.2088C40.4891 52.9704 40.7013 52.563 40.6351 51.9437C40.5929 51.5363 40.62 51.119 40.6305 50.705C40.6426 50.2397 40.8743 49.9565 41.2926 49.9499C41.7138 49.9433 41.95 50.2297 41.9726 50.6884C41.9922 51.1008 42.0147 51.5181 41.9711 51.9271C41.9034 52.5696 42.1321 52.9787 42.6361 53.2055C43.1868 52.9522 43.3523 52.5084 43.2966 51.9056C43.262 51.5164 43.2876 51.1207 43.2951 50.7298C43.3041 50.2711 43.5103 49.9648 43.9361 49.9515C44.3919 49.935 44.6176 50.2513 44.6372 50.7315C44.6537 51.1438 44.6823 51.5628 44.6357 51.9702C44.565 52.6061 44.8298 52.9754 45.3097 53.2188C45.9416 52.8942 46.3193 51.788 47.2431 52.5564C47.2431 51.0528 47.2431 49.6021 47.2431 48.1763C41.4686 48.1763 35.7422 48.1763 30.0099 48.1763C30.0099 49.6419 30.0099 51.061 30.0099 52.5431C30.9563 51.8658 31.361 52.8975 31.9568 53.2055C32.518 52.9787 32.6805 52.5365 32.6263 51.9304C32.5902 51.5214 32.6052 51.1041 32.6263 50.6918C32.6504 50.2364 32.8866 49.9466 33.3079 49.9515C33.7261 49.9582 33.9578 50.2397 33.9699 50.7067C33.9789 51.0991 34.0135 51.4982 33.9654 51.8824C33.8901 52.5266 34.1113 52.9489 34.6349 53.2155ZM38.6551 43.6837C35.6098 43.6837 32.5646 43.682 29.5194 43.6837C28.7581 43.6837 28.6453 43.8128 28.6392 44.6574C28.6377 44.967 28.6377 45.2767 28.6392 45.5864C28.6422 46.5237 28.7506 46.6412 29.6262 46.6412C35.6414 46.6412 41.6552 46.6412 47.6704 46.6412C47.7832 46.6412 47.8961 46.6462 48.0089 46.6379C48.4076 46.6081 48.6348 46.3846 48.6423 45.9325C48.6483 45.5201 48.6453 45.1061 48.6453 44.6938C48.6423 43.8344 48.5084 43.682 47.7336 43.682C44.7079 43.682 41.6822 43.6837 38.6551 43.6837ZM35.8521 18.5095C38.0698 18.5095 40.289 18.5178 42.5067 18.5029C43.0077 18.4996 43.2605 18.1684 43.2289 17.6169C43.2079 17.246 43.1672 16.8767 43.1191 16.5091C42.8633 14.555 42.3894 12.6771 41.4942 10.945C41.264 10.4979 41.0067 10.2578 40.4816 10.2842C39.299 10.3422 38.1119 10.2842 36.9278 10.319C36.7127 10.3256 36.3907 10.4929 36.3095 10.685C35.819 11.8376 35.3796 13.0183 34.9388 14.1957C34.8892 14.3298 34.9208 14.5169 34.9554 14.6693C35.2442 15.9278 35.5421 17.1847 35.8521 18.5095ZM15.7693 22.8647C15.7798 22.719 15.8039 22.5981 15.7948 22.4805C15.6609 20.8395 15.6113 19.1802 15.3555 17.5623C15.1629 16.3402 14.7236 15.1628 14.352 13.9804C14.185 13.4472 13.8178 13.2236 13.2551 13.2518C12.1493 13.3064 11.0374 13.2484 9.93007 13.2849C9.71041 13.2915 9.41401 13.4422 9.28913 13.6326C7.6928 16.0868 6.27099 18.6569 5.13355 21.4075C4.94247 21.8695 4.77396 22.3414 4.57686 22.8597C4.81007 22.8763 4.96052 22.868 5.10496 22.8995C5.78652 23.0485 6.13709 22.7107 6.43047 22.04C7.10301 20.4983 7.86131 19.0013 8.58199 17.4844C8.96716 16.6747 9.56597 16.2706 10.4025 16.2822C11.06 16.2921 11.7175 16.2805 12.375 16.2855C13.6057 16.2954 14.3459 17.0853 14.3595 18.4283C14.3715 19.6869 14.361 20.9454 14.364 22.2056C14.364 22.4209 14.3836 22.6378 14.3941 22.8664C14.8891 22.8647 15.3149 22.8647 15.7693 22.8647ZM18.9469 22.8432C21.8401 22.8432 24.6431 22.8432 27.4747 22.8432C25.7309 19.7034 22.7278 16.5223 20.8592 15.9444C20.0226 18.1601 19.1665 20.3708 18.9469 22.8432ZM12.9888 9.31053C12.9302 7.11139 13.9909 5.97871 15.7813 5.55312C15.8204 4.29292 14.8816 3.1801 13.7652 3.17017C11.8093 3.15361 9.85334 3.1652 7.89742 3.16851C7.79059 3.16851 7.68377 3.2066 7.56341 3.22813C7.56341 3.91205 7.56341 4.56781 7.56341 5.25339C9.62164 5.66407 10.2475 7.26374 10.3107 9.30888C11.212 9.31053 12.0696 9.31053 12.9888 9.31053ZM13.0024 22.8697C13.0024 21.3097 13.0219 19.8078 12.9768 18.3091C12.9708 18.1236 12.6383 17.8173 12.4367 17.7958C11.8048 17.7279 11.1623 17.7908 10.5244 17.7626C10.1347 17.7461 9.89396 17.9034 9.72244 18.2843C9.39897 19.0046 9.0469 19.7084 8.70837 20.4205C8.33073 21.217 7.95459 22.0135 7.54986 22.868C9.39746 22.8697 11.1578 22.8697 13.0024 22.8697ZM42.5158 22.8647C42.5158 21.9009 42.5158 20.967 42.5158 20.0413C40.3221 20.0413 38.1691 20.0413 36.0131 20.0413C36.0627 21.005 36.1094 21.9258 36.159 22.8962C38.133 22.8962 40.0663 22.8962 42.0012 22.8945C42.1652 22.8945 42.3292 22.8763 42.5158 22.8647ZM29.4427 13.3329C28.4737 16.0321 30.3454 22.2023 32.1855 22.8664C32.1298 20.1771 32.026 17.5258 30.8374 15.1214C30.5034 14.4474 29.9151 13.9241 29.4427 13.3329ZM40.3086 8.79056C40.3086 7.64959 40.3056 6.57983 40.3101 5.51006C40.3131 4.99671 40.0934 4.74831 39.624 4.75328C39.0793 4.75991 38.5332 4.75991 37.9885 4.75328C37.5477 4.74831 37.316 4.98015 37.313 5.46038C37.307 6.56492 37.3115 7.6678 37.3115 8.79056C38.3196 8.79056 39.3306 8.79056 40.3086 8.79056ZM22.0297 3.39869C23.2966 3.39869 24.5032 3.39869 25.7565 3.39869C25.7565 2.96648 25.758 2.57733 25.7565 2.18983C25.755 1.73609 25.5474 1.5026 25.1321 1.5026C24.3061 1.50094 23.4801 1.5026 22.6541 1.5026C22.2644 1.5026 22.0583 1.73775 22.0357 2.14512C22.0132 2.55083 22.0297 2.95986 22.0297 3.39869ZM21.3497 6.05819C23.0724 6.05819 24.7665 6.05819 26.4516 6.05819C26.4516 5.66738 26.4516 5.32956 26.4516 4.97353C24.7259 4.97353 23.0453 4.97353 21.3497 4.97353C21.3497 5.35606 21.3497 5.69885 21.3497 6.05819ZM13.5109 10.8605C12.2787 10.8605 11.0705 10.8605 9.84431 10.8605C9.84431 11.1669 9.84431 11.4434 9.84431 11.7299C11.0856 11.7299 12.2922 11.7299 13.5109 11.7299C13.5109 11.4186 13.5109 11.1569 13.5109 10.8605ZM6.16116 3.19997C5.6451 3.12711 5.22833 3.26787 5.07938 3.73651C4.97707 4.05943 5.00265 4.51317 5.13505 4.82449C5.31409 5.24345 5.71731 5.34778 6.16116 5.21364C6.16116 4.54628 6.16116 3.89549 6.16116 3.19997ZM6.74944 10.011C7.42198 9.75268 7.98017 9.15322 8.47216 8.4693C8.87387 7.90958 8.80918 7.62972 8.29612 7.29355C7.76652 8.22256 7.23842 9.15156 6.74944 10.011Z" fill="#82D051"/>
</svg>
