<svg width="224" height="39" viewBox="0 0 224 39" fill="none" xmlns="http://www.w3.org/2000/svg">
<rect width="31" height="1" transform="matrix(1 0 0 -1 49.9922 20)" fill="#EDEDED"/>
<rect width="31" height="1" transform="matrix(1 0 0 -1 142.992 20)" fill="#EDEDED"/>
<circle cx="204.492" cy="19.5" r="18.5" stroke="#82D051" stroke-opacity="0.9" stroke-width="2"/>
<path d="M203.773 8H205.211C205.268 8.0115 205.326 8.02759 205.383 8.03679C205.907 8.11495 206.439 8.16324 206.956 8.26669C209.331 8.78705 211.48 10.0465 213.095 11.864C214.709 13.6816 215.705 15.9637 215.941 18.3827C216.138 20.6519 215.777 22.8245 214.673 24.8202C212.52 28.7263 209.185 30.807 204.723 30.9909C202.369 31.0874 200.047 30.4125 198.112 29.0689C196.812 28.2151 195.701 27.1023 194.851 25.8C194 24.4976 193.428 23.0339 193.169 21.5003C193.091 21.0749 193.05 20.645 192.992 20.2151V18.7781C193.006 18.7138 193.022 18.6494 193.031 18.5827C193.109 18.0585 193.16 17.5274 193.261 17.0101C194.191 12.5522 197.995 8.91964 202.489 8.17933C202.915 8.11036 203.343 8.05978 203.773 8ZM211.191 11.874C209.511 10.4039 207.394 9.5273 205.167 9.37946C205.167 9.7749 205.167 10.1474 205.167 10.529C205.172 10.6381 205.15 10.7467 205.103 10.8453C205.056 10.944 204.985 11.0295 204.898 11.0946C204.805 11.1716 204.691 11.2201 204.571 11.2344C204.451 11.2487 204.33 11.2281 204.221 11.175C204.102 11.1267 204 11.0436 203.929 10.9366C203.858 10.8296 203.82 10.7036 203.821 10.575C203.821 10.1887 203.821 9.80019 203.821 9.38635C201.593 9.53241 199.476 10.4074 197.795 11.8763C198.041 12.1062 198.255 12.3223 198.485 12.5384C198.578 12.6213 198.645 12.7287 198.679 12.8484C198.714 12.9681 198.713 13.0949 198.678 13.2143C198.648 13.3293 198.588 13.4342 198.503 13.518C198.419 13.6018 198.314 13.6616 198.199 13.6912C198.083 13.7207 197.962 13.7189 197.848 13.686C197.734 13.6531 197.631 13.5903 197.549 13.504C197.319 13.2741 197.103 13.0442 196.882 12.8143C195.573 14.0581 194.285 17.1826 194.393 18.8172H195.509C195.625 18.8127 195.741 18.8389 195.845 18.8934C195.948 18.9479 196.035 19.0287 196.097 19.1276C196.17 19.2266 196.212 19.3447 196.218 19.4673C196.224 19.5899 196.194 19.7116 196.132 19.8173C196.074 19.928 195.987 20.02 195.879 20.0823C195.771 20.1446 195.647 20.1747 195.522 20.1691C195.143 20.1691 194.763 20.1691 194.358 20.1691C194.509 22.3925 195.387 24.5046 196.859 26.1789C197.089 25.949 197.319 25.7191 197.53 25.503C197.59 25.433 197.664 25.3761 197.746 25.3356C197.829 25.2951 197.919 25.272 198.011 25.2677C198.103 25.2633 198.195 25.2779 198.281 25.3104C198.367 25.3429 198.446 25.3928 198.512 25.4568C198.578 25.5208 198.63 25.5977 198.665 25.6827C198.701 25.7677 198.718 25.8591 198.717 25.9511C198.715 26.0431 198.695 26.1338 198.657 26.2177C198.619 26.3016 198.564 26.3768 198.496 26.4387C198.278 26.6686 198.036 26.8824 197.793 27.117C199.473 28.5864 201.591 29.4629 203.819 29.6115C203.819 29.2137 203.819 28.8413 203.819 28.4619C203.814 28.3703 203.827 28.2786 203.858 28.1923C203.89 28.1061 203.938 28.0271 204.001 27.9604C204.064 27.8936 204.14 27.8404 204.225 27.8041C204.309 27.7677 204.4 27.7489 204.492 27.7489C204.584 27.7489 204.674 27.7677 204.759 27.8041C204.843 27.8404 204.919 27.8936 204.982 27.9604C205.045 28.0271 205.094 28.1061 205.125 28.1923C205.156 28.2786 205.17 28.3703 205.165 28.4619C205.165 28.8413 205.165 29.2206 205.165 29.5977C206.846 29.6919 210.338 28.2343 211.145 27.117C211.146 27.1108 211.146 27.1047 211.145 27.0986C210.94 26.8916 210.722 26.6939 210.535 26.4709C210.424 26.3431 210.345 26.19 210.305 26.0249C210.283 25.8903 210.306 25.7522 210.371 25.6321C210.435 25.5119 210.537 25.4164 210.662 25.3604C210.785 25.2948 210.927 25.2708 211.065 25.2919C211.204 25.313 211.332 25.3782 211.43 25.4777C211.66 25.7076 211.89 25.9375 212.104 26.1835C213.415 24.942 214.71 21.8152 214.602 20.1737H213.187C212.647 20.1737 212.332 19.93 212.323 19.5116C212.313 19.0931 212.64 18.8218 213.19 18.8218H214.613C214.465 16.5956 213.587 14.4803 212.116 12.8028C211.886 13.0327 211.683 13.2626 211.469 13.4741C211.408 13.5433 211.334 13.5992 211.25 13.6384C211.167 13.6777 211.076 13.6994 210.984 13.7022C210.892 13.7051 210.801 13.6891 210.715 13.6551C210.629 13.6211 210.551 13.5699 210.486 13.5047C210.421 13.4395 210.37 13.3616 210.336 13.2759C210.303 13.1902 210.287 13.0984 210.29 13.0064C210.293 12.9143 210.315 12.8238 210.354 12.7406C210.394 12.6573 210.45 12.583 210.519 12.5223C210.729 12.3108 210.949 12.1062 211.191 11.874Z" fill="#82D051"/>
<path d="M205.163 18.8252H208.663C208.758 18.814 208.855 18.8232 208.946 18.8519C209.038 18.8807 209.122 18.9285 209.193 18.9921C209.265 19.0557 209.322 19.1338 209.361 19.2211C209.401 19.3084 209.421 19.4031 209.421 19.4988C209.421 19.5945 209.401 19.6891 209.361 19.7765C209.322 19.8638 209.265 19.9419 209.193 20.0055C209.122 20.0691 209.038 20.1169 208.946 20.1457C208.855 20.1744 208.758 20.1836 208.663 20.1724H204.553C204.454 20.1797 204.354 20.1654 204.261 20.1306C204.168 20.0958 204.083 20.0413 204.013 19.9707C203.943 19.9002 203.889 19.8153 203.855 19.722C203.82 19.6286 203.807 19.5289 203.815 19.4298C203.815 17.3959 203.815 15.3612 203.815 13.3257C203.815 12.8659 204.088 12.5716 204.505 12.5762C204.921 12.5808 205.172 12.8774 205.172 13.3395C205.172 15.0746 205.172 16.8104 205.172 18.547L205.163 18.8252Z" fill="#82D051"/>
<path d="M131.019 19.5C131.019 29.6929 122.531 38 112.005 38C101.48 38 92.9922 29.6929 92.9922 19.5C92.9922 9.30706 101.48 1 112.005 1C122.531 1 131.019 9.30706 131.019 19.5Z" stroke="#82D051" stroke-opacity="0.9" stroke-width="2"/>
<path d="M100.992 16.1667C101.124 15.8453 101.207 15.4936 101.397 15.2097C101.803 14.6062 102.42 14.3684 103.136 14.3684C106.389 14.3684 109.643 14.3684 112.896 14.3684H113.177C113.212 14.0677 113.239 13.7732 113.282 13.481C113.613 11.2625 115.464 9.41479 117.708 9.06813C120.391 8.65304 122.896 10.1659 123.71 12.7529C124.271 14.5428 123.947 16.2087 122.802 17.7014C122.68 17.8494 122.616 18.0361 122.62 18.2276C122.625 21.6148 122.626 25.0021 122.623 28.3893C122.623 29.2565 122.27 29.9325 121.473 30.3088C121.183 30.4436 120.867 30.5148 120.546 30.5175C114.721 30.5295 108.896 30.5317 103.071 30.5243C102.005 30.5243 101.22 29.855 101.026 28.8145C101.017 28.7858 101.006 28.7581 100.992 28.7315C100.992 24.5433 100.992 20.355 100.992 16.1667ZM113.361 15.7179H103.19C102.573 15.7179 102.338 15.9552 102.338 16.5723C102.338 20.4909 102.338 24.4096 102.338 28.3282C102.338 28.9452 102.574 29.1802 103.192 29.1802H120.422C121.039 29.1802 121.275 28.9452 121.275 28.3276C121.275 25.3214 121.275 22.3151 121.275 19.3085V19.0347C119.709 19.8845 118.117 20.0068 116.502 19.3275C114.888 18.6482 113.866 17.4136 113.361 15.7179ZM122.621 14.379C122.627 12.1605 120.812 10.3403 118.59 10.3336C116.369 10.3269 114.552 12.1431 114.545 14.3645C114.538 16.5857 116.354 18.4031 118.576 18.4099C120.797 18.4166 122.615 16.6003 122.621 14.379Z" fill="#82D051"/>
<path d="M105.16 23.0231C104.006 21.8131 104.187 20.1332 105.175 19.1767C105.662 18.7027 106.311 18.4305 106.991 18.4148C107.67 18.3991 108.331 18.641 108.839 19.0921C109.862 20.0036 110.161 21.7357 108.959 23.0146C109.164 23.2087 109.385 23.3888 109.572 23.5991C110.133 24.2274 110.403 24.9723 110.414 25.8109C110.42 26.2445 110.419 26.6781 110.414 27.1117C110.409 27.5453 110.137 27.8319 109.701 27.8325C107.937 27.8358 106.172 27.8358 104.408 27.8325C103.967 27.8325 103.685 27.5565 103.686 27.1212C103.686 26.5311 103.667 25.9365 103.731 25.3521C103.829 24.4495 104.28 23.7254 104.993 23.1594C105.047 23.119 105.097 23.0753 105.16 23.0231ZM105.039 26.4717H109.085C109.068 26.1351 109.069 25.8137 109.029 25.4962C108.937 24.7109 108.264 24.0035 107.471 23.8426C106.63 23.6715 105.747 24.063 105.328 24.7653C105.012 25.2976 105.019 25.8732 105.039 26.4717ZM108.398 21.1108C108.4 20.8442 108.322 20.583 108.175 20.3603C108.029 20.1377 107.819 19.9637 107.573 19.8603C107.327 19.757 107.056 19.7289 106.795 19.7798C106.533 19.8307 106.292 19.9581 106.103 20.146C105.914 20.3339 105.785 20.5738 105.732 20.8351C105.679 21.0965 105.705 21.3677 105.807 21.6143C105.908 21.8608 106.081 22.0716 106.303 22.22C106.524 22.3683 106.785 22.4476 107.051 22.4476C107.406 22.445 107.746 22.3036 107.997 22.0537C108.249 21.8039 108.393 21.4654 108.398 21.1108Z" fill="#82D051"/>
<path d="M116.581 25.1406C115.691 25.1406 114.801 25.1445 113.911 25.1406C113.388 25.1355 113.052 24.6543 113.256 24.1999C113.386 23.9099 113.628 23.7899 113.942 23.791C115.064 23.7938 116.186 23.791 117.308 23.791C117.929 23.791 118.549 23.791 119.17 23.791C119.625 23.791 119.93 24.0681 119.927 24.4681C119.925 24.868 119.62 25.1355 119.162 25.1361C118.301 25.1402 117.441 25.1417 116.581 25.1406Z" fill="#82D051"/>
<path d="M116.547 27.8323C115.665 27.8323 114.782 27.8373 113.9 27.8323C113.389 27.8284 113.059 27.356 113.251 26.9073C113.363 26.6425 113.574 26.4922 113.862 26.4916C115.664 26.4872 117.466 26.4872 119.268 26.4916C119.356 26.4921 119.444 26.5102 119.525 26.5449C119.606 26.5796 119.679 26.6302 119.74 26.6937C119.802 26.7571 119.85 26.8322 119.881 26.9144C119.913 26.9966 119.928 27.0844 119.926 27.1726C119.924 27.2608 119.905 27.3479 119.869 27.4287C119.834 27.5096 119.783 27.5825 119.719 27.6435C119.655 27.7044 119.58 27.7522 119.497 27.7839C119.415 27.8156 119.327 27.8307 119.239 27.8284C118.342 27.8368 117.445 27.8323 116.547 27.8323Z" fill="#82D051"/>
<path d="M114.542 21.7767C114.542 21.9098 114.502 22.0399 114.428 22.1506C114.354 22.2613 114.249 22.3476 114.126 22.3985C114.003 22.4494 113.868 22.4628 113.737 22.4368C113.607 22.4108 113.487 22.3468 113.392 22.2526C113.298 22.1585 113.234 22.0385 113.208 21.9079C113.182 21.7774 113.196 21.642 113.247 21.5191C113.298 21.3961 113.384 21.2909 113.494 21.217C113.605 21.143 113.735 21.1035 113.868 21.1035C114.047 21.1047 114.217 21.176 114.343 21.302C114.469 21.428 114.54 21.5985 114.542 21.7767Z" fill="#82D051"/>
<path d="M116.595 21.106C116.728 21.1122 116.856 21.1577 116.964 21.2369C117.071 21.3161 117.152 21.4253 117.197 21.5507C117.242 21.6761 117.249 21.8121 117.217 21.9414C117.185 22.0707 117.115 22.1875 117.016 22.2771C116.917 22.3666 116.794 22.4248 116.662 22.4443C116.53 22.4638 116.396 22.4437 116.275 22.3866C116.155 22.3294 116.054 22.2379 115.986 22.1234C115.917 22.009 115.885 21.8769 115.892 21.7438C115.902 21.5665 115.981 21.4004 116.113 21.2811C116.244 21.1618 116.417 21.0989 116.595 21.106Z" fill="#82D051"/>
<path d="M119.924 21.7826C119.924 21.9158 119.883 22.0459 119.808 22.1562C119.734 22.2665 119.628 22.3521 119.504 22.4022C119.381 22.4524 119.245 22.4647 119.115 22.4377C118.984 22.4107 118.865 22.3456 118.771 22.2506C118.678 22.1555 118.615 22.0349 118.59 21.904C118.565 21.773 118.58 21.6376 118.632 21.515C118.684 21.3924 118.771 21.288 118.883 21.2151C118.995 21.1422 119.125 21.104 119.259 21.1055C119.436 21.1086 119.605 21.1813 119.73 21.3079C119.854 21.4345 119.924 21.6049 119.924 21.7826Z" fill="#82D051"/>
<path d="M117.913 14.7977C118.152 14.5442 118.358 14.3187 118.572 14.1021C119.077 13.5922 119.582 13.0824 120.095 12.5815C120.501 12.1854 121.108 12.3363 121.249 12.8619C121.281 12.9741 121.281 13.0929 121.25 13.2053C121.219 13.3177 121.157 13.4192 121.071 13.4986C120.174 14.3998 119.275 15.2973 118.374 16.191C118.094 16.4682 117.715 16.4614 117.429 16.1854C116.978 15.7505 116.535 15.3074 116.099 14.856C115.815 14.5632 115.819 14.1588 116.092 13.8929C116.365 13.627 116.756 13.6343 117.056 13.9159C117.198 14.0488 117.337 14.188 117.47 14.3271C117.603 14.4662 117.735 14.6081 117.913 14.7977Z" fill="#82D051"/>
<circle cx="19.5" cy="19.5" r="19.5" fill="#82D051"/>
<circle cx="19.5" cy="19.5" r="18" stroke="#82D051" stroke-opacity="0.9" stroke-width="3"/>
<g clip-path="url(#clip0_6499_33164)">
<path d="M27.1487 31.5599L27.1487 31.5598L27.1443 31.5615C24.668 32.5521 22.0886 32.8508 19.6 32.8508C17.113 32.8508 14.8295 32.5525 12.4474 31.7585C11.2584 31.3622 10.181 30.871 9.20328 29.992C8.52951 29.3171 8.15196 28.5566 8.15001 27.6082C8.24996 26.6088 8.34921 25.6255 8.64367 24.6439L8.64376 24.6439L8.64506 24.639C9.13733 22.7684 10.122 21.191 11.5061 19.8069C11.7915 19.5215 12.122 19.3795 12.4329 19.535L12.4646 19.5508H12.5C12.6515 19.5508 12.7948 19.6258 12.8658 19.7679L12.8767 19.7897L12.8939 19.8069C12.9677 19.8806 13.05 20.0432 13.05 20.2008V20.2193L13.0545 20.2372C13.134 20.5552 12.9867 20.802 12.6939 21.0948C10.9655 22.8232 10.1532 24.8578 9.95056 27.1878L9.95 27.1878V27.2008C9.95 27.5645 10.0019 27.8886 10.1396 28.1778C10.2781 28.4686 10.4981 28.7132 10.8168 28.9256C11.427 29.3324 12.0359 29.6365 12.7409 29.9387L12.7409 29.9388L12.7456 29.9406C14.5683 30.6494 16.3876 30.8504 18.2921 30.9506L18.2921 30.9506L18.2944 30.9507C21.0043 31.0511 23.7256 30.851 26.2508 29.942L26.2527 29.9413L26.2673 29.9358C27.057 29.6397 27.883 29.3299 28.5061 28.7069L28.52 28.693C28.8071 28.406 29.1568 28.0566 29.05 27.4864C29.05 27.1907 29.0489 26.7828 28.9473 26.3715C28.6416 24.3433 27.7276 22.5163 26.3061 21.0948C25.9646 20.7533 25.9646 20.1483 26.3061 19.8069C26.645 19.468 27.2406 19.4666 27.5829 19.8945L27.5881 19.901L27.5939 19.9069C29.6646 21.9775 30.7507 24.6396 30.85 27.6033C30.8494 28.4677 30.5618 29.2269 29.9939 29.7948L29.9938 29.7946L29.9879 29.8012C29.212 30.674 28.2392 31.1633 27.1487 31.5599Z" fill="white" stroke="#82D051" stroke-width="0.3"/>
<path d="M26.0651 15.9329L26.0649 15.9328L26.0621 15.9391C25.6678 16.8264 25.1773 17.6098 24.4932 18.2939C23.8107 18.9764 23.0295 19.4661 22.1449 19.86C21.2571 20.1554 20.3757 20.35 19.3992 20.35C15.5821 20.35 12.3492 17.1172 12.3492 13.3C12.3492 9.28284 15.4821 6.15 19.4992 6.15C23.4137 6.15 26.5492 9.38014 26.5492 13.3C26.5492 14.1935 26.4491 15.1648 26.0651 15.9329ZM14.555 15.3412L14.5588 15.3546L14.5651 15.3671C14.8697 15.9764 15.2783 16.5912 15.6932 17.0061C16.2104 17.5233 16.8289 17.8326 17.4231 18.1297L17.4321 18.1342C18.061 18.4486 18.787 18.55 19.4992 18.55C22.4821 18.55 24.8492 16.1828 24.8492 13.2C24.8492 10.3134 22.3783 7.95 19.4992 7.95C18.7906 7.95 18.0683 8.05039 17.4417 8.36108C16.8185 8.57102 16.2031 8.98394 15.6932 9.49393L15.6873 9.49981L15.6821 9.5063C15.2766 10.0131 14.8705 10.622 14.5651 11.2329C14.2506 11.8618 14.1492 12.5878 14.1492 13.3C14.1492 13.9439 14.3131 14.5076 14.4879 15.109C14.5102 15.1857 14.5327 15.263 14.555 15.3412Z" fill="white" stroke="#82D051" stroke-width="0.3"/>
</g>
<defs>
<clipPath id="clip0_6499_33164">
<rect width="23" height="27" fill="white" transform="translate(8 6)"/>
</clipPath>
</defs>
</svg>
