<svg width="180" height="180" viewBox="0 0 180 180" fill="none" xmlns="http://www.w3.org/2000/svg">
<g filter="url(#filter0_d_4623_28627)">
<path d="M90 156C128.66 156 160 124.66 160 86C160 47.3401 128.66 16 90 16C51.3401 16 20 47.3401 20 86C20 124.66 51.3401 156 90 156Z" fill="#FFC700"/>
<path d="M159 86C159 124.108 128.108 155 90 155C51.8924 155 21 124.108 21 86C21 47.8923 51.8924 17 90 17C128.108 17 159 47.8923 159 86Z" stroke="white" stroke-width="2"/>
</g>
<mask id="path-3-inside-1_4623_28627" fill="white">
<path d="M69.4815 125.995C67.6621 125.548 66.3355 124.308 65.1102 122.879C64.311 121.946 63.4404 121.085 62.6205 120.172C61.8375 119.304 61.7891 118.205 62.4662 117.436C63.171 116.635 64.2281 116.655 65.0595 117.53C66.2318 118.763 67.3719 120.034 68.5396 121.272C69.7902 122.596 71.0362 122.589 72.2983 121.254C73.1412 120.366 73.968 119.46 74.7995 118.56C76.1491 117.091 76.1191 115.915 74.7672 114.447C71.6718 111.083 68.6041 107.689 65.5087 104.325C62.7956 101.375 60.0664 98.4477 57.3349 95.5178C56.9295 95.0837 56.4988 94.6694 56.0497 94.2898C55.3634 93.7093 54.1381 93.7589 53.4126 94.4883C52.2565 95.6493 51.1256 96.8451 50.057 98.0979C49.1772 99.1324 49.297 100.499 50.2896 101.601C51.4918 102.933 52.7286 104.231 53.9401 105.553C54.4974 106.161 54.6632 106.883 54.327 107.684C54.0091 108.446 53.4242 108.847 52.6756 108.748C52.2542 108.691 51.782 108.453 51.4734 108.135C50.1399 106.768 48.8271 105.377 47.5673 103.933C45.4876 101.546 45.4761 97.897 47.542 95.493C48.636 94.2204 49.7691 92.9824 50.9575 91.8139C52.6204 90.1791 54.5757 89.7896 56.736 90.4668C57.0147 90.5537 57.4707 90.5735 57.6389 90.3949C59.4653 88.4747 61.2525 86.5074 63.0489 84.555C59.6057 80.6873 60.9508 75.2543 65.0572 73.4284C62.8485 69.3275 64.6749 64.6685 68.7975 63.4058C68.1895 59.3322 69.6911 56.5834 73.2287 55.2587C73.2748 54.1175 73.1711 52.9812 73.3922 51.9244C74.1339 48.3917 77.3145 46.3599 80.654 47.1215C80.981 47.1959 81.4325 47.0967 81.7042 46.8908C83.2151 45.7521 84.8733 45.9158 86.5224 46.2358C90.2488 46.9627 93.9638 47.764 97.6902 48.5008C98.3904 48.6398 99.1274 48.5554 99.8298 48.6844C103.289 49.3096 105.406 52.5198 104.855 56.2485C104.828 56.4321 104.818 56.6182 104.791 56.8861C106.408 57.3773 107.748 58.32 108.635 59.9078C109.526 61.5005 109.683 63.2172 109.307 64.996C112.981 66.3232 114.503 69.2556 113.907 73.2522C116.194 73.9543 117.787 75.49 118.391 78.013C118.99 80.5062 118.271 82.6547 116.567 84.5302C118.001 86.0782 119.399 87.5841 120.795 89.0875C120.938 89.2413 121.101 89.3777 121.219 89.5514C121.843 90.4644 122.49 90.6851 123.598 90.2733C125.544 89.5514 127.424 90.0749 128.96 91.5832C130.169 92.7715 131.334 94.0219 132.44 95.3219C134.533 97.7853 134.536 101.447 132.352 103.826C126.125 110.611 119.865 117.362 113.573 124.077C111.297 126.506 107.808 126.422 105.496 124.015C104.461 122.939 103.437 121.852 102.446 120.728C100.693 118.739 100.251 116.431 101.193 113.874C101.38 113.368 101.274 113.102 100.954 112.762C98.8694 110.539 96.8058 108.294 94.7169 106.074C94.5165 105.86 94.1941 105.669 93.9223 105.657C92.0867 105.575 90.2511 105.538 88.4155 105.501C87.7568 105.486 87.0705 105.394 86.4418 105.545C85.8038 105.699 85.0944 105.97 84.6338 106.439C82.6715 108.441 80.7991 110.542 78.8714 112.586C78.5144 112.966 78.443 113.239 78.6756 113.764C79.7558 116.206 79.3435 118.848 77.607 120.815C76.5959 121.959 75.6194 123.167 74.477 124.139C73.5581 124.921 72.4134 125.392 71.3678 126C70.746 125.995 70.1149 125.995 69.4815 125.995ZM114.045 87.2566C113.623 87.6908 113.232 88.1497 112.785 88.5343C111.958 89.2463 110.869 89.0627 110.286 88.1621C109.775 87.3732 109.874 86.4379 110.599 85.6391C111.866 84.2449 113.181 82.9003 114.422 81.4787C115.397 80.3648 115.344 78.7275 114.397 77.6979C113.432 76.6485 111.972 76.584 110.892 77.5788C110.392 78.0403 109.947 78.5761 109.473 79.0698C108.568 80.015 107.561 80.0944 106.813 79.2857C106.087 78.4992 106.168 77.363 107.034 76.4128C107.981 75.3734 108.966 74.3761 109.881 73.3043C110.832 72.1855 110.786 70.5481 109.848 69.5186C108.867 68.4419 107.37 68.4022 106.281 69.459C105.747 69.975 105.258 70.5481 104.745 71.0889C103.823 72.0639 102.757 72.1557 102.02 71.3321C101.299 70.5258 101.389 69.4317 102.271 68.4617C103.298 67.3354 104.369 66.2513 105.357 65.0853C106.338 63.9267 106.244 62.272 105.228 61.2425C104.24 60.2452 102.762 60.2551 101.718 61.2946C101.17 61.8403 100.666 62.4382 100.127 62.9964C99.2748 63.8771 98.243 63.9466 97.5221 63.1874C96.7759 62.401 96.8381 61.2573 97.6994 60.3146C98.6875 59.233 99.6916 58.1687 100.687 57.0945C101.29 56.442 101.592 55.6581 101.47 54.7377C101.331 53.6709 100.793 52.8994 99.8529 52.5148C98.8395 52.103 97.9113 52.3437 97.149 53.145C95.6658 54.7005 94.2286 56.3081 92.7431 57.8611C92.3424 58.2803 92.2433 58.5805 92.5036 59.1908C94.0029 62.7086 92.3331 66.8244 88.9545 68.0177C88.3626 68.226 87.7292 68.3005 87.0751 68.4468C87.0429 68.5932 86.9922 68.7694 86.9692 68.948C86.4878 72.4137 84.7029 74.3587 81.49 74.8449C80.9764 74.9219 80.9235 75.1947 80.8774 75.6363C80.5619 78.7151 78.4752 80.9826 75.6286 81.377C75.3821 81.4117 75.138 81.4738 74.91 81.5184C74.5853 87.0061 69.5829 89.281 66.0821 87.2864C65.8933 87.1797 65.4419 87.3484 65.2507 87.5444C63.8642 88.9858 62.5238 90.4768 61.1442 91.9256C60.7803 92.3076 60.3381 92.6004 60.1078 92.7914C65.5893 98.738 70.868 104.464 76.1882 110.234C78.1643 108.096 80.2049 105.915 82.2109 103.7C83.2911 102.506 84.5831 101.837 86.1078 101.797C87.7131 101.757 89.3276 101.74 90.9236 101.894C93.7265 102.162 96.2277 101.779 98.0956 99.1548C98.8026 98.1624 99.9542 98.1996 100.673 98.9737C101.41 99.77 101.336 100.812 100.541 101.782C99.7999 102.687 99.1089 103.643 98.471 104.476C100.072 106.223 101.935 108.259 103.747 110.237C108.994 104.553 114.28 98.8298 119.503 93.171C117.744 91.2731 115.924 89.2984 114.045 87.2566ZM109.595 122.309C110.242 121.899 110.919 121.646 111.378 121.157C117.492 114.615 123.582 108.044 129.664 101.469C130.8 100.244 130.795 98.8496 129.692 97.6191C128.773 96.597 127.836 95.5923 126.887 94.6024C125.772 93.4414 124.466 93.4091 123.375 94.5801C117.232 101.179 111.099 107.791 104.977 114.412C103.925 115.551 103.929 116.972 104.957 118.128C105.91 119.2 106.87 120.272 107.895 121.264C108.34 121.691 108.95 121.921 109.595 122.309ZM80.6171 71.1708C82.0911 71.084 82.8972 70.568 83.3026 69.4814C83.7287 68.3352 83.5214 67.2833 82.713 66.4051C80.6678 64.1872 78.6226 61.9669 76.5498 59.7763C75.419 58.583 73.8828 58.588 72.8579 59.7143C71.8607 60.8108 71.8676 62.4432 72.9454 63.629C74.9768 65.8618 77.0174 68.0896 79.1109 70.2529C79.5923 70.7515 80.3062 70.9872 80.6171 71.1708ZM86.9254 64.7901C88.3626 64.6164 89.422 63.5794 89.5602 62.1182C89.6638 61.0217 89.3322 60.5181 88.4132 60.0616C84.8918 58.3101 82.2639 55.6035 80.7622 51.6838C80.631 51.3414 80.2878 50.9817 79.9677 50.8576C78.8622 50.4235 77.6645 50.937 77.0565 52.0038C76.4347 53.0978 76.5521 54.435 77.4457 55.4125C80.0068 58.2084 82.5748 60.9969 85.1889 63.7332C85.6495 64.217 86.3404 64.4452 86.9254 64.7901ZM77.5517 74.8747C77.3421 74.3463 77.2477 73.6988 76.9022 73.3093C75.2002 71.3817 73.4683 69.4764 71.6695 67.6555C70.7506 66.7251 69.2743 66.8913 68.3691 67.8241C67.4594 68.7619 67.2268 70.3596 68.0858 71.3643C69.7971 73.3664 71.5958 75.2865 73.4383 77.1472C74.1868 77.9038 75.2002 77.8691 76.1099 77.3556C76.9943 76.8544 77.4342 76.0184 77.5517 74.8747ZM67.0494 76.8743C66.1789 76.8916 65.3613 77.3332 64.8753 78.3206C64.3755 79.3402 64.4216 80.402 65.1033 81.2778C65.7804 82.1486 66.5451 82.9623 67.3604 83.6817C68.1872 84.4086 69.1729 84.4235 70.1011 83.8579C70.997 83.3096 71.4277 82.4339 71.3747 81.3125C71.301 79.7446 68.657 76.9437 67.0494 76.8743ZM83.8461 49.7016C84.8134 52.9391 86.8172 54.822 88.9821 56.2361C90.5413 54.5516 91.9808 52.9936 93.4248 51.4357C90.3663 50.9271 87.264 49.9893 83.8461 49.7016Z"/>
</mask>
<path d="M69.4815 125.995C67.6621 125.548 66.3355 124.308 65.1102 122.879C64.311 121.946 63.4404 121.085 62.6205 120.172C61.8375 119.304 61.7891 118.205 62.4662 117.436C63.171 116.635 64.2281 116.655 65.0595 117.53C66.2318 118.763 67.3719 120.034 68.5396 121.272C69.7902 122.596 71.0362 122.589 72.2983 121.254C73.1412 120.366 73.968 119.46 74.7995 118.56C76.1491 117.091 76.1191 115.915 74.7672 114.447C71.6718 111.083 68.6041 107.689 65.5087 104.325C62.7956 101.375 60.0664 98.4477 57.3349 95.5178C56.9295 95.0837 56.4988 94.6694 56.0497 94.2898C55.3634 93.7093 54.1381 93.7589 53.4126 94.4883C52.2565 95.6493 51.1256 96.8451 50.057 98.0979C49.1772 99.1324 49.297 100.499 50.2896 101.601C51.4918 102.933 52.7286 104.231 53.9401 105.553C54.4974 106.161 54.6632 106.883 54.327 107.684C54.0091 108.446 53.4242 108.847 52.6756 108.748C52.2542 108.691 51.782 108.453 51.4734 108.135C50.1399 106.768 48.8271 105.377 47.5673 103.933C45.4876 101.546 45.4761 97.897 47.542 95.493C48.636 94.2204 49.7691 92.9824 50.9575 91.8139C52.6204 90.1791 54.5757 89.7896 56.736 90.4668C57.0147 90.5537 57.4707 90.5735 57.6389 90.3949C59.4653 88.4747 61.2525 86.5074 63.0489 84.555C59.6057 80.6873 60.9508 75.2543 65.0572 73.4284C62.8485 69.3275 64.6749 64.6685 68.7975 63.4058C68.1895 59.3322 69.6911 56.5834 73.2287 55.2587C73.2748 54.1175 73.1711 52.9812 73.3922 51.9244C74.1339 48.3917 77.3145 46.3599 80.654 47.1215C80.981 47.1959 81.4325 47.0967 81.7042 46.8908C83.2151 45.7521 84.8733 45.9158 86.5224 46.2358C90.2488 46.9627 93.9638 47.764 97.6902 48.5008C98.3904 48.6398 99.1274 48.5554 99.8298 48.6844C103.289 49.3096 105.406 52.5198 104.855 56.2485C104.828 56.4321 104.818 56.6182 104.791 56.8861C106.408 57.3773 107.748 58.32 108.635 59.9078C109.526 61.5005 109.683 63.2172 109.307 64.996C112.981 66.3232 114.503 69.2556 113.907 73.2522C116.194 73.9543 117.787 75.49 118.391 78.013C118.99 80.5062 118.271 82.6547 116.567 84.5302C118.001 86.0782 119.399 87.5841 120.795 89.0875C120.938 89.2413 121.101 89.3777 121.219 89.5514C121.843 90.4644 122.49 90.6851 123.598 90.2733C125.544 89.5514 127.424 90.0749 128.96 91.5832C130.169 92.7715 131.334 94.0219 132.44 95.3219C134.533 97.7853 134.536 101.447 132.352 103.826C126.125 110.611 119.865 117.362 113.573 124.077C111.297 126.506 107.808 126.422 105.496 124.015C104.461 122.939 103.437 121.852 102.446 120.728C100.693 118.739 100.251 116.431 101.193 113.874C101.38 113.368 101.274 113.102 100.954 112.762C98.8694 110.539 96.8058 108.294 94.7169 106.074C94.5165 105.86 94.1941 105.669 93.9223 105.657C92.0867 105.575 90.2511 105.538 88.4155 105.501C87.7568 105.486 87.0705 105.394 86.4418 105.545C85.8038 105.699 85.0944 105.97 84.6338 106.439C82.6715 108.441 80.7991 110.542 78.8714 112.586C78.5144 112.966 78.443 113.239 78.6756 113.764C79.7558 116.206 79.3435 118.848 77.607 120.815C76.5959 121.959 75.6194 123.167 74.477 124.139C73.5581 124.921 72.4134 125.392 71.3678 126C70.746 125.995 70.1149 125.995 69.4815 125.995ZM114.045 87.2566C113.623 87.6908 113.232 88.1497 112.785 88.5343C111.958 89.2463 110.869 89.0627 110.286 88.1621C109.775 87.3732 109.874 86.4379 110.599 85.6391C111.866 84.2449 113.181 82.9003 114.422 81.4787C115.397 80.3648 115.344 78.7275 114.397 77.6979C113.432 76.6485 111.972 76.584 110.892 77.5788C110.392 78.0403 109.947 78.5761 109.473 79.0698C108.568 80.015 107.561 80.0944 106.813 79.2857C106.087 78.4992 106.168 77.363 107.034 76.4128C107.981 75.3734 108.966 74.3761 109.881 73.3043C110.832 72.1855 110.786 70.5481 109.848 69.5186C108.867 68.4419 107.37 68.4022 106.281 69.459C105.747 69.975 105.258 70.5481 104.745 71.0889C103.823 72.0639 102.757 72.1557 102.02 71.3321C101.299 70.5258 101.389 69.4317 102.271 68.4617C103.298 67.3354 104.369 66.2513 105.357 65.0853C106.338 63.9267 106.244 62.272 105.228 61.2425C104.24 60.2452 102.762 60.2551 101.718 61.2946C101.17 61.8403 100.666 62.4382 100.127 62.9964C99.2748 63.8771 98.243 63.9466 97.5221 63.1874C96.7759 62.401 96.8381 61.2573 97.6994 60.3146C98.6875 59.233 99.6916 58.1687 100.687 57.0945C101.29 56.442 101.592 55.6581 101.47 54.7377C101.331 53.6709 100.793 52.8994 99.8529 52.5148C98.8395 52.103 97.9113 52.3437 97.149 53.145C95.6658 54.7005 94.2286 56.3081 92.7431 57.8611C92.3424 58.2803 92.2433 58.5805 92.5036 59.1908C94.0029 62.7086 92.3331 66.8244 88.9545 68.0177C88.3626 68.226 87.7292 68.3005 87.0751 68.4468C87.0429 68.5932 86.9922 68.7694 86.9692 68.948C86.4878 72.4137 84.7029 74.3587 81.49 74.8449C80.9764 74.9219 80.9235 75.1947 80.8774 75.6363C80.5619 78.7151 78.4752 80.9826 75.6286 81.377C75.3821 81.4117 75.138 81.4738 74.91 81.5184C74.5853 87.0061 69.5829 89.281 66.0821 87.2864C65.8933 87.1797 65.4419 87.3484 65.2507 87.5444C63.8642 88.9858 62.5238 90.4768 61.1442 91.9256C60.7803 92.3076 60.3381 92.6004 60.1078 92.7914C65.5893 98.738 70.868 104.464 76.1882 110.234C78.1643 108.096 80.2049 105.915 82.2109 103.7C83.2911 102.506 84.5831 101.837 86.1078 101.797C87.7131 101.757 89.3276 101.74 90.9236 101.894C93.7265 102.162 96.2277 101.779 98.0956 99.1548C98.8026 98.1624 99.9542 98.1996 100.673 98.9737C101.41 99.77 101.336 100.812 100.541 101.782C99.7999 102.687 99.1089 103.643 98.471 104.476C100.072 106.223 101.935 108.259 103.747 110.237C108.994 104.553 114.28 98.8298 119.503 93.171C117.744 91.2731 115.924 89.2984 114.045 87.2566ZM109.595 122.309C110.242 121.899 110.919 121.646 111.378 121.157C117.492 114.615 123.582 108.044 129.664 101.469C130.8 100.244 130.795 98.8496 129.692 97.6191C128.773 96.597 127.836 95.5923 126.887 94.6024C125.772 93.4414 124.466 93.4091 123.375 94.5801C117.232 101.179 111.099 107.791 104.977 114.412C103.925 115.551 103.929 116.972 104.957 118.128C105.91 119.2 106.87 120.272 107.895 121.264C108.34 121.691 108.95 121.921 109.595 122.309ZM80.6171 71.1708C82.0911 71.084 82.8972 70.568 83.3026 69.4814C83.7287 68.3352 83.5214 67.2833 82.713 66.4051C80.6678 64.1872 78.6226 61.9669 76.5498 59.7763C75.419 58.583 73.8828 58.588 72.8579 59.7143C71.8607 60.8108 71.8676 62.4432 72.9454 63.629C74.9768 65.8618 77.0174 68.0896 79.1109 70.2529C79.5923 70.7515 80.3062 70.9872 80.6171 71.1708ZM86.9254 64.7901C88.3626 64.6164 89.422 63.5794 89.5602 62.1182C89.6638 61.0217 89.3322 60.5181 88.4132 60.0616C84.8918 58.3101 82.2639 55.6035 80.7622 51.6838C80.631 51.3414 80.2878 50.9817 79.9677 50.8576C78.8622 50.4235 77.6645 50.937 77.0565 52.0038C76.4347 53.0978 76.5521 54.435 77.4457 55.4125C80.0068 58.2084 82.5748 60.9969 85.1889 63.7332C85.6495 64.217 86.3404 64.4452 86.9254 64.7901ZM77.5517 74.8747C77.3421 74.3463 77.2477 73.6988 76.9022 73.3093C75.2002 71.3817 73.4683 69.4764 71.6695 67.6555C70.7506 66.7251 69.2743 66.8913 68.3691 67.8241C67.4594 68.7619 67.2268 70.3596 68.0858 71.3643C69.7971 73.3664 71.5958 75.2865 73.4383 77.1472C74.1868 77.9038 75.2002 77.8691 76.1099 77.3556C76.9943 76.8544 77.4342 76.0184 77.5517 74.8747ZM67.0494 76.8743C66.1789 76.8916 65.3613 77.3332 64.8753 78.3206C64.3755 79.3402 64.4216 80.402 65.1033 81.2778C65.7804 82.1486 66.5451 82.9623 67.3604 83.6817C68.1872 84.4086 69.1729 84.4235 70.1011 83.8579C70.997 83.3096 71.4277 82.4339 71.3747 81.3125C71.301 79.7446 68.657 76.9437 67.0494 76.8743ZM83.8461 49.7016C84.8134 52.9391 86.8172 54.822 88.9821 56.2361C90.5413 54.5516 91.9808 52.9936 93.4248 51.4357C90.3663 50.9271 87.264 49.9893 83.8461 49.7016Z" fill="white" stroke="#FFC700" stroke-width="0.8" mask="url(#path-3-inside-1_4623_28627)"/>
<defs>
<filter id="filter0_d_4623_28627" x="0" y="0" width="180" height="180" filterUnits="userSpaceOnUse" color-interpolation-filters="sRGB">
<feFlood flood-opacity="0" result="BackgroundImageFix"/>
<feColorMatrix in="SourceAlpha" type="matrix" values="0 0 0 0 0 0 0 0 0 0 0 0 0 0 0 0 0 0 127 0" result="hardAlpha"/>
<feOffset dy="4"/>
<feGaussianBlur stdDeviation="10"/>
<feComposite in2="hardAlpha" operator="out"/>
<feColorMatrix type="matrix" values="0 0 0 0 0 0 0 0 0 0 0 0 0 0 0 0 0 0 0.08 0"/>
<feBlend mode="normal" in2="BackgroundImageFix" result="effect1_dropShadow_4623_28627"/>
<feBlend mode="normal" in="SourceGraphic" in2="effect1_dropShadow_4623_28627" result="shape"/>
</filter>
</defs>
</svg>
