<svg width="21" height="20" viewBox="0 0 21 20" fill="none" xmlns="http://www.w3.org/2000/svg">
<path d="M3.10281 7.51926C3.57372 5.69228 4.55245 4.07804 5.89872 2.9079C7.245 1.73777 8.8897 1.07181 10.5971 1.00548C12.3045 0.939155 13.987 1.47586 15.4033 2.53866C16.8197 3.60147 17.8973 5.13583 18.4816 6.92182M18.3331 13.4987C17.7246 15.1033 16.7106 16.477 15.4142 17.4532C14.1177 18.4294 12.5945 18.9662 11.0293 18.9985C9.46412 19.0307 7.92412 18.5571 6.59607 17.635C5.26802 16.7129 4.20898 15.382 3.54738 13.8036M5.3295 12.9349L3.02209 13.3156L1.91138 15.5975M16.4932 7.72988L18.8007 7.34923L19.9114 5.06727" stroke="#82D051" stroke-width="2" stroke-linecap="round" stroke-linejoin="round"/>
</svg>
